G75*
%MOIN*%
%OFA0B0*%
%FSLAX25Y25*%
%IPPOS*%
%LPD*%
%AMOC8*
5,1,8,0,0,1.08239X$1,22.5*
%
%ADD10C,0.00000*%
D10*
X0001406Y0008882D02*
X0001406Y0382898D01*
X0111643Y0382898D01*
X0111643Y0268725D01*
X0178572Y0268725D01*
X0178572Y0008882D01*
X0001406Y0008882D01*
X0055435Y0142051D02*
X0055437Y0142170D01*
X0055443Y0142288D01*
X0055453Y0142406D01*
X0055467Y0142524D01*
X0055484Y0142641D01*
X0055506Y0142758D01*
X0055532Y0142874D01*
X0055561Y0142989D01*
X0055594Y0143103D01*
X0055631Y0143215D01*
X0055672Y0143327D01*
X0055717Y0143437D01*
X0055765Y0143545D01*
X0055817Y0143652D01*
X0055872Y0143757D01*
X0055931Y0143860D01*
X0055993Y0143961D01*
X0056058Y0144060D01*
X0056127Y0144157D01*
X0056199Y0144251D01*
X0056274Y0144343D01*
X0056352Y0144432D01*
X0056433Y0144519D01*
X0056517Y0144603D01*
X0056604Y0144684D01*
X0056693Y0144762D01*
X0056785Y0144837D01*
X0056879Y0144909D01*
X0056976Y0144978D01*
X0057075Y0145043D01*
X0057176Y0145105D01*
X0057279Y0145164D01*
X0057384Y0145219D01*
X0057491Y0145271D01*
X0057599Y0145319D01*
X0057709Y0145364D01*
X0057821Y0145405D01*
X0057933Y0145442D01*
X0058047Y0145475D01*
X0058162Y0145504D01*
X0058278Y0145530D01*
X0058395Y0145552D01*
X0058512Y0145569D01*
X0058630Y0145583D01*
X0058748Y0145593D01*
X0058866Y0145599D01*
X0058985Y0145601D01*
X0059104Y0145599D01*
X0059222Y0145593D01*
X0059340Y0145583D01*
X0059458Y0145569D01*
X0059575Y0145552D01*
X0059692Y0145530D01*
X0059808Y0145504D01*
X0059923Y0145475D01*
X0060037Y0145442D01*
X0060149Y0145405D01*
X0060261Y0145364D01*
X0060371Y0145319D01*
X0060479Y0145271D01*
X0060586Y0145219D01*
X0060691Y0145164D01*
X0060794Y0145105D01*
X0060895Y0145043D01*
X0060994Y0144978D01*
X0061091Y0144909D01*
X0061185Y0144837D01*
X0061277Y0144762D01*
X0061366Y0144684D01*
X0061453Y0144603D01*
X0061537Y0144519D01*
X0061618Y0144432D01*
X0061696Y0144343D01*
X0061771Y0144251D01*
X0061843Y0144157D01*
X0061912Y0144060D01*
X0061977Y0143961D01*
X0062039Y0143860D01*
X0062098Y0143757D01*
X0062153Y0143652D01*
X0062205Y0143545D01*
X0062253Y0143437D01*
X0062298Y0143327D01*
X0062339Y0143215D01*
X0062376Y0143103D01*
X0062409Y0142989D01*
X0062438Y0142874D01*
X0062464Y0142758D01*
X0062486Y0142641D01*
X0062503Y0142524D01*
X0062517Y0142406D01*
X0062527Y0142288D01*
X0062533Y0142170D01*
X0062535Y0142051D01*
X0062533Y0141932D01*
X0062527Y0141814D01*
X0062517Y0141696D01*
X0062503Y0141578D01*
X0062486Y0141461D01*
X0062464Y0141344D01*
X0062438Y0141228D01*
X0062409Y0141113D01*
X0062376Y0140999D01*
X0062339Y0140887D01*
X0062298Y0140775D01*
X0062253Y0140665D01*
X0062205Y0140557D01*
X0062153Y0140450D01*
X0062098Y0140345D01*
X0062039Y0140242D01*
X0061977Y0140141D01*
X0061912Y0140042D01*
X0061843Y0139945D01*
X0061771Y0139851D01*
X0061696Y0139759D01*
X0061618Y0139670D01*
X0061537Y0139583D01*
X0061453Y0139499D01*
X0061366Y0139418D01*
X0061277Y0139340D01*
X0061185Y0139265D01*
X0061091Y0139193D01*
X0060994Y0139124D01*
X0060895Y0139059D01*
X0060794Y0138997D01*
X0060691Y0138938D01*
X0060586Y0138883D01*
X0060479Y0138831D01*
X0060371Y0138783D01*
X0060261Y0138738D01*
X0060149Y0138697D01*
X0060037Y0138660D01*
X0059923Y0138627D01*
X0059808Y0138598D01*
X0059692Y0138572D01*
X0059575Y0138550D01*
X0059458Y0138533D01*
X0059340Y0138519D01*
X0059222Y0138509D01*
X0059104Y0138503D01*
X0058985Y0138501D01*
X0058866Y0138503D01*
X0058748Y0138509D01*
X0058630Y0138519D01*
X0058512Y0138533D01*
X0058395Y0138550D01*
X0058278Y0138572D01*
X0058162Y0138598D01*
X0058047Y0138627D01*
X0057933Y0138660D01*
X0057821Y0138697D01*
X0057709Y0138738D01*
X0057599Y0138783D01*
X0057491Y0138831D01*
X0057384Y0138883D01*
X0057279Y0138938D01*
X0057176Y0138997D01*
X0057075Y0139059D01*
X0056976Y0139124D01*
X0056879Y0139193D01*
X0056785Y0139265D01*
X0056693Y0139340D01*
X0056604Y0139418D01*
X0056517Y0139499D01*
X0056433Y0139583D01*
X0056352Y0139670D01*
X0056274Y0139759D01*
X0056199Y0139851D01*
X0056127Y0139945D01*
X0056058Y0140042D01*
X0055993Y0140141D01*
X0055931Y0140242D01*
X0055872Y0140345D01*
X0055817Y0140450D01*
X0055765Y0140557D01*
X0055717Y0140665D01*
X0055672Y0140775D01*
X0055631Y0140887D01*
X0055594Y0140999D01*
X0055561Y0141113D01*
X0055532Y0141228D01*
X0055506Y0141344D01*
X0055484Y0141461D01*
X0055467Y0141578D01*
X0055453Y0141696D01*
X0055443Y0141814D01*
X0055437Y0141932D01*
X0055435Y0142051D01*
X0080435Y0167051D02*
X0080437Y0167170D01*
X0080443Y0167288D01*
X0080453Y0167406D01*
X0080467Y0167524D01*
X0080484Y0167641D01*
X0080506Y0167758D01*
X0080532Y0167874D01*
X0080561Y0167989D01*
X0080594Y0168103D01*
X0080631Y0168215D01*
X0080672Y0168327D01*
X0080717Y0168437D01*
X0080765Y0168545D01*
X0080817Y0168652D01*
X0080872Y0168757D01*
X0080931Y0168860D01*
X0080993Y0168961D01*
X0081058Y0169060D01*
X0081127Y0169157D01*
X0081199Y0169251D01*
X0081274Y0169343D01*
X0081352Y0169432D01*
X0081433Y0169519D01*
X0081517Y0169603D01*
X0081604Y0169684D01*
X0081693Y0169762D01*
X0081785Y0169837D01*
X0081879Y0169909D01*
X0081976Y0169978D01*
X0082075Y0170043D01*
X0082176Y0170105D01*
X0082279Y0170164D01*
X0082384Y0170219D01*
X0082491Y0170271D01*
X0082599Y0170319D01*
X0082709Y0170364D01*
X0082821Y0170405D01*
X0082933Y0170442D01*
X0083047Y0170475D01*
X0083162Y0170504D01*
X0083278Y0170530D01*
X0083395Y0170552D01*
X0083512Y0170569D01*
X0083630Y0170583D01*
X0083748Y0170593D01*
X0083866Y0170599D01*
X0083985Y0170601D01*
X0084104Y0170599D01*
X0084222Y0170593D01*
X0084340Y0170583D01*
X0084458Y0170569D01*
X0084575Y0170552D01*
X0084692Y0170530D01*
X0084808Y0170504D01*
X0084923Y0170475D01*
X0085037Y0170442D01*
X0085149Y0170405D01*
X0085261Y0170364D01*
X0085371Y0170319D01*
X0085479Y0170271D01*
X0085586Y0170219D01*
X0085691Y0170164D01*
X0085794Y0170105D01*
X0085895Y0170043D01*
X0085994Y0169978D01*
X0086091Y0169909D01*
X0086185Y0169837D01*
X0086277Y0169762D01*
X0086366Y0169684D01*
X0086453Y0169603D01*
X0086537Y0169519D01*
X0086618Y0169432D01*
X0086696Y0169343D01*
X0086771Y0169251D01*
X0086843Y0169157D01*
X0086912Y0169060D01*
X0086977Y0168961D01*
X0087039Y0168860D01*
X0087098Y0168757D01*
X0087153Y0168652D01*
X0087205Y0168545D01*
X0087253Y0168437D01*
X0087298Y0168327D01*
X0087339Y0168215D01*
X0087376Y0168103D01*
X0087409Y0167989D01*
X0087438Y0167874D01*
X0087464Y0167758D01*
X0087486Y0167641D01*
X0087503Y0167524D01*
X0087517Y0167406D01*
X0087527Y0167288D01*
X0087533Y0167170D01*
X0087535Y0167051D01*
X0087533Y0166932D01*
X0087527Y0166814D01*
X0087517Y0166696D01*
X0087503Y0166578D01*
X0087486Y0166461D01*
X0087464Y0166344D01*
X0087438Y0166228D01*
X0087409Y0166113D01*
X0087376Y0165999D01*
X0087339Y0165887D01*
X0087298Y0165775D01*
X0087253Y0165665D01*
X0087205Y0165557D01*
X0087153Y0165450D01*
X0087098Y0165345D01*
X0087039Y0165242D01*
X0086977Y0165141D01*
X0086912Y0165042D01*
X0086843Y0164945D01*
X0086771Y0164851D01*
X0086696Y0164759D01*
X0086618Y0164670D01*
X0086537Y0164583D01*
X0086453Y0164499D01*
X0086366Y0164418D01*
X0086277Y0164340D01*
X0086185Y0164265D01*
X0086091Y0164193D01*
X0085994Y0164124D01*
X0085895Y0164059D01*
X0085794Y0163997D01*
X0085691Y0163938D01*
X0085586Y0163883D01*
X0085479Y0163831D01*
X0085371Y0163783D01*
X0085261Y0163738D01*
X0085149Y0163697D01*
X0085037Y0163660D01*
X0084923Y0163627D01*
X0084808Y0163598D01*
X0084692Y0163572D01*
X0084575Y0163550D01*
X0084458Y0163533D01*
X0084340Y0163519D01*
X0084222Y0163509D01*
X0084104Y0163503D01*
X0083985Y0163501D01*
X0083866Y0163503D01*
X0083748Y0163509D01*
X0083630Y0163519D01*
X0083512Y0163533D01*
X0083395Y0163550D01*
X0083278Y0163572D01*
X0083162Y0163598D01*
X0083047Y0163627D01*
X0082933Y0163660D01*
X0082821Y0163697D01*
X0082709Y0163738D01*
X0082599Y0163783D01*
X0082491Y0163831D01*
X0082384Y0163883D01*
X0082279Y0163938D01*
X0082176Y0163997D01*
X0082075Y0164059D01*
X0081976Y0164124D01*
X0081879Y0164193D01*
X0081785Y0164265D01*
X0081693Y0164340D01*
X0081604Y0164418D01*
X0081517Y0164499D01*
X0081433Y0164583D01*
X0081352Y0164670D01*
X0081274Y0164759D01*
X0081199Y0164851D01*
X0081127Y0164945D01*
X0081058Y0165042D01*
X0080993Y0165141D01*
X0080931Y0165242D01*
X0080872Y0165345D01*
X0080817Y0165450D01*
X0080765Y0165557D01*
X0080717Y0165665D01*
X0080672Y0165775D01*
X0080631Y0165887D01*
X0080594Y0165999D01*
X0080561Y0166113D01*
X0080532Y0166228D01*
X0080506Y0166344D01*
X0080484Y0166461D01*
X0080467Y0166578D01*
X0080453Y0166696D01*
X0080443Y0166814D01*
X0080437Y0166932D01*
X0080435Y0167051D01*
X0088021Y0262425D02*
X0088023Y0262543D01*
X0088029Y0262662D01*
X0088039Y0262780D01*
X0088053Y0262897D01*
X0088070Y0263014D01*
X0088092Y0263131D01*
X0088118Y0263246D01*
X0088147Y0263361D01*
X0088180Y0263475D01*
X0088217Y0263587D01*
X0088258Y0263698D01*
X0088302Y0263808D01*
X0088350Y0263916D01*
X0088402Y0264023D01*
X0088457Y0264128D01*
X0088516Y0264231D01*
X0088578Y0264331D01*
X0088643Y0264430D01*
X0088712Y0264527D01*
X0088783Y0264621D01*
X0088858Y0264712D01*
X0088936Y0264802D01*
X0089017Y0264888D01*
X0089101Y0264972D01*
X0089187Y0265053D01*
X0089277Y0265131D01*
X0089368Y0265206D01*
X0089462Y0265277D01*
X0089559Y0265346D01*
X0089658Y0265411D01*
X0089758Y0265473D01*
X0089861Y0265532D01*
X0089966Y0265587D01*
X0090073Y0265639D01*
X0090181Y0265687D01*
X0090291Y0265731D01*
X0090402Y0265772D01*
X0090514Y0265809D01*
X0090628Y0265842D01*
X0090743Y0265871D01*
X0090858Y0265897D01*
X0090975Y0265919D01*
X0091092Y0265936D01*
X0091209Y0265950D01*
X0091327Y0265960D01*
X0091446Y0265966D01*
X0091564Y0265968D01*
X0091682Y0265966D01*
X0091801Y0265960D01*
X0091919Y0265950D01*
X0092036Y0265936D01*
X0092153Y0265919D01*
X0092270Y0265897D01*
X0092385Y0265871D01*
X0092500Y0265842D01*
X0092614Y0265809D01*
X0092726Y0265772D01*
X0092837Y0265731D01*
X0092947Y0265687D01*
X0093055Y0265639D01*
X0093162Y0265587D01*
X0093267Y0265532D01*
X0093370Y0265473D01*
X0093470Y0265411D01*
X0093569Y0265346D01*
X0093666Y0265277D01*
X0093760Y0265206D01*
X0093851Y0265131D01*
X0093941Y0265053D01*
X0094027Y0264972D01*
X0094111Y0264888D01*
X0094192Y0264802D01*
X0094270Y0264712D01*
X0094345Y0264621D01*
X0094416Y0264527D01*
X0094485Y0264430D01*
X0094550Y0264331D01*
X0094612Y0264231D01*
X0094671Y0264128D01*
X0094726Y0264023D01*
X0094778Y0263916D01*
X0094826Y0263808D01*
X0094870Y0263698D01*
X0094911Y0263587D01*
X0094948Y0263475D01*
X0094981Y0263361D01*
X0095010Y0263246D01*
X0095036Y0263131D01*
X0095058Y0263014D01*
X0095075Y0262897D01*
X0095089Y0262780D01*
X0095099Y0262662D01*
X0095105Y0262543D01*
X0095107Y0262425D01*
X0095105Y0262307D01*
X0095099Y0262188D01*
X0095089Y0262070D01*
X0095075Y0261953D01*
X0095058Y0261836D01*
X0095036Y0261719D01*
X0095010Y0261604D01*
X0094981Y0261489D01*
X0094948Y0261375D01*
X0094911Y0261263D01*
X0094870Y0261152D01*
X0094826Y0261042D01*
X0094778Y0260934D01*
X0094726Y0260827D01*
X0094671Y0260722D01*
X0094612Y0260619D01*
X0094550Y0260519D01*
X0094485Y0260420D01*
X0094416Y0260323D01*
X0094345Y0260229D01*
X0094270Y0260138D01*
X0094192Y0260048D01*
X0094111Y0259962D01*
X0094027Y0259878D01*
X0093941Y0259797D01*
X0093851Y0259719D01*
X0093760Y0259644D01*
X0093666Y0259573D01*
X0093569Y0259504D01*
X0093470Y0259439D01*
X0093370Y0259377D01*
X0093267Y0259318D01*
X0093162Y0259263D01*
X0093055Y0259211D01*
X0092947Y0259163D01*
X0092837Y0259119D01*
X0092726Y0259078D01*
X0092614Y0259041D01*
X0092500Y0259008D01*
X0092385Y0258979D01*
X0092270Y0258953D01*
X0092153Y0258931D01*
X0092036Y0258914D01*
X0091919Y0258900D01*
X0091801Y0258890D01*
X0091682Y0258884D01*
X0091564Y0258882D01*
X0091446Y0258884D01*
X0091327Y0258890D01*
X0091209Y0258900D01*
X0091092Y0258914D01*
X0090975Y0258931D01*
X0090858Y0258953D01*
X0090743Y0258979D01*
X0090628Y0259008D01*
X0090514Y0259041D01*
X0090402Y0259078D01*
X0090291Y0259119D01*
X0090181Y0259163D01*
X0090073Y0259211D01*
X0089966Y0259263D01*
X0089861Y0259318D01*
X0089758Y0259377D01*
X0089658Y0259439D01*
X0089559Y0259504D01*
X0089462Y0259573D01*
X0089368Y0259644D01*
X0089277Y0259719D01*
X0089187Y0259797D01*
X0089101Y0259878D01*
X0089017Y0259962D01*
X0088936Y0260048D01*
X0088858Y0260138D01*
X0088783Y0260229D01*
X0088712Y0260323D01*
X0088643Y0260420D01*
X0088578Y0260519D01*
X0088516Y0260619D01*
X0088457Y0260722D01*
X0088402Y0260827D01*
X0088350Y0260934D01*
X0088302Y0261042D01*
X0088258Y0261152D01*
X0088217Y0261263D01*
X0088180Y0261375D01*
X0088147Y0261489D01*
X0088118Y0261604D01*
X0088092Y0261719D01*
X0088070Y0261836D01*
X0088053Y0261953D01*
X0088039Y0262070D01*
X0088029Y0262188D01*
X0088023Y0262307D01*
X0088021Y0262425D01*
X0044319Y0264394D02*
X0044322Y0264636D01*
X0044331Y0264877D01*
X0044346Y0265118D01*
X0044366Y0265359D01*
X0044393Y0265599D01*
X0044426Y0265838D01*
X0044464Y0266077D01*
X0044508Y0266314D01*
X0044558Y0266551D01*
X0044614Y0266786D01*
X0044676Y0267019D01*
X0044743Y0267251D01*
X0044816Y0267482D01*
X0044894Y0267710D01*
X0044979Y0267936D01*
X0045068Y0268161D01*
X0045163Y0268383D01*
X0045264Y0268602D01*
X0045370Y0268820D01*
X0045481Y0269034D01*
X0045598Y0269246D01*
X0045719Y0269454D01*
X0045846Y0269660D01*
X0045978Y0269862D01*
X0046115Y0270062D01*
X0046256Y0270257D01*
X0046402Y0270450D01*
X0046553Y0270638D01*
X0046709Y0270823D01*
X0046869Y0271004D01*
X0047033Y0271181D01*
X0047202Y0271354D01*
X0047375Y0271523D01*
X0047552Y0271687D01*
X0047733Y0271847D01*
X0047918Y0272003D01*
X0048106Y0272154D01*
X0048299Y0272300D01*
X0048494Y0272441D01*
X0048694Y0272578D01*
X0048896Y0272710D01*
X0049102Y0272837D01*
X0049310Y0272958D01*
X0049522Y0273075D01*
X0049736Y0273186D01*
X0049954Y0273292D01*
X0050173Y0273393D01*
X0050395Y0273488D01*
X0050620Y0273577D01*
X0050846Y0273662D01*
X0051074Y0273740D01*
X0051305Y0273813D01*
X0051537Y0273880D01*
X0051770Y0273942D01*
X0052005Y0273998D01*
X0052242Y0274048D01*
X0052479Y0274092D01*
X0052718Y0274130D01*
X0052957Y0274163D01*
X0053197Y0274190D01*
X0053438Y0274210D01*
X0053679Y0274225D01*
X0053920Y0274234D01*
X0054162Y0274237D01*
X0054404Y0274234D01*
X0054645Y0274225D01*
X0054886Y0274210D01*
X0055127Y0274190D01*
X0055367Y0274163D01*
X0055606Y0274130D01*
X0055845Y0274092D01*
X0056082Y0274048D01*
X0056319Y0273998D01*
X0056554Y0273942D01*
X0056787Y0273880D01*
X0057019Y0273813D01*
X0057250Y0273740D01*
X0057478Y0273662D01*
X0057704Y0273577D01*
X0057929Y0273488D01*
X0058151Y0273393D01*
X0058370Y0273292D01*
X0058588Y0273186D01*
X0058802Y0273075D01*
X0059014Y0272958D01*
X0059222Y0272837D01*
X0059428Y0272710D01*
X0059630Y0272578D01*
X0059830Y0272441D01*
X0060025Y0272300D01*
X0060218Y0272154D01*
X0060406Y0272003D01*
X0060591Y0271847D01*
X0060772Y0271687D01*
X0060949Y0271523D01*
X0061122Y0271354D01*
X0061291Y0271181D01*
X0061455Y0271004D01*
X0061615Y0270823D01*
X0061771Y0270638D01*
X0061922Y0270450D01*
X0062068Y0270257D01*
X0062209Y0270062D01*
X0062346Y0269862D01*
X0062478Y0269660D01*
X0062605Y0269454D01*
X0062726Y0269246D01*
X0062843Y0269034D01*
X0062954Y0268820D01*
X0063060Y0268602D01*
X0063161Y0268383D01*
X0063256Y0268161D01*
X0063345Y0267936D01*
X0063430Y0267710D01*
X0063508Y0267482D01*
X0063581Y0267251D01*
X0063648Y0267019D01*
X0063710Y0266786D01*
X0063766Y0266551D01*
X0063816Y0266314D01*
X0063860Y0266077D01*
X0063898Y0265838D01*
X0063931Y0265599D01*
X0063958Y0265359D01*
X0063978Y0265118D01*
X0063993Y0264877D01*
X0064002Y0264636D01*
X0064005Y0264394D01*
X0064002Y0264152D01*
X0063993Y0263911D01*
X0063978Y0263670D01*
X0063958Y0263429D01*
X0063931Y0263189D01*
X0063898Y0262950D01*
X0063860Y0262711D01*
X0063816Y0262474D01*
X0063766Y0262237D01*
X0063710Y0262002D01*
X0063648Y0261769D01*
X0063581Y0261537D01*
X0063508Y0261306D01*
X0063430Y0261078D01*
X0063345Y0260852D01*
X0063256Y0260627D01*
X0063161Y0260405D01*
X0063060Y0260186D01*
X0062954Y0259968D01*
X0062843Y0259754D01*
X0062726Y0259542D01*
X0062605Y0259334D01*
X0062478Y0259128D01*
X0062346Y0258926D01*
X0062209Y0258726D01*
X0062068Y0258531D01*
X0061922Y0258338D01*
X0061771Y0258150D01*
X0061615Y0257965D01*
X0061455Y0257784D01*
X0061291Y0257607D01*
X0061122Y0257434D01*
X0060949Y0257265D01*
X0060772Y0257101D01*
X0060591Y0256941D01*
X0060406Y0256785D01*
X0060218Y0256634D01*
X0060025Y0256488D01*
X0059830Y0256347D01*
X0059630Y0256210D01*
X0059428Y0256078D01*
X0059222Y0255951D01*
X0059014Y0255830D01*
X0058802Y0255713D01*
X0058588Y0255602D01*
X0058370Y0255496D01*
X0058151Y0255395D01*
X0057929Y0255300D01*
X0057704Y0255211D01*
X0057478Y0255126D01*
X0057250Y0255048D01*
X0057019Y0254975D01*
X0056787Y0254908D01*
X0056554Y0254846D01*
X0056319Y0254790D01*
X0056082Y0254740D01*
X0055845Y0254696D01*
X0055606Y0254658D01*
X0055367Y0254625D01*
X0055127Y0254598D01*
X0054886Y0254578D01*
X0054645Y0254563D01*
X0054404Y0254554D01*
X0054162Y0254551D01*
X0053920Y0254554D01*
X0053679Y0254563D01*
X0053438Y0254578D01*
X0053197Y0254598D01*
X0052957Y0254625D01*
X0052718Y0254658D01*
X0052479Y0254696D01*
X0052242Y0254740D01*
X0052005Y0254790D01*
X0051770Y0254846D01*
X0051537Y0254908D01*
X0051305Y0254975D01*
X0051074Y0255048D01*
X0050846Y0255126D01*
X0050620Y0255211D01*
X0050395Y0255300D01*
X0050173Y0255395D01*
X0049954Y0255496D01*
X0049736Y0255602D01*
X0049522Y0255713D01*
X0049310Y0255830D01*
X0049102Y0255951D01*
X0048896Y0256078D01*
X0048694Y0256210D01*
X0048494Y0256347D01*
X0048299Y0256488D01*
X0048106Y0256634D01*
X0047918Y0256785D01*
X0047733Y0256941D01*
X0047552Y0257101D01*
X0047375Y0257265D01*
X0047202Y0257434D01*
X0047033Y0257607D01*
X0046869Y0257784D01*
X0046709Y0257965D01*
X0046553Y0258150D01*
X0046402Y0258338D01*
X0046256Y0258531D01*
X0046115Y0258726D01*
X0045978Y0258926D01*
X0045846Y0259128D01*
X0045719Y0259334D01*
X0045598Y0259542D01*
X0045481Y0259754D01*
X0045370Y0259968D01*
X0045264Y0260186D01*
X0045163Y0260405D01*
X0045068Y0260627D01*
X0044979Y0260852D01*
X0044894Y0261078D01*
X0044816Y0261306D01*
X0044743Y0261537D01*
X0044676Y0261769D01*
X0044614Y0262002D01*
X0044558Y0262237D01*
X0044508Y0262474D01*
X0044464Y0262711D01*
X0044426Y0262950D01*
X0044393Y0263189D01*
X0044366Y0263429D01*
X0044346Y0263670D01*
X0044331Y0263911D01*
X0044322Y0264152D01*
X0044319Y0264394D01*
X0044319Y0371087D02*
X0044322Y0371329D01*
X0044331Y0371570D01*
X0044346Y0371811D01*
X0044366Y0372052D01*
X0044393Y0372292D01*
X0044426Y0372531D01*
X0044464Y0372770D01*
X0044508Y0373007D01*
X0044558Y0373244D01*
X0044614Y0373479D01*
X0044676Y0373712D01*
X0044743Y0373944D01*
X0044816Y0374175D01*
X0044894Y0374403D01*
X0044979Y0374629D01*
X0045068Y0374854D01*
X0045163Y0375076D01*
X0045264Y0375295D01*
X0045370Y0375513D01*
X0045481Y0375727D01*
X0045598Y0375939D01*
X0045719Y0376147D01*
X0045846Y0376353D01*
X0045978Y0376555D01*
X0046115Y0376755D01*
X0046256Y0376950D01*
X0046402Y0377143D01*
X0046553Y0377331D01*
X0046709Y0377516D01*
X0046869Y0377697D01*
X0047033Y0377874D01*
X0047202Y0378047D01*
X0047375Y0378216D01*
X0047552Y0378380D01*
X0047733Y0378540D01*
X0047918Y0378696D01*
X0048106Y0378847D01*
X0048299Y0378993D01*
X0048494Y0379134D01*
X0048694Y0379271D01*
X0048896Y0379403D01*
X0049102Y0379530D01*
X0049310Y0379651D01*
X0049522Y0379768D01*
X0049736Y0379879D01*
X0049954Y0379985D01*
X0050173Y0380086D01*
X0050395Y0380181D01*
X0050620Y0380270D01*
X0050846Y0380355D01*
X0051074Y0380433D01*
X0051305Y0380506D01*
X0051537Y0380573D01*
X0051770Y0380635D01*
X0052005Y0380691D01*
X0052242Y0380741D01*
X0052479Y0380785D01*
X0052718Y0380823D01*
X0052957Y0380856D01*
X0053197Y0380883D01*
X0053438Y0380903D01*
X0053679Y0380918D01*
X0053920Y0380927D01*
X0054162Y0380930D01*
X0054404Y0380927D01*
X0054645Y0380918D01*
X0054886Y0380903D01*
X0055127Y0380883D01*
X0055367Y0380856D01*
X0055606Y0380823D01*
X0055845Y0380785D01*
X0056082Y0380741D01*
X0056319Y0380691D01*
X0056554Y0380635D01*
X0056787Y0380573D01*
X0057019Y0380506D01*
X0057250Y0380433D01*
X0057478Y0380355D01*
X0057704Y0380270D01*
X0057929Y0380181D01*
X0058151Y0380086D01*
X0058370Y0379985D01*
X0058588Y0379879D01*
X0058802Y0379768D01*
X0059014Y0379651D01*
X0059222Y0379530D01*
X0059428Y0379403D01*
X0059630Y0379271D01*
X0059830Y0379134D01*
X0060025Y0378993D01*
X0060218Y0378847D01*
X0060406Y0378696D01*
X0060591Y0378540D01*
X0060772Y0378380D01*
X0060949Y0378216D01*
X0061122Y0378047D01*
X0061291Y0377874D01*
X0061455Y0377697D01*
X0061615Y0377516D01*
X0061771Y0377331D01*
X0061922Y0377143D01*
X0062068Y0376950D01*
X0062209Y0376755D01*
X0062346Y0376555D01*
X0062478Y0376353D01*
X0062605Y0376147D01*
X0062726Y0375939D01*
X0062843Y0375727D01*
X0062954Y0375513D01*
X0063060Y0375295D01*
X0063161Y0375076D01*
X0063256Y0374854D01*
X0063345Y0374629D01*
X0063430Y0374403D01*
X0063508Y0374175D01*
X0063581Y0373944D01*
X0063648Y0373712D01*
X0063710Y0373479D01*
X0063766Y0373244D01*
X0063816Y0373007D01*
X0063860Y0372770D01*
X0063898Y0372531D01*
X0063931Y0372292D01*
X0063958Y0372052D01*
X0063978Y0371811D01*
X0063993Y0371570D01*
X0064002Y0371329D01*
X0064005Y0371087D01*
X0064002Y0370845D01*
X0063993Y0370604D01*
X0063978Y0370363D01*
X0063958Y0370122D01*
X0063931Y0369882D01*
X0063898Y0369643D01*
X0063860Y0369404D01*
X0063816Y0369167D01*
X0063766Y0368930D01*
X0063710Y0368695D01*
X0063648Y0368462D01*
X0063581Y0368230D01*
X0063508Y0367999D01*
X0063430Y0367771D01*
X0063345Y0367545D01*
X0063256Y0367320D01*
X0063161Y0367098D01*
X0063060Y0366879D01*
X0062954Y0366661D01*
X0062843Y0366447D01*
X0062726Y0366235D01*
X0062605Y0366027D01*
X0062478Y0365821D01*
X0062346Y0365619D01*
X0062209Y0365419D01*
X0062068Y0365224D01*
X0061922Y0365031D01*
X0061771Y0364843D01*
X0061615Y0364658D01*
X0061455Y0364477D01*
X0061291Y0364300D01*
X0061122Y0364127D01*
X0060949Y0363958D01*
X0060772Y0363794D01*
X0060591Y0363634D01*
X0060406Y0363478D01*
X0060218Y0363327D01*
X0060025Y0363181D01*
X0059830Y0363040D01*
X0059630Y0362903D01*
X0059428Y0362771D01*
X0059222Y0362644D01*
X0059014Y0362523D01*
X0058802Y0362406D01*
X0058588Y0362295D01*
X0058370Y0362189D01*
X0058151Y0362088D01*
X0057929Y0361993D01*
X0057704Y0361904D01*
X0057478Y0361819D01*
X0057250Y0361741D01*
X0057019Y0361668D01*
X0056787Y0361601D01*
X0056554Y0361539D01*
X0056319Y0361483D01*
X0056082Y0361433D01*
X0055845Y0361389D01*
X0055606Y0361351D01*
X0055367Y0361318D01*
X0055127Y0361291D01*
X0054886Y0361271D01*
X0054645Y0361256D01*
X0054404Y0361247D01*
X0054162Y0361244D01*
X0053920Y0361247D01*
X0053679Y0361256D01*
X0053438Y0361271D01*
X0053197Y0361291D01*
X0052957Y0361318D01*
X0052718Y0361351D01*
X0052479Y0361389D01*
X0052242Y0361433D01*
X0052005Y0361483D01*
X0051770Y0361539D01*
X0051537Y0361601D01*
X0051305Y0361668D01*
X0051074Y0361741D01*
X0050846Y0361819D01*
X0050620Y0361904D01*
X0050395Y0361993D01*
X0050173Y0362088D01*
X0049954Y0362189D01*
X0049736Y0362295D01*
X0049522Y0362406D01*
X0049310Y0362523D01*
X0049102Y0362644D01*
X0048896Y0362771D01*
X0048694Y0362903D01*
X0048494Y0363040D01*
X0048299Y0363181D01*
X0048106Y0363327D01*
X0047918Y0363478D01*
X0047733Y0363634D01*
X0047552Y0363794D01*
X0047375Y0363958D01*
X0047202Y0364127D01*
X0047033Y0364300D01*
X0046869Y0364477D01*
X0046709Y0364658D01*
X0046553Y0364843D01*
X0046402Y0365031D01*
X0046256Y0365224D01*
X0046115Y0365419D01*
X0045978Y0365619D01*
X0045846Y0365821D01*
X0045719Y0366027D01*
X0045598Y0366235D01*
X0045481Y0366447D01*
X0045370Y0366661D01*
X0045264Y0366879D01*
X0045163Y0367098D01*
X0045068Y0367320D01*
X0044979Y0367545D01*
X0044894Y0367771D01*
X0044816Y0367999D01*
X0044743Y0368230D01*
X0044676Y0368462D01*
X0044614Y0368695D01*
X0044558Y0368930D01*
X0044508Y0369167D01*
X0044464Y0369404D01*
X0044426Y0369643D01*
X0044393Y0369882D01*
X0044366Y0370122D01*
X0044346Y0370363D01*
X0044331Y0370604D01*
X0044322Y0370845D01*
X0044319Y0371087D01*
X0088021Y0373449D02*
X0088023Y0373567D01*
X0088029Y0373686D01*
X0088039Y0373804D01*
X0088053Y0373921D01*
X0088070Y0374038D01*
X0088092Y0374155D01*
X0088118Y0374270D01*
X0088147Y0374385D01*
X0088180Y0374499D01*
X0088217Y0374611D01*
X0088258Y0374722D01*
X0088302Y0374832D01*
X0088350Y0374940D01*
X0088402Y0375047D01*
X0088457Y0375152D01*
X0088516Y0375255D01*
X0088578Y0375355D01*
X0088643Y0375454D01*
X0088712Y0375551D01*
X0088783Y0375645D01*
X0088858Y0375736D01*
X0088936Y0375826D01*
X0089017Y0375912D01*
X0089101Y0375996D01*
X0089187Y0376077D01*
X0089277Y0376155D01*
X0089368Y0376230D01*
X0089462Y0376301D01*
X0089559Y0376370D01*
X0089658Y0376435D01*
X0089758Y0376497D01*
X0089861Y0376556D01*
X0089966Y0376611D01*
X0090073Y0376663D01*
X0090181Y0376711D01*
X0090291Y0376755D01*
X0090402Y0376796D01*
X0090514Y0376833D01*
X0090628Y0376866D01*
X0090743Y0376895D01*
X0090858Y0376921D01*
X0090975Y0376943D01*
X0091092Y0376960D01*
X0091209Y0376974D01*
X0091327Y0376984D01*
X0091446Y0376990D01*
X0091564Y0376992D01*
X0091682Y0376990D01*
X0091801Y0376984D01*
X0091919Y0376974D01*
X0092036Y0376960D01*
X0092153Y0376943D01*
X0092270Y0376921D01*
X0092385Y0376895D01*
X0092500Y0376866D01*
X0092614Y0376833D01*
X0092726Y0376796D01*
X0092837Y0376755D01*
X0092947Y0376711D01*
X0093055Y0376663D01*
X0093162Y0376611D01*
X0093267Y0376556D01*
X0093370Y0376497D01*
X0093470Y0376435D01*
X0093569Y0376370D01*
X0093666Y0376301D01*
X0093760Y0376230D01*
X0093851Y0376155D01*
X0093941Y0376077D01*
X0094027Y0375996D01*
X0094111Y0375912D01*
X0094192Y0375826D01*
X0094270Y0375736D01*
X0094345Y0375645D01*
X0094416Y0375551D01*
X0094485Y0375454D01*
X0094550Y0375355D01*
X0094612Y0375255D01*
X0094671Y0375152D01*
X0094726Y0375047D01*
X0094778Y0374940D01*
X0094826Y0374832D01*
X0094870Y0374722D01*
X0094911Y0374611D01*
X0094948Y0374499D01*
X0094981Y0374385D01*
X0095010Y0374270D01*
X0095036Y0374155D01*
X0095058Y0374038D01*
X0095075Y0373921D01*
X0095089Y0373804D01*
X0095099Y0373686D01*
X0095105Y0373567D01*
X0095107Y0373449D01*
X0095105Y0373331D01*
X0095099Y0373212D01*
X0095089Y0373094D01*
X0095075Y0372977D01*
X0095058Y0372860D01*
X0095036Y0372743D01*
X0095010Y0372628D01*
X0094981Y0372513D01*
X0094948Y0372399D01*
X0094911Y0372287D01*
X0094870Y0372176D01*
X0094826Y0372066D01*
X0094778Y0371958D01*
X0094726Y0371851D01*
X0094671Y0371746D01*
X0094612Y0371643D01*
X0094550Y0371543D01*
X0094485Y0371444D01*
X0094416Y0371347D01*
X0094345Y0371253D01*
X0094270Y0371162D01*
X0094192Y0371072D01*
X0094111Y0370986D01*
X0094027Y0370902D01*
X0093941Y0370821D01*
X0093851Y0370743D01*
X0093760Y0370668D01*
X0093666Y0370597D01*
X0093569Y0370528D01*
X0093470Y0370463D01*
X0093370Y0370401D01*
X0093267Y0370342D01*
X0093162Y0370287D01*
X0093055Y0370235D01*
X0092947Y0370187D01*
X0092837Y0370143D01*
X0092726Y0370102D01*
X0092614Y0370065D01*
X0092500Y0370032D01*
X0092385Y0370003D01*
X0092270Y0369977D01*
X0092153Y0369955D01*
X0092036Y0369938D01*
X0091919Y0369924D01*
X0091801Y0369914D01*
X0091682Y0369908D01*
X0091564Y0369906D01*
X0091446Y0369908D01*
X0091327Y0369914D01*
X0091209Y0369924D01*
X0091092Y0369938D01*
X0090975Y0369955D01*
X0090858Y0369977D01*
X0090743Y0370003D01*
X0090628Y0370032D01*
X0090514Y0370065D01*
X0090402Y0370102D01*
X0090291Y0370143D01*
X0090181Y0370187D01*
X0090073Y0370235D01*
X0089966Y0370287D01*
X0089861Y0370342D01*
X0089758Y0370401D01*
X0089658Y0370463D01*
X0089559Y0370528D01*
X0089462Y0370597D01*
X0089368Y0370668D01*
X0089277Y0370743D01*
X0089187Y0370821D01*
X0089101Y0370902D01*
X0089017Y0370986D01*
X0088936Y0371072D01*
X0088858Y0371162D01*
X0088783Y0371253D01*
X0088712Y0371347D01*
X0088643Y0371444D01*
X0088578Y0371543D01*
X0088516Y0371643D01*
X0088457Y0371746D01*
X0088402Y0371851D01*
X0088350Y0371958D01*
X0088302Y0372066D01*
X0088258Y0372176D01*
X0088217Y0372287D01*
X0088180Y0372399D01*
X0088147Y0372513D01*
X0088118Y0372628D01*
X0088092Y0372743D01*
X0088070Y0372860D01*
X0088053Y0372977D01*
X0088039Y0373094D01*
X0088029Y0373212D01*
X0088023Y0373331D01*
X0088021Y0373449D01*
M02*
