G75*
%MOIN*%
%OFA0B0*%
%FSLAX25Y25*%
%IPPOS*%
%LPD*%
%AMOC8*
5,1,8,0,0,1.08239X$1,22.5*
%
%ADD10C,0.00000*%
%ADD11C,0.01600*%
%ADD12C,0.10000*%
%ADD13C,0.07677*%
%ADD14R,0.09449X0.09449*%
%ADD15OC8,0.10000*%
%ADD16R,0.05118X0.06299*%
%ADD17R,0.04600X0.06300*%
%ADD18C,0.01000*%
%ADD19C,0.06000*%
%ADD20C,0.05150*%
%ADD21R,0.04724X0.11811*%
%ADD22R,0.05937X0.05937*%
%ADD23C,0.05937*%
%ADD24R,0.10000X0.05000*%
%ADD25R,0.06500X0.03937*%
%ADD26R,0.06000X0.03000*%
%ADD27C,0.02800*%
%ADD28C,0.04000*%
D10*
X0103374Y0079753D02*
X0103377Y0079995D01*
X0103386Y0080236D01*
X0103401Y0080477D01*
X0103421Y0080718D01*
X0103448Y0080958D01*
X0103481Y0081197D01*
X0103519Y0081436D01*
X0103563Y0081673D01*
X0103613Y0081910D01*
X0103669Y0082145D01*
X0103731Y0082378D01*
X0103798Y0082610D01*
X0103871Y0082841D01*
X0103949Y0083069D01*
X0104034Y0083295D01*
X0104123Y0083520D01*
X0104218Y0083742D01*
X0104319Y0083961D01*
X0104425Y0084179D01*
X0104536Y0084393D01*
X0104653Y0084605D01*
X0104774Y0084813D01*
X0104901Y0085019D01*
X0105033Y0085221D01*
X0105170Y0085421D01*
X0105311Y0085616D01*
X0105457Y0085809D01*
X0105608Y0085997D01*
X0105764Y0086182D01*
X0105924Y0086363D01*
X0106088Y0086540D01*
X0106257Y0086713D01*
X0106430Y0086882D01*
X0106607Y0087046D01*
X0106788Y0087206D01*
X0106973Y0087362D01*
X0107161Y0087513D01*
X0107354Y0087659D01*
X0107549Y0087800D01*
X0107749Y0087937D01*
X0107951Y0088069D01*
X0108157Y0088196D01*
X0108365Y0088317D01*
X0108577Y0088434D01*
X0108791Y0088545D01*
X0109009Y0088651D01*
X0109228Y0088752D01*
X0109450Y0088847D01*
X0109675Y0088936D01*
X0109901Y0089021D01*
X0110129Y0089099D01*
X0110360Y0089172D01*
X0110592Y0089239D01*
X0110825Y0089301D01*
X0111060Y0089357D01*
X0111297Y0089407D01*
X0111534Y0089451D01*
X0111773Y0089489D01*
X0112012Y0089522D01*
X0112252Y0089549D01*
X0112493Y0089569D01*
X0112734Y0089584D01*
X0112975Y0089593D01*
X0113217Y0089596D01*
X0113459Y0089593D01*
X0113700Y0089584D01*
X0113941Y0089569D01*
X0114182Y0089549D01*
X0114422Y0089522D01*
X0114661Y0089489D01*
X0114900Y0089451D01*
X0115137Y0089407D01*
X0115374Y0089357D01*
X0115609Y0089301D01*
X0115842Y0089239D01*
X0116074Y0089172D01*
X0116305Y0089099D01*
X0116533Y0089021D01*
X0116759Y0088936D01*
X0116984Y0088847D01*
X0117206Y0088752D01*
X0117425Y0088651D01*
X0117643Y0088545D01*
X0117857Y0088434D01*
X0118069Y0088317D01*
X0118277Y0088196D01*
X0118483Y0088069D01*
X0118685Y0087937D01*
X0118885Y0087800D01*
X0119080Y0087659D01*
X0119273Y0087513D01*
X0119461Y0087362D01*
X0119646Y0087206D01*
X0119827Y0087046D01*
X0120004Y0086882D01*
X0120177Y0086713D01*
X0120346Y0086540D01*
X0120510Y0086363D01*
X0120670Y0086182D01*
X0120826Y0085997D01*
X0120977Y0085809D01*
X0121123Y0085616D01*
X0121264Y0085421D01*
X0121401Y0085221D01*
X0121533Y0085019D01*
X0121660Y0084813D01*
X0121781Y0084605D01*
X0121898Y0084393D01*
X0122009Y0084179D01*
X0122115Y0083961D01*
X0122216Y0083742D01*
X0122311Y0083520D01*
X0122400Y0083295D01*
X0122485Y0083069D01*
X0122563Y0082841D01*
X0122636Y0082610D01*
X0122703Y0082378D01*
X0122765Y0082145D01*
X0122821Y0081910D01*
X0122871Y0081673D01*
X0122915Y0081436D01*
X0122953Y0081197D01*
X0122986Y0080958D01*
X0123013Y0080718D01*
X0123033Y0080477D01*
X0123048Y0080236D01*
X0123057Y0079995D01*
X0123060Y0079753D01*
X0123057Y0079511D01*
X0123048Y0079270D01*
X0123033Y0079029D01*
X0123013Y0078788D01*
X0122986Y0078548D01*
X0122953Y0078309D01*
X0122915Y0078070D01*
X0122871Y0077833D01*
X0122821Y0077596D01*
X0122765Y0077361D01*
X0122703Y0077128D01*
X0122636Y0076896D01*
X0122563Y0076665D01*
X0122485Y0076437D01*
X0122400Y0076211D01*
X0122311Y0075986D01*
X0122216Y0075764D01*
X0122115Y0075545D01*
X0122009Y0075327D01*
X0121898Y0075113D01*
X0121781Y0074901D01*
X0121660Y0074693D01*
X0121533Y0074487D01*
X0121401Y0074285D01*
X0121264Y0074085D01*
X0121123Y0073890D01*
X0120977Y0073697D01*
X0120826Y0073509D01*
X0120670Y0073324D01*
X0120510Y0073143D01*
X0120346Y0072966D01*
X0120177Y0072793D01*
X0120004Y0072624D01*
X0119827Y0072460D01*
X0119646Y0072300D01*
X0119461Y0072144D01*
X0119273Y0071993D01*
X0119080Y0071847D01*
X0118885Y0071706D01*
X0118685Y0071569D01*
X0118483Y0071437D01*
X0118277Y0071310D01*
X0118069Y0071189D01*
X0117857Y0071072D01*
X0117643Y0070961D01*
X0117425Y0070855D01*
X0117206Y0070754D01*
X0116984Y0070659D01*
X0116759Y0070570D01*
X0116533Y0070485D01*
X0116305Y0070407D01*
X0116074Y0070334D01*
X0115842Y0070267D01*
X0115609Y0070205D01*
X0115374Y0070149D01*
X0115137Y0070099D01*
X0114900Y0070055D01*
X0114661Y0070017D01*
X0114422Y0069984D01*
X0114182Y0069957D01*
X0113941Y0069937D01*
X0113700Y0069922D01*
X0113459Y0069913D01*
X0113217Y0069910D01*
X0112975Y0069913D01*
X0112734Y0069922D01*
X0112493Y0069937D01*
X0112252Y0069957D01*
X0112012Y0069984D01*
X0111773Y0070017D01*
X0111534Y0070055D01*
X0111297Y0070099D01*
X0111060Y0070149D01*
X0110825Y0070205D01*
X0110592Y0070267D01*
X0110360Y0070334D01*
X0110129Y0070407D01*
X0109901Y0070485D01*
X0109675Y0070570D01*
X0109450Y0070659D01*
X0109228Y0070754D01*
X0109009Y0070855D01*
X0108791Y0070961D01*
X0108577Y0071072D01*
X0108365Y0071189D01*
X0108157Y0071310D01*
X0107951Y0071437D01*
X0107749Y0071569D01*
X0107549Y0071706D01*
X0107354Y0071847D01*
X0107161Y0071993D01*
X0106973Y0072144D01*
X0106788Y0072300D01*
X0106607Y0072460D01*
X0106430Y0072624D01*
X0106257Y0072793D01*
X0106088Y0072966D01*
X0105924Y0073143D01*
X0105764Y0073324D01*
X0105608Y0073509D01*
X0105457Y0073697D01*
X0105311Y0073890D01*
X0105170Y0074085D01*
X0105033Y0074285D01*
X0104901Y0074487D01*
X0104774Y0074693D01*
X0104653Y0074901D01*
X0104536Y0075113D01*
X0104425Y0075327D01*
X0104319Y0075545D01*
X0104218Y0075764D01*
X0104123Y0075986D01*
X0104034Y0076211D01*
X0103949Y0076437D01*
X0103871Y0076665D01*
X0103798Y0076896D01*
X0103731Y0077128D01*
X0103669Y0077361D01*
X0103613Y0077596D01*
X0103563Y0077833D01*
X0103519Y0078070D01*
X0103481Y0078309D01*
X0103448Y0078548D01*
X0103421Y0078788D01*
X0103401Y0079029D01*
X0103386Y0079270D01*
X0103377Y0079511D01*
X0103374Y0079753D01*
X0147076Y0077784D02*
X0147078Y0077902D01*
X0147084Y0078021D01*
X0147094Y0078139D01*
X0147108Y0078256D01*
X0147125Y0078373D01*
X0147147Y0078490D01*
X0147173Y0078605D01*
X0147202Y0078720D01*
X0147235Y0078834D01*
X0147272Y0078946D01*
X0147313Y0079057D01*
X0147357Y0079167D01*
X0147405Y0079275D01*
X0147457Y0079382D01*
X0147512Y0079487D01*
X0147571Y0079590D01*
X0147633Y0079690D01*
X0147698Y0079789D01*
X0147767Y0079886D01*
X0147838Y0079980D01*
X0147913Y0080071D01*
X0147991Y0080161D01*
X0148072Y0080247D01*
X0148156Y0080331D01*
X0148242Y0080412D01*
X0148332Y0080490D01*
X0148423Y0080565D01*
X0148517Y0080636D01*
X0148614Y0080705D01*
X0148713Y0080770D01*
X0148813Y0080832D01*
X0148916Y0080891D01*
X0149021Y0080946D01*
X0149128Y0080998D01*
X0149236Y0081046D01*
X0149346Y0081090D01*
X0149457Y0081131D01*
X0149569Y0081168D01*
X0149683Y0081201D01*
X0149798Y0081230D01*
X0149913Y0081256D01*
X0150030Y0081278D01*
X0150147Y0081295D01*
X0150264Y0081309D01*
X0150382Y0081319D01*
X0150501Y0081325D01*
X0150619Y0081327D01*
X0150737Y0081325D01*
X0150856Y0081319D01*
X0150974Y0081309D01*
X0151091Y0081295D01*
X0151208Y0081278D01*
X0151325Y0081256D01*
X0151440Y0081230D01*
X0151555Y0081201D01*
X0151669Y0081168D01*
X0151781Y0081131D01*
X0151892Y0081090D01*
X0152002Y0081046D01*
X0152110Y0080998D01*
X0152217Y0080946D01*
X0152322Y0080891D01*
X0152425Y0080832D01*
X0152525Y0080770D01*
X0152624Y0080705D01*
X0152721Y0080636D01*
X0152815Y0080565D01*
X0152906Y0080490D01*
X0152996Y0080412D01*
X0153082Y0080331D01*
X0153166Y0080247D01*
X0153247Y0080161D01*
X0153325Y0080071D01*
X0153400Y0079980D01*
X0153471Y0079886D01*
X0153540Y0079789D01*
X0153605Y0079690D01*
X0153667Y0079590D01*
X0153726Y0079487D01*
X0153781Y0079382D01*
X0153833Y0079275D01*
X0153881Y0079167D01*
X0153925Y0079057D01*
X0153966Y0078946D01*
X0154003Y0078834D01*
X0154036Y0078720D01*
X0154065Y0078605D01*
X0154091Y0078490D01*
X0154113Y0078373D01*
X0154130Y0078256D01*
X0154144Y0078139D01*
X0154154Y0078021D01*
X0154160Y0077902D01*
X0154162Y0077784D01*
X0154160Y0077666D01*
X0154154Y0077547D01*
X0154144Y0077429D01*
X0154130Y0077312D01*
X0154113Y0077195D01*
X0154091Y0077078D01*
X0154065Y0076963D01*
X0154036Y0076848D01*
X0154003Y0076734D01*
X0153966Y0076622D01*
X0153925Y0076511D01*
X0153881Y0076401D01*
X0153833Y0076293D01*
X0153781Y0076186D01*
X0153726Y0076081D01*
X0153667Y0075978D01*
X0153605Y0075878D01*
X0153540Y0075779D01*
X0153471Y0075682D01*
X0153400Y0075588D01*
X0153325Y0075497D01*
X0153247Y0075407D01*
X0153166Y0075321D01*
X0153082Y0075237D01*
X0152996Y0075156D01*
X0152906Y0075078D01*
X0152815Y0075003D01*
X0152721Y0074932D01*
X0152624Y0074863D01*
X0152525Y0074798D01*
X0152425Y0074736D01*
X0152322Y0074677D01*
X0152217Y0074622D01*
X0152110Y0074570D01*
X0152002Y0074522D01*
X0151892Y0074478D01*
X0151781Y0074437D01*
X0151669Y0074400D01*
X0151555Y0074367D01*
X0151440Y0074338D01*
X0151325Y0074312D01*
X0151208Y0074290D01*
X0151091Y0074273D01*
X0150974Y0074259D01*
X0150856Y0074249D01*
X0150737Y0074243D01*
X0150619Y0074241D01*
X0150501Y0074243D01*
X0150382Y0074249D01*
X0150264Y0074259D01*
X0150147Y0074273D01*
X0150030Y0074290D01*
X0149913Y0074312D01*
X0149798Y0074338D01*
X0149683Y0074367D01*
X0149569Y0074400D01*
X0149457Y0074437D01*
X0149346Y0074478D01*
X0149236Y0074522D01*
X0149128Y0074570D01*
X0149021Y0074622D01*
X0148916Y0074677D01*
X0148813Y0074736D01*
X0148713Y0074798D01*
X0148614Y0074863D01*
X0148517Y0074932D01*
X0148423Y0075003D01*
X0148332Y0075078D01*
X0148242Y0075156D01*
X0148156Y0075237D01*
X0148072Y0075321D01*
X0147991Y0075407D01*
X0147913Y0075497D01*
X0147838Y0075588D01*
X0147767Y0075682D01*
X0147698Y0075779D01*
X0147633Y0075878D01*
X0147571Y0075978D01*
X0147512Y0076081D01*
X0147457Y0076186D01*
X0147405Y0076293D01*
X0147357Y0076401D01*
X0147313Y0076511D01*
X0147272Y0076622D01*
X0147235Y0076734D01*
X0147202Y0076848D01*
X0147173Y0076963D01*
X0147147Y0077078D01*
X0147125Y0077195D01*
X0147108Y0077312D01*
X0147094Y0077429D01*
X0147084Y0077547D01*
X0147078Y0077666D01*
X0147076Y0077784D01*
X0103374Y0186446D02*
X0103377Y0186688D01*
X0103386Y0186929D01*
X0103401Y0187170D01*
X0103421Y0187411D01*
X0103448Y0187651D01*
X0103481Y0187890D01*
X0103519Y0188129D01*
X0103563Y0188366D01*
X0103613Y0188603D01*
X0103669Y0188838D01*
X0103731Y0189071D01*
X0103798Y0189303D01*
X0103871Y0189534D01*
X0103949Y0189762D01*
X0104034Y0189988D01*
X0104123Y0190213D01*
X0104218Y0190435D01*
X0104319Y0190654D01*
X0104425Y0190872D01*
X0104536Y0191086D01*
X0104653Y0191298D01*
X0104774Y0191506D01*
X0104901Y0191712D01*
X0105033Y0191914D01*
X0105170Y0192114D01*
X0105311Y0192309D01*
X0105457Y0192502D01*
X0105608Y0192690D01*
X0105764Y0192875D01*
X0105924Y0193056D01*
X0106088Y0193233D01*
X0106257Y0193406D01*
X0106430Y0193575D01*
X0106607Y0193739D01*
X0106788Y0193899D01*
X0106973Y0194055D01*
X0107161Y0194206D01*
X0107354Y0194352D01*
X0107549Y0194493D01*
X0107749Y0194630D01*
X0107951Y0194762D01*
X0108157Y0194889D01*
X0108365Y0195010D01*
X0108577Y0195127D01*
X0108791Y0195238D01*
X0109009Y0195344D01*
X0109228Y0195445D01*
X0109450Y0195540D01*
X0109675Y0195629D01*
X0109901Y0195714D01*
X0110129Y0195792D01*
X0110360Y0195865D01*
X0110592Y0195932D01*
X0110825Y0195994D01*
X0111060Y0196050D01*
X0111297Y0196100D01*
X0111534Y0196144D01*
X0111773Y0196182D01*
X0112012Y0196215D01*
X0112252Y0196242D01*
X0112493Y0196262D01*
X0112734Y0196277D01*
X0112975Y0196286D01*
X0113217Y0196289D01*
X0113459Y0196286D01*
X0113700Y0196277D01*
X0113941Y0196262D01*
X0114182Y0196242D01*
X0114422Y0196215D01*
X0114661Y0196182D01*
X0114900Y0196144D01*
X0115137Y0196100D01*
X0115374Y0196050D01*
X0115609Y0195994D01*
X0115842Y0195932D01*
X0116074Y0195865D01*
X0116305Y0195792D01*
X0116533Y0195714D01*
X0116759Y0195629D01*
X0116984Y0195540D01*
X0117206Y0195445D01*
X0117425Y0195344D01*
X0117643Y0195238D01*
X0117857Y0195127D01*
X0118069Y0195010D01*
X0118277Y0194889D01*
X0118483Y0194762D01*
X0118685Y0194630D01*
X0118885Y0194493D01*
X0119080Y0194352D01*
X0119273Y0194206D01*
X0119461Y0194055D01*
X0119646Y0193899D01*
X0119827Y0193739D01*
X0120004Y0193575D01*
X0120177Y0193406D01*
X0120346Y0193233D01*
X0120510Y0193056D01*
X0120670Y0192875D01*
X0120826Y0192690D01*
X0120977Y0192502D01*
X0121123Y0192309D01*
X0121264Y0192114D01*
X0121401Y0191914D01*
X0121533Y0191712D01*
X0121660Y0191506D01*
X0121781Y0191298D01*
X0121898Y0191086D01*
X0122009Y0190872D01*
X0122115Y0190654D01*
X0122216Y0190435D01*
X0122311Y0190213D01*
X0122400Y0189988D01*
X0122485Y0189762D01*
X0122563Y0189534D01*
X0122636Y0189303D01*
X0122703Y0189071D01*
X0122765Y0188838D01*
X0122821Y0188603D01*
X0122871Y0188366D01*
X0122915Y0188129D01*
X0122953Y0187890D01*
X0122986Y0187651D01*
X0123013Y0187411D01*
X0123033Y0187170D01*
X0123048Y0186929D01*
X0123057Y0186688D01*
X0123060Y0186446D01*
X0123057Y0186204D01*
X0123048Y0185963D01*
X0123033Y0185722D01*
X0123013Y0185481D01*
X0122986Y0185241D01*
X0122953Y0185002D01*
X0122915Y0184763D01*
X0122871Y0184526D01*
X0122821Y0184289D01*
X0122765Y0184054D01*
X0122703Y0183821D01*
X0122636Y0183589D01*
X0122563Y0183358D01*
X0122485Y0183130D01*
X0122400Y0182904D01*
X0122311Y0182679D01*
X0122216Y0182457D01*
X0122115Y0182238D01*
X0122009Y0182020D01*
X0121898Y0181806D01*
X0121781Y0181594D01*
X0121660Y0181386D01*
X0121533Y0181180D01*
X0121401Y0180978D01*
X0121264Y0180778D01*
X0121123Y0180583D01*
X0120977Y0180390D01*
X0120826Y0180202D01*
X0120670Y0180017D01*
X0120510Y0179836D01*
X0120346Y0179659D01*
X0120177Y0179486D01*
X0120004Y0179317D01*
X0119827Y0179153D01*
X0119646Y0178993D01*
X0119461Y0178837D01*
X0119273Y0178686D01*
X0119080Y0178540D01*
X0118885Y0178399D01*
X0118685Y0178262D01*
X0118483Y0178130D01*
X0118277Y0178003D01*
X0118069Y0177882D01*
X0117857Y0177765D01*
X0117643Y0177654D01*
X0117425Y0177548D01*
X0117206Y0177447D01*
X0116984Y0177352D01*
X0116759Y0177263D01*
X0116533Y0177178D01*
X0116305Y0177100D01*
X0116074Y0177027D01*
X0115842Y0176960D01*
X0115609Y0176898D01*
X0115374Y0176842D01*
X0115137Y0176792D01*
X0114900Y0176748D01*
X0114661Y0176710D01*
X0114422Y0176677D01*
X0114182Y0176650D01*
X0113941Y0176630D01*
X0113700Y0176615D01*
X0113459Y0176606D01*
X0113217Y0176603D01*
X0112975Y0176606D01*
X0112734Y0176615D01*
X0112493Y0176630D01*
X0112252Y0176650D01*
X0112012Y0176677D01*
X0111773Y0176710D01*
X0111534Y0176748D01*
X0111297Y0176792D01*
X0111060Y0176842D01*
X0110825Y0176898D01*
X0110592Y0176960D01*
X0110360Y0177027D01*
X0110129Y0177100D01*
X0109901Y0177178D01*
X0109675Y0177263D01*
X0109450Y0177352D01*
X0109228Y0177447D01*
X0109009Y0177548D01*
X0108791Y0177654D01*
X0108577Y0177765D01*
X0108365Y0177882D01*
X0108157Y0178003D01*
X0107951Y0178130D01*
X0107749Y0178262D01*
X0107549Y0178399D01*
X0107354Y0178540D01*
X0107161Y0178686D01*
X0106973Y0178837D01*
X0106788Y0178993D01*
X0106607Y0179153D01*
X0106430Y0179317D01*
X0106257Y0179486D01*
X0106088Y0179659D01*
X0105924Y0179836D01*
X0105764Y0180017D01*
X0105608Y0180202D01*
X0105457Y0180390D01*
X0105311Y0180583D01*
X0105170Y0180778D01*
X0105033Y0180978D01*
X0104901Y0181180D01*
X0104774Y0181386D01*
X0104653Y0181594D01*
X0104536Y0181806D01*
X0104425Y0182020D01*
X0104319Y0182238D01*
X0104218Y0182457D01*
X0104123Y0182679D01*
X0104034Y0182904D01*
X0103949Y0183130D01*
X0103871Y0183358D01*
X0103798Y0183589D01*
X0103731Y0183821D01*
X0103669Y0184054D01*
X0103613Y0184289D01*
X0103563Y0184526D01*
X0103519Y0184763D01*
X0103481Y0185002D01*
X0103448Y0185241D01*
X0103421Y0185481D01*
X0103401Y0185722D01*
X0103386Y0185963D01*
X0103377Y0186204D01*
X0103374Y0186446D01*
X0147076Y0188808D02*
X0147078Y0188926D01*
X0147084Y0189045D01*
X0147094Y0189163D01*
X0147108Y0189280D01*
X0147125Y0189397D01*
X0147147Y0189514D01*
X0147173Y0189629D01*
X0147202Y0189744D01*
X0147235Y0189858D01*
X0147272Y0189970D01*
X0147313Y0190081D01*
X0147357Y0190191D01*
X0147405Y0190299D01*
X0147457Y0190406D01*
X0147512Y0190511D01*
X0147571Y0190614D01*
X0147633Y0190714D01*
X0147698Y0190813D01*
X0147767Y0190910D01*
X0147838Y0191004D01*
X0147913Y0191095D01*
X0147991Y0191185D01*
X0148072Y0191271D01*
X0148156Y0191355D01*
X0148242Y0191436D01*
X0148332Y0191514D01*
X0148423Y0191589D01*
X0148517Y0191660D01*
X0148614Y0191729D01*
X0148713Y0191794D01*
X0148813Y0191856D01*
X0148916Y0191915D01*
X0149021Y0191970D01*
X0149128Y0192022D01*
X0149236Y0192070D01*
X0149346Y0192114D01*
X0149457Y0192155D01*
X0149569Y0192192D01*
X0149683Y0192225D01*
X0149798Y0192254D01*
X0149913Y0192280D01*
X0150030Y0192302D01*
X0150147Y0192319D01*
X0150264Y0192333D01*
X0150382Y0192343D01*
X0150501Y0192349D01*
X0150619Y0192351D01*
X0150737Y0192349D01*
X0150856Y0192343D01*
X0150974Y0192333D01*
X0151091Y0192319D01*
X0151208Y0192302D01*
X0151325Y0192280D01*
X0151440Y0192254D01*
X0151555Y0192225D01*
X0151669Y0192192D01*
X0151781Y0192155D01*
X0151892Y0192114D01*
X0152002Y0192070D01*
X0152110Y0192022D01*
X0152217Y0191970D01*
X0152322Y0191915D01*
X0152425Y0191856D01*
X0152525Y0191794D01*
X0152624Y0191729D01*
X0152721Y0191660D01*
X0152815Y0191589D01*
X0152906Y0191514D01*
X0152996Y0191436D01*
X0153082Y0191355D01*
X0153166Y0191271D01*
X0153247Y0191185D01*
X0153325Y0191095D01*
X0153400Y0191004D01*
X0153471Y0190910D01*
X0153540Y0190813D01*
X0153605Y0190714D01*
X0153667Y0190614D01*
X0153726Y0190511D01*
X0153781Y0190406D01*
X0153833Y0190299D01*
X0153881Y0190191D01*
X0153925Y0190081D01*
X0153966Y0189970D01*
X0154003Y0189858D01*
X0154036Y0189744D01*
X0154065Y0189629D01*
X0154091Y0189514D01*
X0154113Y0189397D01*
X0154130Y0189280D01*
X0154144Y0189163D01*
X0154154Y0189045D01*
X0154160Y0188926D01*
X0154162Y0188808D01*
X0154160Y0188690D01*
X0154154Y0188571D01*
X0154144Y0188453D01*
X0154130Y0188336D01*
X0154113Y0188219D01*
X0154091Y0188102D01*
X0154065Y0187987D01*
X0154036Y0187872D01*
X0154003Y0187758D01*
X0153966Y0187646D01*
X0153925Y0187535D01*
X0153881Y0187425D01*
X0153833Y0187317D01*
X0153781Y0187210D01*
X0153726Y0187105D01*
X0153667Y0187002D01*
X0153605Y0186902D01*
X0153540Y0186803D01*
X0153471Y0186706D01*
X0153400Y0186612D01*
X0153325Y0186521D01*
X0153247Y0186431D01*
X0153166Y0186345D01*
X0153082Y0186261D01*
X0152996Y0186180D01*
X0152906Y0186102D01*
X0152815Y0186027D01*
X0152721Y0185956D01*
X0152624Y0185887D01*
X0152525Y0185822D01*
X0152425Y0185760D01*
X0152322Y0185701D01*
X0152217Y0185646D01*
X0152110Y0185594D01*
X0152002Y0185546D01*
X0151892Y0185502D01*
X0151781Y0185461D01*
X0151669Y0185424D01*
X0151555Y0185391D01*
X0151440Y0185362D01*
X0151325Y0185336D01*
X0151208Y0185314D01*
X0151091Y0185297D01*
X0150974Y0185283D01*
X0150856Y0185273D01*
X0150737Y0185267D01*
X0150619Y0185265D01*
X0150501Y0185267D01*
X0150382Y0185273D01*
X0150264Y0185283D01*
X0150147Y0185297D01*
X0150030Y0185314D01*
X0149913Y0185336D01*
X0149798Y0185362D01*
X0149683Y0185391D01*
X0149569Y0185424D01*
X0149457Y0185461D01*
X0149346Y0185502D01*
X0149236Y0185546D01*
X0149128Y0185594D01*
X0149021Y0185646D01*
X0148916Y0185701D01*
X0148813Y0185760D01*
X0148713Y0185822D01*
X0148614Y0185887D01*
X0148517Y0185956D01*
X0148423Y0186027D01*
X0148332Y0186102D01*
X0148242Y0186180D01*
X0148156Y0186261D01*
X0148072Y0186345D01*
X0147991Y0186431D01*
X0147913Y0186521D01*
X0147838Y0186612D01*
X0147767Y0186706D01*
X0147698Y0186803D01*
X0147633Y0186902D01*
X0147571Y0187002D01*
X0147512Y0187105D01*
X0147457Y0187210D01*
X0147405Y0187317D01*
X0147357Y0187425D01*
X0147313Y0187535D01*
X0147272Y0187646D01*
X0147235Y0187758D01*
X0147202Y0187872D01*
X0147173Y0187987D01*
X0147147Y0188102D01*
X0147125Y0188219D01*
X0147108Y0188336D01*
X0147094Y0188453D01*
X0147084Y0188571D01*
X0147078Y0188690D01*
X0147076Y0188808D01*
D11*
X0198650Y0001800D02*
X0001800Y0001800D01*
X0001800Y0186839D01*
X0013611Y0198650D01*
X0174635Y0198650D01*
X0174635Y0084477D01*
X0198650Y0084477D01*
X0198650Y0001800D01*
X0193050Y0007400D02*
X0178755Y0007400D01*
X0179597Y0007749D01*
X0185933Y0014085D01*
X0191873Y0014085D01*
X0193050Y0015262D01*
X0193050Y0007400D01*
X0193050Y0008194D02*
X0180042Y0008194D01*
X0181641Y0009793D02*
X0193050Y0009793D01*
X0193050Y0011391D02*
X0183239Y0011391D01*
X0184838Y0012990D02*
X0193050Y0012990D01*
X0193050Y0014588D02*
X0192376Y0014588D01*
X0188808Y0021485D02*
X0177784Y0010461D01*
X0028178Y0010461D01*
X0021485Y0017154D01*
X0021485Y0027784D01*
X0008493Y0040776D01*
X0008493Y0109674D01*
X0010855Y0112036D01*
X0041957Y0112036D01*
X0046288Y0116367D01*
X0046288Y0122666D01*
X0050225Y0114941D02*
X0050010Y0114726D01*
X0049128Y0114361D01*
X0048807Y0114361D01*
X0047151Y0112704D01*
X0058981Y0112704D01*
X0061700Y0111577D01*
X0063782Y0109496D01*
X0064909Y0106776D01*
X0064909Y0104596D01*
X0069330Y0109017D01*
X0069330Y0109017D01*
X0070567Y0110255D01*
X0072185Y0110924D01*
X0082762Y0110924D01*
X0084379Y0110255D01*
X0089741Y0104893D01*
X0092057Y0104893D01*
X0093886Y0104136D01*
X0095285Y0102736D01*
X0096043Y0100908D01*
X0096042Y0100908D02*
X0163167Y0100908D01*
X0163167Y0102506D02*
X0095380Y0102506D01*
X0096043Y0100908D02*
X0096043Y0098929D01*
X0095285Y0097100D01*
X0095176Y0096991D01*
X0095176Y0096720D01*
X0095978Y0096720D01*
X0096860Y0096354D01*
X0097535Y0095679D01*
X0097901Y0094797D01*
X0097901Y0084393D01*
X0097535Y0083511D01*
X0096860Y0082836D01*
X0095978Y0082471D01*
X0085575Y0082471D01*
X0084692Y0082836D01*
X0084017Y0083511D01*
X0083652Y0084393D01*
X0083652Y0094797D01*
X0083891Y0095373D01*
X0083100Y0095701D01*
X0082369Y0096432D01*
X0082369Y0096189D01*
X0082184Y0095742D01*
X0082184Y0078426D01*
X0083652Y0076958D01*
X0083652Y0077474D01*
X0084017Y0078356D01*
X0084692Y0079031D01*
X0085575Y0079397D01*
X0095978Y0079397D01*
X0096860Y0079031D01*
X0097535Y0078356D01*
X0097901Y0077474D01*
X0097901Y0067071D01*
X0097535Y0066189D01*
X0096860Y0065513D01*
X0095978Y0065148D01*
X0085575Y0065148D01*
X0084692Y0065513D01*
X0084017Y0066189D01*
X0083652Y0067071D01*
X0083652Y0067872D01*
X0081240Y0067872D01*
X0079623Y0068542D01*
X0075292Y0072873D01*
X0074054Y0074111D01*
X0073384Y0075728D01*
X0073384Y0091815D01*
X0072597Y0092141D01*
X0070842Y0093896D01*
X0069892Y0096189D01*
X0069892Y0097134D01*
X0062560Y0089802D01*
X0060943Y0089132D01*
X0031909Y0089132D01*
X0030292Y0089802D01*
X0028903Y0091191D01*
X0027646Y0091191D01*
X0025353Y0092141D01*
X0023598Y0093896D01*
X0022648Y0096189D01*
X0022648Y0097976D01*
X0022285Y0097100D01*
X0020886Y0095701D01*
X0019057Y0094943D01*
X0011929Y0094943D01*
X0011693Y0095041D01*
X0011693Y0052120D01*
X0011894Y0052185D01*
X0012574Y0052293D01*
X0015493Y0052293D01*
X0015493Y0047918D01*
X0015493Y0043543D01*
X0018412Y0043543D01*
X0019092Y0043651D01*
X0019747Y0043864D01*
X0020361Y0044176D01*
X0020918Y0044581D01*
X0021405Y0045068D01*
X0021487Y0045181D01*
X0021487Y0043714D01*
X0022613Y0040994D01*
X0024695Y0038912D01*
X0027415Y0037786D01*
X0030359Y0037786D01*
X0033078Y0038912D01*
X0035160Y0040994D01*
X0036287Y0043714D01*
X0036287Y0056658D01*
X0035160Y0059378D01*
X0033078Y0061459D01*
X0030359Y0062586D01*
X0027415Y0062586D01*
X0024695Y0061459D01*
X0022613Y0059378D01*
X0021487Y0056658D01*
X0021487Y0050655D01*
X0021405Y0050768D01*
X0020918Y0051255D01*
X0020361Y0051660D01*
X0019747Y0051972D01*
X0019092Y0052185D01*
X0018412Y0052293D01*
X0015493Y0052293D01*
X0015493Y0047918D01*
X0015493Y0047918D01*
X0015493Y0043543D01*
X0012574Y0043543D01*
X0011894Y0043651D01*
X0011693Y0043716D01*
X0011693Y0042102D01*
X0023298Y0030497D01*
X0024198Y0029597D01*
X0024685Y0028421D01*
X0024685Y0025308D01*
X0028262Y0028885D01*
X0034393Y0028885D01*
X0038728Y0024550D01*
X0038728Y0018420D01*
X0034393Y0014085D01*
X0029080Y0014085D01*
X0029503Y0013661D01*
X0176459Y0013661D01*
X0181408Y0018611D01*
X0181408Y0024550D01*
X0185743Y0028885D01*
X0191873Y0028885D01*
X0193050Y0027708D01*
X0193050Y0071004D01*
X0192277Y0070683D01*
X0190142Y0070683D01*
X0188168Y0071501D01*
X0186658Y0073011D01*
X0186209Y0074094D01*
X0185761Y0073011D01*
X0184250Y0071501D01*
X0182277Y0070683D01*
X0180142Y0070683D01*
X0178168Y0071501D01*
X0176658Y0073011D01*
X0176209Y0074094D01*
X0175761Y0073011D01*
X0174250Y0071501D01*
X0172277Y0070683D01*
X0170142Y0070683D01*
X0168168Y0071501D01*
X0166658Y0073011D01*
X0165854Y0074953D01*
X0164554Y0076253D01*
X0163654Y0077153D01*
X0163167Y0078329D01*
X0163167Y0091513D01*
X0156260Y0091513D01*
X0156207Y0091385D01*
X0155532Y0090710D01*
X0154649Y0090345D01*
X0147195Y0090345D01*
X0146313Y0090710D01*
X0145637Y0091385D01*
X0145272Y0092267D01*
X0145272Y0097159D01*
X0145637Y0098041D01*
X0146313Y0098716D01*
X0147195Y0099082D01*
X0154649Y0099082D01*
X0155532Y0098716D01*
X0156207Y0098041D01*
X0156260Y0097913D01*
X0163167Y0097913D01*
X0163167Y0114035D01*
X0159337Y0114035D01*
X0159337Y0117885D01*
X0158437Y0117885D01*
X0158437Y0114035D01*
X0153650Y0114035D01*
X0153192Y0114158D01*
X0152781Y0114395D01*
X0152446Y0114730D01*
X0152209Y0115141D01*
X0152087Y0115598D01*
X0152087Y0117885D01*
X0158437Y0117885D01*
X0158437Y0118785D01*
X0152087Y0118785D01*
X0152087Y0121072D01*
X0152209Y0121530D01*
X0152446Y0121941D01*
X0152781Y0122276D01*
X0153192Y0122513D01*
X0153650Y0122635D01*
X0158437Y0122635D01*
X0158437Y0118786D01*
X0159337Y0118786D01*
X0159337Y0122635D01*
X0163167Y0122635D01*
X0163167Y0123278D01*
X0153409Y0123278D01*
X0152527Y0123643D01*
X0151852Y0124318D01*
X0151579Y0124978D01*
X0144077Y0124978D01*
X0142901Y0125465D01*
X0138309Y0130057D01*
X0136008Y0130057D01*
X0134630Y0128679D01*
X0132646Y0127857D01*
X0124498Y0127857D01*
X0122513Y0128679D01*
X0120994Y0130198D01*
X0120172Y0132183D01*
X0120172Y0134331D01*
X0120538Y0135214D01*
X0115635Y0135214D01*
X0115987Y0134364D01*
X0115987Y0132228D01*
X0115170Y0130255D01*
X0113660Y0128745D01*
X0111734Y0127947D01*
X0111736Y0127947D01*
X0112449Y0127715D01*
X0113118Y0127374D01*
X0113725Y0126933D01*
X0114256Y0126403D01*
X0114697Y0125795D01*
X0115038Y0125127D01*
X0115270Y0124413D01*
X0115387Y0123671D01*
X0115387Y0123480D01*
X0110803Y0123480D01*
X0110803Y0123112D01*
X0115387Y0123112D01*
X0115387Y0122921D01*
X0115270Y0122179D01*
X0115038Y0121466D01*
X0114697Y0120797D01*
X0114256Y0120190D01*
X0113725Y0119659D01*
X0113118Y0119218D01*
X0112449Y0118877D01*
X0111736Y0118645D01*
X0110994Y0118528D01*
X0110803Y0118528D01*
X0110803Y0123112D01*
X0110435Y0123112D01*
X0110435Y0118528D01*
X0110244Y0118528D01*
X0109502Y0118645D01*
X0108788Y0118877D01*
X0108120Y0119218D01*
X0107512Y0119659D01*
X0106982Y0120190D01*
X0106575Y0120750D01*
X0106575Y0112581D01*
X0106088Y0111405D01*
X0105187Y0110504D01*
X0104513Y0109830D01*
X0104513Y0109830D01*
X0103613Y0108930D01*
X0102437Y0108443D01*
X0087384Y0108443D01*
X0086208Y0108930D01*
X0083846Y0111292D01*
X0082945Y0112192D01*
X0082458Y0113368D01*
X0082458Y0114510D01*
X0081937Y0114726D01*
X0081721Y0114941D01*
X0081506Y0114726D01*
X0080624Y0114361D01*
X0074945Y0114361D01*
X0074063Y0114726D01*
X0073847Y0114941D01*
X0073632Y0114726D01*
X0072750Y0114361D01*
X0067071Y0114361D01*
X0066189Y0114726D01*
X0065973Y0114941D01*
X0065758Y0114726D01*
X0064876Y0114361D01*
X0059197Y0114361D01*
X0058315Y0114726D01*
X0058099Y0114941D01*
X0057884Y0114726D01*
X0057002Y0114361D01*
X0051323Y0114361D01*
X0050441Y0114726D01*
X0050225Y0114941D01*
X0048143Y0113696D02*
X0082458Y0113696D01*
X0083040Y0112097D02*
X0060445Y0112097D01*
X0062779Y0110499D02*
X0071157Y0110499D01*
X0069213Y0108900D02*
X0064029Y0108900D01*
X0064691Y0107302D02*
X0067615Y0107302D01*
X0066016Y0105703D02*
X0064909Y0105703D01*
X0068870Y0096112D02*
X0069924Y0096112D01*
X0070586Y0094514D02*
X0067272Y0094514D01*
X0065673Y0092915D02*
X0071823Y0092915D01*
X0073384Y0091317D02*
X0064075Y0091317D01*
X0062357Y0089718D02*
X0073384Y0089718D01*
X0073384Y0088120D02*
X0011693Y0088120D01*
X0011693Y0089718D02*
X0030495Y0089718D01*
X0027343Y0091317D02*
X0011693Y0091317D01*
X0011693Y0092915D02*
X0024579Y0092915D01*
X0023342Y0094514D02*
X0011693Y0094514D01*
X0011693Y0086521D02*
X0073384Y0086521D01*
X0073384Y0084923D02*
X0011693Y0084923D01*
X0011693Y0083324D02*
X0073384Y0083324D01*
X0073384Y0081726D02*
X0011693Y0081726D01*
X0011693Y0080127D02*
X0073384Y0080127D01*
X0073384Y0078529D02*
X0011693Y0078529D01*
X0011693Y0076930D02*
X0073384Y0076930D01*
X0073548Y0075332D02*
X0011693Y0075332D01*
X0011693Y0073733D02*
X0074432Y0073733D01*
X0076030Y0072134D02*
X0011693Y0072134D01*
X0011693Y0070536D02*
X0077629Y0070536D01*
X0079227Y0068937D02*
X0011693Y0068937D01*
X0011693Y0067339D02*
X0083652Y0067339D01*
X0084465Y0065740D02*
X0011693Y0065740D01*
X0011693Y0064142D02*
X0111979Y0064142D01*
X0111591Y0063754D02*
X0111104Y0062578D01*
X0111104Y0060325D01*
X0110644Y0060134D01*
X0109969Y0059459D01*
X0109604Y0058577D01*
X0109604Y0051322D01*
X0109969Y0050440D01*
X0110644Y0049765D01*
X0111527Y0049400D01*
X0117081Y0049400D01*
X0117304Y0049492D01*
X0117527Y0049400D01*
X0123081Y0049400D01*
X0123304Y0049492D01*
X0123527Y0049400D01*
X0126328Y0049400D01*
X0128216Y0047512D01*
X0129392Y0047025D01*
X0129941Y0047025D01*
X0129962Y0047004D01*
X0131359Y0046425D01*
X0132871Y0046425D01*
X0134267Y0047004D01*
X0135336Y0048073D01*
X0135915Y0049469D01*
X0135915Y0050981D01*
X0135559Y0051841D01*
X0136236Y0052122D01*
X0137305Y0053191D01*
X0137883Y0054587D01*
X0137883Y0056099D01*
X0137305Y0057496D01*
X0136236Y0058565D01*
X0134839Y0059143D01*
X0133328Y0059143D01*
X0131931Y0058565D01*
X0131216Y0057850D01*
X0131004Y0057850D01*
X0131004Y0058577D01*
X0130639Y0059459D01*
X0129963Y0060134D01*
X0129081Y0060500D01*
X0123527Y0060500D01*
X0123304Y0060407D01*
X0123081Y0060500D01*
X0117527Y0060500D01*
X0117504Y0060490D01*
X0117504Y0060616D01*
X0117692Y0060805D01*
X0144175Y0060805D01*
X0144175Y0060325D01*
X0143715Y0060134D01*
X0143040Y0059459D01*
X0142675Y0058577D01*
X0142675Y0051322D01*
X0143040Y0050440D01*
X0143715Y0049765D01*
X0144597Y0049400D01*
X0150152Y0049400D01*
X0150375Y0049492D01*
X0150597Y0049400D01*
X0155016Y0049400D01*
X0154693Y0048619D01*
X0154693Y0047107D01*
X0155271Y0045710D01*
X0156340Y0044642D01*
X0157737Y0044063D01*
X0159249Y0044063D01*
X0160645Y0044642D01*
X0161714Y0045710D01*
X0162293Y0047107D01*
X0162293Y0048619D01*
X0161970Y0049400D01*
X0162152Y0049400D01*
X0163034Y0049765D01*
X0163709Y0050440D01*
X0164003Y0051150D01*
X0164761Y0051150D01*
X0166157Y0051728D01*
X0167226Y0052797D01*
X0167805Y0054194D01*
X0167805Y0055705D01*
X0167226Y0057102D01*
X0166157Y0058171D01*
X0164761Y0058750D01*
X0164003Y0058750D01*
X0163709Y0059459D01*
X0163034Y0060134D01*
X0162152Y0060500D01*
X0156597Y0060500D01*
X0156375Y0060407D01*
X0156152Y0060500D01*
X0150597Y0060500D01*
X0150575Y0060490D01*
X0150575Y0060805D01*
X0181971Y0060805D01*
X0184820Y0057955D01*
X0184820Y0054761D01*
X0184799Y0054740D01*
X0184220Y0053343D01*
X0184220Y0051832D01*
X0184799Y0050435D01*
X0185868Y0049366D01*
X0187265Y0048787D01*
X0188776Y0048787D01*
X0190173Y0049366D01*
X0191242Y0050435D01*
X0191820Y0051832D01*
X0191820Y0053343D01*
X0191242Y0054740D01*
X0191220Y0054761D01*
X0191220Y0059917D01*
X0190733Y0061093D01*
X0189833Y0061993D01*
X0185109Y0066718D01*
X0183933Y0067205D01*
X0143583Y0067205D01*
X0143583Y0072854D01*
X0143604Y0072876D01*
X0143640Y0072963D01*
X0145893Y0070711D01*
X0148959Y0069441D01*
X0152278Y0069441D01*
X0155345Y0070711D01*
X0157692Y0073058D01*
X0158962Y0076125D01*
X0158962Y0079444D01*
X0157692Y0082510D01*
X0155345Y0084857D01*
X0152278Y0086128D01*
X0148959Y0086128D01*
X0145893Y0084857D01*
X0143546Y0082510D01*
X0142276Y0079444D01*
X0142276Y0078357D01*
X0141139Y0078828D01*
X0139627Y0078828D01*
X0138230Y0078250D01*
X0137161Y0077181D01*
X0136583Y0075784D01*
X0136583Y0074272D01*
X0137161Y0072876D01*
X0137183Y0072854D01*
X0137183Y0067205D01*
X0120768Y0067205D01*
X0122208Y0068036D01*
X0124934Y0070762D01*
X0126862Y0074101D01*
X0127860Y0077825D01*
X0127860Y0081680D01*
X0126862Y0085405D01*
X0124934Y0088743D01*
X0122208Y0091470D01*
X0118869Y0093397D01*
X0115145Y0094395D01*
X0111290Y0094395D01*
X0107566Y0093397D01*
X0104227Y0091470D01*
X0101500Y0088743D01*
X0099573Y0085405D01*
X0098575Y0081680D01*
X0098575Y0077825D01*
X0099573Y0074101D01*
X0101500Y0070762D01*
X0104227Y0068036D01*
X0107566Y0066108D01*
X0111290Y0065110D01*
X0112947Y0065110D01*
X0111591Y0063754D01*
X0111104Y0062543D02*
X0077705Y0062543D01*
X0077603Y0062586D02*
X0074659Y0062586D01*
X0071939Y0061459D01*
X0069857Y0059378D01*
X0068731Y0056658D01*
X0068731Y0043714D01*
X0069857Y0040994D01*
X0071939Y0038912D01*
X0074659Y0037786D01*
X0077603Y0037786D01*
X0080322Y0038912D01*
X0082404Y0040994D01*
X0083531Y0043714D01*
X0083531Y0044245D01*
X0083625Y0044176D01*
X0084239Y0043864D01*
X0084894Y0043651D01*
X0085574Y0043543D01*
X0088493Y0043543D01*
X0091412Y0043543D01*
X0092092Y0043651D01*
X0092747Y0043864D01*
X0093361Y0044176D01*
X0093918Y0044581D01*
X0094405Y0045068D01*
X0094809Y0045625D01*
X0095122Y0046239D01*
X0095335Y0046894D01*
X0095443Y0047574D01*
X0095443Y0047918D01*
X0088493Y0047918D01*
X0088493Y0043543D01*
X0088493Y0047918D01*
X0088493Y0047918D01*
X0088493Y0047918D01*
X0095443Y0047918D01*
X0095443Y0048262D01*
X0095335Y0048943D01*
X0095122Y0049597D01*
X0094809Y0050211D01*
X0094405Y0050768D01*
X0093918Y0051255D01*
X0093361Y0051660D01*
X0092747Y0051972D01*
X0092092Y0052185D01*
X0091412Y0052293D01*
X0088493Y0052293D01*
X0088493Y0047918D01*
X0088493Y0047918D01*
X0088493Y0052293D01*
X0085574Y0052293D01*
X0084894Y0052185D01*
X0084239Y0051972D01*
X0083625Y0051660D01*
X0083531Y0051591D01*
X0083531Y0056658D01*
X0082404Y0059378D01*
X0080322Y0061459D01*
X0077603Y0062586D01*
X0074556Y0062543D02*
X0030461Y0062543D01*
X0033593Y0060945D02*
X0071425Y0060945D01*
X0069844Y0059346D02*
X0035173Y0059346D01*
X0035835Y0057748D02*
X0069182Y0057748D01*
X0068731Y0056149D02*
X0036287Y0056149D01*
X0036287Y0054551D02*
X0068731Y0054551D01*
X0068731Y0052952D02*
X0036287Y0052952D01*
X0036287Y0051354D02*
X0068731Y0051354D01*
X0068731Y0049755D02*
X0036287Y0049755D01*
X0036287Y0048157D02*
X0068731Y0048157D01*
X0068731Y0046558D02*
X0036287Y0046558D01*
X0036287Y0044960D02*
X0068731Y0044960D01*
X0068877Y0043361D02*
X0036141Y0043361D01*
X0035478Y0041763D02*
X0069539Y0041763D01*
X0070687Y0040164D02*
X0034330Y0040164D01*
X0032241Y0038566D02*
X0072776Y0038566D01*
X0079486Y0038566D02*
X0193050Y0038566D01*
X0193050Y0040164D02*
X0081574Y0040164D01*
X0082723Y0041763D02*
X0193050Y0041763D01*
X0193050Y0043361D02*
X0083385Y0043361D01*
X0088493Y0044960D02*
X0088493Y0044960D01*
X0088493Y0046558D02*
X0088493Y0046558D01*
X0088493Y0048157D02*
X0088493Y0048157D01*
X0088493Y0049755D02*
X0088493Y0049755D01*
X0088493Y0051354D02*
X0088493Y0051354D01*
X0093782Y0051354D02*
X0109604Y0051354D01*
X0109604Y0052952D02*
X0083531Y0052952D01*
X0083531Y0054551D02*
X0109604Y0054551D01*
X0109604Y0056149D02*
X0083531Y0056149D01*
X0083079Y0057748D02*
X0109604Y0057748D01*
X0109923Y0059346D02*
X0082417Y0059346D01*
X0080837Y0060945D02*
X0111104Y0060945D01*
X0114304Y0061942D02*
X0116367Y0064005D01*
X0141564Y0064005D01*
X0140383Y0065186D01*
X0140383Y0075028D01*
X0141862Y0078529D02*
X0142276Y0078529D01*
X0142559Y0080127D02*
X0127860Y0080127D01*
X0127860Y0078529D02*
X0138903Y0078529D01*
X0137057Y0076930D02*
X0127620Y0076930D01*
X0127192Y0075332D02*
X0136583Y0075332D01*
X0136806Y0073733D02*
X0126650Y0073733D01*
X0125727Y0072134D02*
X0137183Y0072134D01*
X0137183Y0070536D02*
X0124708Y0070536D01*
X0123110Y0068937D02*
X0137183Y0068937D01*
X0137183Y0067339D02*
X0121001Y0067339D01*
X0114304Y0061942D02*
X0114304Y0054950D01*
X0110668Y0049755D02*
X0095042Y0049755D01*
X0095443Y0048157D02*
X0127571Y0048157D01*
X0130028Y0050225D02*
X0125304Y0054950D01*
X0130028Y0050225D02*
X0132115Y0050225D01*
X0135761Y0051354D02*
X0142675Y0051354D01*
X0142675Y0052952D02*
X0137067Y0052952D01*
X0137868Y0054551D02*
X0142675Y0054551D01*
X0142675Y0056149D02*
X0137863Y0056149D01*
X0137053Y0057748D02*
X0142675Y0057748D01*
X0142994Y0059346D02*
X0130685Y0059346D01*
X0135915Y0049755D02*
X0143739Y0049755D01*
X0147375Y0054950D02*
X0147375Y0063706D01*
X0147076Y0064005D02*
X0143139Y0064005D01*
X0141564Y0064005D01*
X0143583Y0067339D02*
X0193050Y0067339D01*
X0193050Y0068937D02*
X0143583Y0068937D01*
X0143583Y0070536D02*
X0146316Y0070536D01*
X0144469Y0072134D02*
X0143583Y0072134D01*
X0147076Y0064005D02*
X0183296Y0064005D01*
X0188020Y0059280D01*
X0188020Y0052587D01*
X0184418Y0051354D02*
X0165254Y0051354D01*
X0167291Y0052952D02*
X0184220Y0052952D01*
X0184721Y0054551D02*
X0167805Y0054551D01*
X0167621Y0056149D02*
X0184820Y0056149D01*
X0184820Y0057748D02*
X0166580Y0057748D01*
X0163756Y0059346D02*
X0183429Y0059346D01*
X0187684Y0064142D02*
X0193050Y0064142D01*
X0193050Y0065740D02*
X0186086Y0065740D01*
X0189283Y0062543D02*
X0193050Y0062543D01*
X0193050Y0060945D02*
X0190795Y0060945D01*
X0189833Y0061993D02*
X0189833Y0061993D01*
X0191220Y0059346D02*
X0193050Y0059346D01*
X0193050Y0057748D02*
X0191220Y0057748D01*
X0191220Y0056149D02*
X0193050Y0056149D01*
X0193050Y0054551D02*
X0191320Y0054551D01*
X0191820Y0052952D02*
X0193050Y0052952D01*
X0193050Y0051354D02*
X0191623Y0051354D01*
X0190562Y0049755D02*
X0193050Y0049755D01*
X0193050Y0048157D02*
X0162293Y0048157D01*
X0162066Y0046558D02*
X0193050Y0046558D01*
X0193050Y0044960D02*
X0160964Y0044960D01*
X0163011Y0049755D02*
X0185479Y0049755D01*
X0193050Y0036967D02*
X0016828Y0036967D01*
X0018426Y0035369D02*
X0193050Y0035369D01*
X0193050Y0033770D02*
X0020025Y0033770D01*
X0021623Y0032172D02*
X0193050Y0032172D01*
X0193050Y0030573D02*
X0023222Y0030573D01*
X0024456Y0028975D02*
X0193050Y0028975D01*
X0184234Y0027376D02*
X0173697Y0027376D01*
X0172188Y0028885D02*
X0166058Y0028885D01*
X0161723Y0024550D01*
X0161723Y0018420D01*
X0166058Y0014085D01*
X0172188Y0014085D01*
X0176523Y0018420D01*
X0176523Y0024550D01*
X0172188Y0028885D01*
X0175295Y0025778D02*
X0182635Y0025778D01*
X0181408Y0024179D02*
X0176523Y0024179D01*
X0176523Y0022581D02*
X0181408Y0022581D01*
X0181408Y0020982D02*
X0176523Y0020982D01*
X0176523Y0019384D02*
X0181408Y0019384D01*
X0180582Y0017785D02*
X0175888Y0017785D01*
X0174290Y0016187D02*
X0178984Y0016187D01*
X0177385Y0014588D02*
X0172691Y0014588D01*
X0165555Y0014588D02*
X0153006Y0014588D01*
X0152503Y0014085D02*
X0156838Y0018420D01*
X0156838Y0024550D01*
X0152503Y0028885D01*
X0146373Y0028885D01*
X0142038Y0024550D01*
X0142038Y0018420D01*
X0146373Y0014085D01*
X0152503Y0014085D01*
X0154605Y0016187D02*
X0163956Y0016187D01*
X0162358Y0017785D02*
X0156203Y0017785D01*
X0156838Y0019384D02*
X0161723Y0019384D01*
X0161723Y0020982D02*
X0156838Y0020982D01*
X0156838Y0022581D02*
X0161723Y0022581D01*
X0161723Y0024179D02*
X0156838Y0024179D01*
X0155610Y0025778D02*
X0162950Y0025778D01*
X0164549Y0027376D02*
X0154012Y0027376D01*
X0144864Y0027376D02*
X0134327Y0027376D01*
X0132818Y0028885D02*
X0126688Y0028885D01*
X0122353Y0024550D01*
X0122353Y0018420D01*
X0126688Y0014085D01*
X0132818Y0014085D01*
X0137153Y0018420D01*
X0137153Y0024550D01*
X0132818Y0028885D01*
X0135925Y0025778D02*
X0143265Y0025778D01*
X0142038Y0024179D02*
X0137153Y0024179D01*
X0137153Y0022581D02*
X0142038Y0022581D01*
X0142038Y0020982D02*
X0137153Y0020982D01*
X0137153Y0019384D02*
X0142038Y0019384D01*
X0142673Y0017785D02*
X0136518Y0017785D01*
X0134919Y0016187D02*
X0144271Y0016187D01*
X0145870Y0014588D02*
X0133321Y0014588D01*
X0126185Y0014588D02*
X0093951Y0014588D01*
X0093448Y0014085D02*
X0097783Y0018420D01*
X0097783Y0024550D01*
X0093448Y0028885D01*
X0087317Y0028885D01*
X0082983Y0024550D01*
X0082983Y0018420D01*
X0087317Y0014085D01*
X0093448Y0014085D01*
X0095549Y0016187D02*
X0105749Y0016187D01*
X0107251Y0014685D02*
X0103268Y0018668D01*
X0103268Y0021301D01*
X0109883Y0021301D01*
X0109883Y0021669D01*
X0103268Y0021669D01*
X0103268Y0024302D01*
X0107251Y0028285D01*
X0109883Y0028285D01*
X0109883Y0021669D01*
X0110252Y0021669D01*
X0116868Y0021669D01*
X0116868Y0024302D01*
X0112884Y0028285D01*
X0110252Y0028285D01*
X0110252Y0021669D01*
X0110252Y0021301D01*
X0116868Y0021301D01*
X0116868Y0018668D01*
X0112884Y0014685D01*
X0110252Y0014685D01*
X0110252Y0021301D01*
X0109883Y0021301D01*
X0109883Y0014685D01*
X0107251Y0014685D01*
X0109883Y0016187D02*
X0110252Y0016187D01*
X0110252Y0017785D02*
X0109883Y0017785D01*
X0109883Y0019384D02*
X0110252Y0019384D01*
X0110252Y0020982D02*
X0109883Y0020982D01*
X0109883Y0022581D02*
X0110252Y0022581D01*
X0110252Y0024179D02*
X0109883Y0024179D01*
X0109883Y0025778D02*
X0110252Y0025778D01*
X0110252Y0027376D02*
X0109883Y0027376D01*
X0106342Y0027376D02*
X0094957Y0027376D01*
X0096555Y0025778D02*
X0104744Y0025778D01*
X0103268Y0024179D02*
X0097783Y0024179D01*
X0097783Y0022581D02*
X0103268Y0022581D01*
X0103268Y0020982D02*
X0097783Y0020982D01*
X0097783Y0019384D02*
X0103268Y0019384D01*
X0104151Y0017785D02*
X0097148Y0017785D01*
X0086814Y0014588D02*
X0054581Y0014588D01*
X0054078Y0014085D02*
X0058413Y0018420D01*
X0058413Y0024550D01*
X0054078Y0028885D01*
X0047947Y0028885D01*
X0043613Y0024550D01*
X0043613Y0018420D01*
X0047947Y0014085D01*
X0054078Y0014085D01*
X0056179Y0016187D02*
X0066379Y0016187D01*
X0067881Y0014685D02*
X0070513Y0014685D01*
X0070513Y0021301D01*
X0063898Y0021301D01*
X0063898Y0018668D01*
X0067881Y0014685D01*
X0064781Y0017785D02*
X0057778Y0017785D01*
X0058413Y0019384D02*
X0063898Y0019384D01*
X0063898Y0020982D02*
X0058413Y0020982D01*
X0058413Y0022581D02*
X0063898Y0022581D01*
X0063898Y0021669D02*
X0070513Y0021669D01*
X0070513Y0021301D01*
X0070882Y0021301D01*
X0070882Y0021669D01*
X0077498Y0021669D01*
X0077498Y0024302D01*
X0073514Y0028285D01*
X0070882Y0028285D01*
X0070882Y0021669D01*
X0070513Y0021669D01*
X0070513Y0028285D01*
X0067881Y0028285D01*
X0063898Y0024302D01*
X0063898Y0021669D01*
X0063898Y0024179D02*
X0058413Y0024179D01*
X0057185Y0025778D02*
X0065374Y0025778D01*
X0066972Y0027376D02*
X0055587Y0027376D01*
X0046439Y0027376D02*
X0035902Y0027376D01*
X0037500Y0025778D02*
X0044840Y0025778D01*
X0043613Y0024179D02*
X0038728Y0024179D01*
X0038728Y0022581D02*
X0043613Y0022581D01*
X0043613Y0020982D02*
X0038728Y0020982D01*
X0038728Y0019384D02*
X0043613Y0019384D01*
X0044247Y0017785D02*
X0038093Y0017785D01*
X0036494Y0016187D02*
X0045846Y0016187D01*
X0047444Y0014588D02*
X0034896Y0014588D01*
X0027207Y0007400D02*
X0007400Y0007400D01*
X0007400Y0015262D01*
X0008577Y0014085D01*
X0014708Y0014085D01*
X0018285Y0017662D01*
X0018285Y0016518D01*
X0018772Y0015342D01*
X0025465Y0008649D01*
X0026365Y0007749D01*
X0027207Y0007400D01*
X0025920Y0008194D02*
X0007400Y0008194D01*
X0007400Y0009793D02*
X0024321Y0009793D01*
X0022723Y0011391D02*
X0007400Y0011391D01*
X0007400Y0012990D02*
X0021124Y0012990D01*
X0019526Y0014588D02*
X0015211Y0014588D01*
X0016809Y0016187D02*
X0018422Y0016187D01*
X0018285Y0025308D02*
X0014708Y0028885D01*
X0008577Y0028885D01*
X0007400Y0027708D01*
X0007400Y0037344D01*
X0018285Y0026459D01*
X0018285Y0025308D01*
X0018285Y0025778D02*
X0017815Y0025778D01*
X0017368Y0027376D02*
X0016217Y0027376D01*
X0015769Y0028975D02*
X0007400Y0028975D01*
X0007400Y0030573D02*
X0014171Y0030573D01*
X0012572Y0032172D02*
X0007400Y0032172D01*
X0007400Y0033770D02*
X0010974Y0033770D01*
X0009375Y0035369D02*
X0007400Y0035369D01*
X0007400Y0036967D02*
X0007777Y0036967D01*
X0012032Y0041763D02*
X0022295Y0041763D01*
X0021633Y0043361D02*
X0011693Y0043361D01*
X0013630Y0040164D02*
X0023443Y0040164D01*
X0025532Y0038566D02*
X0015229Y0038566D01*
X0015493Y0044960D02*
X0015493Y0044960D01*
X0015493Y0046558D02*
X0015493Y0046558D01*
X0015493Y0047918D02*
X0015493Y0047918D01*
X0015493Y0048157D02*
X0015493Y0048157D01*
X0015493Y0049755D02*
X0015493Y0049755D01*
X0015493Y0051354D02*
X0015493Y0051354D01*
X0011693Y0052952D02*
X0021487Y0052952D01*
X0021487Y0051354D02*
X0020782Y0051354D01*
X0021487Y0054551D02*
X0011693Y0054551D01*
X0011693Y0056149D02*
X0021487Y0056149D01*
X0021938Y0057748D02*
X0011693Y0057748D01*
X0011693Y0059346D02*
X0022600Y0059346D01*
X0024181Y0060945D02*
X0011693Y0060945D01*
X0011693Y0062543D02*
X0027312Y0062543D01*
X0021487Y0044960D02*
X0021296Y0044960D01*
X0024685Y0027376D02*
X0026754Y0027376D01*
X0025155Y0025778D02*
X0024685Y0025778D01*
X0008074Y0014588D02*
X0007400Y0014588D01*
X0070513Y0016187D02*
X0070882Y0016187D01*
X0070882Y0014685D02*
X0073514Y0014685D01*
X0077498Y0018668D01*
X0077498Y0021301D01*
X0070882Y0021301D01*
X0070882Y0014685D01*
X0070882Y0017785D02*
X0070513Y0017785D01*
X0070513Y0019384D02*
X0070882Y0019384D01*
X0070882Y0020982D02*
X0070513Y0020982D01*
X0070513Y0022581D02*
X0070882Y0022581D01*
X0070882Y0024179D02*
X0070513Y0024179D01*
X0070513Y0025778D02*
X0070882Y0025778D01*
X0070882Y0027376D02*
X0070513Y0027376D01*
X0074423Y0027376D02*
X0085809Y0027376D01*
X0084210Y0025778D02*
X0076022Y0025778D01*
X0077498Y0024179D02*
X0082983Y0024179D01*
X0082983Y0022581D02*
X0077498Y0022581D01*
X0077498Y0020982D02*
X0082983Y0020982D01*
X0082983Y0019384D02*
X0077498Y0019384D01*
X0076614Y0017785D02*
X0083617Y0017785D01*
X0085216Y0016187D02*
X0075016Y0016187D01*
X0094296Y0044960D02*
X0156022Y0044960D01*
X0154920Y0046558D02*
X0133192Y0046558D01*
X0131038Y0046558D02*
X0095226Y0046558D01*
X0097087Y0065740D02*
X0108938Y0065740D01*
X0105434Y0067339D02*
X0097901Y0067339D01*
X0097901Y0068937D02*
X0103325Y0068937D01*
X0101726Y0070536D02*
X0097901Y0070536D01*
X0097901Y0072134D02*
X0100708Y0072134D01*
X0099785Y0073733D02*
X0097901Y0073733D01*
X0097901Y0075332D02*
X0099243Y0075332D01*
X0098815Y0076930D02*
X0097901Y0076930D01*
X0097363Y0078529D02*
X0098575Y0078529D01*
X0098575Y0080127D02*
X0082184Y0080127D01*
X0082184Y0078529D02*
X0084190Y0078529D01*
X0082184Y0081726D02*
X0098587Y0081726D01*
X0099015Y0083324D02*
X0097348Y0083324D01*
X0097901Y0084923D02*
X0099444Y0084923D01*
X0100217Y0086521D02*
X0097901Y0086521D01*
X0097901Y0088120D02*
X0101140Y0088120D01*
X0102475Y0089718D02*
X0097901Y0089718D01*
X0097901Y0091317D02*
X0104074Y0091317D01*
X0106730Y0092915D02*
X0097901Y0092915D01*
X0097901Y0094514D02*
X0122216Y0094514D01*
X0121807Y0094923D02*
X0122876Y0093854D01*
X0124272Y0093276D01*
X0124303Y0093276D01*
X0124981Y0092598D01*
X0124981Y0092267D01*
X0125346Y0091385D01*
X0126021Y0090710D01*
X0126903Y0090345D01*
X0134358Y0090345D01*
X0135240Y0090710D01*
X0135915Y0091385D01*
X0136281Y0092267D01*
X0136281Y0097159D01*
X0135915Y0098041D01*
X0135240Y0098716D01*
X0134358Y0099082D01*
X0128310Y0099082D01*
X0128250Y0099228D01*
X0127181Y0100297D01*
X0125784Y0100876D01*
X0124272Y0100876D01*
X0122876Y0100297D01*
X0121807Y0099228D01*
X0121228Y0097831D01*
X0121228Y0096320D01*
X0121807Y0094923D01*
X0121314Y0096112D02*
X0097102Y0096112D01*
X0095538Y0097711D02*
X0121228Y0097711D01*
X0121888Y0099309D02*
X0096043Y0099309D01*
X0093917Y0104105D02*
X0126074Y0104105D01*
X0125940Y0104238D02*
X0126275Y0103903D01*
X0126686Y0103666D01*
X0127144Y0103543D01*
X0130446Y0103543D01*
X0130446Y0107127D01*
X0130815Y0107127D01*
X0130815Y0103543D01*
X0134118Y0103543D01*
X0134575Y0103666D01*
X0134986Y0103903D01*
X0135321Y0104238D01*
X0135558Y0104649D01*
X0135681Y0105106D01*
X0135681Y0107128D01*
X0130815Y0107128D01*
X0130815Y0107496D01*
X0135681Y0107496D01*
X0135681Y0109517D01*
X0135558Y0109975D01*
X0135321Y0110386D01*
X0134986Y0110721D01*
X0134575Y0110958D01*
X0134118Y0111080D01*
X0130815Y0111080D01*
X0130815Y0107496D01*
X0130446Y0107496D01*
X0130446Y0107128D01*
X0125581Y0107128D01*
X0125581Y0105106D01*
X0125703Y0104649D01*
X0125940Y0104238D01*
X0125581Y0105703D02*
X0088930Y0105703D01*
X0087332Y0107302D02*
X0130446Y0107302D01*
X0130446Y0107496D02*
X0125581Y0107496D01*
X0125581Y0109517D01*
X0125703Y0109975D01*
X0125940Y0110386D01*
X0126275Y0110721D01*
X0126686Y0110958D01*
X0127144Y0111080D01*
X0130446Y0111080D01*
X0130446Y0107496D01*
X0130815Y0107302D02*
X0145272Y0107302D01*
X0145272Y0108900D02*
X0135681Y0108900D01*
X0135208Y0110499D02*
X0145579Y0110499D01*
X0145637Y0110640D02*
X0145272Y0109758D01*
X0145272Y0104866D01*
X0145637Y0103984D01*
X0146313Y0103309D01*
X0147195Y0102943D01*
X0154649Y0102943D01*
X0155532Y0103309D01*
X0156207Y0103984D01*
X0156572Y0104866D01*
X0156572Y0109758D01*
X0156207Y0110640D01*
X0155532Y0111315D01*
X0154649Y0111680D01*
X0147195Y0111680D01*
X0146313Y0111315D01*
X0145637Y0110640D01*
X0145272Y0105703D02*
X0135681Y0105703D01*
X0135188Y0104105D02*
X0145587Y0104105D01*
X0145500Y0097711D02*
X0136052Y0097711D01*
X0136281Y0096112D02*
X0145272Y0096112D01*
X0145272Y0094514D02*
X0136281Y0094514D01*
X0136281Y0092915D02*
X0145272Y0092915D01*
X0145706Y0091317D02*
X0135847Y0091317D01*
X0130631Y0094713D02*
X0127391Y0094713D01*
X0125028Y0097076D01*
X0128169Y0099309D02*
X0163167Y0099309D01*
X0163167Y0104105D02*
X0156257Y0104105D01*
X0156572Y0105703D02*
X0163167Y0105703D01*
X0163167Y0107302D02*
X0156572Y0107302D01*
X0156572Y0108900D02*
X0163167Y0108900D01*
X0163167Y0110499D02*
X0156265Y0110499D01*
X0158437Y0115294D02*
X0159337Y0115294D01*
X0159337Y0116893D02*
X0158437Y0116893D01*
X0158437Y0118491D02*
X0106575Y0118491D01*
X0106575Y0116893D02*
X0152087Y0116893D01*
X0152168Y0115294D02*
X0106575Y0115294D01*
X0106575Y0113696D02*
X0163167Y0113696D01*
X0163167Y0112097D02*
X0106375Y0112097D01*
X0105187Y0110504D02*
X0105187Y0110504D01*
X0105182Y0110499D02*
X0126054Y0110499D01*
X0125581Y0108900D02*
X0103542Y0108900D01*
X0101800Y0111643D02*
X0088020Y0111643D01*
X0085658Y0114005D01*
X0085658Y0122666D01*
X0093532Y0122666D02*
X0093532Y0133690D01*
X0098257Y0138414D01*
X0123414Y0138414D01*
X0128572Y0133257D01*
X0139635Y0133257D01*
X0144713Y0128178D01*
X0158887Y0128178D01*
X0159674Y0128965D01*
X0164792Y0128965D01*
X0164005Y0128178D01*
X0166367Y0125816D01*
X0166367Y0095107D01*
X0165973Y0094713D01*
X0150922Y0094713D01*
X0156138Y0091317D02*
X0163167Y0091317D01*
X0163167Y0089718D02*
X0123960Y0089718D01*
X0125294Y0088120D02*
X0163167Y0088120D01*
X0163167Y0086521D02*
X0126217Y0086521D01*
X0126991Y0084923D02*
X0146050Y0084923D01*
X0144360Y0083324D02*
X0127419Y0083324D01*
X0127848Y0081726D02*
X0143221Y0081726D01*
X0155188Y0084923D02*
X0163167Y0084923D01*
X0163167Y0083324D02*
X0156878Y0083324D01*
X0158017Y0081726D02*
X0163167Y0081726D01*
X0163167Y0080127D02*
X0158679Y0080127D01*
X0158962Y0078529D02*
X0163167Y0078529D01*
X0163877Y0076930D02*
X0158962Y0076930D01*
X0158634Y0075332D02*
X0165475Y0075332D01*
X0166359Y0073733D02*
X0157972Y0073733D01*
X0156768Y0072134D02*
X0167535Y0072134D01*
X0169280Y0076052D02*
X0166367Y0078965D01*
X0166367Y0095107D01*
X0169567Y0082078D02*
X0169884Y0081314D01*
X0169567Y0081182D01*
X0169567Y0082078D01*
X0169567Y0081726D02*
X0169713Y0081726D01*
X0169280Y0076052D02*
X0171209Y0076052D01*
X0176209Y0078009D02*
X0175850Y0078877D01*
X0176569Y0078877D01*
X0176209Y0078009D01*
X0175994Y0078529D02*
X0176424Y0078529D01*
X0176359Y0073733D02*
X0176060Y0073733D01*
X0174884Y0072134D02*
X0177535Y0072134D01*
X0184884Y0072134D02*
X0187535Y0072134D01*
X0186359Y0073733D02*
X0186060Y0073733D01*
X0186209Y0078009D02*
X0185850Y0078877D01*
X0186569Y0078877D01*
X0186209Y0078009D01*
X0185994Y0078529D02*
X0186424Y0078529D01*
X0193050Y0070536D02*
X0154922Y0070536D01*
X0159375Y0054950D02*
X0164005Y0054950D01*
X0154693Y0048157D02*
X0135371Y0048157D01*
X0125179Y0027376D02*
X0113793Y0027376D01*
X0115392Y0025778D02*
X0123580Y0025778D01*
X0122353Y0024179D02*
X0116868Y0024179D01*
X0116868Y0022581D02*
X0122353Y0022581D01*
X0122353Y0020982D02*
X0116868Y0020982D01*
X0116868Y0019384D02*
X0122353Y0019384D01*
X0122987Y0017785D02*
X0115984Y0017785D01*
X0114386Y0016187D02*
X0124586Y0016187D01*
X0084205Y0083324D02*
X0082184Y0083324D01*
X0082184Y0084923D02*
X0083652Y0084923D01*
X0083652Y0086521D02*
X0082184Y0086521D01*
X0082184Y0088120D02*
X0083652Y0088120D01*
X0083652Y0089718D02*
X0082184Y0089718D01*
X0082184Y0091317D02*
X0083652Y0091317D01*
X0083652Y0092915D02*
X0082184Y0092915D01*
X0082184Y0094514D02*
X0083652Y0094514D01*
X0082689Y0096112D02*
X0082337Y0096112D01*
X0085733Y0108900D02*
X0086279Y0108900D01*
X0084639Y0110499D02*
X0083789Y0110499D01*
X0089496Y0114843D02*
X0089595Y0114941D01*
X0089694Y0114843D01*
X0089496Y0114843D01*
X0097370Y0114843D02*
X0097929Y0115401D01*
X0098294Y0116283D01*
X0098294Y0129049D01*
X0097929Y0129931D01*
X0097254Y0130606D01*
X0096732Y0130822D01*
X0096732Y0131516D01*
X0096754Y0131537D01*
X0097332Y0132934D01*
X0097332Y0132964D01*
X0099582Y0135214D01*
X0105603Y0135214D01*
X0105250Y0134364D01*
X0105250Y0132453D01*
X0100662Y0127865D01*
X0100175Y0126688D01*
X0100175Y0114843D01*
X0097370Y0114843D01*
X0097822Y0115294D02*
X0100175Y0115294D01*
X0100175Y0116893D02*
X0098294Y0116893D01*
X0098294Y0118491D02*
X0100175Y0118491D01*
X0100175Y0120090D02*
X0098294Y0120090D01*
X0098294Y0121688D02*
X0100175Y0121688D01*
X0100175Y0123287D02*
X0098294Y0123287D01*
X0098294Y0124885D02*
X0100175Y0124885D01*
X0100175Y0126484D02*
X0098294Y0126484D01*
X0098294Y0128082D02*
X0100880Y0128082D01*
X0102478Y0129681D02*
X0098033Y0129681D01*
X0096732Y0131279D02*
X0104077Y0131279D01*
X0105250Y0132878D02*
X0097309Y0132878D01*
X0098844Y0134476D02*
X0105297Y0134476D01*
X0110619Y0133296D02*
X0103375Y0126052D01*
X0103375Y0113217D01*
X0101800Y0111643D01*
X0106575Y0120090D02*
X0107081Y0120090D01*
X0110435Y0120090D02*
X0110803Y0120090D01*
X0110803Y0121688D02*
X0110435Y0121688D01*
X0110803Y0123287D02*
X0153388Y0123287D01*
X0152301Y0121688D02*
X0115110Y0121688D01*
X0114156Y0120090D02*
X0152087Y0120090D01*
X0151617Y0124885D02*
X0115116Y0124885D01*
X0114175Y0126484D02*
X0141882Y0126484D01*
X0140283Y0128082D02*
X0133191Y0128082D01*
X0135633Y0129681D02*
X0138685Y0129681D01*
X0142940Y0134476D02*
X0151721Y0134476D01*
X0151852Y0134161D02*
X0151579Y0134820D01*
X0149982Y0134820D01*
X0148806Y0135308D01*
X0146838Y0137276D01*
X0145938Y0138176D01*
X0145450Y0139352D01*
X0145450Y0145057D01*
X0136034Y0145057D01*
X0136253Y0144381D01*
X0136372Y0143634D01*
X0136372Y0143457D01*
X0128772Y0143457D01*
X0128772Y0143057D01*
X0136372Y0143057D01*
X0136372Y0142879D01*
X0136253Y0142133D01*
X0136020Y0141414D01*
X0135677Y0140741D01*
X0135233Y0140130D01*
X0134699Y0139595D01*
X0134087Y0139151D01*
X0133414Y0138808D01*
X0132778Y0138602D01*
X0134630Y0137835D01*
X0136008Y0136457D01*
X0140271Y0136457D01*
X0141447Y0135970D01*
X0142347Y0135069D01*
X0146039Y0131378D01*
X0151579Y0131378D01*
X0151852Y0132037D01*
X0152527Y0132713D01*
X0153409Y0133078D01*
X0164364Y0133078D01*
X0165135Y0132758D01*
X0165135Y0133440D01*
X0164364Y0133120D01*
X0153409Y0133120D01*
X0152527Y0133486D01*
X0151852Y0134161D01*
X0152926Y0132878D02*
X0144539Y0132878D01*
X0141193Y0136075D02*
X0148039Y0136075D01*
X0146440Y0137673D02*
X0134792Y0137673D01*
X0134253Y0139272D02*
X0145484Y0139272D01*
X0145450Y0140870D02*
X0135743Y0140870D01*
X0136307Y0142469D02*
X0145450Y0142469D01*
X0145450Y0144068D02*
X0136303Y0144068D01*
X0128372Y0143457D02*
X0128372Y0143057D01*
X0120772Y0143057D01*
X0120772Y0142879D01*
X0120890Y0142133D01*
X0121058Y0141614D01*
X0115987Y0141614D01*
X0115987Y0145057D01*
X0121109Y0145057D01*
X0120890Y0144381D01*
X0120772Y0143634D01*
X0120772Y0143457D01*
X0128372Y0143457D01*
X0120840Y0144068D02*
X0115987Y0144068D01*
X0115987Y0142469D02*
X0120837Y0142469D01*
X0120232Y0134476D02*
X0115941Y0134476D01*
X0115987Y0132878D02*
X0120172Y0132878D01*
X0120546Y0131279D02*
X0115594Y0131279D01*
X0114596Y0129681D02*
X0121511Y0129681D01*
X0123953Y0128082D02*
X0112061Y0128082D01*
X0105250Y0141614D02*
X0097620Y0141614D01*
X0096444Y0141127D01*
X0092807Y0137490D01*
X0092776Y0137490D01*
X0091380Y0136911D01*
X0090311Y0135842D01*
X0089732Y0134446D01*
X0089732Y0132934D01*
X0090311Y0131537D01*
X0090332Y0131516D01*
X0090332Y0130822D01*
X0089811Y0130606D01*
X0089595Y0130391D01*
X0089380Y0130606D01*
X0088498Y0130972D01*
X0082819Y0130972D01*
X0081937Y0130606D01*
X0081721Y0130391D01*
X0081506Y0130606D01*
X0080772Y0130910D01*
X0081399Y0131537D01*
X0081978Y0132934D01*
X0081978Y0134446D01*
X0081399Y0135842D01*
X0080330Y0136911D01*
X0078934Y0137490D01*
X0077422Y0137490D01*
X0076025Y0136911D01*
X0074956Y0135842D01*
X0074378Y0134446D01*
X0074378Y0132934D01*
X0074884Y0131712D01*
X0074884Y0130947D01*
X0074063Y0130606D01*
X0073847Y0130391D01*
X0073632Y0130606D01*
X0073110Y0130822D01*
X0073110Y0143388D01*
X0074779Y0145057D01*
X0105250Y0145057D01*
X0105250Y0141614D01*
X0105250Y0142469D02*
X0073110Y0142469D01*
X0073110Y0140870D02*
X0096188Y0140870D01*
X0094589Y0139272D02*
X0073110Y0139272D01*
X0073110Y0137673D02*
X0092991Y0137673D01*
X0090543Y0136075D02*
X0081167Y0136075D01*
X0081965Y0134476D02*
X0089745Y0134476D01*
X0089755Y0132878D02*
X0081955Y0132878D01*
X0081142Y0131279D02*
X0090332Y0131279D01*
X0105250Y0144068D02*
X0073790Y0144068D01*
X0069910Y0144713D02*
X0073454Y0148257D01*
X0147469Y0148257D01*
X0147863Y0148650D01*
X0147863Y0162430D01*
X0147076Y0163217D01*
X0128611Y0163217D01*
X0128572Y0163257D01*
X0134122Y0168045D02*
X0134573Y0168045D01*
X0134548Y0168089D02*
X0134783Y0167682D01*
X0134630Y0167835D01*
X0132646Y0168657D01*
X0127907Y0168657D01*
X0140634Y0181384D01*
X0142703Y0181384D01*
X0143585Y0181750D01*
X0144260Y0182425D01*
X0144536Y0183092D01*
X0145893Y0181735D01*
X0148959Y0180465D01*
X0152278Y0180465D01*
X0155345Y0181735D01*
X0156145Y0182535D01*
X0156191Y0182425D01*
X0156866Y0181750D01*
X0157748Y0181384D01*
X0164703Y0181384D01*
X0165585Y0181750D01*
X0166260Y0182425D01*
X0166625Y0183307D01*
X0166625Y0187262D01*
X0166260Y0188144D01*
X0165585Y0188819D01*
X0164703Y0189184D01*
X0158962Y0189184D01*
X0158962Y0190467D01*
X0157892Y0193050D01*
X0169035Y0193050D01*
X0169035Y0150508D01*
X0167392Y0152151D01*
X0167192Y0152233D01*
X0167192Y0153065D01*
X0166827Y0153947D01*
X0166152Y0154622D01*
X0165270Y0154987D01*
X0159197Y0154987D01*
X0158493Y0154696D01*
X0157789Y0154987D01*
X0151716Y0154987D01*
X0151063Y0154717D01*
X0151063Y0163066D01*
X0150576Y0164243D01*
X0149676Y0165143D01*
X0148888Y0165930D01*
X0147712Y0166417D01*
X0136048Y0166417D01*
X0135123Y0167342D01*
X0135530Y0167107D01*
X0135988Y0166984D01*
X0139225Y0166984D01*
X0139225Y0170284D01*
X0139225Y0170284D01*
X0134425Y0170284D01*
X0134425Y0168547D01*
X0134548Y0168089D01*
X0134425Y0169644D02*
X0128894Y0169644D01*
X0130492Y0171242D02*
X0134425Y0171242D01*
X0134425Y0172021D02*
X0134425Y0170284D01*
X0139225Y0170284D01*
X0139225Y0170284D01*
X0139225Y0166984D01*
X0142462Y0166984D01*
X0142920Y0167107D01*
X0143330Y0167344D01*
X0143666Y0167679D01*
X0143903Y0168089D01*
X0144025Y0168547D01*
X0144025Y0170284D01*
X0139225Y0170284D01*
X0139225Y0170284D01*
X0139225Y0173584D01*
X0135988Y0173584D01*
X0135530Y0173462D01*
X0135120Y0173225D01*
X0134785Y0172889D01*
X0134548Y0172479D01*
X0134425Y0172021D01*
X0134757Y0172841D02*
X0132091Y0172841D01*
X0133689Y0174439D02*
X0169035Y0174439D01*
X0169035Y0172841D02*
X0166385Y0172841D01*
X0166260Y0173144D02*
X0166625Y0172262D01*
X0166625Y0168307D01*
X0166260Y0167425D01*
X0165585Y0166750D01*
X0164703Y0166384D01*
X0157748Y0166384D01*
X0156866Y0166750D01*
X0156191Y0167425D01*
X0155825Y0168307D01*
X0155825Y0172262D01*
X0156191Y0173144D01*
X0156866Y0173819D01*
X0157748Y0174184D01*
X0164703Y0174184D01*
X0165585Y0173819D01*
X0166260Y0173144D01*
X0166625Y0171242D02*
X0169035Y0171242D01*
X0169035Y0169644D02*
X0166625Y0169644D01*
X0166517Y0168045D02*
X0169035Y0168045D01*
X0169035Y0166447D02*
X0164853Y0166447D01*
X0169035Y0164848D02*
X0149970Y0164848D01*
X0150987Y0163250D02*
X0169035Y0163250D01*
X0169035Y0161651D02*
X0151063Y0161651D01*
X0151063Y0160053D02*
X0169035Y0160053D01*
X0169035Y0158454D02*
X0151063Y0158454D01*
X0151063Y0156856D02*
X0169035Y0156856D01*
X0169035Y0155257D02*
X0151063Y0155257D01*
X0144663Y0155257D02*
X0142521Y0155257D01*
X0142141Y0154878D02*
X0143210Y0155947D01*
X0143789Y0157343D01*
X0143789Y0158855D01*
X0143308Y0160017D01*
X0144663Y0160017D01*
X0144663Y0151457D01*
X0136671Y0151457D01*
X0136972Y0152183D01*
X0136972Y0154331D01*
X0136736Y0154899D01*
X0137815Y0154899D01*
X0137836Y0154878D01*
X0139233Y0154299D01*
X0140745Y0154299D01*
X0142141Y0154878D01*
X0143587Y0156856D02*
X0144663Y0156856D01*
X0144663Y0158454D02*
X0143789Y0158454D01*
X0139989Y0158099D02*
X0111249Y0158099D01*
X0108887Y0160461D01*
X0078572Y0160461D01*
X0064398Y0174635D01*
X0056524Y0174635D01*
X0054162Y0176997D01*
X0054162Y0187233D01*
X0062036Y0187233D02*
X0062036Y0178178D01*
X0062824Y0177391D01*
X0065973Y0177391D01*
X0080146Y0163217D01*
X0118729Y0163217D01*
X0121485Y0166761D02*
X0139225Y0184501D01*
X0139225Y0185284D01*
X0140083Y0180833D02*
X0148069Y0180833D01*
X0145196Y0182432D02*
X0144263Y0182432D01*
X0138485Y0179235D02*
X0169035Y0179235D01*
X0169035Y0180833D02*
X0153169Y0180833D01*
X0156042Y0182432D02*
X0156188Y0182432D01*
X0158962Y0190424D02*
X0169035Y0190424D01*
X0169035Y0188826D02*
X0165568Y0188826D01*
X0166625Y0187227D02*
X0169035Y0187227D01*
X0169035Y0185629D02*
X0166625Y0185629D01*
X0166625Y0184030D02*
X0169035Y0184030D01*
X0169035Y0182432D02*
X0166263Y0182432D01*
X0169035Y0177636D02*
X0136886Y0177636D01*
X0135288Y0176038D02*
X0169035Y0176038D01*
X0157597Y0166447D02*
X0136018Y0166447D01*
X0139225Y0168045D02*
X0139225Y0168045D01*
X0139225Y0169644D02*
X0139225Y0169644D01*
X0139225Y0170284D02*
X0144025Y0170284D01*
X0144025Y0172021D01*
X0143903Y0172479D01*
X0143666Y0172889D01*
X0143330Y0173225D01*
X0142920Y0173462D01*
X0142462Y0173584D01*
X0139225Y0173584D01*
X0139225Y0170284D01*
X0139225Y0170284D01*
X0139225Y0171242D02*
X0139225Y0171242D01*
X0139225Y0172841D02*
X0139225Y0172841D01*
X0143694Y0172841D02*
X0156065Y0172841D01*
X0155825Y0171242D02*
X0144025Y0171242D01*
X0144025Y0169644D02*
X0155825Y0169644D01*
X0155934Y0168045D02*
X0143877Y0168045D01*
X0144663Y0153659D02*
X0136972Y0153659D01*
X0136921Y0152060D02*
X0144663Y0152060D01*
X0147469Y0148257D02*
X0148650Y0147076D01*
X0148650Y0139989D01*
X0150619Y0138020D01*
X0158887Y0138020D01*
X0159197Y0143888D02*
X0165135Y0143888D01*
X0165135Y0142601D01*
X0164364Y0142920D01*
X0153409Y0142920D01*
X0152527Y0142555D01*
X0151852Y0141880D01*
X0151850Y0141876D01*
X0151850Y0143888D01*
X0157789Y0143888D01*
X0158493Y0144180D01*
X0159197Y0143888D01*
X0158764Y0144068D02*
X0158222Y0144068D01*
X0152441Y0142469D02*
X0151850Y0142469D01*
X0153572Y0148257D02*
X0147469Y0148257D01*
X0153572Y0148257D02*
X0154753Y0149438D01*
X0162233Y0149438D02*
X0165580Y0149438D01*
X0168335Y0146682D01*
X0168335Y0130540D01*
X0166761Y0128965D01*
X0164792Y0128965D01*
X0164847Y0132878D02*
X0165135Y0132878D01*
X0159337Y0121688D02*
X0158437Y0121688D01*
X0158437Y0120090D02*
X0159337Y0120090D01*
X0130815Y0110499D02*
X0130446Y0110499D01*
X0130446Y0108900D02*
X0130815Y0108900D01*
X0130815Y0105703D02*
X0130446Y0105703D01*
X0130446Y0104105D02*
X0130815Y0104105D01*
X0124663Y0092915D02*
X0119704Y0092915D01*
X0122361Y0091317D02*
X0125415Y0091317D01*
X0074884Y0131279D02*
X0073110Y0131279D01*
X0073110Y0132878D02*
X0074401Y0132878D01*
X0074391Y0134476D02*
X0073110Y0134476D01*
X0073110Y0136075D02*
X0075189Y0136075D01*
X0066710Y0136075D02*
X0064936Y0136075D01*
X0064936Y0137673D02*
X0066710Y0137673D01*
X0066710Y0139272D02*
X0064936Y0139272D01*
X0064936Y0140870D02*
X0066710Y0140870D01*
X0066710Y0142469D02*
X0064936Y0142469D01*
X0064936Y0144068D02*
X0066710Y0144068D01*
X0066710Y0145350D02*
X0066710Y0130822D01*
X0066189Y0130606D01*
X0065973Y0130391D01*
X0065758Y0130606D01*
X0064936Y0130947D01*
X0064936Y0147843D01*
X0067174Y0150081D01*
X0070752Y0150081D01*
X0070741Y0150069D01*
X0067197Y0146526D01*
X0066710Y0145350D01*
X0066841Y0145666D02*
X0064936Y0145666D01*
X0064936Y0147265D02*
X0067936Y0147265D01*
X0069534Y0148863D02*
X0065956Y0148863D01*
X0069910Y0144713D02*
X0069910Y0122666D01*
X0066710Y0131279D02*
X0064936Y0131279D01*
X0064936Y0132878D02*
X0066710Y0132878D01*
X0066710Y0134476D02*
X0064936Y0134476D01*
X0059136Y0134476D02*
X0057786Y0134476D01*
X0057962Y0134052D02*
X0057384Y0135449D01*
X0056315Y0136518D01*
X0054918Y0137096D01*
X0053406Y0137096D01*
X0052010Y0136518D01*
X0050941Y0135449D01*
X0050362Y0134052D01*
X0050362Y0132540D01*
X0050941Y0131144D01*
X0051174Y0130910D01*
X0050441Y0130606D01*
X0050225Y0130391D01*
X0050010Y0130606D01*
X0049128Y0130972D01*
X0043449Y0130972D01*
X0042566Y0130606D01*
X0042351Y0130391D01*
X0042136Y0130606D01*
X0041314Y0130947D01*
X0041314Y0131609D01*
X0041636Y0131931D01*
X0042214Y0133328D01*
X0042214Y0134839D01*
X0041636Y0136236D01*
X0040567Y0137305D01*
X0039170Y0137883D01*
X0038020Y0137883D01*
X0038020Y0158761D01*
X0039938Y0157967D01*
X0042087Y0157967D01*
X0044071Y0158789D01*
X0045590Y0160308D01*
X0046013Y0161327D01*
X0046435Y0160308D01*
X0047954Y0158789D01*
X0049938Y0157967D01*
X0052087Y0157967D01*
X0054071Y0158789D01*
X0055590Y0160308D01*
X0056358Y0162160D01*
X0056564Y0161524D01*
X0056907Y0160851D01*
X0057351Y0160240D01*
X0057886Y0159706D01*
X0058497Y0159262D01*
X0059170Y0158919D01*
X0059889Y0158685D01*
X0060635Y0158567D01*
X0060813Y0158567D01*
X0060813Y0166167D01*
X0061213Y0166167D01*
X0061213Y0166567D01*
X0065813Y0166567D01*
X0065813Y0168695D01*
X0075859Y0158649D01*
X0076759Y0157749D01*
X0077935Y0157261D01*
X0107561Y0157261D01*
X0108536Y0156287D01*
X0108941Y0155881D01*
X0065396Y0155881D01*
X0064330Y0155440D01*
X0063515Y0154624D01*
X0059578Y0150687D01*
X0059136Y0149621D01*
X0059136Y0130947D01*
X0058315Y0130606D01*
X0058099Y0130391D01*
X0057884Y0130606D01*
X0057150Y0130910D01*
X0057384Y0131144D01*
X0057962Y0132540D01*
X0057962Y0134052D01*
X0057962Y0132878D02*
X0059136Y0132878D01*
X0059136Y0131279D02*
X0057440Y0131279D01*
X0056757Y0136075D02*
X0059136Y0136075D01*
X0059136Y0137673D02*
X0039677Y0137673D01*
X0038020Y0139272D02*
X0059136Y0139272D01*
X0059136Y0140870D02*
X0038020Y0140870D01*
X0038020Y0142469D02*
X0059136Y0142469D01*
X0059136Y0144068D02*
X0038020Y0144068D01*
X0038020Y0145666D02*
X0059136Y0145666D01*
X0059136Y0147265D02*
X0038020Y0147265D01*
X0038020Y0148863D02*
X0059136Y0148863D01*
X0059484Y0150462D02*
X0038020Y0150462D01*
X0038020Y0152060D02*
X0060951Y0152060D01*
X0062549Y0153659D02*
X0038020Y0153659D01*
X0038020Y0155257D02*
X0064148Y0155257D01*
X0062855Y0158919D02*
X0062137Y0158685D01*
X0061390Y0158567D01*
X0061213Y0158567D01*
X0061213Y0166167D01*
X0065813Y0166167D01*
X0065813Y0162989D01*
X0065694Y0162243D01*
X0065461Y0161524D01*
X0065118Y0160851D01*
X0064674Y0160240D01*
X0064140Y0159706D01*
X0063528Y0159262D01*
X0062855Y0158919D01*
X0064487Y0160053D02*
X0074455Y0160053D01*
X0072856Y0161651D02*
X0065502Y0161651D01*
X0065813Y0163250D02*
X0071258Y0163250D01*
X0069659Y0164848D02*
X0065813Y0164848D01*
X0068061Y0166447D02*
X0061213Y0166447D01*
X0061213Y0164848D02*
X0060813Y0164848D01*
X0060813Y0163250D02*
X0061213Y0163250D01*
X0061213Y0161651D02*
X0060813Y0161651D01*
X0060813Y0160053D02*
X0061213Y0160053D01*
X0057539Y0160053D02*
X0055335Y0160053D01*
X0056147Y0161651D02*
X0056523Y0161651D01*
X0053263Y0158454D02*
X0076053Y0158454D01*
X0081328Y0166761D02*
X0121485Y0166761D01*
X0120160Y0169961D02*
X0117017Y0169961D01*
X0117017Y0170666D01*
X0116439Y0172063D01*
X0116370Y0172131D01*
X0118869Y0172801D01*
X0122208Y0174729D01*
X0124934Y0177455D01*
X0126862Y0180794D01*
X0127860Y0184518D01*
X0127860Y0188373D01*
X0126862Y0192097D01*
X0126312Y0193050D01*
X0143345Y0193050D01*
X0142276Y0190467D01*
X0142276Y0189184D01*
X0135748Y0189184D01*
X0134866Y0188819D01*
X0134191Y0188144D01*
X0133825Y0187262D01*
X0133825Y0183626D01*
X0120160Y0169961D01*
X0121441Y0171242D02*
X0116779Y0171242D01*
X0118938Y0172841D02*
X0123040Y0172841D01*
X0121707Y0174439D02*
X0124638Y0174439D01*
X0123517Y0176038D02*
X0126237Y0176038D01*
X0125039Y0177636D02*
X0127835Y0177636D01*
X0129434Y0179235D02*
X0125962Y0179235D01*
X0126873Y0180833D02*
X0131032Y0180833D01*
X0132631Y0182432D02*
X0127301Y0182432D01*
X0127729Y0184030D02*
X0133825Y0184030D01*
X0133825Y0185629D02*
X0127860Y0185629D01*
X0127860Y0187227D02*
X0133825Y0187227D01*
X0134883Y0188826D02*
X0127739Y0188826D01*
X0127310Y0190424D02*
X0142276Y0190424D01*
X0142920Y0192023D02*
X0126882Y0192023D01*
X0107030Y0173110D02*
X0084228Y0173110D01*
X0080984Y0176354D01*
X0080984Y0179077D01*
X0081506Y0179293D01*
X0081721Y0179508D01*
X0081871Y0179358D01*
X0081858Y0179328D01*
X0081858Y0177816D01*
X0082437Y0176419D01*
X0083506Y0175350D01*
X0084902Y0174772D01*
X0086414Y0174772D01*
X0087811Y0175350D01*
X0088880Y0176419D01*
X0089458Y0177816D01*
X0089458Y0179328D01*
X0089445Y0179358D01*
X0090020Y0179933D01*
X0090065Y0179887D01*
X0090475Y0179650D01*
X0090933Y0179528D01*
X0093151Y0179528D01*
X0093151Y0186852D01*
X0093913Y0186852D01*
X0093913Y0179528D01*
X0096131Y0179528D01*
X0096589Y0179650D01*
X0097000Y0179887D01*
X0097335Y0180222D01*
X0097572Y0180633D01*
X0097694Y0181091D01*
X0097694Y0186852D01*
X0093913Y0186852D01*
X0093913Y0187614D01*
X0097694Y0187614D01*
X0097694Y0193050D01*
X0100123Y0193050D01*
X0099573Y0192097D01*
X0098575Y0188373D01*
X0098575Y0184518D01*
X0099573Y0180794D01*
X0101500Y0177455D01*
X0104227Y0174729D01*
X0107030Y0173110D01*
X0104728Y0174439D02*
X0082899Y0174439D01*
X0082818Y0176038D02*
X0081300Y0176038D01*
X0080984Y0177636D02*
X0081933Y0177636D01*
X0081858Y0179235D02*
X0081365Y0179235D01*
X0085658Y0178572D02*
X0085658Y0187233D01*
X0093139Y0186839D02*
X0093139Y0176209D01*
X0089384Y0177636D02*
X0101396Y0177636D01*
X0100473Y0179235D02*
X0089458Y0179235D01*
X0088498Y0176038D02*
X0102918Y0176038D01*
X0099562Y0180833D02*
X0097626Y0180833D01*
X0097694Y0182432D02*
X0099134Y0182432D01*
X0098705Y0184030D02*
X0097694Y0184030D01*
X0097694Y0185629D02*
X0098575Y0185629D01*
X0098575Y0187227D02*
X0093913Y0187227D01*
X0093532Y0187233D02*
X0093139Y0186839D01*
X0093151Y0185629D02*
X0093913Y0185629D01*
X0093913Y0184030D02*
X0093151Y0184030D01*
X0093151Y0182432D02*
X0093913Y0182432D01*
X0093913Y0180833D02*
X0093151Y0180833D01*
X0097694Y0188826D02*
X0098696Y0188826D01*
X0099124Y0190424D02*
X0097694Y0190424D01*
X0097694Y0192023D02*
X0099553Y0192023D01*
X0077784Y0187233D02*
X0077784Y0175028D01*
X0082902Y0169910D01*
X0113217Y0169910D01*
X0107967Y0156856D02*
X0038020Y0156856D01*
X0038020Y0158454D02*
X0038762Y0158454D01*
X0043263Y0158454D02*
X0048762Y0158454D01*
X0046690Y0160053D02*
X0045335Y0160053D01*
X0041013Y0166367D02*
X0038414Y0168965D01*
X0038414Y0187233D01*
X0046288Y0187233D02*
X0046288Y0171091D01*
X0051013Y0166367D01*
X0056358Y0170574D02*
X0056001Y0171435D01*
X0056679Y0171435D01*
X0056564Y0171209D01*
X0056358Y0170574D01*
X0056581Y0171242D02*
X0056081Y0171242D01*
X0051867Y0174767D02*
X0049938Y0174767D01*
X0049488Y0174580D01*
X0049488Y0179077D01*
X0050010Y0179293D01*
X0050225Y0179508D01*
X0050441Y0179293D01*
X0050962Y0179077D01*
X0050962Y0176360D01*
X0051449Y0175184D01*
X0051867Y0174767D01*
X0051096Y0176038D02*
X0049488Y0176038D01*
X0049488Y0177636D02*
X0050962Y0177636D01*
X0050581Y0179235D02*
X0049869Y0179235D01*
X0043088Y0179077D02*
X0043088Y0174352D01*
X0042087Y0174767D01*
X0041614Y0174767D01*
X0041614Y0179077D01*
X0042136Y0179293D01*
X0042351Y0179508D01*
X0042566Y0179293D01*
X0043088Y0179077D01*
X0042707Y0179235D02*
X0041995Y0179235D01*
X0041614Y0177636D02*
X0043088Y0177636D01*
X0043088Y0176038D02*
X0041614Y0176038D01*
X0042878Y0174439D02*
X0043088Y0174439D01*
X0057362Y0178322D02*
X0057362Y0179077D01*
X0057884Y0179293D01*
X0058099Y0179508D01*
X0058315Y0179293D01*
X0058836Y0179077D01*
X0058836Y0177835D01*
X0057850Y0177835D01*
X0057362Y0178322D01*
X0057743Y0179235D02*
X0058455Y0179235D01*
X0069910Y0178178D02*
X0081328Y0166761D01*
X0074584Y0178029D02*
X0073412Y0179202D01*
X0073632Y0179293D01*
X0073847Y0179508D01*
X0074063Y0179293D01*
X0074584Y0179077D01*
X0074584Y0178029D01*
X0074203Y0179235D02*
X0073491Y0179235D01*
X0069910Y0178178D02*
X0069910Y0187233D01*
X0066462Y0168045D02*
X0065813Y0168045D01*
X0070741Y0150069D02*
X0070741Y0150069D01*
X0051567Y0136075D02*
X0041702Y0136075D01*
X0042214Y0134476D02*
X0050538Y0134476D01*
X0050362Y0132878D02*
X0042028Y0132878D01*
X0041314Y0131279D02*
X0050884Y0131279D01*
X0034182Y0115236D02*
X0010219Y0115236D01*
X0009042Y0114749D01*
X0007400Y0113107D01*
X0007400Y0117154D01*
X0033652Y0117154D01*
X0033652Y0116283D01*
X0034017Y0115401D01*
X0034182Y0115236D01*
X0034124Y0115294D02*
X0007400Y0115294D01*
X0007400Y0113696D02*
X0007989Y0113696D01*
X0007400Y0116893D02*
X0033652Y0116893D01*
X0040962Y0108836D02*
X0040109Y0106776D01*
X0040109Y0103832D01*
X0041235Y0101112D01*
X0043317Y0099031D01*
X0045968Y0097932D01*
X0035125Y0097932D01*
X0035125Y0098671D01*
X0034175Y0100964D01*
X0032420Y0102719D01*
X0030128Y0103668D01*
X0027646Y0103668D01*
X0025353Y0102719D01*
X0023598Y0100964D01*
X0023043Y0099623D01*
X0023043Y0100908D01*
X0023042Y0100908D02*
X0023575Y0100908D01*
X0023043Y0100908D02*
X0022285Y0102736D01*
X0020886Y0104136D01*
X0019057Y0104893D01*
X0011929Y0104893D01*
X0011693Y0104795D01*
X0011693Y0108349D01*
X0012181Y0108836D01*
X0040962Y0108836D01*
X0040326Y0107302D02*
X0011693Y0107302D01*
X0011693Y0105703D02*
X0040109Y0105703D01*
X0040109Y0104105D02*
X0020917Y0104105D01*
X0022380Y0102506D02*
X0025140Y0102506D01*
X0022648Y0097711D02*
X0022538Y0097711D01*
X0022680Y0096112D02*
X0021297Y0096112D01*
X0032633Y0102506D02*
X0040658Y0102506D01*
X0041440Y0100908D02*
X0034199Y0100908D01*
X0034861Y0099309D02*
X0043038Y0099309D01*
X0158318Y0192023D02*
X0169035Y0192023D01*
X0169035Y0153659D02*
X0166946Y0153659D01*
X0167483Y0152060D02*
X0169035Y0152060D01*
D12*
X0076131Y0055186D02*
X0076131Y0045186D01*
X0028887Y0045186D02*
X0028887Y0055186D01*
X0047509Y0105304D02*
X0057509Y0105304D01*
D13*
X0076131Y0097430D03*
X0028887Y0097430D03*
D14*
X0090776Y0089595D03*
X0090776Y0072272D03*
D15*
X0090383Y0021485D03*
X0110068Y0021485D03*
X0129753Y0021485D03*
X0149438Y0021485D03*
X0169123Y0021485D03*
X0188808Y0021485D03*
X0070698Y0021485D03*
X0051013Y0021485D03*
X0031328Y0021485D03*
X0011643Y0021485D03*
D16*
X0154753Y0149438D03*
X0162233Y0149438D03*
D17*
X0159375Y0054950D03*
X0153375Y0054950D03*
X0147375Y0054950D03*
X0126304Y0054950D03*
X0120304Y0054950D03*
X0114304Y0054950D03*
D18*
X0120304Y0054950D02*
X0125304Y0054950D01*
X0126304Y0054950D02*
X0133690Y0054950D01*
X0134083Y0055343D01*
X0147076Y0064005D02*
X0147375Y0063706D01*
X0153375Y0054950D02*
X0158375Y0054950D01*
X0158493Y0055619D01*
X0158493Y0047863D01*
X0077784Y0122666D02*
X0077784Y0133296D01*
X0078178Y0133690D01*
X0062036Y0122666D02*
X0062036Y0149044D01*
X0065973Y0152981D01*
X0119910Y0152981D01*
X0128611Y0133296D02*
X0128572Y0133257D01*
X0093139Y0176209D02*
X0093532Y0176603D01*
X0054162Y0133296D02*
X0054162Y0122666D01*
X0038414Y0122666D02*
X0038414Y0134083D01*
D19*
X0041013Y0163367D02*
X0041013Y0169367D01*
X0051013Y0169367D02*
X0051013Y0163367D01*
X0061013Y0163367D02*
X0061013Y0169367D01*
X0125572Y0163257D02*
X0131572Y0163257D01*
X0131572Y0153257D02*
X0125572Y0153257D01*
X0125572Y0143257D02*
X0131572Y0143257D01*
X0131572Y0133257D02*
X0125572Y0133257D01*
D20*
X0091068Y0099918D02*
X0085918Y0099918D01*
X0085918Y0047918D02*
X0091068Y0047918D01*
X0018068Y0047918D02*
X0012918Y0047918D01*
X0012918Y0099918D02*
X0018068Y0099918D01*
D21*
X0038414Y0122666D03*
X0046288Y0122666D03*
X0054162Y0122666D03*
X0062036Y0122666D03*
X0069910Y0122666D03*
X0077784Y0122666D03*
X0085658Y0122666D03*
X0093532Y0122666D03*
X0093532Y0187233D03*
X0085658Y0187233D03*
X0077784Y0187233D03*
X0069910Y0187233D03*
X0062036Y0187233D03*
X0054162Y0187233D03*
X0046288Y0187233D03*
X0038414Y0187233D03*
D22*
X0110619Y0143296D03*
D23*
X0110619Y0133296D03*
X0110619Y0123296D03*
X0171209Y0076052D03*
X0181209Y0076052D03*
X0191209Y0076052D03*
D24*
X0158887Y0118335D03*
X0158887Y0128178D03*
X0158887Y0138020D03*
D25*
X0150922Y0107312D03*
X0150922Y0094713D03*
X0130631Y0094713D03*
X0130631Y0107312D03*
D26*
X0139225Y0170284D03*
X0139225Y0185284D03*
X0161225Y0185284D03*
X0161225Y0170284D03*
D27*
X0147076Y0170698D03*
X0139989Y0158099D03*
X0119910Y0152981D03*
X0118729Y0163217D03*
X0113217Y0169910D03*
X0093139Y0176209D03*
X0085658Y0178572D03*
X0078178Y0133690D03*
X0093532Y0133690D03*
X0125028Y0097076D03*
X0140383Y0075028D03*
X0134083Y0055343D03*
X0132115Y0050225D03*
X0158493Y0047863D03*
X0164005Y0054950D03*
X0188020Y0052587D03*
X0067154Y0086052D03*
X0054162Y0133296D03*
X0038414Y0134083D03*
D28*
X0073060Y0106524D02*
X0081887Y0106524D01*
X0088493Y0099918D01*
X0090776Y0097635D01*
X0090776Y0089595D01*
X0088414Y0099839D02*
X0088493Y0099918D01*
X0077784Y0095776D02*
X0076131Y0097430D01*
X0077784Y0095776D02*
X0077784Y0076603D01*
X0082115Y0072272D01*
X0090776Y0072272D01*
X0060068Y0093532D02*
X0073060Y0106524D01*
X0060068Y0093532D02*
X0032784Y0093532D01*
X0028887Y0097430D01*
M02*
