G75*
%MOIN*%
%OFA0B0*%
%FSLAX25Y25*%
%IPPOS*%
%LPD*%
%AMOC8*
5,1,8,0,0,1.08239X$1,22.5*
%
%ADD10C,0.00000*%
%ADD11C,0.01600*%
%ADD12C,0.10000*%
%ADD13C,0.07677*%
%ADD14R,0.04799X0.08799*%
%ADD15R,0.14173X0.08661*%
%ADD16OC8,0.10000*%
%ADD17R,0.06299X0.05118*%
%ADD18R,0.05118X0.06299*%
%ADD19C,0.06000*%
%ADD20C,0.05150*%
%ADD21R,0.05937X0.05937*%
%ADD22C,0.05937*%
%ADD23C,0.01000*%
%ADD24C,0.02800*%
%ADD25C,0.04000*%
%ADD26C,0.02400*%
D10*
X0103374Y0079753D02*
X0103377Y0079995D01*
X0103386Y0080236D01*
X0103401Y0080477D01*
X0103421Y0080718D01*
X0103448Y0080958D01*
X0103481Y0081197D01*
X0103519Y0081436D01*
X0103563Y0081673D01*
X0103613Y0081910D01*
X0103669Y0082145D01*
X0103731Y0082378D01*
X0103798Y0082610D01*
X0103871Y0082841D01*
X0103949Y0083069D01*
X0104034Y0083295D01*
X0104123Y0083520D01*
X0104218Y0083742D01*
X0104319Y0083961D01*
X0104425Y0084179D01*
X0104536Y0084393D01*
X0104653Y0084605D01*
X0104774Y0084813D01*
X0104901Y0085019D01*
X0105033Y0085221D01*
X0105170Y0085421D01*
X0105311Y0085616D01*
X0105457Y0085809D01*
X0105608Y0085997D01*
X0105764Y0086182D01*
X0105924Y0086363D01*
X0106088Y0086540D01*
X0106257Y0086713D01*
X0106430Y0086882D01*
X0106607Y0087046D01*
X0106788Y0087206D01*
X0106973Y0087362D01*
X0107161Y0087513D01*
X0107354Y0087659D01*
X0107549Y0087800D01*
X0107749Y0087937D01*
X0107951Y0088069D01*
X0108157Y0088196D01*
X0108365Y0088317D01*
X0108577Y0088434D01*
X0108791Y0088545D01*
X0109009Y0088651D01*
X0109228Y0088752D01*
X0109450Y0088847D01*
X0109675Y0088936D01*
X0109901Y0089021D01*
X0110129Y0089099D01*
X0110360Y0089172D01*
X0110592Y0089239D01*
X0110825Y0089301D01*
X0111060Y0089357D01*
X0111297Y0089407D01*
X0111534Y0089451D01*
X0111773Y0089489D01*
X0112012Y0089522D01*
X0112252Y0089549D01*
X0112493Y0089569D01*
X0112734Y0089584D01*
X0112975Y0089593D01*
X0113217Y0089596D01*
X0113459Y0089593D01*
X0113700Y0089584D01*
X0113941Y0089569D01*
X0114182Y0089549D01*
X0114422Y0089522D01*
X0114661Y0089489D01*
X0114900Y0089451D01*
X0115137Y0089407D01*
X0115374Y0089357D01*
X0115609Y0089301D01*
X0115842Y0089239D01*
X0116074Y0089172D01*
X0116305Y0089099D01*
X0116533Y0089021D01*
X0116759Y0088936D01*
X0116984Y0088847D01*
X0117206Y0088752D01*
X0117425Y0088651D01*
X0117643Y0088545D01*
X0117857Y0088434D01*
X0118069Y0088317D01*
X0118277Y0088196D01*
X0118483Y0088069D01*
X0118685Y0087937D01*
X0118885Y0087800D01*
X0119080Y0087659D01*
X0119273Y0087513D01*
X0119461Y0087362D01*
X0119646Y0087206D01*
X0119827Y0087046D01*
X0120004Y0086882D01*
X0120177Y0086713D01*
X0120346Y0086540D01*
X0120510Y0086363D01*
X0120670Y0086182D01*
X0120826Y0085997D01*
X0120977Y0085809D01*
X0121123Y0085616D01*
X0121264Y0085421D01*
X0121401Y0085221D01*
X0121533Y0085019D01*
X0121660Y0084813D01*
X0121781Y0084605D01*
X0121898Y0084393D01*
X0122009Y0084179D01*
X0122115Y0083961D01*
X0122216Y0083742D01*
X0122311Y0083520D01*
X0122400Y0083295D01*
X0122485Y0083069D01*
X0122563Y0082841D01*
X0122636Y0082610D01*
X0122703Y0082378D01*
X0122765Y0082145D01*
X0122821Y0081910D01*
X0122871Y0081673D01*
X0122915Y0081436D01*
X0122953Y0081197D01*
X0122986Y0080958D01*
X0123013Y0080718D01*
X0123033Y0080477D01*
X0123048Y0080236D01*
X0123057Y0079995D01*
X0123060Y0079753D01*
X0123057Y0079511D01*
X0123048Y0079270D01*
X0123033Y0079029D01*
X0123013Y0078788D01*
X0122986Y0078548D01*
X0122953Y0078309D01*
X0122915Y0078070D01*
X0122871Y0077833D01*
X0122821Y0077596D01*
X0122765Y0077361D01*
X0122703Y0077128D01*
X0122636Y0076896D01*
X0122563Y0076665D01*
X0122485Y0076437D01*
X0122400Y0076211D01*
X0122311Y0075986D01*
X0122216Y0075764D01*
X0122115Y0075545D01*
X0122009Y0075327D01*
X0121898Y0075113D01*
X0121781Y0074901D01*
X0121660Y0074693D01*
X0121533Y0074487D01*
X0121401Y0074285D01*
X0121264Y0074085D01*
X0121123Y0073890D01*
X0120977Y0073697D01*
X0120826Y0073509D01*
X0120670Y0073324D01*
X0120510Y0073143D01*
X0120346Y0072966D01*
X0120177Y0072793D01*
X0120004Y0072624D01*
X0119827Y0072460D01*
X0119646Y0072300D01*
X0119461Y0072144D01*
X0119273Y0071993D01*
X0119080Y0071847D01*
X0118885Y0071706D01*
X0118685Y0071569D01*
X0118483Y0071437D01*
X0118277Y0071310D01*
X0118069Y0071189D01*
X0117857Y0071072D01*
X0117643Y0070961D01*
X0117425Y0070855D01*
X0117206Y0070754D01*
X0116984Y0070659D01*
X0116759Y0070570D01*
X0116533Y0070485D01*
X0116305Y0070407D01*
X0116074Y0070334D01*
X0115842Y0070267D01*
X0115609Y0070205D01*
X0115374Y0070149D01*
X0115137Y0070099D01*
X0114900Y0070055D01*
X0114661Y0070017D01*
X0114422Y0069984D01*
X0114182Y0069957D01*
X0113941Y0069937D01*
X0113700Y0069922D01*
X0113459Y0069913D01*
X0113217Y0069910D01*
X0112975Y0069913D01*
X0112734Y0069922D01*
X0112493Y0069937D01*
X0112252Y0069957D01*
X0112012Y0069984D01*
X0111773Y0070017D01*
X0111534Y0070055D01*
X0111297Y0070099D01*
X0111060Y0070149D01*
X0110825Y0070205D01*
X0110592Y0070267D01*
X0110360Y0070334D01*
X0110129Y0070407D01*
X0109901Y0070485D01*
X0109675Y0070570D01*
X0109450Y0070659D01*
X0109228Y0070754D01*
X0109009Y0070855D01*
X0108791Y0070961D01*
X0108577Y0071072D01*
X0108365Y0071189D01*
X0108157Y0071310D01*
X0107951Y0071437D01*
X0107749Y0071569D01*
X0107549Y0071706D01*
X0107354Y0071847D01*
X0107161Y0071993D01*
X0106973Y0072144D01*
X0106788Y0072300D01*
X0106607Y0072460D01*
X0106430Y0072624D01*
X0106257Y0072793D01*
X0106088Y0072966D01*
X0105924Y0073143D01*
X0105764Y0073324D01*
X0105608Y0073509D01*
X0105457Y0073697D01*
X0105311Y0073890D01*
X0105170Y0074085D01*
X0105033Y0074285D01*
X0104901Y0074487D01*
X0104774Y0074693D01*
X0104653Y0074901D01*
X0104536Y0075113D01*
X0104425Y0075327D01*
X0104319Y0075545D01*
X0104218Y0075764D01*
X0104123Y0075986D01*
X0104034Y0076211D01*
X0103949Y0076437D01*
X0103871Y0076665D01*
X0103798Y0076896D01*
X0103731Y0077128D01*
X0103669Y0077361D01*
X0103613Y0077596D01*
X0103563Y0077833D01*
X0103519Y0078070D01*
X0103481Y0078309D01*
X0103448Y0078548D01*
X0103421Y0078788D01*
X0103401Y0079029D01*
X0103386Y0079270D01*
X0103377Y0079511D01*
X0103374Y0079753D01*
X0147076Y0077784D02*
X0147078Y0077902D01*
X0147084Y0078021D01*
X0147094Y0078139D01*
X0147108Y0078256D01*
X0147125Y0078373D01*
X0147147Y0078490D01*
X0147173Y0078605D01*
X0147202Y0078720D01*
X0147235Y0078834D01*
X0147272Y0078946D01*
X0147313Y0079057D01*
X0147357Y0079167D01*
X0147405Y0079275D01*
X0147457Y0079382D01*
X0147512Y0079487D01*
X0147571Y0079590D01*
X0147633Y0079690D01*
X0147698Y0079789D01*
X0147767Y0079886D01*
X0147838Y0079980D01*
X0147913Y0080071D01*
X0147991Y0080161D01*
X0148072Y0080247D01*
X0148156Y0080331D01*
X0148242Y0080412D01*
X0148332Y0080490D01*
X0148423Y0080565D01*
X0148517Y0080636D01*
X0148614Y0080705D01*
X0148713Y0080770D01*
X0148813Y0080832D01*
X0148916Y0080891D01*
X0149021Y0080946D01*
X0149128Y0080998D01*
X0149236Y0081046D01*
X0149346Y0081090D01*
X0149457Y0081131D01*
X0149569Y0081168D01*
X0149683Y0081201D01*
X0149798Y0081230D01*
X0149913Y0081256D01*
X0150030Y0081278D01*
X0150147Y0081295D01*
X0150264Y0081309D01*
X0150382Y0081319D01*
X0150501Y0081325D01*
X0150619Y0081327D01*
X0150737Y0081325D01*
X0150856Y0081319D01*
X0150974Y0081309D01*
X0151091Y0081295D01*
X0151208Y0081278D01*
X0151325Y0081256D01*
X0151440Y0081230D01*
X0151555Y0081201D01*
X0151669Y0081168D01*
X0151781Y0081131D01*
X0151892Y0081090D01*
X0152002Y0081046D01*
X0152110Y0080998D01*
X0152217Y0080946D01*
X0152322Y0080891D01*
X0152425Y0080832D01*
X0152525Y0080770D01*
X0152624Y0080705D01*
X0152721Y0080636D01*
X0152815Y0080565D01*
X0152906Y0080490D01*
X0152996Y0080412D01*
X0153082Y0080331D01*
X0153166Y0080247D01*
X0153247Y0080161D01*
X0153325Y0080071D01*
X0153400Y0079980D01*
X0153471Y0079886D01*
X0153540Y0079789D01*
X0153605Y0079690D01*
X0153667Y0079590D01*
X0153726Y0079487D01*
X0153781Y0079382D01*
X0153833Y0079275D01*
X0153881Y0079167D01*
X0153925Y0079057D01*
X0153966Y0078946D01*
X0154003Y0078834D01*
X0154036Y0078720D01*
X0154065Y0078605D01*
X0154091Y0078490D01*
X0154113Y0078373D01*
X0154130Y0078256D01*
X0154144Y0078139D01*
X0154154Y0078021D01*
X0154160Y0077902D01*
X0154162Y0077784D01*
X0154160Y0077666D01*
X0154154Y0077547D01*
X0154144Y0077429D01*
X0154130Y0077312D01*
X0154113Y0077195D01*
X0154091Y0077078D01*
X0154065Y0076963D01*
X0154036Y0076848D01*
X0154003Y0076734D01*
X0153966Y0076622D01*
X0153925Y0076511D01*
X0153881Y0076401D01*
X0153833Y0076293D01*
X0153781Y0076186D01*
X0153726Y0076081D01*
X0153667Y0075978D01*
X0153605Y0075878D01*
X0153540Y0075779D01*
X0153471Y0075682D01*
X0153400Y0075588D01*
X0153325Y0075497D01*
X0153247Y0075407D01*
X0153166Y0075321D01*
X0153082Y0075237D01*
X0152996Y0075156D01*
X0152906Y0075078D01*
X0152815Y0075003D01*
X0152721Y0074932D01*
X0152624Y0074863D01*
X0152525Y0074798D01*
X0152425Y0074736D01*
X0152322Y0074677D01*
X0152217Y0074622D01*
X0152110Y0074570D01*
X0152002Y0074522D01*
X0151892Y0074478D01*
X0151781Y0074437D01*
X0151669Y0074400D01*
X0151555Y0074367D01*
X0151440Y0074338D01*
X0151325Y0074312D01*
X0151208Y0074290D01*
X0151091Y0074273D01*
X0150974Y0074259D01*
X0150856Y0074249D01*
X0150737Y0074243D01*
X0150619Y0074241D01*
X0150501Y0074243D01*
X0150382Y0074249D01*
X0150264Y0074259D01*
X0150147Y0074273D01*
X0150030Y0074290D01*
X0149913Y0074312D01*
X0149798Y0074338D01*
X0149683Y0074367D01*
X0149569Y0074400D01*
X0149457Y0074437D01*
X0149346Y0074478D01*
X0149236Y0074522D01*
X0149128Y0074570D01*
X0149021Y0074622D01*
X0148916Y0074677D01*
X0148813Y0074736D01*
X0148713Y0074798D01*
X0148614Y0074863D01*
X0148517Y0074932D01*
X0148423Y0075003D01*
X0148332Y0075078D01*
X0148242Y0075156D01*
X0148156Y0075237D01*
X0148072Y0075321D01*
X0147991Y0075407D01*
X0147913Y0075497D01*
X0147838Y0075588D01*
X0147767Y0075682D01*
X0147698Y0075779D01*
X0147633Y0075878D01*
X0147571Y0075978D01*
X0147512Y0076081D01*
X0147457Y0076186D01*
X0147405Y0076293D01*
X0147357Y0076401D01*
X0147313Y0076511D01*
X0147272Y0076622D01*
X0147235Y0076734D01*
X0147202Y0076848D01*
X0147173Y0076963D01*
X0147147Y0077078D01*
X0147125Y0077195D01*
X0147108Y0077312D01*
X0147094Y0077429D01*
X0147084Y0077547D01*
X0147078Y0077666D01*
X0147076Y0077784D01*
X0103374Y0186446D02*
X0103377Y0186688D01*
X0103386Y0186929D01*
X0103401Y0187170D01*
X0103421Y0187411D01*
X0103448Y0187651D01*
X0103481Y0187890D01*
X0103519Y0188129D01*
X0103563Y0188366D01*
X0103613Y0188603D01*
X0103669Y0188838D01*
X0103731Y0189071D01*
X0103798Y0189303D01*
X0103871Y0189534D01*
X0103949Y0189762D01*
X0104034Y0189988D01*
X0104123Y0190213D01*
X0104218Y0190435D01*
X0104319Y0190654D01*
X0104425Y0190872D01*
X0104536Y0191086D01*
X0104653Y0191298D01*
X0104774Y0191506D01*
X0104901Y0191712D01*
X0105033Y0191914D01*
X0105170Y0192114D01*
X0105311Y0192309D01*
X0105457Y0192502D01*
X0105608Y0192690D01*
X0105764Y0192875D01*
X0105924Y0193056D01*
X0106088Y0193233D01*
X0106257Y0193406D01*
X0106430Y0193575D01*
X0106607Y0193739D01*
X0106788Y0193899D01*
X0106973Y0194055D01*
X0107161Y0194206D01*
X0107354Y0194352D01*
X0107549Y0194493D01*
X0107749Y0194630D01*
X0107951Y0194762D01*
X0108157Y0194889D01*
X0108365Y0195010D01*
X0108577Y0195127D01*
X0108791Y0195238D01*
X0109009Y0195344D01*
X0109228Y0195445D01*
X0109450Y0195540D01*
X0109675Y0195629D01*
X0109901Y0195714D01*
X0110129Y0195792D01*
X0110360Y0195865D01*
X0110592Y0195932D01*
X0110825Y0195994D01*
X0111060Y0196050D01*
X0111297Y0196100D01*
X0111534Y0196144D01*
X0111773Y0196182D01*
X0112012Y0196215D01*
X0112252Y0196242D01*
X0112493Y0196262D01*
X0112734Y0196277D01*
X0112975Y0196286D01*
X0113217Y0196289D01*
X0113459Y0196286D01*
X0113700Y0196277D01*
X0113941Y0196262D01*
X0114182Y0196242D01*
X0114422Y0196215D01*
X0114661Y0196182D01*
X0114900Y0196144D01*
X0115137Y0196100D01*
X0115374Y0196050D01*
X0115609Y0195994D01*
X0115842Y0195932D01*
X0116074Y0195865D01*
X0116305Y0195792D01*
X0116533Y0195714D01*
X0116759Y0195629D01*
X0116984Y0195540D01*
X0117206Y0195445D01*
X0117425Y0195344D01*
X0117643Y0195238D01*
X0117857Y0195127D01*
X0118069Y0195010D01*
X0118277Y0194889D01*
X0118483Y0194762D01*
X0118685Y0194630D01*
X0118885Y0194493D01*
X0119080Y0194352D01*
X0119273Y0194206D01*
X0119461Y0194055D01*
X0119646Y0193899D01*
X0119827Y0193739D01*
X0120004Y0193575D01*
X0120177Y0193406D01*
X0120346Y0193233D01*
X0120510Y0193056D01*
X0120670Y0192875D01*
X0120826Y0192690D01*
X0120977Y0192502D01*
X0121123Y0192309D01*
X0121264Y0192114D01*
X0121401Y0191914D01*
X0121533Y0191712D01*
X0121660Y0191506D01*
X0121781Y0191298D01*
X0121898Y0191086D01*
X0122009Y0190872D01*
X0122115Y0190654D01*
X0122216Y0190435D01*
X0122311Y0190213D01*
X0122400Y0189988D01*
X0122485Y0189762D01*
X0122563Y0189534D01*
X0122636Y0189303D01*
X0122703Y0189071D01*
X0122765Y0188838D01*
X0122821Y0188603D01*
X0122871Y0188366D01*
X0122915Y0188129D01*
X0122953Y0187890D01*
X0122986Y0187651D01*
X0123013Y0187411D01*
X0123033Y0187170D01*
X0123048Y0186929D01*
X0123057Y0186688D01*
X0123060Y0186446D01*
X0123057Y0186204D01*
X0123048Y0185963D01*
X0123033Y0185722D01*
X0123013Y0185481D01*
X0122986Y0185241D01*
X0122953Y0185002D01*
X0122915Y0184763D01*
X0122871Y0184526D01*
X0122821Y0184289D01*
X0122765Y0184054D01*
X0122703Y0183821D01*
X0122636Y0183589D01*
X0122563Y0183358D01*
X0122485Y0183130D01*
X0122400Y0182904D01*
X0122311Y0182679D01*
X0122216Y0182457D01*
X0122115Y0182238D01*
X0122009Y0182020D01*
X0121898Y0181806D01*
X0121781Y0181594D01*
X0121660Y0181386D01*
X0121533Y0181180D01*
X0121401Y0180978D01*
X0121264Y0180778D01*
X0121123Y0180583D01*
X0120977Y0180390D01*
X0120826Y0180202D01*
X0120670Y0180017D01*
X0120510Y0179836D01*
X0120346Y0179659D01*
X0120177Y0179486D01*
X0120004Y0179317D01*
X0119827Y0179153D01*
X0119646Y0178993D01*
X0119461Y0178837D01*
X0119273Y0178686D01*
X0119080Y0178540D01*
X0118885Y0178399D01*
X0118685Y0178262D01*
X0118483Y0178130D01*
X0118277Y0178003D01*
X0118069Y0177882D01*
X0117857Y0177765D01*
X0117643Y0177654D01*
X0117425Y0177548D01*
X0117206Y0177447D01*
X0116984Y0177352D01*
X0116759Y0177263D01*
X0116533Y0177178D01*
X0116305Y0177100D01*
X0116074Y0177027D01*
X0115842Y0176960D01*
X0115609Y0176898D01*
X0115374Y0176842D01*
X0115137Y0176792D01*
X0114900Y0176748D01*
X0114661Y0176710D01*
X0114422Y0176677D01*
X0114182Y0176650D01*
X0113941Y0176630D01*
X0113700Y0176615D01*
X0113459Y0176606D01*
X0113217Y0176603D01*
X0112975Y0176606D01*
X0112734Y0176615D01*
X0112493Y0176630D01*
X0112252Y0176650D01*
X0112012Y0176677D01*
X0111773Y0176710D01*
X0111534Y0176748D01*
X0111297Y0176792D01*
X0111060Y0176842D01*
X0110825Y0176898D01*
X0110592Y0176960D01*
X0110360Y0177027D01*
X0110129Y0177100D01*
X0109901Y0177178D01*
X0109675Y0177263D01*
X0109450Y0177352D01*
X0109228Y0177447D01*
X0109009Y0177548D01*
X0108791Y0177654D01*
X0108577Y0177765D01*
X0108365Y0177882D01*
X0108157Y0178003D01*
X0107951Y0178130D01*
X0107749Y0178262D01*
X0107549Y0178399D01*
X0107354Y0178540D01*
X0107161Y0178686D01*
X0106973Y0178837D01*
X0106788Y0178993D01*
X0106607Y0179153D01*
X0106430Y0179317D01*
X0106257Y0179486D01*
X0106088Y0179659D01*
X0105924Y0179836D01*
X0105764Y0180017D01*
X0105608Y0180202D01*
X0105457Y0180390D01*
X0105311Y0180583D01*
X0105170Y0180778D01*
X0105033Y0180978D01*
X0104901Y0181180D01*
X0104774Y0181386D01*
X0104653Y0181594D01*
X0104536Y0181806D01*
X0104425Y0182020D01*
X0104319Y0182238D01*
X0104218Y0182457D01*
X0104123Y0182679D01*
X0104034Y0182904D01*
X0103949Y0183130D01*
X0103871Y0183358D01*
X0103798Y0183589D01*
X0103731Y0183821D01*
X0103669Y0184054D01*
X0103613Y0184289D01*
X0103563Y0184526D01*
X0103519Y0184763D01*
X0103481Y0185002D01*
X0103448Y0185241D01*
X0103421Y0185481D01*
X0103401Y0185722D01*
X0103386Y0185963D01*
X0103377Y0186204D01*
X0103374Y0186446D01*
X0147076Y0188808D02*
X0147078Y0188926D01*
X0147084Y0189045D01*
X0147094Y0189163D01*
X0147108Y0189280D01*
X0147125Y0189397D01*
X0147147Y0189514D01*
X0147173Y0189629D01*
X0147202Y0189744D01*
X0147235Y0189858D01*
X0147272Y0189970D01*
X0147313Y0190081D01*
X0147357Y0190191D01*
X0147405Y0190299D01*
X0147457Y0190406D01*
X0147512Y0190511D01*
X0147571Y0190614D01*
X0147633Y0190714D01*
X0147698Y0190813D01*
X0147767Y0190910D01*
X0147838Y0191004D01*
X0147913Y0191095D01*
X0147991Y0191185D01*
X0148072Y0191271D01*
X0148156Y0191355D01*
X0148242Y0191436D01*
X0148332Y0191514D01*
X0148423Y0191589D01*
X0148517Y0191660D01*
X0148614Y0191729D01*
X0148713Y0191794D01*
X0148813Y0191856D01*
X0148916Y0191915D01*
X0149021Y0191970D01*
X0149128Y0192022D01*
X0149236Y0192070D01*
X0149346Y0192114D01*
X0149457Y0192155D01*
X0149569Y0192192D01*
X0149683Y0192225D01*
X0149798Y0192254D01*
X0149913Y0192280D01*
X0150030Y0192302D01*
X0150147Y0192319D01*
X0150264Y0192333D01*
X0150382Y0192343D01*
X0150501Y0192349D01*
X0150619Y0192351D01*
X0150737Y0192349D01*
X0150856Y0192343D01*
X0150974Y0192333D01*
X0151091Y0192319D01*
X0151208Y0192302D01*
X0151325Y0192280D01*
X0151440Y0192254D01*
X0151555Y0192225D01*
X0151669Y0192192D01*
X0151781Y0192155D01*
X0151892Y0192114D01*
X0152002Y0192070D01*
X0152110Y0192022D01*
X0152217Y0191970D01*
X0152322Y0191915D01*
X0152425Y0191856D01*
X0152525Y0191794D01*
X0152624Y0191729D01*
X0152721Y0191660D01*
X0152815Y0191589D01*
X0152906Y0191514D01*
X0152996Y0191436D01*
X0153082Y0191355D01*
X0153166Y0191271D01*
X0153247Y0191185D01*
X0153325Y0191095D01*
X0153400Y0191004D01*
X0153471Y0190910D01*
X0153540Y0190813D01*
X0153605Y0190714D01*
X0153667Y0190614D01*
X0153726Y0190511D01*
X0153781Y0190406D01*
X0153833Y0190299D01*
X0153881Y0190191D01*
X0153925Y0190081D01*
X0153966Y0189970D01*
X0154003Y0189858D01*
X0154036Y0189744D01*
X0154065Y0189629D01*
X0154091Y0189514D01*
X0154113Y0189397D01*
X0154130Y0189280D01*
X0154144Y0189163D01*
X0154154Y0189045D01*
X0154160Y0188926D01*
X0154162Y0188808D01*
X0154160Y0188690D01*
X0154154Y0188571D01*
X0154144Y0188453D01*
X0154130Y0188336D01*
X0154113Y0188219D01*
X0154091Y0188102D01*
X0154065Y0187987D01*
X0154036Y0187872D01*
X0154003Y0187758D01*
X0153966Y0187646D01*
X0153925Y0187535D01*
X0153881Y0187425D01*
X0153833Y0187317D01*
X0153781Y0187210D01*
X0153726Y0187105D01*
X0153667Y0187002D01*
X0153605Y0186902D01*
X0153540Y0186803D01*
X0153471Y0186706D01*
X0153400Y0186612D01*
X0153325Y0186521D01*
X0153247Y0186431D01*
X0153166Y0186345D01*
X0153082Y0186261D01*
X0152996Y0186180D01*
X0152906Y0186102D01*
X0152815Y0186027D01*
X0152721Y0185956D01*
X0152624Y0185887D01*
X0152525Y0185822D01*
X0152425Y0185760D01*
X0152322Y0185701D01*
X0152217Y0185646D01*
X0152110Y0185594D01*
X0152002Y0185546D01*
X0151892Y0185502D01*
X0151781Y0185461D01*
X0151669Y0185424D01*
X0151555Y0185391D01*
X0151440Y0185362D01*
X0151325Y0185336D01*
X0151208Y0185314D01*
X0151091Y0185297D01*
X0150974Y0185283D01*
X0150856Y0185273D01*
X0150737Y0185267D01*
X0150619Y0185265D01*
X0150501Y0185267D01*
X0150382Y0185273D01*
X0150264Y0185283D01*
X0150147Y0185297D01*
X0150030Y0185314D01*
X0149913Y0185336D01*
X0149798Y0185362D01*
X0149683Y0185391D01*
X0149569Y0185424D01*
X0149457Y0185461D01*
X0149346Y0185502D01*
X0149236Y0185546D01*
X0149128Y0185594D01*
X0149021Y0185646D01*
X0148916Y0185701D01*
X0148813Y0185760D01*
X0148713Y0185822D01*
X0148614Y0185887D01*
X0148517Y0185956D01*
X0148423Y0186027D01*
X0148332Y0186102D01*
X0148242Y0186180D01*
X0148156Y0186261D01*
X0148072Y0186345D01*
X0147991Y0186431D01*
X0147913Y0186521D01*
X0147838Y0186612D01*
X0147767Y0186706D01*
X0147698Y0186803D01*
X0147633Y0186902D01*
X0147571Y0187002D01*
X0147512Y0187105D01*
X0147457Y0187210D01*
X0147405Y0187317D01*
X0147357Y0187425D01*
X0147313Y0187535D01*
X0147272Y0187646D01*
X0147235Y0187758D01*
X0147202Y0187872D01*
X0147173Y0187987D01*
X0147147Y0188102D01*
X0147125Y0188219D01*
X0147108Y0188336D01*
X0147094Y0188453D01*
X0147084Y0188571D01*
X0147078Y0188690D01*
X0147076Y0188808D01*
D11*
X0198650Y0001800D02*
X0001800Y0001800D01*
X0001800Y0186839D01*
X0013611Y0198650D01*
X0174635Y0198650D01*
X0174635Y0084477D01*
X0198650Y0084477D01*
X0198650Y0001800D01*
X0193050Y0007400D02*
X0007400Y0007400D01*
X0007400Y0015262D01*
X0008577Y0014085D01*
X0014708Y0014085D01*
X0019043Y0018420D01*
X0019043Y0024550D01*
X0016043Y0027550D01*
X0016043Y0033778D01*
X0015373Y0035395D01*
X0011712Y0039056D01*
X0011712Y0043710D01*
X0011894Y0043651D01*
X0012574Y0043543D01*
X0015493Y0043543D01*
X0018412Y0043543D01*
X0019092Y0043651D01*
X0019747Y0043864D01*
X0020361Y0044176D01*
X0020918Y0044581D01*
X0021405Y0045068D01*
X0021487Y0045181D01*
X0021487Y0043714D01*
X0022613Y0040994D01*
X0024695Y0038912D01*
X0026928Y0037988D01*
X0026928Y0027550D01*
X0023928Y0024550D01*
X0023928Y0018420D01*
X0028262Y0014085D01*
X0034393Y0014085D01*
X0038728Y0018420D01*
X0038728Y0024550D01*
X0035728Y0027550D01*
X0035728Y0031299D01*
X0036259Y0030016D01*
X0043613Y0022662D01*
X0043613Y0018420D01*
X0047947Y0014085D01*
X0054078Y0014085D01*
X0058413Y0018420D01*
X0058413Y0024550D01*
X0054078Y0028885D01*
X0049835Y0028885D01*
X0044389Y0034331D01*
X0044389Y0055409D01*
X0044630Y0055309D01*
X0059758Y0055309D01*
X0060640Y0055675D01*
X0061315Y0056350D01*
X0061680Y0057232D01*
X0061680Y0066848D01*
X0061315Y0067730D01*
X0060640Y0068405D01*
X0059758Y0068771D01*
X0056594Y0068771D01*
X0056594Y0071809D01*
X0072360Y0071809D01*
X0073977Y0072479D01*
X0075215Y0073717D01*
X0077184Y0075686D01*
X0077854Y0077303D01*
X0077854Y0091391D01*
X0079665Y0092141D01*
X0081420Y0093896D01*
X0082369Y0096189D01*
X0082369Y0096432D01*
X0083100Y0095701D01*
X0084929Y0094943D01*
X0092057Y0094943D01*
X0093886Y0095701D01*
X0095285Y0097100D01*
X0096043Y0098929D01*
X0096043Y0100908D01*
X0096042Y0100908D02*
X0096631Y0100908D01*
X0096043Y0100908D02*
X0095944Y0101146D01*
X0096025Y0101227D01*
X0096631Y0101834D01*
X0096631Y0094070D01*
X0093294Y0090733D01*
X0092394Y0089833D01*
X0091907Y0088657D01*
X0091907Y0067305D01*
X0092394Y0066129D01*
X0097813Y0060711D01*
X0097813Y0033440D01*
X0093257Y0028885D01*
X0087317Y0028885D01*
X0082983Y0024550D01*
X0082983Y0018420D01*
X0087317Y0014085D01*
X0093448Y0014085D01*
X0097783Y0018420D01*
X0097783Y0024360D01*
X0102825Y0029402D01*
X0102825Y0029402D01*
X0103725Y0030302D01*
X0104213Y0031478D01*
X0104213Y0062673D01*
X0103725Y0063849D01*
X0102825Y0064749D01*
X0098307Y0069267D01*
X0098307Y0086695D01*
X0102544Y0090932D01*
X0103031Y0092108D01*
X0103031Y0159523D01*
X0102544Y0160699D01*
X0101644Y0161599D01*
X0099788Y0163455D01*
X0098888Y0164355D01*
X0097712Y0164843D01*
X0096120Y0164843D01*
X0096120Y0167068D01*
X0092240Y0167068D01*
X0092240Y0168028D01*
X0091281Y0168028D01*
X0091281Y0172498D01*
X0088965Y0172498D01*
X0088546Y0172385D01*
X0088199Y0172732D01*
X0087317Y0173098D01*
X0087180Y0173098D01*
X0087180Y0175089D01*
X0087811Y0175350D01*
X0088880Y0176419D01*
X0089458Y0177816D01*
X0089458Y0179328D01*
X0088880Y0180724D01*
X0087811Y0181793D01*
X0086414Y0182372D01*
X0084902Y0182372D01*
X0083506Y0181793D01*
X0082437Y0180724D01*
X0081858Y0179328D01*
X0081858Y0178873D01*
X0081822Y0178836D01*
X0081380Y0177771D01*
X0081380Y0173098D01*
X0081244Y0173098D01*
X0080362Y0172732D01*
X0079687Y0172057D01*
X0079321Y0171175D01*
X0079321Y0163921D01*
X0079687Y0163039D01*
X0080362Y0162364D01*
X0081244Y0161998D01*
X0081958Y0161998D01*
X0085027Y0158930D01*
X0086203Y0158443D01*
X0095750Y0158443D01*
X0096631Y0157561D01*
X0096631Y0145593D01*
X0096245Y0146526D01*
X0095345Y0147426D01*
X0092195Y0150576D01*
X0091019Y0151063D01*
X0059563Y0151063D01*
X0059346Y0151585D01*
X0058671Y0152260D01*
X0057789Y0152625D01*
X0050535Y0152625D01*
X0049653Y0152260D01*
X0048978Y0151585D01*
X0048843Y0151260D01*
X0043896Y0151260D01*
X0043598Y0151978D01*
X0042923Y0152654D01*
X0042041Y0153019D01*
X0038058Y0153019D01*
X0038058Y0158746D01*
X0039938Y0157967D01*
X0042087Y0157967D01*
X0044071Y0158789D01*
X0045590Y0160308D01*
X0046013Y0161327D01*
X0046435Y0160308D01*
X0047954Y0158789D01*
X0049938Y0157967D01*
X0052087Y0157967D01*
X0054071Y0158789D01*
X0055590Y0160308D01*
X0056358Y0162160D01*
X0056564Y0161524D01*
X0056907Y0160851D01*
X0057351Y0160240D01*
X0057886Y0159706D01*
X0058497Y0159262D01*
X0059170Y0158919D01*
X0059889Y0158685D01*
X0060635Y0158567D01*
X0060813Y0158567D01*
X0060813Y0166167D01*
X0061213Y0166167D01*
X0061213Y0166567D01*
X0065813Y0166567D01*
X0065813Y0169745D01*
X0065694Y0170491D01*
X0065461Y0171209D01*
X0065118Y0171883D01*
X0064674Y0172494D01*
X0064140Y0173028D01*
X0063528Y0173472D01*
X0062855Y0173815D01*
X0062137Y0174049D01*
X0061390Y0174167D01*
X0061213Y0174167D01*
X0061213Y0166567D01*
X0060813Y0166567D01*
X0060813Y0174167D01*
X0060635Y0174167D01*
X0059889Y0174049D01*
X0059170Y0173815D01*
X0058497Y0173472D01*
X0057886Y0173028D01*
X0057351Y0172494D01*
X0056907Y0171883D01*
X0056564Y0171209D01*
X0056358Y0170574D01*
X0055590Y0172426D01*
X0054071Y0173945D01*
X0052087Y0174767D01*
X0049938Y0174767D01*
X0047954Y0173945D01*
X0046435Y0172426D01*
X0046013Y0171407D01*
X0045590Y0172426D01*
X0044071Y0173945D01*
X0042087Y0174767D01*
X0039938Y0174767D01*
X0038058Y0173988D01*
X0038058Y0188498D01*
X0038020Y0188589D01*
X0038020Y0193050D01*
X0100123Y0193050D01*
X0099573Y0192097D01*
X0098575Y0188373D01*
X0098575Y0184518D01*
X0099573Y0180794D01*
X0101500Y0177455D01*
X0104227Y0174729D01*
X0107566Y0172801D01*
X0111290Y0171803D01*
X0115145Y0171803D01*
X0116110Y0172062D01*
X0116110Y0170729D01*
X0116689Y0169333D01*
X0117010Y0169011D01*
X0117010Y0158703D01*
X0117452Y0157638D01*
X0118556Y0156533D01*
X0117758Y0156203D01*
X0116689Y0155134D01*
X0116110Y0153737D01*
X0116110Y0152225D01*
X0116689Y0150829D01*
X0116710Y0150807D01*
X0116710Y0108644D01*
X0117197Y0107468D01*
X0122865Y0101800D01*
X0122316Y0101250D01*
X0121828Y0100074D01*
X0121828Y0099250D01*
X0121807Y0099228D01*
X0121228Y0097831D01*
X0121228Y0096320D01*
X0121807Y0094923D01*
X0122876Y0093854D01*
X0124272Y0093276D01*
X0125784Y0093276D01*
X0127181Y0093854D01*
X0128250Y0094923D01*
X0128687Y0095978D01*
X0132458Y0092207D01*
X0132458Y0085883D01*
X0130626Y0085883D01*
X0130626Y0082004D01*
X0129667Y0082004D01*
X0129667Y0085883D01*
X0126760Y0085883D01*
X0126609Y0085843D01*
X0124934Y0088743D01*
X0122208Y0091470D01*
X0118869Y0093397D01*
X0115145Y0094395D01*
X0111290Y0094395D01*
X0107566Y0093397D01*
X0104227Y0091470D01*
X0101500Y0088743D01*
X0099573Y0085405D01*
X0098575Y0081680D01*
X0098575Y0077825D01*
X0099573Y0074101D01*
X0101500Y0070762D01*
X0104227Y0068036D01*
X0107566Y0066108D01*
X0110424Y0065342D01*
X0110424Y0058405D01*
X0110789Y0057523D01*
X0111464Y0056848D01*
X0112346Y0056483D01*
X0115510Y0056483D01*
X0115510Y0044605D01*
X0115476Y0044571D01*
X0115111Y0043689D01*
X0115111Y0033935D01*
X0115176Y0033778D01*
X0114344Y0032946D01*
X0113979Y0032064D01*
X0113979Y0031109D01*
X0114344Y0030227D01*
X0118638Y0025932D01*
X0119342Y0025641D01*
X0119633Y0024937D01*
X0122353Y0022218D01*
X0122353Y0018420D01*
X0126688Y0014085D01*
X0132818Y0014085D01*
X0137153Y0018420D01*
X0137153Y0024550D01*
X0132818Y0028885D01*
X0131382Y0028885D01*
X0128255Y0032012D01*
X0131886Y0032012D01*
X0132768Y0032378D01*
X0133443Y0033053D01*
X0133808Y0033935D01*
X0133808Y0043689D01*
X0133443Y0044571D01*
X0132768Y0045246D01*
X0132209Y0045478D01*
X0132209Y0045793D01*
X0132840Y0046425D01*
X0132871Y0046425D01*
X0134267Y0047004D01*
X0135336Y0048073D01*
X0135915Y0049469D01*
X0135915Y0050981D01*
X0135559Y0051841D01*
X0136236Y0052122D01*
X0137305Y0053191D01*
X0137883Y0054587D01*
X0137883Y0054618D01*
X0138371Y0055105D01*
X0138858Y0056282D01*
X0138858Y0071547D01*
X0139627Y0071228D01*
X0141139Y0071228D01*
X0142535Y0071807D01*
X0143604Y0072876D01*
X0143640Y0072963D01*
X0145893Y0070711D01*
X0147745Y0069944D01*
X0141874Y0069944D01*
X0140992Y0069579D01*
X0140317Y0068904D01*
X0139951Y0068021D01*
X0139951Y0058405D01*
X0140317Y0057523D01*
X0140992Y0056848D01*
X0141874Y0056483D01*
X0145038Y0056483D01*
X0145038Y0044605D01*
X0145004Y0044571D01*
X0144638Y0043689D01*
X0144638Y0033935D01*
X0145004Y0033053D01*
X0145038Y0033018D01*
X0145038Y0027550D01*
X0142038Y0024550D01*
X0142038Y0018420D01*
X0146373Y0014085D01*
X0152503Y0014085D01*
X0156838Y0018420D01*
X0156838Y0024550D01*
X0153838Y0027550D01*
X0153838Y0033018D01*
X0153872Y0033053D01*
X0153987Y0033330D01*
X0154102Y0033053D01*
X0154777Y0032378D01*
X0155659Y0032012D01*
X0161413Y0032012D01*
X0162295Y0032378D01*
X0162970Y0033053D01*
X0163336Y0033935D01*
X0163336Y0043689D01*
X0162970Y0044571D01*
X0162295Y0045246D01*
X0161556Y0045552D01*
X0161714Y0045710D01*
X0162293Y0047107D01*
X0162293Y0048619D01*
X0161714Y0050016D01*
X0160645Y0051084D01*
X0159249Y0051663D01*
X0157737Y0051663D01*
X0156340Y0051084D01*
X0155271Y0050016D01*
X0154693Y0048619D01*
X0154693Y0047107D01*
X0155271Y0045710D01*
X0155455Y0045527D01*
X0154777Y0045246D01*
X0154102Y0044571D01*
X0153987Y0044293D01*
X0153872Y0044571D01*
X0153838Y0044605D01*
X0153838Y0056483D01*
X0157002Y0056483D01*
X0157884Y0056848D01*
X0158559Y0057523D01*
X0158924Y0058405D01*
X0158924Y0068021D01*
X0158559Y0068904D01*
X0157884Y0069579D01*
X0157002Y0069944D01*
X0153493Y0069944D01*
X0155345Y0070711D01*
X0157692Y0073058D01*
X0158962Y0076125D01*
X0158962Y0079444D01*
X0157692Y0082510D01*
X0155345Y0084857D01*
X0152278Y0086128D01*
X0148959Y0086128D01*
X0145893Y0084857D01*
X0143546Y0082510D01*
X0143283Y0081875D01*
X0143283Y0156121D01*
X0143789Y0157343D01*
X0143789Y0158855D01*
X0143210Y0160252D01*
X0142141Y0161321D01*
X0140745Y0161899D01*
X0139233Y0161899D01*
X0137836Y0161321D01*
X0136767Y0160252D01*
X0136189Y0158855D01*
X0136189Y0157343D01*
X0136767Y0155947D01*
X0137483Y0155231D01*
X0137483Y0096233D01*
X0137471Y0096245D01*
X0130103Y0103613D01*
X0129203Y0104513D01*
X0123110Y0110606D01*
X0123110Y0128431D01*
X0124498Y0127857D01*
X0132646Y0127857D01*
X0134630Y0128679D01*
X0136150Y0130198D01*
X0136972Y0132183D01*
X0136972Y0134331D01*
X0136150Y0136316D01*
X0134630Y0137835D01*
X0132778Y0138602D01*
X0133414Y0138808D01*
X0134087Y0139151D01*
X0134699Y0139595D01*
X0135233Y0140130D01*
X0135677Y0140741D01*
X0136020Y0141414D01*
X0136253Y0142133D01*
X0136372Y0142879D01*
X0136372Y0143057D01*
X0128772Y0143057D01*
X0128772Y0143457D01*
X0136372Y0143457D01*
X0136372Y0143634D01*
X0136253Y0144381D01*
X0136020Y0145099D01*
X0135677Y0145772D01*
X0135233Y0146384D01*
X0134699Y0146918D01*
X0134087Y0147362D01*
X0133414Y0147705D01*
X0132778Y0147912D01*
X0134630Y0148679D01*
X0136150Y0150198D01*
X0136972Y0152183D01*
X0136972Y0154331D01*
X0136150Y0156316D01*
X0134630Y0157835D01*
X0133611Y0158257D01*
X0134630Y0158679D01*
X0136150Y0160198D01*
X0136972Y0162183D01*
X0136972Y0164331D01*
X0136150Y0166316D01*
X0134630Y0167835D01*
X0132646Y0168657D01*
X0124498Y0168657D01*
X0122810Y0167958D01*
X0122810Y0169011D01*
X0123132Y0169333D01*
X0123710Y0170729D01*
X0123710Y0172241D01*
X0123132Y0173638D01*
X0122102Y0174667D01*
X0122208Y0174729D01*
X0124934Y0177455D01*
X0126862Y0180794D01*
X0127860Y0184518D01*
X0127860Y0188373D01*
X0126862Y0192097D01*
X0126312Y0193050D01*
X0143345Y0193050D01*
X0142276Y0190467D01*
X0142276Y0187148D01*
X0143546Y0184082D01*
X0145893Y0181735D01*
X0148959Y0180465D01*
X0152278Y0180465D01*
X0155345Y0181735D01*
X0157692Y0184082D01*
X0158962Y0187148D01*
X0158962Y0190467D01*
X0157892Y0193050D01*
X0169035Y0193050D01*
X0169035Y0083363D01*
X0169884Y0081314D01*
X0168168Y0080603D01*
X0167298Y0079733D01*
X0167298Y0159857D01*
X0166857Y0160923D01*
X0164261Y0163519D01*
X0164261Y0163973D01*
X0163683Y0165370D01*
X0162614Y0166439D01*
X0161217Y0167017D01*
X0159706Y0167017D01*
X0158309Y0166439D01*
X0157240Y0165370D01*
X0156661Y0163973D01*
X0156661Y0162461D01*
X0157240Y0161065D01*
X0158309Y0159996D01*
X0159706Y0159417D01*
X0160160Y0159417D01*
X0161498Y0158079D01*
X0161498Y0057817D01*
X0161177Y0057496D01*
X0160598Y0056099D01*
X0160598Y0054587D01*
X0161177Y0053191D01*
X0162246Y0052122D01*
X0163643Y0051543D01*
X0165154Y0051543D01*
X0166551Y0052122D01*
X0167620Y0053191D01*
X0168198Y0054587D01*
X0168198Y0056099D01*
X0167620Y0057496D01*
X0167298Y0057817D01*
X0167298Y0072371D01*
X0168168Y0071501D01*
X0170142Y0070683D01*
X0172277Y0070683D01*
X0174250Y0071501D01*
X0175761Y0073011D01*
X0176209Y0074094D01*
X0176658Y0073011D01*
X0178168Y0071501D01*
X0180142Y0070683D01*
X0182277Y0070683D01*
X0184250Y0071501D01*
X0185761Y0073011D01*
X0186209Y0074094D01*
X0186658Y0073011D01*
X0188168Y0071501D01*
X0190142Y0070683D01*
X0192277Y0070683D01*
X0193050Y0071004D01*
X0193050Y0027708D01*
X0191873Y0028885D01*
X0185743Y0028885D01*
X0181408Y0024550D01*
X0181408Y0018420D01*
X0185743Y0014085D01*
X0191873Y0014085D01*
X0193050Y0015262D01*
X0193050Y0007400D01*
X0193050Y0008194D02*
X0007400Y0008194D01*
X0007400Y0009793D02*
X0193050Y0009793D01*
X0193050Y0011391D02*
X0007400Y0011391D01*
X0007400Y0012990D02*
X0193050Y0012990D01*
X0193050Y0014588D02*
X0192376Y0014588D01*
X0185240Y0014588D02*
X0172691Y0014588D01*
X0172188Y0014085D02*
X0176523Y0018420D01*
X0176523Y0022662D01*
X0181458Y0027597D01*
X0182695Y0028835D01*
X0183365Y0030452D01*
X0183365Y0033018D01*
X0183400Y0033053D01*
X0183515Y0033330D01*
X0183630Y0033053D01*
X0184305Y0032378D01*
X0185187Y0032012D01*
X0190941Y0032012D01*
X0191823Y0032378D01*
X0192498Y0033053D01*
X0192863Y0033935D01*
X0192863Y0043689D01*
X0192498Y0044571D01*
X0191823Y0045246D01*
X0190964Y0045602D01*
X0190964Y0050157D01*
X0191242Y0050435D01*
X0191820Y0051832D01*
X0191820Y0053343D01*
X0191242Y0054740D01*
X0190173Y0055809D01*
X0188776Y0056387D01*
X0187265Y0056387D01*
X0185868Y0055809D01*
X0184799Y0054740D01*
X0184220Y0053343D01*
X0184220Y0051832D01*
X0184799Y0050435D01*
X0185164Y0050070D01*
X0185164Y0045602D01*
X0184305Y0045246D01*
X0183630Y0044571D01*
X0183515Y0044293D01*
X0183400Y0044571D01*
X0183365Y0044605D01*
X0183365Y0056483D01*
X0186529Y0056483D01*
X0187411Y0056848D01*
X0188087Y0057523D01*
X0188452Y0058405D01*
X0188452Y0068021D01*
X0188087Y0068904D01*
X0187411Y0069579D01*
X0186529Y0069944D01*
X0171401Y0069944D01*
X0170519Y0069579D01*
X0169844Y0068904D01*
X0169479Y0068021D01*
X0169479Y0058405D01*
X0169844Y0057523D01*
X0170519Y0056848D01*
X0171401Y0056483D01*
X0174565Y0056483D01*
X0174565Y0044605D01*
X0174531Y0044571D01*
X0174166Y0043689D01*
X0174166Y0033935D01*
X0174513Y0033097D01*
X0170300Y0028885D01*
X0166058Y0028885D01*
X0161723Y0024550D01*
X0161723Y0018420D01*
X0166058Y0014085D01*
X0172188Y0014085D01*
X0174290Y0016187D02*
X0183641Y0016187D01*
X0182043Y0017785D02*
X0175888Y0017785D01*
X0176523Y0019384D02*
X0181408Y0019384D01*
X0181408Y0020982D02*
X0176523Y0020982D01*
X0176523Y0022581D02*
X0181408Y0022581D01*
X0181408Y0024179D02*
X0178039Y0024179D01*
X0179638Y0025778D02*
X0182635Y0025778D01*
X0181237Y0027376D02*
X0184234Y0027376D01*
X0182753Y0028975D02*
X0193050Y0028975D01*
X0193050Y0030573D02*
X0183365Y0030573D01*
X0183365Y0032172D02*
X0184802Y0032172D01*
X0191326Y0032172D02*
X0193050Y0032172D01*
X0193050Y0033770D02*
X0192795Y0033770D01*
X0192863Y0035369D02*
X0193050Y0035369D01*
X0193050Y0036967D02*
X0192863Y0036967D01*
X0192863Y0038566D02*
X0193050Y0038566D01*
X0193050Y0040164D02*
X0192863Y0040164D01*
X0192863Y0041763D02*
X0193050Y0041763D01*
X0193050Y0043361D02*
X0192863Y0043361D01*
X0193050Y0044960D02*
X0192109Y0044960D01*
X0193050Y0046558D02*
X0190964Y0046558D01*
X0190964Y0048157D02*
X0193050Y0048157D01*
X0193050Y0049755D02*
X0190964Y0049755D01*
X0191623Y0051354D02*
X0193050Y0051354D01*
X0193050Y0052952D02*
X0191820Y0052952D01*
X0191320Y0054551D02*
X0193050Y0054551D01*
X0193050Y0056149D02*
X0189351Y0056149D01*
X0188180Y0057748D02*
X0193050Y0057748D01*
X0193050Y0059346D02*
X0188452Y0059346D01*
X0188452Y0060945D02*
X0193050Y0060945D01*
X0193050Y0062543D02*
X0188452Y0062543D01*
X0188452Y0064142D02*
X0193050Y0064142D01*
X0193050Y0065740D02*
X0188452Y0065740D01*
X0188452Y0067339D02*
X0193050Y0067339D01*
X0193050Y0068937D02*
X0188053Y0068937D01*
X0187535Y0072134D02*
X0184884Y0072134D01*
X0186060Y0073733D02*
X0186359Y0073733D01*
X0186209Y0078009D02*
X0185850Y0078877D01*
X0186569Y0078877D01*
X0186209Y0078009D01*
X0185994Y0078529D02*
X0186424Y0078529D01*
X0193050Y0070536D02*
X0167298Y0070536D01*
X0167298Y0072134D02*
X0167535Y0072134D01*
X0167298Y0068937D02*
X0169878Y0068937D01*
X0169479Y0067339D02*
X0167298Y0067339D01*
X0167298Y0065740D02*
X0169479Y0065740D01*
X0169479Y0064142D02*
X0167298Y0064142D01*
X0167298Y0062543D02*
X0169479Y0062543D01*
X0169479Y0060945D02*
X0167298Y0060945D01*
X0167298Y0059346D02*
X0169479Y0059346D01*
X0169751Y0057748D02*
X0167368Y0057748D01*
X0168178Y0056149D02*
X0174565Y0056149D01*
X0174565Y0054551D02*
X0168183Y0054551D01*
X0167381Y0052952D02*
X0174565Y0052952D01*
X0174565Y0051354D02*
X0159995Y0051354D01*
X0161415Y0052952D02*
X0153838Y0052952D01*
X0153838Y0051354D02*
X0156991Y0051354D01*
X0155164Y0049755D02*
X0153838Y0049755D01*
X0153838Y0048157D02*
X0154693Y0048157D01*
X0154920Y0046558D02*
X0153838Y0046558D01*
X0153838Y0044960D02*
X0154491Y0044960D01*
X0162066Y0046558D02*
X0174565Y0046558D01*
X0174565Y0044960D02*
X0172696Y0044960D01*
X0172504Y0045011D02*
X0170267Y0045011D01*
X0170267Y0039212D01*
X0169467Y0039212D01*
X0169467Y0045011D01*
X0167230Y0045011D01*
X0166773Y0044889D01*
X0166362Y0044652D01*
X0166027Y0044317D01*
X0165790Y0043906D01*
X0165667Y0043448D01*
X0165667Y0039212D01*
X0169467Y0039212D01*
X0169467Y0038412D01*
X0165667Y0038412D01*
X0165667Y0034175D01*
X0165790Y0033717D01*
X0166027Y0033307D01*
X0166362Y0032972D01*
X0166773Y0032735D01*
X0167230Y0032612D01*
X0169467Y0032612D01*
X0169467Y0038412D01*
X0170267Y0038412D01*
X0170267Y0039212D01*
X0174067Y0039212D01*
X0174067Y0043448D01*
X0173944Y0043906D01*
X0173707Y0044317D01*
X0173372Y0044652D01*
X0172961Y0044889D01*
X0172504Y0045011D01*
X0174067Y0043361D02*
X0174166Y0043361D01*
X0174166Y0041763D02*
X0174067Y0041763D01*
X0174067Y0040164D02*
X0174166Y0040164D01*
X0174166Y0038566D02*
X0170267Y0038566D01*
X0170267Y0038412D02*
X0174067Y0038412D01*
X0174067Y0034175D01*
X0173944Y0033717D01*
X0173707Y0033307D01*
X0173372Y0032972D01*
X0172961Y0032735D01*
X0172504Y0032612D01*
X0170267Y0032612D01*
X0170267Y0038412D01*
X0169467Y0038566D02*
X0163336Y0038566D01*
X0163336Y0040164D02*
X0165667Y0040164D01*
X0165667Y0041763D02*
X0163336Y0041763D01*
X0163336Y0043361D02*
X0165667Y0043361D01*
X0167038Y0044960D02*
X0162582Y0044960D01*
X0162293Y0048157D02*
X0174565Y0048157D01*
X0174565Y0049755D02*
X0161822Y0049755D01*
X0160614Y0054551D02*
X0153838Y0054551D01*
X0153838Y0056149D02*
X0160619Y0056149D01*
X0161429Y0057748D02*
X0158652Y0057748D01*
X0158924Y0059346D02*
X0161498Y0059346D01*
X0161498Y0060945D02*
X0158924Y0060945D01*
X0158924Y0062543D02*
X0161498Y0062543D01*
X0161498Y0064142D02*
X0158924Y0064142D01*
X0158924Y0065740D02*
X0161498Y0065740D01*
X0161498Y0067339D02*
X0158924Y0067339D01*
X0158525Y0068937D02*
X0161498Y0068937D01*
X0161498Y0070536D02*
X0154922Y0070536D01*
X0156768Y0072134D02*
X0161498Y0072134D01*
X0161498Y0073733D02*
X0157972Y0073733D01*
X0158634Y0075332D02*
X0161498Y0075332D01*
X0161498Y0076930D02*
X0158962Y0076930D01*
X0158962Y0078529D02*
X0161498Y0078529D01*
X0161498Y0080127D02*
X0158679Y0080127D01*
X0158017Y0081726D02*
X0161498Y0081726D01*
X0161498Y0083324D02*
X0156878Y0083324D01*
X0155188Y0084923D02*
X0161498Y0084923D01*
X0161498Y0086521D02*
X0143283Y0086521D01*
X0143283Y0084923D02*
X0146050Y0084923D01*
X0144360Y0083324D02*
X0143283Y0083324D01*
X0143283Y0088120D02*
X0161498Y0088120D01*
X0161498Y0089718D02*
X0143283Y0089718D01*
X0143283Y0091317D02*
X0161498Y0091317D01*
X0161498Y0092915D02*
X0143283Y0092915D01*
X0143283Y0094514D02*
X0161498Y0094514D01*
X0161498Y0096112D02*
X0143283Y0096112D01*
X0143283Y0097711D02*
X0161498Y0097711D01*
X0161498Y0099309D02*
X0143283Y0099309D01*
X0143283Y0100908D02*
X0161498Y0100908D01*
X0161498Y0102506D02*
X0143283Y0102506D01*
X0143283Y0104105D02*
X0161498Y0104105D01*
X0161498Y0105703D02*
X0143283Y0105703D01*
X0143283Y0107302D02*
X0161498Y0107302D01*
X0161498Y0108900D02*
X0143283Y0108900D01*
X0143283Y0110499D02*
X0161498Y0110499D01*
X0161498Y0112097D02*
X0143283Y0112097D01*
X0143283Y0113696D02*
X0161498Y0113696D01*
X0161498Y0115294D02*
X0143283Y0115294D01*
X0143283Y0116893D02*
X0161498Y0116893D01*
X0161498Y0118491D02*
X0143283Y0118491D01*
X0143283Y0120090D02*
X0161498Y0120090D01*
X0161498Y0121688D02*
X0143283Y0121688D01*
X0143283Y0123287D02*
X0161498Y0123287D01*
X0161498Y0124885D02*
X0143283Y0124885D01*
X0143283Y0126484D02*
X0161498Y0126484D01*
X0161498Y0128082D02*
X0143283Y0128082D01*
X0143283Y0129681D02*
X0161498Y0129681D01*
X0161498Y0131279D02*
X0143283Y0131279D01*
X0143283Y0132878D02*
X0161498Y0132878D01*
X0161498Y0134476D02*
X0143283Y0134476D01*
X0143283Y0136075D02*
X0161498Y0136075D01*
X0161498Y0137673D02*
X0143283Y0137673D01*
X0143283Y0139272D02*
X0161498Y0139272D01*
X0161498Y0140870D02*
X0143283Y0140870D01*
X0143283Y0142469D02*
X0161498Y0142469D01*
X0161498Y0144068D02*
X0143283Y0144068D01*
X0143283Y0145666D02*
X0161498Y0145666D01*
X0161498Y0147265D02*
X0143283Y0147265D01*
X0143283Y0148863D02*
X0161498Y0148863D01*
X0161498Y0150462D02*
X0143283Y0150462D01*
X0143283Y0152060D02*
X0161498Y0152060D01*
X0161498Y0153659D02*
X0143283Y0153659D01*
X0143283Y0155257D02*
X0161498Y0155257D01*
X0161498Y0156856D02*
X0143587Y0156856D01*
X0143789Y0158454D02*
X0161123Y0158454D01*
X0158252Y0160053D02*
X0143293Y0160053D01*
X0141344Y0161651D02*
X0156997Y0161651D01*
X0156661Y0163250D02*
X0136972Y0163250D01*
X0136757Y0164848D02*
X0157024Y0164848D01*
X0158328Y0166447D02*
X0136018Y0166447D01*
X0134122Y0168045D02*
X0169035Y0168045D01*
X0169035Y0166447D02*
X0162595Y0166447D01*
X0163899Y0164848D02*
X0169035Y0164848D01*
X0169035Y0163250D02*
X0164530Y0163250D01*
X0166129Y0161651D02*
X0169035Y0161651D01*
X0169035Y0160053D02*
X0167217Y0160053D01*
X0167298Y0158454D02*
X0169035Y0158454D01*
X0169035Y0156856D02*
X0167298Y0156856D01*
X0167298Y0155257D02*
X0169035Y0155257D01*
X0169035Y0153659D02*
X0167298Y0153659D01*
X0167298Y0152060D02*
X0169035Y0152060D01*
X0169035Y0150462D02*
X0167298Y0150462D01*
X0167298Y0148863D02*
X0169035Y0148863D01*
X0169035Y0147265D02*
X0167298Y0147265D01*
X0167298Y0145666D02*
X0169035Y0145666D01*
X0169035Y0144068D02*
X0167298Y0144068D01*
X0167298Y0142469D02*
X0169035Y0142469D01*
X0169035Y0140870D02*
X0167298Y0140870D01*
X0167298Y0139272D02*
X0169035Y0139272D01*
X0169035Y0137673D02*
X0167298Y0137673D01*
X0167298Y0136075D02*
X0169035Y0136075D01*
X0169035Y0134476D02*
X0167298Y0134476D01*
X0167298Y0132878D02*
X0169035Y0132878D01*
X0169035Y0131279D02*
X0167298Y0131279D01*
X0167298Y0129681D02*
X0169035Y0129681D01*
X0169035Y0128082D02*
X0167298Y0128082D01*
X0167298Y0126484D02*
X0169035Y0126484D01*
X0169035Y0124885D02*
X0167298Y0124885D01*
X0167298Y0123287D02*
X0169035Y0123287D01*
X0169035Y0121688D02*
X0167298Y0121688D01*
X0167298Y0120090D02*
X0169035Y0120090D01*
X0169035Y0118491D02*
X0167298Y0118491D01*
X0167298Y0116893D02*
X0169035Y0116893D01*
X0169035Y0115294D02*
X0167298Y0115294D01*
X0167298Y0113696D02*
X0169035Y0113696D01*
X0169035Y0112097D02*
X0167298Y0112097D01*
X0167298Y0110499D02*
X0169035Y0110499D01*
X0169035Y0108900D02*
X0167298Y0108900D01*
X0167298Y0107302D02*
X0169035Y0107302D01*
X0169035Y0105703D02*
X0167298Y0105703D01*
X0167298Y0104105D02*
X0169035Y0104105D01*
X0169035Y0102506D02*
X0167298Y0102506D01*
X0167298Y0100908D02*
X0169035Y0100908D01*
X0169035Y0099309D02*
X0167298Y0099309D01*
X0167298Y0097711D02*
X0169035Y0097711D01*
X0169035Y0096112D02*
X0167298Y0096112D01*
X0167298Y0094514D02*
X0169035Y0094514D01*
X0169035Y0092915D02*
X0167298Y0092915D01*
X0167298Y0091317D02*
X0169035Y0091317D01*
X0169035Y0089718D02*
X0167298Y0089718D01*
X0167298Y0088120D02*
X0169035Y0088120D01*
X0169035Y0086521D02*
X0167298Y0086521D01*
X0167298Y0084923D02*
X0169035Y0084923D01*
X0169051Y0083324D02*
X0167298Y0083324D01*
X0167298Y0081726D02*
X0169713Y0081726D01*
X0167692Y0080127D02*
X0167298Y0080127D01*
X0175850Y0078877D02*
X0176209Y0078009D01*
X0176569Y0078877D01*
X0175850Y0078877D01*
X0175994Y0078529D02*
X0176424Y0078529D01*
X0176359Y0073733D02*
X0176060Y0073733D01*
X0174884Y0072134D02*
X0177535Y0072134D01*
X0183365Y0056149D02*
X0186690Y0056149D01*
X0184721Y0054551D02*
X0183365Y0054551D01*
X0183365Y0052952D02*
X0184220Y0052952D01*
X0184418Y0051354D02*
X0183365Y0051354D01*
X0183365Y0049755D02*
X0185164Y0049755D01*
X0185164Y0048157D02*
X0183365Y0048157D01*
X0183365Y0046558D02*
X0185164Y0046558D01*
X0184018Y0044960D02*
X0183365Y0044960D01*
X0174166Y0036967D02*
X0174067Y0036967D01*
X0174067Y0035369D02*
X0174166Y0035369D01*
X0174234Y0033770D02*
X0173958Y0033770D01*
X0173587Y0032172D02*
X0161798Y0032172D01*
X0163268Y0033770D02*
X0165776Y0033770D01*
X0165667Y0035369D02*
X0163336Y0035369D01*
X0163336Y0036967D02*
X0165667Y0036967D01*
X0169467Y0036967D02*
X0170267Y0036967D01*
X0170267Y0035369D02*
X0169467Y0035369D01*
X0169467Y0033770D02*
X0170267Y0033770D01*
X0171988Y0030573D02*
X0153838Y0030573D01*
X0153838Y0028975D02*
X0170390Y0028975D01*
X0164549Y0027376D02*
X0154012Y0027376D01*
X0155610Y0025778D02*
X0162950Y0025778D01*
X0161723Y0024179D02*
X0156838Y0024179D01*
X0156838Y0022581D02*
X0161723Y0022581D01*
X0161723Y0020982D02*
X0156838Y0020982D01*
X0156838Y0019384D02*
X0161723Y0019384D01*
X0162358Y0017785D02*
X0156203Y0017785D01*
X0154605Y0016187D02*
X0163956Y0016187D01*
X0165555Y0014588D02*
X0153006Y0014588D01*
X0145870Y0014588D02*
X0133321Y0014588D01*
X0134919Y0016187D02*
X0144271Y0016187D01*
X0142673Y0017785D02*
X0136518Y0017785D01*
X0137153Y0019384D02*
X0142038Y0019384D01*
X0142038Y0020982D02*
X0137153Y0020982D01*
X0137153Y0022581D02*
X0142038Y0022581D01*
X0142038Y0024179D02*
X0137153Y0024179D01*
X0135925Y0025778D02*
X0143265Y0025778D01*
X0144864Y0027376D02*
X0134327Y0027376D01*
X0131293Y0028975D02*
X0145038Y0028975D01*
X0145038Y0030573D02*
X0129694Y0030573D01*
X0132271Y0032172D02*
X0145038Y0032172D01*
X0144179Y0033307D02*
X0144416Y0033717D01*
X0144539Y0034175D01*
X0144539Y0038412D01*
X0140739Y0038412D01*
X0140739Y0032612D01*
X0142976Y0032612D01*
X0143434Y0032735D01*
X0143844Y0032972D01*
X0144179Y0033307D01*
X0144430Y0033770D02*
X0144706Y0033770D01*
X0144638Y0035369D02*
X0144539Y0035369D01*
X0144539Y0036967D02*
X0144638Y0036967D01*
X0144638Y0038566D02*
X0140739Y0038566D01*
X0140739Y0038412D02*
X0140739Y0039212D01*
X0139940Y0039212D01*
X0139940Y0045011D01*
X0137703Y0045011D01*
X0137245Y0044889D01*
X0136835Y0044652D01*
X0136499Y0044317D01*
X0136262Y0043906D01*
X0136140Y0043448D01*
X0136140Y0039212D01*
X0139939Y0039212D01*
X0139939Y0038412D01*
X0136140Y0038412D01*
X0136140Y0034175D01*
X0136262Y0033717D01*
X0136499Y0033307D01*
X0136835Y0032972D01*
X0137245Y0032735D01*
X0137703Y0032612D01*
X0139940Y0032612D01*
X0139940Y0038412D01*
X0140739Y0038412D01*
X0140739Y0039212D02*
X0144539Y0039212D01*
X0144539Y0043448D01*
X0144416Y0043906D01*
X0144179Y0044317D01*
X0143844Y0044652D01*
X0143434Y0044889D01*
X0142976Y0045011D01*
X0140739Y0045011D01*
X0140739Y0039212D01*
X0140739Y0040164D02*
X0139940Y0040164D01*
X0139939Y0038566D02*
X0133808Y0038566D01*
X0133808Y0040164D02*
X0136140Y0040164D01*
X0136140Y0041763D02*
X0133808Y0041763D01*
X0133808Y0043361D02*
X0136140Y0043361D01*
X0137510Y0044960D02*
X0133054Y0044960D01*
X0133192Y0046558D02*
X0145038Y0046558D01*
X0145038Y0044960D02*
X0143169Y0044960D01*
X0144539Y0043361D02*
X0144638Y0043361D01*
X0144638Y0041763D02*
X0144539Y0041763D01*
X0144539Y0040164D02*
X0144638Y0040164D01*
X0140739Y0041763D02*
X0139940Y0041763D01*
X0139940Y0043361D02*
X0140739Y0043361D01*
X0140739Y0044960D02*
X0139940Y0044960D01*
X0135371Y0048157D02*
X0145038Y0048157D01*
X0145038Y0049755D02*
X0135915Y0049755D01*
X0135761Y0051354D02*
X0145038Y0051354D01*
X0145038Y0052952D02*
X0137067Y0052952D01*
X0137868Y0054551D02*
X0145038Y0054551D01*
X0145038Y0056149D02*
X0138803Y0056149D01*
X0138858Y0057748D02*
X0140223Y0057748D01*
X0139951Y0059346D02*
X0138858Y0059346D01*
X0138858Y0060945D02*
X0139951Y0060945D01*
X0139951Y0062543D02*
X0138858Y0062543D01*
X0138858Y0064142D02*
X0139951Y0064142D01*
X0139951Y0065740D02*
X0138858Y0065740D01*
X0138858Y0067339D02*
X0139951Y0067339D01*
X0140350Y0068937D02*
X0138858Y0068937D01*
X0138858Y0070536D02*
X0146316Y0070536D01*
X0144469Y0072134D02*
X0142863Y0072134D01*
X0132458Y0069085D02*
X0132458Y0058783D01*
X0131931Y0058565D01*
X0130862Y0057496D01*
X0130283Y0056099D01*
X0130283Y0054587D01*
X0130640Y0053727D01*
X0129962Y0053447D01*
X0128893Y0052378D01*
X0128315Y0050981D01*
X0128315Y0050951D01*
X0126296Y0048932D01*
X0125809Y0047755D01*
X0125809Y0045478D01*
X0125250Y0045246D01*
X0124574Y0044571D01*
X0124459Y0044293D01*
X0124344Y0044571D01*
X0124310Y0044605D01*
X0124310Y0056483D01*
X0127474Y0056483D01*
X0128356Y0056848D01*
X0129031Y0057523D01*
X0129397Y0058405D01*
X0129397Y0067609D01*
X0130816Y0069028D01*
X0130909Y0069085D01*
X0132458Y0069085D01*
X0132458Y0068937D02*
X0130725Y0068937D01*
X0129397Y0067339D02*
X0132458Y0067339D01*
X0132458Y0065740D02*
X0129397Y0065740D01*
X0129397Y0064142D02*
X0132458Y0064142D01*
X0132458Y0062543D02*
X0129397Y0062543D01*
X0129397Y0060945D02*
X0132458Y0060945D01*
X0132458Y0059346D02*
X0129397Y0059346D01*
X0129125Y0057748D02*
X0131114Y0057748D01*
X0130304Y0056149D02*
X0124310Y0056149D01*
X0124310Y0054551D02*
X0130299Y0054551D01*
X0129468Y0052952D02*
X0124310Y0052952D01*
X0124310Y0051354D02*
X0128469Y0051354D01*
X0127120Y0049755D02*
X0124310Y0049755D01*
X0124310Y0048157D02*
X0125975Y0048157D01*
X0125809Y0046558D02*
X0124310Y0046558D01*
X0124310Y0044960D02*
X0124963Y0044960D01*
X0129009Y0047119D02*
X0132115Y0050225D01*
X0129009Y0047119D02*
X0129009Y0038812D01*
X0133808Y0036967D02*
X0136140Y0036967D01*
X0136140Y0035369D02*
X0133808Y0035369D01*
X0133740Y0033770D02*
X0136248Y0033770D01*
X0139940Y0033770D02*
X0140739Y0033770D01*
X0140739Y0035369D02*
X0139940Y0035369D01*
X0139940Y0036967D02*
X0140739Y0036967D01*
X0153838Y0032172D02*
X0155274Y0032172D01*
X0169467Y0040164D02*
X0170267Y0040164D01*
X0170267Y0041763D02*
X0169467Y0041763D01*
X0169467Y0043361D02*
X0170267Y0043361D01*
X0170267Y0044960D02*
X0169467Y0044960D01*
X0135658Y0056918D02*
X0134083Y0055343D01*
X0135658Y0056918D02*
X0135658Y0093532D01*
X0127391Y0101800D01*
X0125028Y0099438D01*
X0125028Y0097076D01*
X0127840Y0094514D02*
X0130151Y0094514D01*
X0131750Y0092915D02*
X0119704Y0092915D01*
X0122216Y0094514D02*
X0103031Y0094514D01*
X0103031Y0096112D02*
X0121314Y0096112D01*
X0121228Y0097711D02*
X0103031Y0097711D01*
X0103031Y0099309D02*
X0121828Y0099309D01*
X0122174Y0100908D02*
X0103031Y0100908D01*
X0103031Y0102506D02*
X0122159Y0102506D01*
X0120560Y0104105D02*
X0103031Y0104105D01*
X0103031Y0105703D02*
X0118962Y0105703D01*
X0117363Y0107302D02*
X0103031Y0107302D01*
X0103031Y0108900D02*
X0116710Y0108900D01*
X0116710Y0110499D02*
X0103031Y0110499D01*
X0103031Y0112097D02*
X0116710Y0112097D01*
X0116710Y0113696D02*
X0103031Y0113696D01*
X0103031Y0115294D02*
X0116710Y0115294D01*
X0116710Y0116893D02*
X0103031Y0116893D01*
X0103031Y0118491D02*
X0116710Y0118491D01*
X0116710Y0120090D02*
X0114156Y0120090D01*
X0114256Y0120190D02*
X0114697Y0120797D01*
X0115038Y0121466D01*
X0115270Y0122179D01*
X0115387Y0122921D01*
X0115387Y0123112D01*
X0110803Y0123112D01*
X0110803Y0123480D01*
X0115387Y0123480D01*
X0115387Y0123671D01*
X0115270Y0124413D01*
X0115038Y0125127D01*
X0114697Y0125795D01*
X0114256Y0126403D01*
X0113725Y0126933D01*
X0113118Y0127374D01*
X0112449Y0127715D01*
X0111736Y0127947D01*
X0111734Y0127947D01*
X0113660Y0128745D01*
X0115170Y0130255D01*
X0115987Y0132228D01*
X0115987Y0134364D01*
X0115170Y0136337D01*
X0113660Y0137847D01*
X0113466Y0137928D01*
X0114065Y0137928D01*
X0114947Y0138293D01*
X0115622Y0138968D01*
X0115987Y0139850D01*
X0115987Y0146742D01*
X0115622Y0147624D01*
X0114947Y0148299D01*
X0114065Y0148665D01*
X0107173Y0148665D01*
X0106291Y0148299D01*
X0105616Y0147624D01*
X0105250Y0146742D01*
X0105250Y0139850D01*
X0105616Y0138968D01*
X0106291Y0138293D01*
X0107173Y0137928D01*
X0107772Y0137928D01*
X0107578Y0137847D01*
X0106068Y0136337D01*
X0105250Y0134364D01*
X0105250Y0132228D01*
X0106068Y0130255D01*
X0107578Y0128745D01*
X0109503Y0127947D01*
X0109502Y0127947D01*
X0108788Y0127715D01*
X0108120Y0127374D01*
X0107512Y0126933D01*
X0106982Y0126403D01*
X0106541Y0125795D01*
X0106200Y0125127D01*
X0105968Y0124413D01*
X0105850Y0123671D01*
X0105850Y0123480D01*
X0110435Y0123480D01*
X0110435Y0123112D01*
X0110803Y0123112D01*
X0110803Y0118528D01*
X0110994Y0118528D01*
X0111736Y0118645D01*
X0112449Y0118877D01*
X0113118Y0119218D01*
X0113725Y0119659D01*
X0114256Y0120190D01*
X0115110Y0121688D02*
X0116710Y0121688D01*
X0116710Y0123287D02*
X0110803Y0123287D01*
X0110435Y0123287D02*
X0103031Y0123287D01*
X0103031Y0124885D02*
X0106121Y0124885D01*
X0105850Y0123112D02*
X0105850Y0122921D01*
X0105968Y0122179D01*
X0106200Y0121466D01*
X0106541Y0120797D01*
X0106982Y0120190D01*
X0107512Y0119659D01*
X0108120Y0119218D01*
X0108788Y0118877D01*
X0109502Y0118645D01*
X0110244Y0118528D01*
X0110435Y0118528D01*
X0110435Y0123112D01*
X0105850Y0123112D01*
X0106127Y0121688D02*
X0103031Y0121688D01*
X0103031Y0120090D02*
X0107081Y0120090D01*
X0110435Y0120090D02*
X0110803Y0120090D01*
X0110803Y0121688D02*
X0110435Y0121688D01*
X0115116Y0124885D02*
X0116710Y0124885D01*
X0116710Y0126484D02*
X0114175Y0126484D01*
X0112061Y0128082D02*
X0116710Y0128082D01*
X0116710Y0129681D02*
X0114596Y0129681D01*
X0115594Y0131279D02*
X0116710Y0131279D01*
X0116710Y0132878D02*
X0115987Y0132878D01*
X0115941Y0134476D02*
X0116710Y0134476D01*
X0116710Y0136075D02*
X0115279Y0136075D01*
X0116710Y0137673D02*
X0113834Y0137673D01*
X0115748Y0139272D02*
X0116710Y0139272D01*
X0116710Y0140870D02*
X0115987Y0140870D01*
X0115987Y0142469D02*
X0116710Y0142469D01*
X0116710Y0144068D02*
X0115987Y0144068D01*
X0115987Y0145666D02*
X0116710Y0145666D01*
X0116710Y0147265D02*
X0115771Y0147265D01*
X0116710Y0148863D02*
X0103031Y0148863D01*
X0103031Y0147265D02*
X0105467Y0147265D01*
X0105250Y0145666D02*
X0103031Y0145666D01*
X0103031Y0144068D02*
X0105250Y0144068D01*
X0105250Y0142469D02*
X0103031Y0142469D01*
X0103031Y0140870D02*
X0105250Y0140870D01*
X0105490Y0139272D02*
X0103031Y0139272D01*
X0103031Y0137673D02*
X0107404Y0137673D01*
X0105959Y0136075D02*
X0103031Y0136075D01*
X0103031Y0134476D02*
X0105297Y0134476D01*
X0105250Y0132878D02*
X0103031Y0132878D01*
X0103031Y0131279D02*
X0105643Y0131279D01*
X0106642Y0129681D02*
X0103031Y0129681D01*
X0103031Y0128082D02*
X0109177Y0128082D01*
X0107063Y0126484D02*
X0103031Y0126484D01*
X0093532Y0133690D02*
X0093532Y0144713D01*
X0090383Y0147863D01*
X0054359Y0147863D01*
X0054162Y0147666D02*
X0053769Y0148060D01*
X0038414Y0148060D01*
X0043896Y0144860D02*
X0043672Y0144320D01*
X0043964Y0143616D01*
X0043964Y0137543D01*
X0043598Y0136661D01*
X0042923Y0135986D01*
X0042041Y0135620D01*
X0041891Y0135620D01*
X0042214Y0134839D01*
X0042214Y0133328D01*
X0041636Y0131931D01*
X0040567Y0130862D01*
X0039170Y0130283D01*
X0038058Y0130283D01*
X0038058Y0119039D01*
X0038020Y0118948D01*
X0038020Y0117154D01*
X0036227Y0117154D01*
X0036136Y0117117D01*
X0007400Y0117117D01*
X0007400Y0112048D01*
X0008363Y0113010D01*
X0009980Y0113680D01*
X0049407Y0113680D01*
X0051025Y0113010D01*
X0051331Y0112704D01*
X0058981Y0112704D01*
X0061700Y0111577D01*
X0061986Y0111292D01*
X0061986Y0121334D01*
X0062473Y0122510D01*
X0063373Y0123410D01*
X0074378Y0134415D01*
X0074378Y0134446D01*
X0074956Y0135842D01*
X0076025Y0136911D01*
X0077422Y0137490D01*
X0078934Y0137490D01*
X0080330Y0136911D01*
X0081399Y0135842D01*
X0081978Y0134446D01*
X0081978Y0132934D01*
X0081399Y0131537D01*
X0080330Y0130468D01*
X0078934Y0129890D01*
X0078903Y0129890D01*
X0068386Y0119372D01*
X0068386Y0099589D01*
X0067899Y0098413D01*
X0066998Y0097512D01*
X0063849Y0094363D01*
X0062673Y0093876D01*
X0047614Y0093876D01*
X0046684Y0092946D01*
X0046854Y0092876D01*
X0047529Y0092201D01*
X0047644Y0091923D01*
X0047759Y0092201D01*
X0048435Y0092876D01*
X0049317Y0093241D01*
X0055071Y0093241D01*
X0055953Y0092876D01*
X0056628Y0092201D01*
X0056993Y0091319D01*
X0056993Y0081565D01*
X0056628Y0080683D01*
X0056594Y0080648D01*
X0056594Y0080609D01*
X0057780Y0080609D01*
X0057452Y0080937D01*
X0057215Y0081347D01*
X0057093Y0081805D01*
X0057093Y0086042D01*
X0060892Y0086042D01*
X0060892Y0086842D01*
X0060892Y0092641D01*
X0058656Y0092641D01*
X0058198Y0092519D01*
X0057787Y0092282D01*
X0057452Y0091947D01*
X0057215Y0091536D01*
X0057093Y0091078D01*
X0057093Y0086842D01*
X0060892Y0086842D01*
X0061692Y0086842D01*
X0061692Y0092641D01*
X0063929Y0092641D01*
X0064387Y0092519D01*
X0064797Y0092282D01*
X0065132Y0091947D01*
X0065369Y0091536D01*
X0065492Y0091078D01*
X0065492Y0086842D01*
X0061692Y0086842D01*
X0061692Y0086042D01*
X0065492Y0086042D01*
X0065492Y0081805D01*
X0065369Y0081347D01*
X0065132Y0080937D01*
X0064805Y0080609D01*
X0069054Y0080609D01*
X0069054Y0095628D01*
X0069723Y0097245D01*
X0069892Y0097414D01*
X0069892Y0098671D01*
X0070842Y0100964D01*
X0072597Y0102719D01*
X0074890Y0103668D01*
X0077372Y0103668D01*
X0079665Y0102719D01*
X0081099Y0101284D01*
X0081701Y0102736D01*
X0083100Y0104136D01*
X0084929Y0104893D01*
X0087245Y0104893D01*
X0089132Y0106780D01*
X0089132Y0134565D01*
X0089802Y0136182D01*
X0090332Y0136712D01*
X0090332Y0143388D01*
X0089057Y0144663D01*
X0059712Y0144663D01*
X0059712Y0144630D01*
X0059420Y0143926D01*
X0059712Y0143222D01*
X0059712Y0137149D01*
X0059346Y0136267D01*
X0058671Y0135592D01*
X0057789Y0135227D01*
X0057476Y0135227D01*
X0057962Y0134052D01*
X0057962Y0132540D01*
X0057384Y0131144D01*
X0056315Y0130075D01*
X0054918Y0129496D01*
X0053406Y0129496D01*
X0052010Y0130075D01*
X0050941Y0131144D01*
X0050362Y0132540D01*
X0050362Y0134052D01*
X0050849Y0135227D01*
X0050535Y0135227D01*
X0049653Y0135592D01*
X0048978Y0136267D01*
X0048613Y0137149D01*
X0048613Y0143222D01*
X0048904Y0143926D01*
X0048613Y0144630D01*
X0048613Y0144860D01*
X0043896Y0144860D01*
X0043777Y0144068D02*
X0048845Y0144068D01*
X0048613Y0142469D02*
X0043964Y0142469D01*
X0043964Y0140870D02*
X0048613Y0140870D01*
X0048613Y0139272D02*
X0043964Y0139272D01*
X0043964Y0137673D02*
X0048613Y0137673D01*
X0049170Y0136075D02*
X0043012Y0136075D01*
X0042214Y0134476D02*
X0050538Y0134476D01*
X0050362Y0132878D02*
X0042028Y0132878D01*
X0040984Y0131279D02*
X0050884Y0131279D01*
X0052960Y0129681D02*
X0038058Y0129681D01*
X0038058Y0128082D02*
X0068045Y0128082D01*
X0066447Y0126484D02*
X0038058Y0126484D01*
X0038058Y0124885D02*
X0064848Y0124885D01*
X0063250Y0123287D02*
X0038058Y0123287D01*
X0038058Y0121688D02*
X0062133Y0121688D01*
X0061986Y0120090D02*
X0038058Y0120090D01*
X0038020Y0118491D02*
X0061986Y0118491D01*
X0061986Y0116893D02*
X0007400Y0116893D01*
X0007400Y0115294D02*
X0061986Y0115294D01*
X0061986Y0113696D02*
X0007400Y0113696D01*
X0007400Y0112097D02*
X0007450Y0112097D01*
X0019088Y0104880D02*
X0040109Y0104880D01*
X0040109Y0103832D01*
X0041235Y0101112D01*
X0043317Y0099031D01*
X0043600Y0098913D01*
X0043575Y0098888D01*
X0040426Y0095739D01*
X0039939Y0094562D01*
X0039939Y0093289D01*
X0039939Y0093125D01*
X0039336Y0092876D01*
X0038661Y0092201D01*
X0038296Y0091319D01*
X0038296Y0081565D01*
X0038661Y0080683D01*
X0039336Y0080008D01*
X0040218Y0079642D01*
X0045972Y0079642D01*
X0046854Y0080008D01*
X0047529Y0080683D01*
X0047644Y0080960D01*
X0047759Y0080683D01*
X0047794Y0080648D01*
X0047794Y0068771D01*
X0044630Y0068771D01*
X0043748Y0068405D01*
X0043072Y0067730D01*
X0042707Y0066848D01*
X0042707Y0065541D01*
X0042481Y0065766D01*
X0039725Y0068522D01*
X0038108Y0069192D01*
X0019893Y0069192D01*
X0019893Y0095289D01*
X0020886Y0095701D01*
X0022285Y0097100D01*
X0022648Y0097976D01*
X0022648Y0096189D01*
X0023598Y0093896D01*
X0025353Y0092141D01*
X0027646Y0091191D01*
X0030128Y0091191D01*
X0032420Y0092141D01*
X0034175Y0093896D01*
X0035125Y0096189D01*
X0035125Y0098671D01*
X0034175Y0100964D01*
X0032420Y0102719D01*
X0030128Y0103668D01*
X0027646Y0103668D01*
X0025353Y0102719D01*
X0023598Y0100964D01*
X0023043Y0099623D01*
X0023043Y0100908D01*
X0023042Y0100908D02*
X0023575Y0100908D01*
X0023043Y0100908D02*
X0022285Y0102736D01*
X0020886Y0104136D01*
X0019088Y0104880D01*
X0020917Y0104105D02*
X0040109Y0104105D01*
X0040658Y0102506D02*
X0032633Y0102506D01*
X0034199Y0100908D02*
X0041440Y0100908D01*
X0043038Y0099309D02*
X0034861Y0099309D01*
X0035125Y0097711D02*
X0042398Y0097711D01*
X0040799Y0096112D02*
X0035093Y0096112D01*
X0034431Y0094514D02*
X0039939Y0094514D01*
X0039431Y0092915D02*
X0033195Y0092915D01*
X0030430Y0091317D02*
X0038296Y0091317D01*
X0038296Y0089718D02*
X0019893Y0089718D01*
X0019893Y0088120D02*
X0038296Y0088120D01*
X0038296Y0086521D02*
X0019893Y0086521D01*
X0019893Y0084923D02*
X0038296Y0084923D01*
X0038296Y0083324D02*
X0019893Y0083324D01*
X0019893Y0081726D02*
X0038296Y0081726D01*
X0039217Y0080127D02*
X0019893Y0080127D01*
X0019893Y0078529D02*
X0047794Y0078529D01*
X0047794Y0080127D02*
X0046974Y0080127D01*
X0047794Y0076930D02*
X0019893Y0076930D01*
X0019893Y0075332D02*
X0047794Y0075332D01*
X0047794Y0073733D02*
X0019893Y0073733D01*
X0019893Y0072134D02*
X0047794Y0072134D01*
X0047794Y0070536D02*
X0019893Y0070536D01*
X0011712Y0063297D02*
X0011763Y0063174D01*
X0012637Y0062300D01*
X0013875Y0061062D01*
X0015492Y0060392D01*
X0023628Y0060392D01*
X0022613Y0059378D01*
X0021487Y0056658D01*
X0021487Y0050655D01*
X0021405Y0050768D01*
X0020918Y0051255D01*
X0020361Y0051660D01*
X0019747Y0051972D01*
X0019092Y0052185D01*
X0018412Y0052293D01*
X0015493Y0052293D01*
X0015493Y0047918D01*
X0015493Y0043543D01*
X0015493Y0047918D01*
X0015493Y0047918D01*
X0015493Y0047918D01*
X0015493Y0052293D01*
X0012574Y0052293D01*
X0011894Y0052185D01*
X0011712Y0052126D01*
X0011712Y0063297D01*
X0011712Y0062543D02*
X0012393Y0062543D01*
X0011712Y0060945D02*
X0014157Y0060945D01*
X0011712Y0059346D02*
X0022600Y0059346D01*
X0021938Y0057748D02*
X0011712Y0057748D01*
X0011712Y0056149D02*
X0021487Y0056149D01*
X0021487Y0054551D02*
X0011712Y0054551D01*
X0011712Y0052952D02*
X0021487Y0052952D01*
X0021487Y0051354D02*
X0020782Y0051354D01*
X0015493Y0051354D02*
X0015493Y0051354D01*
X0015493Y0049755D02*
X0015493Y0049755D01*
X0015493Y0048157D02*
X0015493Y0048157D01*
X0015493Y0046558D02*
X0015493Y0046558D01*
X0015493Y0044960D02*
X0015493Y0044960D01*
X0011712Y0043361D02*
X0021633Y0043361D01*
X0021487Y0044960D02*
X0021296Y0044960D01*
X0022295Y0041763D02*
X0011712Y0041763D01*
X0011712Y0040164D02*
X0023443Y0040164D01*
X0025532Y0038566D02*
X0012202Y0038566D01*
X0013800Y0036967D02*
X0026928Y0036967D01*
X0026928Y0035369D02*
X0015383Y0035369D01*
X0016043Y0033770D02*
X0026928Y0033770D01*
X0026928Y0032172D02*
X0016043Y0032172D01*
X0016043Y0030573D02*
X0026928Y0030573D01*
X0026928Y0028975D02*
X0016043Y0028975D01*
X0016217Y0027376D02*
X0026754Y0027376D01*
X0025155Y0025778D02*
X0017815Y0025778D01*
X0019043Y0024179D02*
X0023928Y0024179D01*
X0023928Y0022581D02*
X0019043Y0022581D01*
X0019043Y0020982D02*
X0023928Y0020982D01*
X0023928Y0019384D02*
X0019043Y0019384D01*
X0018408Y0017785D02*
X0024562Y0017785D01*
X0026161Y0016187D02*
X0016809Y0016187D01*
X0015211Y0014588D02*
X0027759Y0014588D01*
X0034896Y0014588D02*
X0047444Y0014588D01*
X0045846Y0016187D02*
X0036494Y0016187D01*
X0038093Y0017785D02*
X0044247Y0017785D01*
X0043613Y0019384D02*
X0038728Y0019384D01*
X0038728Y0020982D02*
X0043613Y0020982D01*
X0043613Y0022581D02*
X0038728Y0022581D01*
X0038728Y0024179D02*
X0042096Y0024179D01*
X0040497Y0025778D02*
X0037500Y0025778D01*
X0038899Y0027376D02*
X0035902Y0027376D01*
X0035728Y0028975D02*
X0037300Y0028975D01*
X0036028Y0030573D02*
X0035728Y0030573D01*
X0044950Y0033770D02*
X0097813Y0033770D01*
X0097813Y0035369D02*
X0044389Y0035369D01*
X0044389Y0036967D02*
X0097813Y0036967D01*
X0097813Y0038566D02*
X0079486Y0038566D01*
X0080322Y0038912D02*
X0077603Y0037786D01*
X0074659Y0037786D01*
X0071939Y0038912D01*
X0069857Y0040994D01*
X0068731Y0043714D01*
X0068731Y0056658D01*
X0069857Y0059378D01*
X0071939Y0061459D01*
X0074659Y0062586D01*
X0077603Y0062586D01*
X0080322Y0061459D01*
X0082404Y0059378D01*
X0083531Y0056658D01*
X0083531Y0051591D01*
X0083625Y0051660D01*
X0084239Y0051972D01*
X0084894Y0052185D01*
X0085574Y0052293D01*
X0088493Y0052293D01*
X0088493Y0047918D01*
X0088493Y0043543D01*
X0091412Y0043543D01*
X0092092Y0043651D01*
X0092747Y0043864D01*
X0093361Y0044176D01*
X0093918Y0044581D01*
X0094405Y0045068D01*
X0094809Y0045625D01*
X0095122Y0046239D01*
X0095335Y0046894D01*
X0095443Y0047574D01*
X0095443Y0047918D01*
X0088493Y0047918D01*
X0088493Y0047918D01*
X0088493Y0047918D01*
X0088493Y0043543D01*
X0085574Y0043543D01*
X0084894Y0043651D01*
X0084239Y0043864D01*
X0083625Y0044176D01*
X0083531Y0044245D01*
X0083531Y0043714D01*
X0082404Y0040994D01*
X0080322Y0038912D01*
X0081574Y0040164D02*
X0097813Y0040164D01*
X0097813Y0041763D02*
X0082723Y0041763D01*
X0083385Y0043361D02*
X0097813Y0043361D01*
X0097813Y0044960D02*
X0094296Y0044960D01*
X0095226Y0046558D02*
X0097813Y0046558D01*
X0097813Y0048157D02*
X0095443Y0048157D01*
X0095443Y0048262D02*
X0095335Y0048943D01*
X0095122Y0049597D01*
X0094809Y0050211D01*
X0094405Y0050768D01*
X0093918Y0051255D01*
X0093361Y0051660D01*
X0092747Y0051972D01*
X0092092Y0052185D01*
X0091412Y0052293D01*
X0088493Y0052293D01*
X0088493Y0047918D01*
X0095443Y0047918D01*
X0095443Y0048262D01*
X0095042Y0049755D02*
X0097813Y0049755D01*
X0097813Y0051354D02*
X0093782Y0051354D01*
X0097813Y0052952D02*
X0083531Y0052952D01*
X0083531Y0054551D02*
X0097813Y0054551D01*
X0097813Y0056149D02*
X0083531Y0056149D01*
X0083079Y0057748D02*
X0097813Y0057748D01*
X0097813Y0059346D02*
X0082417Y0059346D01*
X0080837Y0060945D02*
X0097578Y0060945D01*
X0095980Y0062543D02*
X0077705Y0062543D01*
X0074556Y0062543D02*
X0061680Y0062543D01*
X0061680Y0060945D02*
X0071425Y0060945D01*
X0069844Y0059346D02*
X0061680Y0059346D01*
X0061680Y0057748D02*
X0069182Y0057748D01*
X0068731Y0056149D02*
X0061114Y0056149D01*
X0061680Y0064142D02*
X0094381Y0064142D01*
X0092783Y0065740D02*
X0061680Y0065740D01*
X0061477Y0067339D02*
X0091907Y0067339D01*
X0091907Y0068937D02*
X0056594Y0068937D01*
X0056594Y0070536D02*
X0091907Y0070536D01*
X0091907Y0072134D02*
X0073145Y0072134D01*
X0075231Y0073733D02*
X0091907Y0073733D01*
X0091907Y0075332D02*
X0076830Y0075332D01*
X0077699Y0076930D02*
X0091907Y0076930D01*
X0091907Y0078529D02*
X0077854Y0078529D01*
X0077854Y0080127D02*
X0091907Y0080127D01*
X0091907Y0081726D02*
X0077854Y0081726D01*
X0077854Y0083324D02*
X0091907Y0083324D01*
X0091907Y0084923D02*
X0077854Y0084923D01*
X0077854Y0086521D02*
X0091907Y0086521D01*
X0091907Y0088120D02*
X0077854Y0088120D01*
X0077854Y0089718D02*
X0092347Y0089718D01*
X0093878Y0091317D02*
X0077854Y0091317D01*
X0080439Y0092915D02*
X0095476Y0092915D01*
X0096631Y0094514D02*
X0081675Y0094514D01*
X0082337Y0096112D02*
X0082689Y0096112D01*
X0081605Y0102506D02*
X0079877Y0102506D01*
X0083069Y0104105D02*
X0068386Y0104105D01*
X0068386Y0105703D02*
X0088056Y0105703D01*
X0089132Y0107302D02*
X0068386Y0107302D01*
X0068386Y0108900D02*
X0089132Y0108900D01*
X0089132Y0110499D02*
X0068386Y0110499D01*
X0068386Y0112097D02*
X0089132Y0112097D01*
X0089132Y0113696D02*
X0068386Y0113696D01*
X0068386Y0115294D02*
X0089132Y0115294D01*
X0089132Y0116893D02*
X0068386Y0116893D01*
X0068386Y0118491D02*
X0089132Y0118491D01*
X0089132Y0120090D02*
X0069104Y0120090D01*
X0070702Y0121688D02*
X0089132Y0121688D01*
X0089132Y0123287D02*
X0072301Y0123287D01*
X0073899Y0124885D02*
X0089132Y0124885D01*
X0089132Y0126484D02*
X0075498Y0126484D01*
X0077096Y0128082D02*
X0089132Y0128082D01*
X0089132Y0129681D02*
X0078695Y0129681D01*
X0081142Y0131279D02*
X0089132Y0131279D01*
X0089132Y0132878D02*
X0081955Y0132878D01*
X0081965Y0134476D02*
X0089132Y0134476D01*
X0089758Y0136075D02*
X0081167Y0136075D01*
X0078178Y0133690D02*
X0065186Y0120698D01*
X0065186Y0100225D01*
X0062036Y0097076D01*
X0046288Y0097076D01*
X0043139Y0093926D01*
X0043139Y0086485D01*
X0046760Y0092915D02*
X0048529Y0092915D01*
X0055858Y0092915D02*
X0069054Y0092915D01*
X0069054Y0091317D02*
X0065428Y0091317D01*
X0065492Y0089718D02*
X0069054Y0089718D01*
X0069054Y0088120D02*
X0065492Y0088120D01*
X0065492Y0084923D02*
X0069054Y0084923D01*
X0069054Y0086521D02*
X0061692Y0086521D01*
X0060892Y0086521D02*
X0056993Y0086521D01*
X0056993Y0084923D02*
X0057093Y0084923D01*
X0057093Y0083324D02*
X0056993Y0083324D01*
X0056993Y0081726D02*
X0057114Y0081726D01*
X0057093Y0088120D02*
X0056993Y0088120D01*
X0056993Y0089718D02*
X0057093Y0089718D01*
X0057156Y0091317D02*
X0056993Y0091317D01*
X0060892Y0091317D02*
X0061692Y0091317D01*
X0061692Y0089718D02*
X0060892Y0089718D01*
X0060892Y0088120D02*
X0061692Y0088120D01*
X0065492Y0083324D02*
X0069054Y0083324D01*
X0069054Y0081726D02*
X0065470Y0081726D01*
X0064000Y0094514D02*
X0069054Y0094514D01*
X0069254Y0096112D02*
X0065598Y0096112D01*
X0067197Y0097711D02*
X0069892Y0097711D01*
X0070157Y0099309D02*
X0068270Y0099309D01*
X0068386Y0100908D02*
X0070819Y0100908D01*
X0072384Y0102506D02*
X0068386Y0102506D01*
X0061986Y0112097D02*
X0060445Y0112097D01*
X0055364Y0129681D02*
X0069644Y0129681D01*
X0071242Y0131279D02*
X0057440Y0131279D01*
X0057962Y0132878D02*
X0072841Y0132878D01*
X0074391Y0134476D02*
X0057786Y0134476D01*
X0059154Y0136075D02*
X0075189Y0136075D01*
X0089653Y0144068D02*
X0059479Y0144068D01*
X0059712Y0142469D02*
X0090332Y0142469D01*
X0090332Y0140870D02*
X0059712Y0140870D01*
X0059712Y0139272D02*
X0090332Y0139272D01*
X0090332Y0137673D02*
X0059712Y0137673D01*
X0058871Y0152060D02*
X0096631Y0152060D01*
X0096631Y0150462D02*
X0092310Y0150462D01*
X0093908Y0148863D02*
X0096631Y0148863D01*
X0096631Y0147265D02*
X0095507Y0147265D01*
X0096601Y0145666D02*
X0096631Y0145666D01*
X0103031Y0150462D02*
X0116710Y0150462D01*
X0116179Y0152060D02*
X0103031Y0152060D01*
X0103031Y0153659D02*
X0116110Y0153659D01*
X0116812Y0155257D02*
X0103031Y0155257D01*
X0103031Y0156856D02*
X0118234Y0156856D01*
X0117114Y0158454D02*
X0103031Y0158454D01*
X0102812Y0160053D02*
X0117010Y0160053D01*
X0117010Y0161651D02*
X0101592Y0161651D01*
X0099994Y0163250D02*
X0117010Y0163250D01*
X0117010Y0164848D02*
X0096120Y0164848D01*
X0096120Y0166447D02*
X0117010Y0166447D01*
X0117010Y0168045D02*
X0096120Y0168045D01*
X0096120Y0168028D02*
X0096120Y0170935D01*
X0095997Y0171392D01*
X0095760Y0171803D01*
X0095425Y0172138D01*
X0095014Y0172375D01*
X0094557Y0172498D01*
X0092240Y0172498D01*
X0092240Y0168028D01*
X0096120Y0168028D01*
X0096120Y0169644D02*
X0116560Y0169644D01*
X0116110Y0171242D02*
X0096037Y0171242D01*
X0092240Y0171242D02*
X0091281Y0171242D01*
X0091281Y0169644D02*
X0092240Y0169644D01*
X0092240Y0168045D02*
X0091281Y0168045D01*
X0087937Y0172841D02*
X0107497Y0172841D01*
X0104728Y0174439D02*
X0087180Y0174439D01*
X0088498Y0176038D02*
X0102918Y0176038D01*
X0101396Y0177636D02*
X0089384Y0177636D01*
X0089458Y0179235D02*
X0100473Y0179235D01*
X0099562Y0180833D02*
X0088771Y0180833D01*
X0082546Y0180833D02*
X0038058Y0180833D01*
X0038058Y0179235D02*
X0081858Y0179235D01*
X0081380Y0177636D02*
X0038058Y0177636D01*
X0038058Y0176038D02*
X0081380Y0176038D01*
X0081380Y0174439D02*
X0052878Y0174439D01*
X0055176Y0172841D02*
X0057698Y0172841D01*
X0056581Y0171242D02*
X0056081Y0171242D01*
X0060813Y0171242D02*
X0061213Y0171242D01*
X0061213Y0169644D02*
X0060813Y0169644D01*
X0060813Y0168045D02*
X0061213Y0168045D01*
X0061213Y0166447D02*
X0079321Y0166447D01*
X0079321Y0168045D02*
X0065813Y0168045D01*
X0065813Y0169644D02*
X0079321Y0169644D01*
X0079349Y0171242D02*
X0065444Y0171242D01*
X0064327Y0172841D02*
X0080624Y0172841D01*
X0084280Y0167548D02*
X0083690Y0166957D01*
X0083690Y0164792D01*
X0086839Y0161643D01*
X0097076Y0161643D01*
X0099831Y0158887D01*
X0099831Y0092745D01*
X0095107Y0088020D01*
X0095107Y0067942D01*
X0101013Y0062036D01*
X0101013Y0032115D01*
X0090383Y0021485D01*
X0095549Y0016187D02*
X0105749Y0016187D01*
X0107251Y0014685D02*
X0103268Y0018668D01*
X0103268Y0021301D01*
X0109883Y0021301D01*
X0109883Y0021669D01*
X0103268Y0021669D01*
X0103268Y0024302D01*
X0107251Y0028285D01*
X0109883Y0028285D01*
X0109883Y0021669D01*
X0110252Y0021669D01*
X0116868Y0021669D01*
X0116868Y0024302D01*
X0112884Y0028285D01*
X0110252Y0028285D01*
X0110252Y0021669D01*
X0110252Y0021301D01*
X0116868Y0021301D01*
X0116868Y0018668D01*
X0112884Y0014685D01*
X0110252Y0014685D01*
X0110252Y0021301D01*
X0109883Y0021301D01*
X0109883Y0014685D01*
X0107251Y0014685D01*
X0109883Y0016187D02*
X0110252Y0016187D01*
X0110252Y0017785D02*
X0109883Y0017785D01*
X0109883Y0019384D02*
X0110252Y0019384D01*
X0110252Y0020982D02*
X0109883Y0020982D01*
X0109883Y0022581D02*
X0110252Y0022581D01*
X0110252Y0024179D02*
X0109883Y0024179D01*
X0109883Y0025778D02*
X0110252Y0025778D01*
X0110252Y0027376D02*
X0109883Y0027376D01*
X0106342Y0027376D02*
X0100799Y0027376D01*
X0099201Y0025778D02*
X0104744Y0025778D01*
X0103268Y0024179D02*
X0097783Y0024179D01*
X0097783Y0022581D02*
X0103268Y0022581D01*
X0103268Y0020982D02*
X0097783Y0020982D01*
X0097783Y0019384D02*
X0103268Y0019384D01*
X0104151Y0017785D02*
X0097148Y0017785D01*
X0093951Y0014588D02*
X0126185Y0014588D01*
X0124586Y0016187D02*
X0114386Y0016187D01*
X0115984Y0017785D02*
X0122987Y0017785D01*
X0122353Y0019384D02*
X0116868Y0019384D01*
X0116868Y0020982D02*
X0122353Y0020982D01*
X0121990Y0022581D02*
X0116868Y0022581D01*
X0116868Y0024179D02*
X0120391Y0024179D01*
X0119012Y0025778D02*
X0115392Y0025778D01*
X0113793Y0027376D02*
X0117194Y0027376D01*
X0115596Y0028975D02*
X0102398Y0028975D01*
X0103838Y0030573D02*
X0114200Y0030573D01*
X0114023Y0032172D02*
X0104213Y0032172D01*
X0104213Y0033770D02*
X0106721Y0033770D01*
X0106735Y0033717D02*
X0106972Y0033307D01*
X0107307Y0032972D01*
X0107717Y0032735D01*
X0108175Y0032612D01*
X0110412Y0032612D01*
X0110412Y0038412D01*
X0106612Y0038412D01*
X0106612Y0034175D01*
X0106735Y0033717D01*
X0106612Y0035369D02*
X0104213Y0035369D01*
X0104213Y0036967D02*
X0106612Y0036967D01*
X0106612Y0039212D02*
X0110412Y0039212D01*
X0110412Y0045011D01*
X0108175Y0045011D01*
X0107717Y0044889D01*
X0107307Y0044652D01*
X0106972Y0044317D01*
X0106735Y0043906D01*
X0106612Y0043448D01*
X0106612Y0039212D01*
X0106612Y0040164D02*
X0104213Y0040164D01*
X0104213Y0038566D02*
X0110412Y0038566D01*
X0110412Y0038412D02*
X0110412Y0039212D01*
X0111212Y0039212D01*
X0111212Y0045011D01*
X0113448Y0045011D01*
X0113906Y0044889D01*
X0114317Y0044652D01*
X0114652Y0044317D01*
X0114889Y0043906D01*
X0115011Y0043448D01*
X0115011Y0039212D01*
X0111212Y0039212D01*
X0111212Y0038412D01*
X0115011Y0038412D01*
X0115011Y0034175D01*
X0114889Y0033717D01*
X0114652Y0033307D01*
X0114317Y0032972D01*
X0113906Y0032735D01*
X0113448Y0032612D01*
X0111212Y0032612D01*
X0111212Y0038412D01*
X0110412Y0038412D01*
X0111212Y0038566D02*
X0115111Y0038566D01*
X0115111Y0040164D02*
X0115011Y0040164D01*
X0115011Y0041763D02*
X0115111Y0041763D01*
X0115111Y0043361D02*
X0115011Y0043361D01*
X0115510Y0044960D02*
X0113641Y0044960D01*
X0111212Y0044960D02*
X0110412Y0044960D01*
X0110412Y0043361D02*
X0111212Y0043361D01*
X0111212Y0041763D02*
X0110412Y0041763D01*
X0110412Y0040164D02*
X0111212Y0040164D01*
X0111212Y0036967D02*
X0110412Y0036967D01*
X0110412Y0035369D02*
X0111212Y0035369D01*
X0111212Y0033770D02*
X0110412Y0033770D01*
X0114903Y0033770D02*
X0115168Y0033770D01*
X0115111Y0035369D02*
X0115011Y0035369D01*
X0115011Y0036967D02*
X0115111Y0036967D01*
X0106612Y0041763D02*
X0104213Y0041763D01*
X0104213Y0043361D02*
X0106612Y0043361D01*
X0107983Y0044960D02*
X0104213Y0044960D01*
X0104213Y0046558D02*
X0115510Y0046558D01*
X0115510Y0048157D02*
X0104213Y0048157D01*
X0104213Y0049755D02*
X0115510Y0049755D01*
X0115510Y0051354D02*
X0104213Y0051354D01*
X0104213Y0052952D02*
X0115510Y0052952D01*
X0115510Y0054551D02*
X0104213Y0054551D01*
X0104213Y0056149D02*
X0115510Y0056149D01*
X0110696Y0057748D02*
X0104213Y0057748D01*
X0104213Y0059346D02*
X0110424Y0059346D01*
X0110424Y0060945D02*
X0104213Y0060945D01*
X0104213Y0062543D02*
X0110424Y0062543D01*
X0110424Y0064142D02*
X0103432Y0064142D01*
X0101834Y0065740D02*
X0108938Y0065740D01*
X0105434Y0067339D02*
X0100235Y0067339D01*
X0098637Y0068937D02*
X0103325Y0068937D01*
X0101726Y0070536D02*
X0098307Y0070536D01*
X0098307Y0072134D02*
X0100708Y0072134D01*
X0099785Y0073733D02*
X0098307Y0073733D01*
X0098307Y0075332D02*
X0099243Y0075332D01*
X0098815Y0076930D02*
X0098307Y0076930D01*
X0098307Y0078529D02*
X0098575Y0078529D01*
X0098575Y0080127D02*
X0098307Y0080127D01*
X0098307Y0081726D02*
X0098587Y0081726D01*
X0098307Y0083324D02*
X0099015Y0083324D01*
X0099444Y0084923D02*
X0098307Y0084923D01*
X0098307Y0086521D02*
X0100217Y0086521D01*
X0099732Y0088120D02*
X0101140Y0088120D01*
X0101330Y0089718D02*
X0102475Y0089718D01*
X0102704Y0091317D02*
X0104074Y0091317D01*
X0103031Y0092915D02*
X0106730Y0092915D01*
X0096631Y0096112D02*
X0094297Y0096112D01*
X0095538Y0097711D02*
X0096631Y0097711D01*
X0096631Y0099309D02*
X0096043Y0099309D01*
X0096025Y0101227D02*
X0096025Y0101227D01*
X0119910Y0109280D02*
X0127391Y0101800D01*
X0129611Y0104105D02*
X0137483Y0104105D01*
X0137483Y0105703D02*
X0128013Y0105703D01*
X0129203Y0104513D02*
X0129203Y0104513D01*
X0130103Y0103613D02*
X0130103Y0103613D01*
X0131210Y0102506D02*
X0137483Y0102506D01*
X0137483Y0100908D02*
X0132808Y0100908D01*
X0134407Y0099309D02*
X0137483Y0099309D01*
X0137483Y0097711D02*
X0136005Y0097711D01*
X0132458Y0091317D02*
X0122361Y0091317D01*
X0123960Y0089718D02*
X0132458Y0089718D01*
X0132458Y0088120D02*
X0125294Y0088120D01*
X0126217Y0086521D02*
X0132458Y0086521D01*
X0130626Y0084923D02*
X0129667Y0084923D01*
X0129667Y0083324D02*
X0130626Y0083324D01*
X0126414Y0107302D02*
X0137483Y0107302D01*
X0137483Y0108900D02*
X0124816Y0108900D01*
X0123217Y0110499D02*
X0137483Y0110499D01*
X0137483Y0112097D02*
X0123110Y0112097D01*
X0123110Y0113696D02*
X0137483Y0113696D01*
X0137483Y0115294D02*
X0123110Y0115294D01*
X0123110Y0116893D02*
X0137483Y0116893D01*
X0137483Y0118491D02*
X0123110Y0118491D01*
X0123110Y0120090D02*
X0137483Y0120090D01*
X0137483Y0121688D02*
X0123110Y0121688D01*
X0123110Y0123287D02*
X0137483Y0123287D01*
X0137483Y0124885D02*
X0123110Y0124885D01*
X0123110Y0126484D02*
X0137483Y0126484D01*
X0137483Y0128082D02*
X0133191Y0128082D01*
X0135633Y0129681D02*
X0137483Y0129681D01*
X0137483Y0131279D02*
X0136598Y0131279D01*
X0136972Y0132878D02*
X0137483Y0132878D01*
X0137483Y0134476D02*
X0136911Y0134476D01*
X0137483Y0136075D02*
X0136249Y0136075D01*
X0137483Y0137673D02*
X0134792Y0137673D01*
X0134253Y0139272D02*
X0137483Y0139272D01*
X0137483Y0140870D02*
X0135743Y0140870D01*
X0136307Y0142469D02*
X0137483Y0142469D01*
X0137483Y0144068D02*
X0136303Y0144068D01*
X0135731Y0145666D02*
X0137483Y0145666D01*
X0137483Y0147265D02*
X0134222Y0147265D01*
X0134815Y0148863D02*
X0137483Y0148863D01*
X0137483Y0150462D02*
X0136259Y0150462D01*
X0136921Y0152060D02*
X0137483Y0152060D01*
X0137483Y0153659D02*
X0136972Y0153659D01*
X0136588Y0155257D02*
X0137457Y0155257D01*
X0136391Y0156856D02*
X0135609Y0156856D01*
X0136189Y0158454D02*
X0134088Y0158454D01*
X0136004Y0160053D02*
X0136685Y0160053D01*
X0136752Y0161651D02*
X0138634Y0161651D01*
X0124365Y0147912D02*
X0123110Y0148431D01*
X0123110Y0147390D01*
X0123729Y0147705D01*
X0124365Y0147912D01*
X0119910Y0152981D02*
X0119910Y0109280D01*
X0123110Y0128082D02*
X0123953Y0128082D01*
X0123110Y0138082D02*
X0123110Y0139124D01*
X0123729Y0138808D01*
X0124365Y0138602D01*
X0123110Y0138082D01*
X0096631Y0153659D02*
X0038058Y0153659D01*
X0038058Y0155257D02*
X0096631Y0155257D01*
X0096631Y0156856D02*
X0038058Y0156856D01*
X0038058Y0158454D02*
X0038762Y0158454D01*
X0043263Y0158454D02*
X0048762Y0158454D01*
X0046690Y0160053D02*
X0045335Y0160053D01*
X0053263Y0158454D02*
X0086175Y0158454D01*
X0083904Y0160053D02*
X0064487Y0160053D01*
X0064674Y0160240D02*
X0065118Y0160851D01*
X0065461Y0161524D01*
X0065694Y0162243D01*
X0065813Y0162989D01*
X0065813Y0166167D01*
X0061213Y0166167D01*
X0061213Y0158567D01*
X0061390Y0158567D01*
X0062137Y0158685D01*
X0062855Y0158919D01*
X0063528Y0159262D01*
X0064140Y0159706D01*
X0064674Y0160240D01*
X0065502Y0161651D02*
X0082305Y0161651D01*
X0079599Y0163250D02*
X0065813Y0163250D01*
X0065813Y0164848D02*
X0079321Y0164848D01*
X0061213Y0164848D02*
X0060813Y0164848D01*
X0060813Y0163250D02*
X0061213Y0163250D01*
X0061213Y0161651D02*
X0060813Y0161651D01*
X0060813Y0160053D02*
X0061213Y0160053D01*
X0057539Y0160053D02*
X0055335Y0160053D01*
X0056147Y0161651D02*
X0056523Y0161651D01*
X0049453Y0152060D02*
X0043517Y0152060D01*
X0045176Y0172841D02*
X0046850Y0172841D01*
X0049147Y0174439D02*
X0042878Y0174439D01*
X0039147Y0174439D02*
X0038058Y0174439D01*
X0038058Y0182432D02*
X0099134Y0182432D01*
X0098705Y0184030D02*
X0038058Y0184030D01*
X0038058Y0185629D02*
X0098575Y0185629D01*
X0098575Y0187227D02*
X0038058Y0187227D01*
X0038020Y0188826D02*
X0098696Y0188826D01*
X0099124Y0190424D02*
X0038020Y0190424D01*
X0038020Y0192023D02*
X0099553Y0192023D01*
X0122330Y0174439D02*
X0169035Y0174439D01*
X0169035Y0172841D02*
X0123462Y0172841D01*
X0123710Y0171242D02*
X0169035Y0171242D01*
X0169035Y0169644D02*
X0123261Y0169644D01*
X0123021Y0168045D02*
X0122810Y0168045D01*
X0123517Y0176038D02*
X0169035Y0176038D01*
X0169035Y0177636D02*
X0125039Y0177636D01*
X0125962Y0179235D02*
X0169035Y0179235D01*
X0169035Y0180833D02*
X0153169Y0180833D01*
X0156042Y0182432D02*
X0169035Y0182432D01*
X0169035Y0184030D02*
X0157641Y0184030D01*
X0158333Y0185629D02*
X0169035Y0185629D01*
X0169035Y0187227D02*
X0158962Y0187227D01*
X0158962Y0188826D02*
X0169035Y0188826D01*
X0169035Y0190424D02*
X0158962Y0190424D01*
X0158318Y0192023D02*
X0169035Y0192023D01*
X0148069Y0180833D02*
X0126873Y0180833D01*
X0127301Y0182432D02*
X0145196Y0182432D01*
X0143597Y0184030D02*
X0127729Y0184030D01*
X0127860Y0185629D02*
X0142905Y0185629D01*
X0142276Y0187227D02*
X0127860Y0187227D01*
X0127739Y0188826D02*
X0142276Y0188826D01*
X0142276Y0190424D02*
X0127310Y0190424D01*
X0126882Y0192023D02*
X0142920Y0192023D01*
X0061213Y0172841D02*
X0060813Y0172841D01*
X0025140Y0102506D02*
X0022380Y0102506D01*
X0022538Y0097711D02*
X0022648Y0097711D01*
X0022680Y0096112D02*
X0021297Y0096112D01*
X0019893Y0094514D02*
X0023342Y0094514D01*
X0024579Y0092915D02*
X0019893Y0092915D01*
X0019893Y0091317D02*
X0027343Y0091317D01*
X0038723Y0068937D02*
X0047794Y0068937D01*
X0042910Y0067339D02*
X0040909Y0067339D01*
X0042507Y0065740D02*
X0042707Y0065740D01*
X0035589Y0060214D02*
X0035589Y0058342D01*
X0035160Y0059378D01*
X0034145Y0060392D01*
X0035411Y0060392D01*
X0035589Y0060214D01*
X0035589Y0059346D02*
X0035173Y0059346D01*
X0044389Y0054551D02*
X0068731Y0054551D01*
X0068731Y0052952D02*
X0044389Y0052952D01*
X0044389Y0051354D02*
X0068731Y0051354D01*
X0068731Y0049755D02*
X0044389Y0049755D01*
X0044389Y0048157D02*
X0068731Y0048157D01*
X0068731Y0046558D02*
X0044389Y0046558D01*
X0044389Y0044960D02*
X0068731Y0044960D01*
X0068877Y0043361D02*
X0044389Y0043361D01*
X0044389Y0041763D02*
X0069539Y0041763D01*
X0070687Y0040164D02*
X0044389Y0040164D01*
X0044389Y0038566D02*
X0072776Y0038566D01*
X0073514Y0028285D02*
X0070882Y0028285D01*
X0070882Y0021669D01*
X0077498Y0021669D01*
X0077498Y0024302D01*
X0073514Y0028285D01*
X0074423Y0027376D02*
X0085809Y0027376D01*
X0084210Y0025778D02*
X0076022Y0025778D01*
X0077498Y0024179D02*
X0082983Y0024179D01*
X0082983Y0022581D02*
X0077498Y0022581D01*
X0077498Y0021301D02*
X0070882Y0021301D01*
X0070882Y0021669D01*
X0070513Y0021669D01*
X0070513Y0021301D01*
X0063898Y0021301D01*
X0063898Y0018668D01*
X0067881Y0014685D01*
X0070513Y0014685D01*
X0070513Y0021301D01*
X0070882Y0021301D01*
X0070882Y0014685D01*
X0073514Y0014685D01*
X0077498Y0018668D01*
X0077498Y0021301D01*
X0077498Y0020982D02*
X0082983Y0020982D01*
X0082983Y0019384D02*
X0077498Y0019384D01*
X0076614Y0017785D02*
X0083617Y0017785D01*
X0085216Y0016187D02*
X0075016Y0016187D01*
X0070882Y0016187D02*
X0070513Y0016187D01*
X0070513Y0017785D02*
X0070882Y0017785D01*
X0070882Y0019384D02*
X0070513Y0019384D01*
X0070513Y0020982D02*
X0070882Y0020982D01*
X0070513Y0021669D02*
X0063898Y0021669D01*
X0063898Y0024302D01*
X0067881Y0028285D01*
X0070513Y0028285D01*
X0070513Y0021669D01*
X0070513Y0022581D02*
X0070882Y0022581D01*
X0070882Y0024179D02*
X0070513Y0024179D01*
X0070513Y0025778D02*
X0070882Y0025778D01*
X0070882Y0027376D02*
X0070513Y0027376D01*
X0066972Y0027376D02*
X0055587Y0027376D01*
X0057185Y0025778D02*
X0065374Y0025778D01*
X0063898Y0024179D02*
X0058413Y0024179D01*
X0058413Y0022581D02*
X0063898Y0022581D01*
X0063898Y0020982D02*
X0058413Y0020982D01*
X0058413Y0019384D02*
X0063898Y0019384D01*
X0064781Y0017785D02*
X0057778Y0017785D01*
X0056179Y0016187D02*
X0066379Y0016187D01*
X0054581Y0014588D02*
X0086814Y0014588D01*
X0093347Y0028975D02*
X0049745Y0028975D01*
X0048147Y0030573D02*
X0094945Y0030573D01*
X0096544Y0032172D02*
X0046548Y0032172D01*
X0008074Y0014588D02*
X0007400Y0014588D01*
X0088493Y0044960D02*
X0088493Y0044960D01*
X0088493Y0046558D02*
X0088493Y0046558D01*
X0088493Y0047918D02*
X0088493Y0047918D01*
X0088493Y0048157D02*
X0088493Y0048157D01*
X0088493Y0049755D02*
X0088493Y0049755D01*
X0088493Y0051354D02*
X0088493Y0051354D01*
D12*
X0076131Y0055186D02*
X0076131Y0045186D01*
X0028887Y0045186D02*
X0028887Y0055186D01*
X0047509Y0105304D02*
X0057509Y0105304D01*
D13*
X0076131Y0097430D03*
X0028887Y0097430D03*
D14*
X0043095Y0086442D03*
X0052194Y0086442D03*
X0061292Y0086442D03*
X0110812Y0038812D03*
X0119910Y0038812D03*
X0129009Y0038812D03*
X0140339Y0038812D03*
X0149438Y0038812D03*
X0158536Y0038812D03*
X0169867Y0038812D03*
X0178965Y0038812D03*
X0188064Y0038812D03*
D15*
X0178965Y0063213D03*
X0149438Y0063213D03*
X0119910Y0063213D03*
X0052194Y0062040D03*
D16*
X0051013Y0021485D03*
X0070698Y0021485D03*
X0090383Y0021485D03*
X0110068Y0021485D03*
X0129753Y0021485D03*
X0149438Y0021485D03*
X0169123Y0021485D03*
X0188808Y0021485D03*
X0031328Y0021485D03*
X0011643Y0021485D03*
D17*
X0054162Y0140186D03*
X0054162Y0147666D03*
X0038414Y0148060D03*
X0038414Y0140580D03*
X0130146Y0081524D03*
X0130146Y0074044D03*
D18*
G36*
X0120832Y0036040D02*
X0124451Y0032421D01*
X0119998Y0027968D01*
X0116379Y0031587D01*
X0120832Y0036040D01*
G37*
G36*
X0126122Y0030750D02*
X0129741Y0027131D01*
X0125288Y0022678D01*
X0121669Y0026297D01*
X0126122Y0030750D01*
G37*
X0091761Y0167548D03*
X0084280Y0167548D03*
D19*
X0061013Y0169367D02*
X0061013Y0163367D01*
X0051013Y0163367D02*
X0051013Y0169367D01*
X0041013Y0169367D02*
X0041013Y0163367D01*
X0125572Y0163257D02*
X0131572Y0163257D01*
X0131572Y0153257D02*
X0125572Y0153257D01*
X0125572Y0143257D02*
X0131572Y0143257D01*
X0131572Y0133257D02*
X0125572Y0133257D01*
D20*
X0091068Y0099918D02*
X0085918Y0099918D01*
X0085918Y0047918D02*
X0091068Y0047918D01*
X0018068Y0047918D02*
X0012918Y0047918D01*
X0012918Y0099918D02*
X0018068Y0099918D01*
D21*
X0110619Y0143296D03*
D22*
X0110619Y0133296D03*
X0110619Y0123296D03*
X0171209Y0076052D03*
X0181209Y0076052D03*
X0191209Y0076052D03*
D23*
X0188020Y0052587D02*
X0188064Y0052544D01*
X0188064Y0038812D01*
X0164398Y0055343D02*
X0164398Y0159280D01*
X0160461Y0163217D01*
X0140383Y0157706D02*
X0140383Y0075028D01*
X0158493Y0047863D02*
X0158536Y0047032D01*
X0158536Y0038812D01*
X0054162Y0133296D02*
X0054162Y0140186D01*
X0054162Y0147666D02*
X0054359Y0147863D01*
X0038414Y0140580D02*
X0038414Y0134083D01*
X0043139Y0086485D02*
X0043095Y0086442D01*
X0119910Y0159280D02*
X0121091Y0158099D01*
X0123729Y0158099D01*
X0128572Y0153257D01*
X0119910Y0159280D02*
X0119910Y0171485D01*
X0139989Y0158099D02*
X0140383Y0157706D01*
X0093139Y0168926D02*
X0091761Y0167548D01*
X0093139Y0168926D02*
X0093139Y0176209D01*
X0085658Y0178572D02*
X0084280Y0177194D01*
X0084280Y0167548D01*
D24*
X0093139Y0176209D03*
X0085658Y0178572D03*
X0119910Y0171485D03*
X0119910Y0152981D03*
X0139989Y0158099D03*
X0147076Y0170698D03*
X0160461Y0163217D03*
X0125028Y0097076D03*
X0140383Y0075028D03*
X0134083Y0055343D03*
X0132115Y0050225D03*
X0158493Y0047863D03*
X0164398Y0055343D03*
X0188020Y0052587D03*
X0093532Y0133690D03*
X0078178Y0133690D03*
X0054162Y0133296D03*
X0038414Y0134083D03*
X0067154Y0086052D03*
D25*
X0073454Y0078178D02*
X0071485Y0076209D01*
X0052194Y0076209D01*
X0052194Y0086442D01*
X0052194Y0076209D02*
X0052194Y0062040D01*
X0039989Y0062036D02*
X0039989Y0032509D01*
X0051013Y0021485D01*
X0031328Y0021485D02*
X0031328Y0047745D01*
X0028887Y0050186D01*
X0039989Y0062036D02*
X0037233Y0064792D01*
X0016367Y0064792D01*
X0015493Y0065666D01*
X0015493Y0099918D01*
X0007312Y0105737D02*
X0010855Y0109280D01*
X0048532Y0109280D01*
X0052509Y0105304D01*
X0073454Y0094753D02*
X0073454Y0078178D01*
X0073454Y0094753D02*
X0076131Y0097430D01*
X0088493Y0099918D02*
X0093532Y0104957D01*
X0093532Y0133690D01*
X0119910Y0063213D02*
X0119910Y0038812D01*
X0119910Y0032509D01*
X0120415Y0032004D01*
X0125705Y0026714D02*
X0129753Y0022666D01*
X0129753Y0021485D01*
X0149438Y0021485D02*
X0149438Y0036839D01*
X0149438Y0038812D01*
X0149438Y0063213D01*
X0178965Y0063213D02*
X0178965Y0038812D01*
X0178965Y0031328D01*
X0169123Y0021485D01*
X0011643Y0021485D02*
X0011643Y0032902D01*
X0007312Y0037233D01*
X0007312Y0105737D01*
D26*
X0119910Y0063213D02*
X0128572Y0071875D01*
X0130146Y0074044D01*
M02*
