%
M48
M72
T01C0.01200
T02C0.03150
T03C0.03937
T04C0.04000
T05C0.05118
T06C0.07087
T07C0.19685
%
T01
X67154Y86052
X78178Y133690
X93532Y133690
X119910Y152981
X118729Y163217
X113217Y169910
X93139Y176209
X85658Y178572
X54162Y133296
X38414Y134083
X125028Y97076
X140383Y75028
X134083Y55343
X132115Y50225
X158493Y47863
X164005Y54950
X188020Y52587
X139989Y158099
X147076Y170698
T02
X88493Y99918
X88493Y47918
X15493Y47918
X15493Y99918
T03
X11643Y21485
X31328Y21485
X51013Y21485
X70698Y21485
X90383Y21485
X110068Y21485
X129753Y21485
X149438Y21485
X169123Y21485
X188808Y21485
X191209Y76052
X181209Y76052
X171209Y76052
X110619Y123296
X110619Y133296
X110619Y143296
T04
X128572Y143257
X128572Y153257
X128572Y163257
X128572Y133257
X61013Y166367
X51013Y166367
X41013Y166367
T05
X52509Y105304
X76131Y97430
X76131Y50186
X28887Y50186
X28887Y97430
T06
X150619Y77784
X150619Y188808
T07
X113217Y186446
X113217Y79753
M30
