G75*
%MOIN*%
%OFA0B0*%
%FSLAX25Y25*%
%IPPOS*%
%LPD*%
%AMOC8*
5,1,8,0,0,1.08239X$1,22.5*
%
%ADD10C,0.00000*%
%ADD11C,0.20485*%
%ADD12C,0.01600*%
%ADD13C,0.10800*%
%ADD14C,0.08477*%
%ADD15R,0.10249X0.10249*%
%ADD16OC8,0.10800*%
%ADD17R,0.05918X0.07099*%
%ADD18R,0.05400X0.07100*%
%ADD19C,0.06800*%
%ADD20C,0.05950*%
%ADD21R,0.05524X0.12611*%
%ADD22C,0.07887*%
%ADD23R,0.06737X0.06737*%
%ADD24C,0.06737*%
%ADD25R,0.10800X0.05800*%
%ADD26R,0.07300X0.04737*%
%ADD27R,0.06800X0.03800*%
%ADD28C,0.03600*%
D10*
X0103374Y0079753D02*
X0103377Y0079995D01*
X0103386Y0080236D01*
X0103401Y0080477D01*
X0103421Y0080718D01*
X0103448Y0080958D01*
X0103481Y0081197D01*
X0103519Y0081436D01*
X0103563Y0081673D01*
X0103613Y0081910D01*
X0103669Y0082145D01*
X0103731Y0082378D01*
X0103798Y0082610D01*
X0103871Y0082841D01*
X0103949Y0083069D01*
X0104034Y0083295D01*
X0104123Y0083520D01*
X0104218Y0083742D01*
X0104319Y0083961D01*
X0104425Y0084179D01*
X0104536Y0084393D01*
X0104653Y0084605D01*
X0104774Y0084813D01*
X0104901Y0085019D01*
X0105033Y0085221D01*
X0105170Y0085421D01*
X0105311Y0085616D01*
X0105457Y0085809D01*
X0105608Y0085997D01*
X0105764Y0086182D01*
X0105924Y0086363D01*
X0106088Y0086540D01*
X0106257Y0086713D01*
X0106430Y0086882D01*
X0106607Y0087046D01*
X0106788Y0087206D01*
X0106973Y0087362D01*
X0107161Y0087513D01*
X0107354Y0087659D01*
X0107549Y0087800D01*
X0107749Y0087937D01*
X0107951Y0088069D01*
X0108157Y0088196D01*
X0108365Y0088317D01*
X0108577Y0088434D01*
X0108791Y0088545D01*
X0109009Y0088651D01*
X0109228Y0088752D01*
X0109450Y0088847D01*
X0109675Y0088936D01*
X0109901Y0089021D01*
X0110129Y0089099D01*
X0110360Y0089172D01*
X0110592Y0089239D01*
X0110825Y0089301D01*
X0111060Y0089357D01*
X0111297Y0089407D01*
X0111534Y0089451D01*
X0111773Y0089489D01*
X0112012Y0089522D01*
X0112252Y0089549D01*
X0112493Y0089569D01*
X0112734Y0089584D01*
X0112975Y0089593D01*
X0113217Y0089596D01*
X0113459Y0089593D01*
X0113700Y0089584D01*
X0113941Y0089569D01*
X0114182Y0089549D01*
X0114422Y0089522D01*
X0114661Y0089489D01*
X0114900Y0089451D01*
X0115137Y0089407D01*
X0115374Y0089357D01*
X0115609Y0089301D01*
X0115842Y0089239D01*
X0116074Y0089172D01*
X0116305Y0089099D01*
X0116533Y0089021D01*
X0116759Y0088936D01*
X0116984Y0088847D01*
X0117206Y0088752D01*
X0117425Y0088651D01*
X0117643Y0088545D01*
X0117857Y0088434D01*
X0118069Y0088317D01*
X0118277Y0088196D01*
X0118483Y0088069D01*
X0118685Y0087937D01*
X0118885Y0087800D01*
X0119080Y0087659D01*
X0119273Y0087513D01*
X0119461Y0087362D01*
X0119646Y0087206D01*
X0119827Y0087046D01*
X0120004Y0086882D01*
X0120177Y0086713D01*
X0120346Y0086540D01*
X0120510Y0086363D01*
X0120670Y0086182D01*
X0120826Y0085997D01*
X0120977Y0085809D01*
X0121123Y0085616D01*
X0121264Y0085421D01*
X0121401Y0085221D01*
X0121533Y0085019D01*
X0121660Y0084813D01*
X0121781Y0084605D01*
X0121898Y0084393D01*
X0122009Y0084179D01*
X0122115Y0083961D01*
X0122216Y0083742D01*
X0122311Y0083520D01*
X0122400Y0083295D01*
X0122485Y0083069D01*
X0122563Y0082841D01*
X0122636Y0082610D01*
X0122703Y0082378D01*
X0122765Y0082145D01*
X0122821Y0081910D01*
X0122871Y0081673D01*
X0122915Y0081436D01*
X0122953Y0081197D01*
X0122986Y0080958D01*
X0123013Y0080718D01*
X0123033Y0080477D01*
X0123048Y0080236D01*
X0123057Y0079995D01*
X0123060Y0079753D01*
X0123057Y0079511D01*
X0123048Y0079270D01*
X0123033Y0079029D01*
X0123013Y0078788D01*
X0122986Y0078548D01*
X0122953Y0078309D01*
X0122915Y0078070D01*
X0122871Y0077833D01*
X0122821Y0077596D01*
X0122765Y0077361D01*
X0122703Y0077128D01*
X0122636Y0076896D01*
X0122563Y0076665D01*
X0122485Y0076437D01*
X0122400Y0076211D01*
X0122311Y0075986D01*
X0122216Y0075764D01*
X0122115Y0075545D01*
X0122009Y0075327D01*
X0121898Y0075113D01*
X0121781Y0074901D01*
X0121660Y0074693D01*
X0121533Y0074487D01*
X0121401Y0074285D01*
X0121264Y0074085D01*
X0121123Y0073890D01*
X0120977Y0073697D01*
X0120826Y0073509D01*
X0120670Y0073324D01*
X0120510Y0073143D01*
X0120346Y0072966D01*
X0120177Y0072793D01*
X0120004Y0072624D01*
X0119827Y0072460D01*
X0119646Y0072300D01*
X0119461Y0072144D01*
X0119273Y0071993D01*
X0119080Y0071847D01*
X0118885Y0071706D01*
X0118685Y0071569D01*
X0118483Y0071437D01*
X0118277Y0071310D01*
X0118069Y0071189D01*
X0117857Y0071072D01*
X0117643Y0070961D01*
X0117425Y0070855D01*
X0117206Y0070754D01*
X0116984Y0070659D01*
X0116759Y0070570D01*
X0116533Y0070485D01*
X0116305Y0070407D01*
X0116074Y0070334D01*
X0115842Y0070267D01*
X0115609Y0070205D01*
X0115374Y0070149D01*
X0115137Y0070099D01*
X0114900Y0070055D01*
X0114661Y0070017D01*
X0114422Y0069984D01*
X0114182Y0069957D01*
X0113941Y0069937D01*
X0113700Y0069922D01*
X0113459Y0069913D01*
X0113217Y0069910D01*
X0112975Y0069913D01*
X0112734Y0069922D01*
X0112493Y0069937D01*
X0112252Y0069957D01*
X0112012Y0069984D01*
X0111773Y0070017D01*
X0111534Y0070055D01*
X0111297Y0070099D01*
X0111060Y0070149D01*
X0110825Y0070205D01*
X0110592Y0070267D01*
X0110360Y0070334D01*
X0110129Y0070407D01*
X0109901Y0070485D01*
X0109675Y0070570D01*
X0109450Y0070659D01*
X0109228Y0070754D01*
X0109009Y0070855D01*
X0108791Y0070961D01*
X0108577Y0071072D01*
X0108365Y0071189D01*
X0108157Y0071310D01*
X0107951Y0071437D01*
X0107749Y0071569D01*
X0107549Y0071706D01*
X0107354Y0071847D01*
X0107161Y0071993D01*
X0106973Y0072144D01*
X0106788Y0072300D01*
X0106607Y0072460D01*
X0106430Y0072624D01*
X0106257Y0072793D01*
X0106088Y0072966D01*
X0105924Y0073143D01*
X0105764Y0073324D01*
X0105608Y0073509D01*
X0105457Y0073697D01*
X0105311Y0073890D01*
X0105170Y0074085D01*
X0105033Y0074285D01*
X0104901Y0074487D01*
X0104774Y0074693D01*
X0104653Y0074901D01*
X0104536Y0075113D01*
X0104425Y0075327D01*
X0104319Y0075545D01*
X0104218Y0075764D01*
X0104123Y0075986D01*
X0104034Y0076211D01*
X0103949Y0076437D01*
X0103871Y0076665D01*
X0103798Y0076896D01*
X0103731Y0077128D01*
X0103669Y0077361D01*
X0103613Y0077596D01*
X0103563Y0077833D01*
X0103519Y0078070D01*
X0103481Y0078309D01*
X0103448Y0078548D01*
X0103421Y0078788D01*
X0103401Y0079029D01*
X0103386Y0079270D01*
X0103377Y0079511D01*
X0103374Y0079753D01*
X0147076Y0077784D02*
X0147078Y0077902D01*
X0147084Y0078021D01*
X0147094Y0078139D01*
X0147108Y0078256D01*
X0147125Y0078373D01*
X0147147Y0078490D01*
X0147173Y0078605D01*
X0147202Y0078720D01*
X0147235Y0078834D01*
X0147272Y0078946D01*
X0147313Y0079057D01*
X0147357Y0079167D01*
X0147405Y0079275D01*
X0147457Y0079382D01*
X0147512Y0079487D01*
X0147571Y0079590D01*
X0147633Y0079690D01*
X0147698Y0079789D01*
X0147767Y0079886D01*
X0147838Y0079980D01*
X0147913Y0080071D01*
X0147991Y0080161D01*
X0148072Y0080247D01*
X0148156Y0080331D01*
X0148242Y0080412D01*
X0148332Y0080490D01*
X0148423Y0080565D01*
X0148517Y0080636D01*
X0148614Y0080705D01*
X0148713Y0080770D01*
X0148813Y0080832D01*
X0148916Y0080891D01*
X0149021Y0080946D01*
X0149128Y0080998D01*
X0149236Y0081046D01*
X0149346Y0081090D01*
X0149457Y0081131D01*
X0149569Y0081168D01*
X0149683Y0081201D01*
X0149798Y0081230D01*
X0149913Y0081256D01*
X0150030Y0081278D01*
X0150147Y0081295D01*
X0150264Y0081309D01*
X0150382Y0081319D01*
X0150501Y0081325D01*
X0150619Y0081327D01*
X0150737Y0081325D01*
X0150856Y0081319D01*
X0150974Y0081309D01*
X0151091Y0081295D01*
X0151208Y0081278D01*
X0151325Y0081256D01*
X0151440Y0081230D01*
X0151555Y0081201D01*
X0151669Y0081168D01*
X0151781Y0081131D01*
X0151892Y0081090D01*
X0152002Y0081046D01*
X0152110Y0080998D01*
X0152217Y0080946D01*
X0152322Y0080891D01*
X0152425Y0080832D01*
X0152525Y0080770D01*
X0152624Y0080705D01*
X0152721Y0080636D01*
X0152815Y0080565D01*
X0152906Y0080490D01*
X0152996Y0080412D01*
X0153082Y0080331D01*
X0153166Y0080247D01*
X0153247Y0080161D01*
X0153325Y0080071D01*
X0153400Y0079980D01*
X0153471Y0079886D01*
X0153540Y0079789D01*
X0153605Y0079690D01*
X0153667Y0079590D01*
X0153726Y0079487D01*
X0153781Y0079382D01*
X0153833Y0079275D01*
X0153881Y0079167D01*
X0153925Y0079057D01*
X0153966Y0078946D01*
X0154003Y0078834D01*
X0154036Y0078720D01*
X0154065Y0078605D01*
X0154091Y0078490D01*
X0154113Y0078373D01*
X0154130Y0078256D01*
X0154144Y0078139D01*
X0154154Y0078021D01*
X0154160Y0077902D01*
X0154162Y0077784D01*
X0154160Y0077666D01*
X0154154Y0077547D01*
X0154144Y0077429D01*
X0154130Y0077312D01*
X0154113Y0077195D01*
X0154091Y0077078D01*
X0154065Y0076963D01*
X0154036Y0076848D01*
X0154003Y0076734D01*
X0153966Y0076622D01*
X0153925Y0076511D01*
X0153881Y0076401D01*
X0153833Y0076293D01*
X0153781Y0076186D01*
X0153726Y0076081D01*
X0153667Y0075978D01*
X0153605Y0075878D01*
X0153540Y0075779D01*
X0153471Y0075682D01*
X0153400Y0075588D01*
X0153325Y0075497D01*
X0153247Y0075407D01*
X0153166Y0075321D01*
X0153082Y0075237D01*
X0152996Y0075156D01*
X0152906Y0075078D01*
X0152815Y0075003D01*
X0152721Y0074932D01*
X0152624Y0074863D01*
X0152525Y0074798D01*
X0152425Y0074736D01*
X0152322Y0074677D01*
X0152217Y0074622D01*
X0152110Y0074570D01*
X0152002Y0074522D01*
X0151892Y0074478D01*
X0151781Y0074437D01*
X0151669Y0074400D01*
X0151555Y0074367D01*
X0151440Y0074338D01*
X0151325Y0074312D01*
X0151208Y0074290D01*
X0151091Y0074273D01*
X0150974Y0074259D01*
X0150856Y0074249D01*
X0150737Y0074243D01*
X0150619Y0074241D01*
X0150501Y0074243D01*
X0150382Y0074249D01*
X0150264Y0074259D01*
X0150147Y0074273D01*
X0150030Y0074290D01*
X0149913Y0074312D01*
X0149798Y0074338D01*
X0149683Y0074367D01*
X0149569Y0074400D01*
X0149457Y0074437D01*
X0149346Y0074478D01*
X0149236Y0074522D01*
X0149128Y0074570D01*
X0149021Y0074622D01*
X0148916Y0074677D01*
X0148813Y0074736D01*
X0148713Y0074798D01*
X0148614Y0074863D01*
X0148517Y0074932D01*
X0148423Y0075003D01*
X0148332Y0075078D01*
X0148242Y0075156D01*
X0148156Y0075237D01*
X0148072Y0075321D01*
X0147991Y0075407D01*
X0147913Y0075497D01*
X0147838Y0075588D01*
X0147767Y0075682D01*
X0147698Y0075779D01*
X0147633Y0075878D01*
X0147571Y0075978D01*
X0147512Y0076081D01*
X0147457Y0076186D01*
X0147405Y0076293D01*
X0147357Y0076401D01*
X0147313Y0076511D01*
X0147272Y0076622D01*
X0147235Y0076734D01*
X0147202Y0076848D01*
X0147173Y0076963D01*
X0147147Y0077078D01*
X0147125Y0077195D01*
X0147108Y0077312D01*
X0147094Y0077429D01*
X0147084Y0077547D01*
X0147078Y0077666D01*
X0147076Y0077784D01*
X0103374Y0186446D02*
X0103377Y0186688D01*
X0103386Y0186929D01*
X0103401Y0187170D01*
X0103421Y0187411D01*
X0103448Y0187651D01*
X0103481Y0187890D01*
X0103519Y0188129D01*
X0103563Y0188366D01*
X0103613Y0188603D01*
X0103669Y0188838D01*
X0103731Y0189071D01*
X0103798Y0189303D01*
X0103871Y0189534D01*
X0103949Y0189762D01*
X0104034Y0189988D01*
X0104123Y0190213D01*
X0104218Y0190435D01*
X0104319Y0190654D01*
X0104425Y0190872D01*
X0104536Y0191086D01*
X0104653Y0191298D01*
X0104774Y0191506D01*
X0104901Y0191712D01*
X0105033Y0191914D01*
X0105170Y0192114D01*
X0105311Y0192309D01*
X0105457Y0192502D01*
X0105608Y0192690D01*
X0105764Y0192875D01*
X0105924Y0193056D01*
X0106088Y0193233D01*
X0106257Y0193406D01*
X0106430Y0193575D01*
X0106607Y0193739D01*
X0106788Y0193899D01*
X0106973Y0194055D01*
X0107161Y0194206D01*
X0107354Y0194352D01*
X0107549Y0194493D01*
X0107749Y0194630D01*
X0107951Y0194762D01*
X0108157Y0194889D01*
X0108365Y0195010D01*
X0108577Y0195127D01*
X0108791Y0195238D01*
X0109009Y0195344D01*
X0109228Y0195445D01*
X0109450Y0195540D01*
X0109675Y0195629D01*
X0109901Y0195714D01*
X0110129Y0195792D01*
X0110360Y0195865D01*
X0110592Y0195932D01*
X0110825Y0195994D01*
X0111060Y0196050D01*
X0111297Y0196100D01*
X0111534Y0196144D01*
X0111773Y0196182D01*
X0112012Y0196215D01*
X0112252Y0196242D01*
X0112493Y0196262D01*
X0112734Y0196277D01*
X0112975Y0196286D01*
X0113217Y0196289D01*
X0113459Y0196286D01*
X0113700Y0196277D01*
X0113941Y0196262D01*
X0114182Y0196242D01*
X0114422Y0196215D01*
X0114661Y0196182D01*
X0114900Y0196144D01*
X0115137Y0196100D01*
X0115374Y0196050D01*
X0115609Y0195994D01*
X0115842Y0195932D01*
X0116074Y0195865D01*
X0116305Y0195792D01*
X0116533Y0195714D01*
X0116759Y0195629D01*
X0116984Y0195540D01*
X0117206Y0195445D01*
X0117425Y0195344D01*
X0117643Y0195238D01*
X0117857Y0195127D01*
X0118069Y0195010D01*
X0118277Y0194889D01*
X0118483Y0194762D01*
X0118685Y0194630D01*
X0118885Y0194493D01*
X0119080Y0194352D01*
X0119273Y0194206D01*
X0119461Y0194055D01*
X0119646Y0193899D01*
X0119827Y0193739D01*
X0120004Y0193575D01*
X0120177Y0193406D01*
X0120346Y0193233D01*
X0120510Y0193056D01*
X0120670Y0192875D01*
X0120826Y0192690D01*
X0120977Y0192502D01*
X0121123Y0192309D01*
X0121264Y0192114D01*
X0121401Y0191914D01*
X0121533Y0191712D01*
X0121660Y0191506D01*
X0121781Y0191298D01*
X0121898Y0191086D01*
X0122009Y0190872D01*
X0122115Y0190654D01*
X0122216Y0190435D01*
X0122311Y0190213D01*
X0122400Y0189988D01*
X0122485Y0189762D01*
X0122563Y0189534D01*
X0122636Y0189303D01*
X0122703Y0189071D01*
X0122765Y0188838D01*
X0122821Y0188603D01*
X0122871Y0188366D01*
X0122915Y0188129D01*
X0122953Y0187890D01*
X0122986Y0187651D01*
X0123013Y0187411D01*
X0123033Y0187170D01*
X0123048Y0186929D01*
X0123057Y0186688D01*
X0123060Y0186446D01*
X0123057Y0186204D01*
X0123048Y0185963D01*
X0123033Y0185722D01*
X0123013Y0185481D01*
X0122986Y0185241D01*
X0122953Y0185002D01*
X0122915Y0184763D01*
X0122871Y0184526D01*
X0122821Y0184289D01*
X0122765Y0184054D01*
X0122703Y0183821D01*
X0122636Y0183589D01*
X0122563Y0183358D01*
X0122485Y0183130D01*
X0122400Y0182904D01*
X0122311Y0182679D01*
X0122216Y0182457D01*
X0122115Y0182238D01*
X0122009Y0182020D01*
X0121898Y0181806D01*
X0121781Y0181594D01*
X0121660Y0181386D01*
X0121533Y0181180D01*
X0121401Y0180978D01*
X0121264Y0180778D01*
X0121123Y0180583D01*
X0120977Y0180390D01*
X0120826Y0180202D01*
X0120670Y0180017D01*
X0120510Y0179836D01*
X0120346Y0179659D01*
X0120177Y0179486D01*
X0120004Y0179317D01*
X0119827Y0179153D01*
X0119646Y0178993D01*
X0119461Y0178837D01*
X0119273Y0178686D01*
X0119080Y0178540D01*
X0118885Y0178399D01*
X0118685Y0178262D01*
X0118483Y0178130D01*
X0118277Y0178003D01*
X0118069Y0177882D01*
X0117857Y0177765D01*
X0117643Y0177654D01*
X0117425Y0177548D01*
X0117206Y0177447D01*
X0116984Y0177352D01*
X0116759Y0177263D01*
X0116533Y0177178D01*
X0116305Y0177100D01*
X0116074Y0177027D01*
X0115842Y0176960D01*
X0115609Y0176898D01*
X0115374Y0176842D01*
X0115137Y0176792D01*
X0114900Y0176748D01*
X0114661Y0176710D01*
X0114422Y0176677D01*
X0114182Y0176650D01*
X0113941Y0176630D01*
X0113700Y0176615D01*
X0113459Y0176606D01*
X0113217Y0176603D01*
X0112975Y0176606D01*
X0112734Y0176615D01*
X0112493Y0176630D01*
X0112252Y0176650D01*
X0112012Y0176677D01*
X0111773Y0176710D01*
X0111534Y0176748D01*
X0111297Y0176792D01*
X0111060Y0176842D01*
X0110825Y0176898D01*
X0110592Y0176960D01*
X0110360Y0177027D01*
X0110129Y0177100D01*
X0109901Y0177178D01*
X0109675Y0177263D01*
X0109450Y0177352D01*
X0109228Y0177447D01*
X0109009Y0177548D01*
X0108791Y0177654D01*
X0108577Y0177765D01*
X0108365Y0177882D01*
X0108157Y0178003D01*
X0107951Y0178130D01*
X0107749Y0178262D01*
X0107549Y0178399D01*
X0107354Y0178540D01*
X0107161Y0178686D01*
X0106973Y0178837D01*
X0106788Y0178993D01*
X0106607Y0179153D01*
X0106430Y0179317D01*
X0106257Y0179486D01*
X0106088Y0179659D01*
X0105924Y0179836D01*
X0105764Y0180017D01*
X0105608Y0180202D01*
X0105457Y0180390D01*
X0105311Y0180583D01*
X0105170Y0180778D01*
X0105033Y0180978D01*
X0104901Y0181180D01*
X0104774Y0181386D01*
X0104653Y0181594D01*
X0104536Y0181806D01*
X0104425Y0182020D01*
X0104319Y0182238D01*
X0104218Y0182457D01*
X0104123Y0182679D01*
X0104034Y0182904D01*
X0103949Y0183130D01*
X0103871Y0183358D01*
X0103798Y0183589D01*
X0103731Y0183821D01*
X0103669Y0184054D01*
X0103613Y0184289D01*
X0103563Y0184526D01*
X0103519Y0184763D01*
X0103481Y0185002D01*
X0103448Y0185241D01*
X0103421Y0185481D01*
X0103401Y0185722D01*
X0103386Y0185963D01*
X0103377Y0186204D01*
X0103374Y0186446D01*
X0147076Y0188808D02*
X0147078Y0188926D01*
X0147084Y0189045D01*
X0147094Y0189163D01*
X0147108Y0189280D01*
X0147125Y0189397D01*
X0147147Y0189514D01*
X0147173Y0189629D01*
X0147202Y0189744D01*
X0147235Y0189858D01*
X0147272Y0189970D01*
X0147313Y0190081D01*
X0147357Y0190191D01*
X0147405Y0190299D01*
X0147457Y0190406D01*
X0147512Y0190511D01*
X0147571Y0190614D01*
X0147633Y0190714D01*
X0147698Y0190813D01*
X0147767Y0190910D01*
X0147838Y0191004D01*
X0147913Y0191095D01*
X0147991Y0191185D01*
X0148072Y0191271D01*
X0148156Y0191355D01*
X0148242Y0191436D01*
X0148332Y0191514D01*
X0148423Y0191589D01*
X0148517Y0191660D01*
X0148614Y0191729D01*
X0148713Y0191794D01*
X0148813Y0191856D01*
X0148916Y0191915D01*
X0149021Y0191970D01*
X0149128Y0192022D01*
X0149236Y0192070D01*
X0149346Y0192114D01*
X0149457Y0192155D01*
X0149569Y0192192D01*
X0149683Y0192225D01*
X0149798Y0192254D01*
X0149913Y0192280D01*
X0150030Y0192302D01*
X0150147Y0192319D01*
X0150264Y0192333D01*
X0150382Y0192343D01*
X0150501Y0192349D01*
X0150619Y0192351D01*
X0150737Y0192349D01*
X0150856Y0192343D01*
X0150974Y0192333D01*
X0151091Y0192319D01*
X0151208Y0192302D01*
X0151325Y0192280D01*
X0151440Y0192254D01*
X0151555Y0192225D01*
X0151669Y0192192D01*
X0151781Y0192155D01*
X0151892Y0192114D01*
X0152002Y0192070D01*
X0152110Y0192022D01*
X0152217Y0191970D01*
X0152322Y0191915D01*
X0152425Y0191856D01*
X0152525Y0191794D01*
X0152624Y0191729D01*
X0152721Y0191660D01*
X0152815Y0191589D01*
X0152906Y0191514D01*
X0152996Y0191436D01*
X0153082Y0191355D01*
X0153166Y0191271D01*
X0153247Y0191185D01*
X0153325Y0191095D01*
X0153400Y0191004D01*
X0153471Y0190910D01*
X0153540Y0190813D01*
X0153605Y0190714D01*
X0153667Y0190614D01*
X0153726Y0190511D01*
X0153781Y0190406D01*
X0153833Y0190299D01*
X0153881Y0190191D01*
X0153925Y0190081D01*
X0153966Y0189970D01*
X0154003Y0189858D01*
X0154036Y0189744D01*
X0154065Y0189629D01*
X0154091Y0189514D01*
X0154113Y0189397D01*
X0154130Y0189280D01*
X0154144Y0189163D01*
X0154154Y0189045D01*
X0154160Y0188926D01*
X0154162Y0188808D01*
X0154160Y0188690D01*
X0154154Y0188571D01*
X0154144Y0188453D01*
X0154130Y0188336D01*
X0154113Y0188219D01*
X0154091Y0188102D01*
X0154065Y0187987D01*
X0154036Y0187872D01*
X0154003Y0187758D01*
X0153966Y0187646D01*
X0153925Y0187535D01*
X0153881Y0187425D01*
X0153833Y0187317D01*
X0153781Y0187210D01*
X0153726Y0187105D01*
X0153667Y0187002D01*
X0153605Y0186902D01*
X0153540Y0186803D01*
X0153471Y0186706D01*
X0153400Y0186612D01*
X0153325Y0186521D01*
X0153247Y0186431D01*
X0153166Y0186345D01*
X0153082Y0186261D01*
X0152996Y0186180D01*
X0152906Y0186102D01*
X0152815Y0186027D01*
X0152721Y0185956D01*
X0152624Y0185887D01*
X0152525Y0185822D01*
X0152425Y0185760D01*
X0152322Y0185701D01*
X0152217Y0185646D01*
X0152110Y0185594D01*
X0152002Y0185546D01*
X0151892Y0185502D01*
X0151781Y0185461D01*
X0151669Y0185424D01*
X0151555Y0185391D01*
X0151440Y0185362D01*
X0151325Y0185336D01*
X0151208Y0185314D01*
X0151091Y0185297D01*
X0150974Y0185283D01*
X0150856Y0185273D01*
X0150737Y0185267D01*
X0150619Y0185265D01*
X0150501Y0185267D01*
X0150382Y0185273D01*
X0150264Y0185283D01*
X0150147Y0185297D01*
X0150030Y0185314D01*
X0149913Y0185336D01*
X0149798Y0185362D01*
X0149683Y0185391D01*
X0149569Y0185424D01*
X0149457Y0185461D01*
X0149346Y0185502D01*
X0149236Y0185546D01*
X0149128Y0185594D01*
X0149021Y0185646D01*
X0148916Y0185701D01*
X0148813Y0185760D01*
X0148713Y0185822D01*
X0148614Y0185887D01*
X0148517Y0185956D01*
X0148423Y0186027D01*
X0148332Y0186102D01*
X0148242Y0186180D01*
X0148156Y0186261D01*
X0148072Y0186345D01*
X0147991Y0186431D01*
X0147913Y0186521D01*
X0147838Y0186612D01*
X0147767Y0186706D01*
X0147698Y0186803D01*
X0147633Y0186902D01*
X0147571Y0187002D01*
X0147512Y0187105D01*
X0147457Y0187210D01*
X0147405Y0187317D01*
X0147357Y0187425D01*
X0147313Y0187535D01*
X0147272Y0187646D01*
X0147235Y0187758D01*
X0147202Y0187872D01*
X0147173Y0187987D01*
X0147147Y0188102D01*
X0147125Y0188219D01*
X0147108Y0188336D01*
X0147094Y0188453D01*
X0147084Y0188571D01*
X0147078Y0188690D01*
X0147076Y0188808D01*
D11*
X0113217Y0186446D03*
X0113217Y0079753D03*
D12*
X0198650Y0001800D02*
X0001800Y0001800D01*
X0001800Y0186839D01*
X0013611Y0198650D01*
X0174635Y0198650D01*
X0174635Y0084477D01*
X0198650Y0084477D01*
X0198650Y0001800D01*
D13*
X0076131Y0045186D02*
X0076131Y0055186D01*
X0028887Y0055186D02*
X0028887Y0045186D01*
X0047509Y0105304D02*
X0057509Y0105304D01*
D14*
X0076131Y0097430D03*
X0028887Y0097430D03*
D15*
X0090776Y0089595D03*
X0090776Y0072272D03*
D16*
X0090383Y0021485D03*
X0110068Y0021485D03*
X0129753Y0021485D03*
X0149438Y0021485D03*
X0169123Y0021485D03*
X0188808Y0021485D03*
X0070698Y0021485D03*
X0051013Y0021485D03*
X0031328Y0021485D03*
X0011643Y0021485D03*
D17*
X0154753Y0149438D03*
X0162233Y0149438D03*
D18*
X0159375Y0054950D03*
X0153375Y0054950D03*
X0147375Y0054950D03*
X0126304Y0054950D03*
X0120304Y0054950D03*
X0114304Y0054950D03*
D19*
X0125572Y0133257D02*
X0131572Y0133257D01*
X0131572Y0143257D02*
X0125572Y0143257D01*
X0125572Y0153257D02*
X0131572Y0153257D01*
X0131572Y0163257D02*
X0125572Y0163257D01*
X0061013Y0163367D02*
X0061013Y0169367D01*
X0051013Y0169367D02*
X0051013Y0163367D01*
X0041013Y0163367D02*
X0041013Y0169367D01*
D20*
X0018068Y0099918D02*
X0012918Y0099918D01*
X0012918Y0047918D02*
X0018068Y0047918D01*
X0085918Y0047918D02*
X0091068Y0047918D01*
X0091068Y0099918D02*
X0085918Y0099918D01*
D21*
X0085658Y0122666D03*
X0077784Y0122666D03*
X0069910Y0122666D03*
X0062036Y0122666D03*
X0054162Y0122666D03*
X0046288Y0122666D03*
X0038414Y0122666D03*
X0093532Y0122666D03*
X0093532Y0187233D03*
X0085658Y0187233D03*
X0077784Y0187233D03*
X0069910Y0187233D03*
X0062036Y0187233D03*
X0054162Y0187233D03*
X0046288Y0187233D03*
X0038414Y0187233D03*
D22*
X0150619Y0188808D03*
X0150619Y0077784D03*
D23*
X0110619Y0143296D03*
D24*
X0110619Y0133296D03*
X0110619Y0123296D03*
X0171209Y0076052D03*
X0181209Y0076052D03*
X0191209Y0076052D03*
D25*
X0158887Y0118335D03*
X0158887Y0128178D03*
X0158887Y0138020D03*
D26*
X0150922Y0107312D03*
X0150922Y0094713D03*
X0130631Y0094713D03*
X0130631Y0107312D03*
D27*
X0139225Y0170284D03*
X0139225Y0185284D03*
X0161225Y0185284D03*
X0161225Y0170284D03*
D28*
X0160461Y0163217D03*
X0147076Y0170698D03*
X0139989Y0158099D03*
X0119910Y0152981D03*
X0119910Y0171485D03*
X0093139Y0176209D03*
X0085658Y0178572D03*
X0078178Y0133690D03*
X0093532Y0133690D03*
X0125028Y0097076D03*
X0140383Y0075028D03*
X0134083Y0055343D03*
X0132115Y0050225D03*
X0158493Y0047863D03*
X0164398Y0055343D03*
X0188020Y0052587D03*
X0067154Y0086052D03*
X0054162Y0133296D03*
X0038414Y0134083D03*
M02*
