G75*
%MOIN*%
%OFA0B0*%
%FSLAX25Y25*%
%IPPOS*%
%LPD*%
%AMOC8*
5,1,8,0,0,1.08239X$1,22.5*
%
%ADD10C,0.00000*%
%ADD11C,0.00400*%
%ADD12C,0.00600*%
%ADD13R,0.04035X0.00098*%
%ADD14R,0.05610X0.00098*%
%ADD15R,0.06890X0.00098*%
%ADD16R,0.07972X0.00098*%
%ADD17R,0.08858X0.00098*%
%ADD18R,0.09744X0.00098*%
%ADD19R,0.10531X0.00098*%
%ADD20R,0.11122X0.00098*%
%ADD21R,0.11909X0.00098*%
%ADD22R,0.12500X0.00098*%
%ADD23R,0.13091X0.00098*%
%ADD24R,0.13681X0.00098*%
%ADD25R,0.14075X0.00098*%
%ADD26R,0.14665X0.00098*%
%ADD27R,0.15059X0.00098*%
%ADD28R,0.15650X0.00098*%
%ADD29R,0.16043X0.00098*%
%ADD30R,0.16437X0.00098*%
%ADD31R,0.16831X0.00098*%
%ADD32R,0.06791X0.00098*%
%ADD33R,0.07087X0.00098*%
%ADD34R,0.06299X0.00098*%
%ADD35R,0.00689X0.00098*%
%ADD36R,0.05906X0.00098*%
%ADD37R,0.05807X0.00098*%
%ADD38R,0.05512X0.00098*%
%ADD39R,0.05217X0.00098*%
%ADD40R,0.05315X0.00098*%
%ADD41R,0.05020X0.00098*%
%ADD42R,0.05118X0.00098*%
%ADD43R,0.04921X0.00098*%
%ADD44R,0.04724X0.00098*%
%ADD45R,0.04626X0.00098*%
%ADD46R,0.04528X0.00098*%
%ADD47R,0.04331X0.00098*%
%ADD48R,0.04232X0.00098*%
%ADD49R,0.00984X0.00098*%
%ADD50R,0.04134X0.00098*%
%ADD51R,0.03937X0.00098*%
%ADD52R,0.00492X0.00098*%
%ADD53R,0.03839X0.00098*%
%ADD54R,0.01083X0.00098*%
%ADD55R,0.01378X0.00098*%
%ADD56R,0.01575X0.00098*%
%ADD57R,0.03740X0.00098*%
%ADD58R,0.01772X0.00098*%
%ADD59R,0.03642X0.00098*%
%ADD60R,0.01870X0.00098*%
%ADD61R,0.01969X0.00098*%
%ADD62R,0.03543X0.00098*%
%ADD63R,0.00886X0.00098*%
%ADD64R,0.03445X0.00098*%
%ADD65R,0.00787X0.00098*%
%ADD66R,0.03346X0.00098*%
%ADD67R,0.03248X0.00098*%
%ADD68R,0.03150X0.00098*%
%ADD69R,0.02067X0.00098*%
%ADD70R,0.03051X0.00098*%
%ADD71R,0.01673X0.00098*%
%ADD72R,0.01476X0.00098*%
%ADD73R,0.02953X0.00098*%
%ADD74R,0.01280X0.00098*%
%ADD75R,0.02854X0.00098*%
%ADD76R,0.02756X0.00098*%
%ADD77R,0.01181X0.00098*%
%ADD78R,0.02657X0.00098*%
%ADD79R,0.02559X0.00098*%
%ADD80R,0.02461X0.00098*%
%ADD81R,0.02362X0.00098*%
%ADD82R,0.02264X0.00098*%
%ADD83R,0.02165X0.00098*%
%ADD84R,0.12795X0.00098*%
%ADD85R,0.13287X0.00098*%
%ADD86R,0.13484X0.00098*%
%ADD87R,0.13976X0.00098*%
%ADD88R,0.14173X0.00098*%
%ADD89R,0.14370X0.00098*%
%ADD90R,0.14567X0.00098*%
%ADD91R,0.14862X0.00098*%
%ADD92R,0.15256X0.00098*%
%ADD93R,0.15354X0.00098*%
%ADD94R,0.15453X0.00098*%
%ADD95R,0.15748X0.00098*%
%ADD96R,0.15846X0.00098*%
%ADD97R,0.06004X0.00098*%
%ADD98R,0.06496X0.00098*%
%ADD99R,0.06102X0.00098*%
%ADD100R,0.05413X0.00098*%
%ADD101R,0.05709X0.00098*%
%ADD102R,0.06988X0.00098*%
%ADD103R,0.06398X0.00098*%
%ADD104R,0.09646X0.00098*%
%ADD105R,0.10630X0.00098*%
%ADD106R,0.09449X0.00098*%
%ADD107R,0.10433X0.00098*%
%ADD108R,0.09350X0.00098*%
%ADD109R,0.10335X0.00098*%
%ADD110R,0.09154X0.00098*%
%ADD111R,0.10138X0.00098*%
%ADD112R,0.09055X0.00098*%
%ADD113R,0.10039X0.00098*%
%ADD114R,0.09941X0.00098*%
%ADD115R,0.08760X0.00098*%
%ADD116R,0.04429X0.00098*%
%ADD117R,0.04823X0.00098*%
%ADD118R,0.10728X0.00098*%
%ADD119R,0.10236X0.00098*%
%ADD120R,0.29035X0.00098*%
%ADD121R,0.18996X0.00098*%
%ADD122R,0.07579X0.00098*%
%ADD123R,0.07677X0.00098*%
%ADD124R,0.07776X0.00098*%
%ADD125R,0.08465X0.00098*%
%ADD126R,0.18012X0.00098*%
%ADD127R,0.13386X0.00098*%
%ADD128R,0.18898X0.00098*%
%ADD129R,0.00394X0.00098*%
%ADD130R,0.19291X0.00098*%
%ADD131R,0.34055X0.00098*%
%ADD132R,0.34154X0.00098*%
%ADD133R,0.08169X0.00098*%
%ADD134R,0.08071X0.00098*%
%ADD135R,0.07480X0.00098*%
%ADD136R,0.07874X0.00098*%
%ADD137R,0.00591X0.00098*%
%ADD138R,0.07382X0.00098*%
%ADD139R,0.07283X0.00098*%
%ADD140R,0.08661X0.00098*%
%ADD141R,0.08563X0.00098*%
%ADD142R,0.19193X0.00098*%
%ADD143R,0.13878X0.00098*%
%ADD144R,0.19094X0.00098*%
%ADD145R,0.18701X0.00098*%
%ADD146R,0.08366X0.00098*%
%ADD147R,0.08268X0.00098*%
%ADD148R,0.06693X0.00098*%
%ADD149R,0.06201X0.00098*%
%ADD150R,0.06594X0.00098*%
%ADD151R,0.07185X0.00098*%
%ADD152R,0.11417X0.00098*%
%ADD153R,0.13189X0.00098*%
%ADD154R,0.11516X0.00098*%
%ADD155R,0.15551X0.00098*%
%ADD156R,0.14469X0.00098*%
%ADD157R,0.14272X0.00098*%
%ADD158R,0.12992X0.00098*%
%ADD159R,0.12598X0.00098*%
%ADD160R,0.12303X0.00098*%
%ADD161R,0.11713X0.00098*%
D10*
X0001406Y0008882D02*
X0001406Y0382898D01*
X0111643Y0382898D01*
X0111643Y0268725D01*
X0178572Y0268725D01*
X0178572Y0008882D01*
X0001406Y0008882D01*
X0055435Y0142051D02*
X0055437Y0142170D01*
X0055443Y0142288D01*
X0055453Y0142406D01*
X0055467Y0142524D01*
X0055484Y0142641D01*
X0055506Y0142758D01*
X0055532Y0142874D01*
X0055561Y0142989D01*
X0055594Y0143103D01*
X0055631Y0143215D01*
X0055672Y0143327D01*
X0055717Y0143437D01*
X0055765Y0143545D01*
X0055817Y0143652D01*
X0055872Y0143757D01*
X0055931Y0143860D01*
X0055993Y0143961D01*
X0056058Y0144060D01*
X0056127Y0144157D01*
X0056199Y0144251D01*
X0056274Y0144343D01*
X0056352Y0144432D01*
X0056433Y0144519D01*
X0056517Y0144603D01*
X0056604Y0144684D01*
X0056693Y0144762D01*
X0056785Y0144837D01*
X0056879Y0144909D01*
X0056976Y0144978D01*
X0057075Y0145043D01*
X0057176Y0145105D01*
X0057279Y0145164D01*
X0057384Y0145219D01*
X0057491Y0145271D01*
X0057599Y0145319D01*
X0057709Y0145364D01*
X0057821Y0145405D01*
X0057933Y0145442D01*
X0058047Y0145475D01*
X0058162Y0145504D01*
X0058278Y0145530D01*
X0058395Y0145552D01*
X0058512Y0145569D01*
X0058630Y0145583D01*
X0058748Y0145593D01*
X0058866Y0145599D01*
X0058985Y0145601D01*
X0059104Y0145599D01*
X0059222Y0145593D01*
X0059340Y0145583D01*
X0059458Y0145569D01*
X0059575Y0145552D01*
X0059692Y0145530D01*
X0059808Y0145504D01*
X0059923Y0145475D01*
X0060037Y0145442D01*
X0060149Y0145405D01*
X0060261Y0145364D01*
X0060371Y0145319D01*
X0060479Y0145271D01*
X0060586Y0145219D01*
X0060691Y0145164D01*
X0060794Y0145105D01*
X0060895Y0145043D01*
X0060994Y0144978D01*
X0061091Y0144909D01*
X0061185Y0144837D01*
X0061277Y0144762D01*
X0061366Y0144684D01*
X0061453Y0144603D01*
X0061537Y0144519D01*
X0061618Y0144432D01*
X0061696Y0144343D01*
X0061771Y0144251D01*
X0061843Y0144157D01*
X0061912Y0144060D01*
X0061977Y0143961D01*
X0062039Y0143860D01*
X0062098Y0143757D01*
X0062153Y0143652D01*
X0062205Y0143545D01*
X0062253Y0143437D01*
X0062298Y0143327D01*
X0062339Y0143215D01*
X0062376Y0143103D01*
X0062409Y0142989D01*
X0062438Y0142874D01*
X0062464Y0142758D01*
X0062486Y0142641D01*
X0062503Y0142524D01*
X0062517Y0142406D01*
X0062527Y0142288D01*
X0062533Y0142170D01*
X0062535Y0142051D01*
X0062533Y0141932D01*
X0062527Y0141814D01*
X0062517Y0141696D01*
X0062503Y0141578D01*
X0062486Y0141461D01*
X0062464Y0141344D01*
X0062438Y0141228D01*
X0062409Y0141113D01*
X0062376Y0140999D01*
X0062339Y0140887D01*
X0062298Y0140775D01*
X0062253Y0140665D01*
X0062205Y0140557D01*
X0062153Y0140450D01*
X0062098Y0140345D01*
X0062039Y0140242D01*
X0061977Y0140141D01*
X0061912Y0140042D01*
X0061843Y0139945D01*
X0061771Y0139851D01*
X0061696Y0139759D01*
X0061618Y0139670D01*
X0061537Y0139583D01*
X0061453Y0139499D01*
X0061366Y0139418D01*
X0061277Y0139340D01*
X0061185Y0139265D01*
X0061091Y0139193D01*
X0060994Y0139124D01*
X0060895Y0139059D01*
X0060794Y0138997D01*
X0060691Y0138938D01*
X0060586Y0138883D01*
X0060479Y0138831D01*
X0060371Y0138783D01*
X0060261Y0138738D01*
X0060149Y0138697D01*
X0060037Y0138660D01*
X0059923Y0138627D01*
X0059808Y0138598D01*
X0059692Y0138572D01*
X0059575Y0138550D01*
X0059458Y0138533D01*
X0059340Y0138519D01*
X0059222Y0138509D01*
X0059104Y0138503D01*
X0058985Y0138501D01*
X0058866Y0138503D01*
X0058748Y0138509D01*
X0058630Y0138519D01*
X0058512Y0138533D01*
X0058395Y0138550D01*
X0058278Y0138572D01*
X0058162Y0138598D01*
X0058047Y0138627D01*
X0057933Y0138660D01*
X0057821Y0138697D01*
X0057709Y0138738D01*
X0057599Y0138783D01*
X0057491Y0138831D01*
X0057384Y0138883D01*
X0057279Y0138938D01*
X0057176Y0138997D01*
X0057075Y0139059D01*
X0056976Y0139124D01*
X0056879Y0139193D01*
X0056785Y0139265D01*
X0056693Y0139340D01*
X0056604Y0139418D01*
X0056517Y0139499D01*
X0056433Y0139583D01*
X0056352Y0139670D01*
X0056274Y0139759D01*
X0056199Y0139851D01*
X0056127Y0139945D01*
X0056058Y0140042D01*
X0055993Y0140141D01*
X0055931Y0140242D01*
X0055872Y0140345D01*
X0055817Y0140450D01*
X0055765Y0140557D01*
X0055717Y0140665D01*
X0055672Y0140775D01*
X0055631Y0140887D01*
X0055594Y0140999D01*
X0055561Y0141113D01*
X0055532Y0141228D01*
X0055506Y0141344D01*
X0055484Y0141461D01*
X0055467Y0141578D01*
X0055453Y0141696D01*
X0055443Y0141814D01*
X0055437Y0141932D01*
X0055435Y0142051D01*
X0080435Y0167051D02*
X0080437Y0167170D01*
X0080443Y0167288D01*
X0080453Y0167406D01*
X0080467Y0167524D01*
X0080484Y0167641D01*
X0080506Y0167758D01*
X0080532Y0167874D01*
X0080561Y0167989D01*
X0080594Y0168103D01*
X0080631Y0168215D01*
X0080672Y0168327D01*
X0080717Y0168437D01*
X0080765Y0168545D01*
X0080817Y0168652D01*
X0080872Y0168757D01*
X0080931Y0168860D01*
X0080993Y0168961D01*
X0081058Y0169060D01*
X0081127Y0169157D01*
X0081199Y0169251D01*
X0081274Y0169343D01*
X0081352Y0169432D01*
X0081433Y0169519D01*
X0081517Y0169603D01*
X0081604Y0169684D01*
X0081693Y0169762D01*
X0081785Y0169837D01*
X0081879Y0169909D01*
X0081976Y0169978D01*
X0082075Y0170043D01*
X0082176Y0170105D01*
X0082279Y0170164D01*
X0082384Y0170219D01*
X0082491Y0170271D01*
X0082599Y0170319D01*
X0082709Y0170364D01*
X0082821Y0170405D01*
X0082933Y0170442D01*
X0083047Y0170475D01*
X0083162Y0170504D01*
X0083278Y0170530D01*
X0083395Y0170552D01*
X0083512Y0170569D01*
X0083630Y0170583D01*
X0083748Y0170593D01*
X0083866Y0170599D01*
X0083985Y0170601D01*
X0084104Y0170599D01*
X0084222Y0170593D01*
X0084340Y0170583D01*
X0084458Y0170569D01*
X0084575Y0170552D01*
X0084692Y0170530D01*
X0084808Y0170504D01*
X0084923Y0170475D01*
X0085037Y0170442D01*
X0085149Y0170405D01*
X0085261Y0170364D01*
X0085371Y0170319D01*
X0085479Y0170271D01*
X0085586Y0170219D01*
X0085691Y0170164D01*
X0085794Y0170105D01*
X0085895Y0170043D01*
X0085994Y0169978D01*
X0086091Y0169909D01*
X0086185Y0169837D01*
X0086277Y0169762D01*
X0086366Y0169684D01*
X0086453Y0169603D01*
X0086537Y0169519D01*
X0086618Y0169432D01*
X0086696Y0169343D01*
X0086771Y0169251D01*
X0086843Y0169157D01*
X0086912Y0169060D01*
X0086977Y0168961D01*
X0087039Y0168860D01*
X0087098Y0168757D01*
X0087153Y0168652D01*
X0087205Y0168545D01*
X0087253Y0168437D01*
X0087298Y0168327D01*
X0087339Y0168215D01*
X0087376Y0168103D01*
X0087409Y0167989D01*
X0087438Y0167874D01*
X0087464Y0167758D01*
X0087486Y0167641D01*
X0087503Y0167524D01*
X0087517Y0167406D01*
X0087527Y0167288D01*
X0087533Y0167170D01*
X0087535Y0167051D01*
X0087533Y0166932D01*
X0087527Y0166814D01*
X0087517Y0166696D01*
X0087503Y0166578D01*
X0087486Y0166461D01*
X0087464Y0166344D01*
X0087438Y0166228D01*
X0087409Y0166113D01*
X0087376Y0165999D01*
X0087339Y0165887D01*
X0087298Y0165775D01*
X0087253Y0165665D01*
X0087205Y0165557D01*
X0087153Y0165450D01*
X0087098Y0165345D01*
X0087039Y0165242D01*
X0086977Y0165141D01*
X0086912Y0165042D01*
X0086843Y0164945D01*
X0086771Y0164851D01*
X0086696Y0164759D01*
X0086618Y0164670D01*
X0086537Y0164583D01*
X0086453Y0164499D01*
X0086366Y0164418D01*
X0086277Y0164340D01*
X0086185Y0164265D01*
X0086091Y0164193D01*
X0085994Y0164124D01*
X0085895Y0164059D01*
X0085794Y0163997D01*
X0085691Y0163938D01*
X0085586Y0163883D01*
X0085479Y0163831D01*
X0085371Y0163783D01*
X0085261Y0163738D01*
X0085149Y0163697D01*
X0085037Y0163660D01*
X0084923Y0163627D01*
X0084808Y0163598D01*
X0084692Y0163572D01*
X0084575Y0163550D01*
X0084458Y0163533D01*
X0084340Y0163519D01*
X0084222Y0163509D01*
X0084104Y0163503D01*
X0083985Y0163501D01*
X0083866Y0163503D01*
X0083748Y0163509D01*
X0083630Y0163519D01*
X0083512Y0163533D01*
X0083395Y0163550D01*
X0083278Y0163572D01*
X0083162Y0163598D01*
X0083047Y0163627D01*
X0082933Y0163660D01*
X0082821Y0163697D01*
X0082709Y0163738D01*
X0082599Y0163783D01*
X0082491Y0163831D01*
X0082384Y0163883D01*
X0082279Y0163938D01*
X0082176Y0163997D01*
X0082075Y0164059D01*
X0081976Y0164124D01*
X0081879Y0164193D01*
X0081785Y0164265D01*
X0081693Y0164340D01*
X0081604Y0164418D01*
X0081517Y0164499D01*
X0081433Y0164583D01*
X0081352Y0164670D01*
X0081274Y0164759D01*
X0081199Y0164851D01*
X0081127Y0164945D01*
X0081058Y0165042D01*
X0080993Y0165141D01*
X0080931Y0165242D01*
X0080872Y0165345D01*
X0080817Y0165450D01*
X0080765Y0165557D01*
X0080717Y0165665D01*
X0080672Y0165775D01*
X0080631Y0165887D01*
X0080594Y0165999D01*
X0080561Y0166113D01*
X0080532Y0166228D01*
X0080506Y0166344D01*
X0080484Y0166461D01*
X0080467Y0166578D01*
X0080453Y0166696D01*
X0080443Y0166814D01*
X0080437Y0166932D01*
X0080435Y0167051D01*
X0088021Y0262425D02*
X0088023Y0262543D01*
X0088029Y0262662D01*
X0088039Y0262780D01*
X0088053Y0262897D01*
X0088070Y0263014D01*
X0088092Y0263131D01*
X0088118Y0263246D01*
X0088147Y0263361D01*
X0088180Y0263475D01*
X0088217Y0263587D01*
X0088258Y0263698D01*
X0088302Y0263808D01*
X0088350Y0263916D01*
X0088402Y0264023D01*
X0088457Y0264128D01*
X0088516Y0264231D01*
X0088578Y0264331D01*
X0088643Y0264430D01*
X0088712Y0264527D01*
X0088783Y0264621D01*
X0088858Y0264712D01*
X0088936Y0264802D01*
X0089017Y0264888D01*
X0089101Y0264972D01*
X0089187Y0265053D01*
X0089277Y0265131D01*
X0089368Y0265206D01*
X0089462Y0265277D01*
X0089559Y0265346D01*
X0089658Y0265411D01*
X0089758Y0265473D01*
X0089861Y0265532D01*
X0089966Y0265587D01*
X0090073Y0265639D01*
X0090181Y0265687D01*
X0090291Y0265731D01*
X0090402Y0265772D01*
X0090514Y0265809D01*
X0090628Y0265842D01*
X0090743Y0265871D01*
X0090858Y0265897D01*
X0090975Y0265919D01*
X0091092Y0265936D01*
X0091209Y0265950D01*
X0091327Y0265960D01*
X0091446Y0265966D01*
X0091564Y0265968D01*
X0091682Y0265966D01*
X0091801Y0265960D01*
X0091919Y0265950D01*
X0092036Y0265936D01*
X0092153Y0265919D01*
X0092270Y0265897D01*
X0092385Y0265871D01*
X0092500Y0265842D01*
X0092614Y0265809D01*
X0092726Y0265772D01*
X0092837Y0265731D01*
X0092947Y0265687D01*
X0093055Y0265639D01*
X0093162Y0265587D01*
X0093267Y0265532D01*
X0093370Y0265473D01*
X0093470Y0265411D01*
X0093569Y0265346D01*
X0093666Y0265277D01*
X0093760Y0265206D01*
X0093851Y0265131D01*
X0093941Y0265053D01*
X0094027Y0264972D01*
X0094111Y0264888D01*
X0094192Y0264802D01*
X0094270Y0264712D01*
X0094345Y0264621D01*
X0094416Y0264527D01*
X0094485Y0264430D01*
X0094550Y0264331D01*
X0094612Y0264231D01*
X0094671Y0264128D01*
X0094726Y0264023D01*
X0094778Y0263916D01*
X0094826Y0263808D01*
X0094870Y0263698D01*
X0094911Y0263587D01*
X0094948Y0263475D01*
X0094981Y0263361D01*
X0095010Y0263246D01*
X0095036Y0263131D01*
X0095058Y0263014D01*
X0095075Y0262897D01*
X0095089Y0262780D01*
X0095099Y0262662D01*
X0095105Y0262543D01*
X0095107Y0262425D01*
X0095105Y0262307D01*
X0095099Y0262188D01*
X0095089Y0262070D01*
X0095075Y0261953D01*
X0095058Y0261836D01*
X0095036Y0261719D01*
X0095010Y0261604D01*
X0094981Y0261489D01*
X0094948Y0261375D01*
X0094911Y0261263D01*
X0094870Y0261152D01*
X0094826Y0261042D01*
X0094778Y0260934D01*
X0094726Y0260827D01*
X0094671Y0260722D01*
X0094612Y0260619D01*
X0094550Y0260519D01*
X0094485Y0260420D01*
X0094416Y0260323D01*
X0094345Y0260229D01*
X0094270Y0260138D01*
X0094192Y0260048D01*
X0094111Y0259962D01*
X0094027Y0259878D01*
X0093941Y0259797D01*
X0093851Y0259719D01*
X0093760Y0259644D01*
X0093666Y0259573D01*
X0093569Y0259504D01*
X0093470Y0259439D01*
X0093370Y0259377D01*
X0093267Y0259318D01*
X0093162Y0259263D01*
X0093055Y0259211D01*
X0092947Y0259163D01*
X0092837Y0259119D01*
X0092726Y0259078D01*
X0092614Y0259041D01*
X0092500Y0259008D01*
X0092385Y0258979D01*
X0092270Y0258953D01*
X0092153Y0258931D01*
X0092036Y0258914D01*
X0091919Y0258900D01*
X0091801Y0258890D01*
X0091682Y0258884D01*
X0091564Y0258882D01*
X0091446Y0258884D01*
X0091327Y0258890D01*
X0091209Y0258900D01*
X0091092Y0258914D01*
X0090975Y0258931D01*
X0090858Y0258953D01*
X0090743Y0258979D01*
X0090628Y0259008D01*
X0090514Y0259041D01*
X0090402Y0259078D01*
X0090291Y0259119D01*
X0090181Y0259163D01*
X0090073Y0259211D01*
X0089966Y0259263D01*
X0089861Y0259318D01*
X0089758Y0259377D01*
X0089658Y0259439D01*
X0089559Y0259504D01*
X0089462Y0259573D01*
X0089368Y0259644D01*
X0089277Y0259719D01*
X0089187Y0259797D01*
X0089101Y0259878D01*
X0089017Y0259962D01*
X0088936Y0260048D01*
X0088858Y0260138D01*
X0088783Y0260229D01*
X0088712Y0260323D01*
X0088643Y0260420D01*
X0088578Y0260519D01*
X0088516Y0260619D01*
X0088457Y0260722D01*
X0088402Y0260827D01*
X0088350Y0260934D01*
X0088302Y0261042D01*
X0088258Y0261152D01*
X0088217Y0261263D01*
X0088180Y0261375D01*
X0088147Y0261489D01*
X0088118Y0261604D01*
X0088092Y0261719D01*
X0088070Y0261836D01*
X0088053Y0261953D01*
X0088039Y0262070D01*
X0088029Y0262188D01*
X0088023Y0262307D01*
X0088021Y0262425D01*
X0044319Y0264394D02*
X0044322Y0264636D01*
X0044331Y0264877D01*
X0044346Y0265118D01*
X0044366Y0265359D01*
X0044393Y0265599D01*
X0044426Y0265838D01*
X0044464Y0266077D01*
X0044508Y0266314D01*
X0044558Y0266551D01*
X0044614Y0266786D01*
X0044676Y0267019D01*
X0044743Y0267251D01*
X0044816Y0267482D01*
X0044894Y0267710D01*
X0044979Y0267936D01*
X0045068Y0268161D01*
X0045163Y0268383D01*
X0045264Y0268602D01*
X0045370Y0268820D01*
X0045481Y0269034D01*
X0045598Y0269246D01*
X0045719Y0269454D01*
X0045846Y0269660D01*
X0045978Y0269862D01*
X0046115Y0270062D01*
X0046256Y0270257D01*
X0046402Y0270450D01*
X0046553Y0270638D01*
X0046709Y0270823D01*
X0046869Y0271004D01*
X0047033Y0271181D01*
X0047202Y0271354D01*
X0047375Y0271523D01*
X0047552Y0271687D01*
X0047733Y0271847D01*
X0047918Y0272003D01*
X0048106Y0272154D01*
X0048299Y0272300D01*
X0048494Y0272441D01*
X0048694Y0272578D01*
X0048896Y0272710D01*
X0049102Y0272837D01*
X0049310Y0272958D01*
X0049522Y0273075D01*
X0049736Y0273186D01*
X0049954Y0273292D01*
X0050173Y0273393D01*
X0050395Y0273488D01*
X0050620Y0273577D01*
X0050846Y0273662D01*
X0051074Y0273740D01*
X0051305Y0273813D01*
X0051537Y0273880D01*
X0051770Y0273942D01*
X0052005Y0273998D01*
X0052242Y0274048D01*
X0052479Y0274092D01*
X0052718Y0274130D01*
X0052957Y0274163D01*
X0053197Y0274190D01*
X0053438Y0274210D01*
X0053679Y0274225D01*
X0053920Y0274234D01*
X0054162Y0274237D01*
X0054404Y0274234D01*
X0054645Y0274225D01*
X0054886Y0274210D01*
X0055127Y0274190D01*
X0055367Y0274163D01*
X0055606Y0274130D01*
X0055845Y0274092D01*
X0056082Y0274048D01*
X0056319Y0273998D01*
X0056554Y0273942D01*
X0056787Y0273880D01*
X0057019Y0273813D01*
X0057250Y0273740D01*
X0057478Y0273662D01*
X0057704Y0273577D01*
X0057929Y0273488D01*
X0058151Y0273393D01*
X0058370Y0273292D01*
X0058588Y0273186D01*
X0058802Y0273075D01*
X0059014Y0272958D01*
X0059222Y0272837D01*
X0059428Y0272710D01*
X0059630Y0272578D01*
X0059830Y0272441D01*
X0060025Y0272300D01*
X0060218Y0272154D01*
X0060406Y0272003D01*
X0060591Y0271847D01*
X0060772Y0271687D01*
X0060949Y0271523D01*
X0061122Y0271354D01*
X0061291Y0271181D01*
X0061455Y0271004D01*
X0061615Y0270823D01*
X0061771Y0270638D01*
X0061922Y0270450D01*
X0062068Y0270257D01*
X0062209Y0270062D01*
X0062346Y0269862D01*
X0062478Y0269660D01*
X0062605Y0269454D01*
X0062726Y0269246D01*
X0062843Y0269034D01*
X0062954Y0268820D01*
X0063060Y0268602D01*
X0063161Y0268383D01*
X0063256Y0268161D01*
X0063345Y0267936D01*
X0063430Y0267710D01*
X0063508Y0267482D01*
X0063581Y0267251D01*
X0063648Y0267019D01*
X0063710Y0266786D01*
X0063766Y0266551D01*
X0063816Y0266314D01*
X0063860Y0266077D01*
X0063898Y0265838D01*
X0063931Y0265599D01*
X0063958Y0265359D01*
X0063978Y0265118D01*
X0063993Y0264877D01*
X0064002Y0264636D01*
X0064005Y0264394D01*
X0064002Y0264152D01*
X0063993Y0263911D01*
X0063978Y0263670D01*
X0063958Y0263429D01*
X0063931Y0263189D01*
X0063898Y0262950D01*
X0063860Y0262711D01*
X0063816Y0262474D01*
X0063766Y0262237D01*
X0063710Y0262002D01*
X0063648Y0261769D01*
X0063581Y0261537D01*
X0063508Y0261306D01*
X0063430Y0261078D01*
X0063345Y0260852D01*
X0063256Y0260627D01*
X0063161Y0260405D01*
X0063060Y0260186D01*
X0062954Y0259968D01*
X0062843Y0259754D01*
X0062726Y0259542D01*
X0062605Y0259334D01*
X0062478Y0259128D01*
X0062346Y0258926D01*
X0062209Y0258726D01*
X0062068Y0258531D01*
X0061922Y0258338D01*
X0061771Y0258150D01*
X0061615Y0257965D01*
X0061455Y0257784D01*
X0061291Y0257607D01*
X0061122Y0257434D01*
X0060949Y0257265D01*
X0060772Y0257101D01*
X0060591Y0256941D01*
X0060406Y0256785D01*
X0060218Y0256634D01*
X0060025Y0256488D01*
X0059830Y0256347D01*
X0059630Y0256210D01*
X0059428Y0256078D01*
X0059222Y0255951D01*
X0059014Y0255830D01*
X0058802Y0255713D01*
X0058588Y0255602D01*
X0058370Y0255496D01*
X0058151Y0255395D01*
X0057929Y0255300D01*
X0057704Y0255211D01*
X0057478Y0255126D01*
X0057250Y0255048D01*
X0057019Y0254975D01*
X0056787Y0254908D01*
X0056554Y0254846D01*
X0056319Y0254790D01*
X0056082Y0254740D01*
X0055845Y0254696D01*
X0055606Y0254658D01*
X0055367Y0254625D01*
X0055127Y0254598D01*
X0054886Y0254578D01*
X0054645Y0254563D01*
X0054404Y0254554D01*
X0054162Y0254551D01*
X0053920Y0254554D01*
X0053679Y0254563D01*
X0053438Y0254578D01*
X0053197Y0254598D01*
X0052957Y0254625D01*
X0052718Y0254658D01*
X0052479Y0254696D01*
X0052242Y0254740D01*
X0052005Y0254790D01*
X0051770Y0254846D01*
X0051537Y0254908D01*
X0051305Y0254975D01*
X0051074Y0255048D01*
X0050846Y0255126D01*
X0050620Y0255211D01*
X0050395Y0255300D01*
X0050173Y0255395D01*
X0049954Y0255496D01*
X0049736Y0255602D01*
X0049522Y0255713D01*
X0049310Y0255830D01*
X0049102Y0255951D01*
X0048896Y0256078D01*
X0048694Y0256210D01*
X0048494Y0256347D01*
X0048299Y0256488D01*
X0048106Y0256634D01*
X0047918Y0256785D01*
X0047733Y0256941D01*
X0047552Y0257101D01*
X0047375Y0257265D01*
X0047202Y0257434D01*
X0047033Y0257607D01*
X0046869Y0257784D01*
X0046709Y0257965D01*
X0046553Y0258150D01*
X0046402Y0258338D01*
X0046256Y0258531D01*
X0046115Y0258726D01*
X0045978Y0258926D01*
X0045846Y0259128D01*
X0045719Y0259334D01*
X0045598Y0259542D01*
X0045481Y0259754D01*
X0045370Y0259968D01*
X0045264Y0260186D01*
X0045163Y0260405D01*
X0045068Y0260627D01*
X0044979Y0260852D01*
X0044894Y0261078D01*
X0044816Y0261306D01*
X0044743Y0261537D01*
X0044676Y0261769D01*
X0044614Y0262002D01*
X0044558Y0262237D01*
X0044508Y0262474D01*
X0044464Y0262711D01*
X0044426Y0262950D01*
X0044393Y0263189D01*
X0044366Y0263429D01*
X0044346Y0263670D01*
X0044331Y0263911D01*
X0044322Y0264152D01*
X0044319Y0264394D01*
X0044319Y0371087D02*
X0044322Y0371329D01*
X0044331Y0371570D01*
X0044346Y0371811D01*
X0044366Y0372052D01*
X0044393Y0372292D01*
X0044426Y0372531D01*
X0044464Y0372770D01*
X0044508Y0373007D01*
X0044558Y0373244D01*
X0044614Y0373479D01*
X0044676Y0373712D01*
X0044743Y0373944D01*
X0044816Y0374175D01*
X0044894Y0374403D01*
X0044979Y0374629D01*
X0045068Y0374854D01*
X0045163Y0375076D01*
X0045264Y0375295D01*
X0045370Y0375513D01*
X0045481Y0375727D01*
X0045598Y0375939D01*
X0045719Y0376147D01*
X0045846Y0376353D01*
X0045978Y0376555D01*
X0046115Y0376755D01*
X0046256Y0376950D01*
X0046402Y0377143D01*
X0046553Y0377331D01*
X0046709Y0377516D01*
X0046869Y0377697D01*
X0047033Y0377874D01*
X0047202Y0378047D01*
X0047375Y0378216D01*
X0047552Y0378380D01*
X0047733Y0378540D01*
X0047918Y0378696D01*
X0048106Y0378847D01*
X0048299Y0378993D01*
X0048494Y0379134D01*
X0048694Y0379271D01*
X0048896Y0379403D01*
X0049102Y0379530D01*
X0049310Y0379651D01*
X0049522Y0379768D01*
X0049736Y0379879D01*
X0049954Y0379985D01*
X0050173Y0380086D01*
X0050395Y0380181D01*
X0050620Y0380270D01*
X0050846Y0380355D01*
X0051074Y0380433D01*
X0051305Y0380506D01*
X0051537Y0380573D01*
X0051770Y0380635D01*
X0052005Y0380691D01*
X0052242Y0380741D01*
X0052479Y0380785D01*
X0052718Y0380823D01*
X0052957Y0380856D01*
X0053197Y0380883D01*
X0053438Y0380903D01*
X0053679Y0380918D01*
X0053920Y0380927D01*
X0054162Y0380930D01*
X0054404Y0380927D01*
X0054645Y0380918D01*
X0054886Y0380903D01*
X0055127Y0380883D01*
X0055367Y0380856D01*
X0055606Y0380823D01*
X0055845Y0380785D01*
X0056082Y0380741D01*
X0056319Y0380691D01*
X0056554Y0380635D01*
X0056787Y0380573D01*
X0057019Y0380506D01*
X0057250Y0380433D01*
X0057478Y0380355D01*
X0057704Y0380270D01*
X0057929Y0380181D01*
X0058151Y0380086D01*
X0058370Y0379985D01*
X0058588Y0379879D01*
X0058802Y0379768D01*
X0059014Y0379651D01*
X0059222Y0379530D01*
X0059428Y0379403D01*
X0059630Y0379271D01*
X0059830Y0379134D01*
X0060025Y0378993D01*
X0060218Y0378847D01*
X0060406Y0378696D01*
X0060591Y0378540D01*
X0060772Y0378380D01*
X0060949Y0378216D01*
X0061122Y0378047D01*
X0061291Y0377874D01*
X0061455Y0377697D01*
X0061615Y0377516D01*
X0061771Y0377331D01*
X0061922Y0377143D01*
X0062068Y0376950D01*
X0062209Y0376755D01*
X0062346Y0376555D01*
X0062478Y0376353D01*
X0062605Y0376147D01*
X0062726Y0375939D01*
X0062843Y0375727D01*
X0062954Y0375513D01*
X0063060Y0375295D01*
X0063161Y0375076D01*
X0063256Y0374854D01*
X0063345Y0374629D01*
X0063430Y0374403D01*
X0063508Y0374175D01*
X0063581Y0373944D01*
X0063648Y0373712D01*
X0063710Y0373479D01*
X0063766Y0373244D01*
X0063816Y0373007D01*
X0063860Y0372770D01*
X0063898Y0372531D01*
X0063931Y0372292D01*
X0063958Y0372052D01*
X0063978Y0371811D01*
X0063993Y0371570D01*
X0064002Y0371329D01*
X0064005Y0371087D01*
X0064002Y0370845D01*
X0063993Y0370604D01*
X0063978Y0370363D01*
X0063958Y0370122D01*
X0063931Y0369882D01*
X0063898Y0369643D01*
X0063860Y0369404D01*
X0063816Y0369167D01*
X0063766Y0368930D01*
X0063710Y0368695D01*
X0063648Y0368462D01*
X0063581Y0368230D01*
X0063508Y0367999D01*
X0063430Y0367771D01*
X0063345Y0367545D01*
X0063256Y0367320D01*
X0063161Y0367098D01*
X0063060Y0366879D01*
X0062954Y0366661D01*
X0062843Y0366447D01*
X0062726Y0366235D01*
X0062605Y0366027D01*
X0062478Y0365821D01*
X0062346Y0365619D01*
X0062209Y0365419D01*
X0062068Y0365224D01*
X0061922Y0365031D01*
X0061771Y0364843D01*
X0061615Y0364658D01*
X0061455Y0364477D01*
X0061291Y0364300D01*
X0061122Y0364127D01*
X0060949Y0363958D01*
X0060772Y0363794D01*
X0060591Y0363634D01*
X0060406Y0363478D01*
X0060218Y0363327D01*
X0060025Y0363181D01*
X0059830Y0363040D01*
X0059630Y0362903D01*
X0059428Y0362771D01*
X0059222Y0362644D01*
X0059014Y0362523D01*
X0058802Y0362406D01*
X0058588Y0362295D01*
X0058370Y0362189D01*
X0058151Y0362088D01*
X0057929Y0361993D01*
X0057704Y0361904D01*
X0057478Y0361819D01*
X0057250Y0361741D01*
X0057019Y0361668D01*
X0056787Y0361601D01*
X0056554Y0361539D01*
X0056319Y0361483D01*
X0056082Y0361433D01*
X0055845Y0361389D01*
X0055606Y0361351D01*
X0055367Y0361318D01*
X0055127Y0361291D01*
X0054886Y0361271D01*
X0054645Y0361256D01*
X0054404Y0361247D01*
X0054162Y0361244D01*
X0053920Y0361247D01*
X0053679Y0361256D01*
X0053438Y0361271D01*
X0053197Y0361291D01*
X0052957Y0361318D01*
X0052718Y0361351D01*
X0052479Y0361389D01*
X0052242Y0361433D01*
X0052005Y0361483D01*
X0051770Y0361539D01*
X0051537Y0361601D01*
X0051305Y0361668D01*
X0051074Y0361741D01*
X0050846Y0361819D01*
X0050620Y0361904D01*
X0050395Y0361993D01*
X0050173Y0362088D01*
X0049954Y0362189D01*
X0049736Y0362295D01*
X0049522Y0362406D01*
X0049310Y0362523D01*
X0049102Y0362644D01*
X0048896Y0362771D01*
X0048694Y0362903D01*
X0048494Y0363040D01*
X0048299Y0363181D01*
X0048106Y0363327D01*
X0047918Y0363478D01*
X0047733Y0363634D01*
X0047552Y0363794D01*
X0047375Y0363958D01*
X0047202Y0364127D01*
X0047033Y0364300D01*
X0046869Y0364477D01*
X0046709Y0364658D01*
X0046553Y0364843D01*
X0046402Y0365031D01*
X0046256Y0365224D01*
X0046115Y0365419D01*
X0045978Y0365619D01*
X0045846Y0365821D01*
X0045719Y0366027D01*
X0045598Y0366235D01*
X0045481Y0366447D01*
X0045370Y0366661D01*
X0045264Y0366879D01*
X0045163Y0367098D01*
X0045068Y0367320D01*
X0044979Y0367545D01*
X0044894Y0367771D01*
X0044816Y0367999D01*
X0044743Y0368230D01*
X0044676Y0368462D01*
X0044614Y0368695D01*
X0044558Y0368930D01*
X0044508Y0369167D01*
X0044464Y0369404D01*
X0044426Y0369643D01*
X0044393Y0369882D01*
X0044366Y0370122D01*
X0044346Y0370363D01*
X0044331Y0370604D01*
X0044322Y0370845D01*
X0044319Y0371087D01*
X0088021Y0373449D02*
X0088023Y0373567D01*
X0088029Y0373686D01*
X0088039Y0373804D01*
X0088053Y0373921D01*
X0088070Y0374038D01*
X0088092Y0374155D01*
X0088118Y0374270D01*
X0088147Y0374385D01*
X0088180Y0374499D01*
X0088217Y0374611D01*
X0088258Y0374722D01*
X0088302Y0374832D01*
X0088350Y0374940D01*
X0088402Y0375047D01*
X0088457Y0375152D01*
X0088516Y0375255D01*
X0088578Y0375355D01*
X0088643Y0375454D01*
X0088712Y0375551D01*
X0088783Y0375645D01*
X0088858Y0375736D01*
X0088936Y0375826D01*
X0089017Y0375912D01*
X0089101Y0375996D01*
X0089187Y0376077D01*
X0089277Y0376155D01*
X0089368Y0376230D01*
X0089462Y0376301D01*
X0089559Y0376370D01*
X0089658Y0376435D01*
X0089758Y0376497D01*
X0089861Y0376556D01*
X0089966Y0376611D01*
X0090073Y0376663D01*
X0090181Y0376711D01*
X0090291Y0376755D01*
X0090402Y0376796D01*
X0090514Y0376833D01*
X0090628Y0376866D01*
X0090743Y0376895D01*
X0090858Y0376921D01*
X0090975Y0376943D01*
X0091092Y0376960D01*
X0091209Y0376974D01*
X0091327Y0376984D01*
X0091446Y0376990D01*
X0091564Y0376992D01*
X0091682Y0376990D01*
X0091801Y0376984D01*
X0091919Y0376974D01*
X0092036Y0376960D01*
X0092153Y0376943D01*
X0092270Y0376921D01*
X0092385Y0376895D01*
X0092500Y0376866D01*
X0092614Y0376833D01*
X0092726Y0376796D01*
X0092837Y0376755D01*
X0092947Y0376711D01*
X0093055Y0376663D01*
X0093162Y0376611D01*
X0093267Y0376556D01*
X0093370Y0376497D01*
X0093470Y0376435D01*
X0093569Y0376370D01*
X0093666Y0376301D01*
X0093760Y0376230D01*
X0093851Y0376155D01*
X0093941Y0376077D01*
X0094027Y0375996D01*
X0094111Y0375912D01*
X0094192Y0375826D01*
X0094270Y0375736D01*
X0094345Y0375645D01*
X0094416Y0375551D01*
X0094485Y0375454D01*
X0094550Y0375355D01*
X0094612Y0375255D01*
X0094671Y0375152D01*
X0094726Y0375047D01*
X0094778Y0374940D01*
X0094826Y0374832D01*
X0094870Y0374722D01*
X0094911Y0374611D01*
X0094948Y0374499D01*
X0094981Y0374385D01*
X0095010Y0374270D01*
X0095036Y0374155D01*
X0095058Y0374038D01*
X0095075Y0373921D01*
X0095089Y0373804D01*
X0095099Y0373686D01*
X0095105Y0373567D01*
X0095107Y0373449D01*
X0095105Y0373331D01*
X0095099Y0373212D01*
X0095089Y0373094D01*
X0095075Y0372977D01*
X0095058Y0372860D01*
X0095036Y0372743D01*
X0095010Y0372628D01*
X0094981Y0372513D01*
X0094948Y0372399D01*
X0094911Y0372287D01*
X0094870Y0372176D01*
X0094826Y0372066D01*
X0094778Y0371958D01*
X0094726Y0371851D01*
X0094671Y0371746D01*
X0094612Y0371643D01*
X0094550Y0371543D01*
X0094485Y0371444D01*
X0094416Y0371347D01*
X0094345Y0371253D01*
X0094270Y0371162D01*
X0094192Y0371072D01*
X0094111Y0370986D01*
X0094027Y0370902D01*
X0093941Y0370821D01*
X0093851Y0370743D01*
X0093760Y0370668D01*
X0093666Y0370597D01*
X0093569Y0370528D01*
X0093470Y0370463D01*
X0093370Y0370401D01*
X0093267Y0370342D01*
X0093162Y0370287D01*
X0093055Y0370235D01*
X0092947Y0370187D01*
X0092837Y0370143D01*
X0092726Y0370102D01*
X0092614Y0370065D01*
X0092500Y0370032D01*
X0092385Y0370003D01*
X0092270Y0369977D01*
X0092153Y0369955D01*
X0092036Y0369938D01*
X0091919Y0369924D01*
X0091801Y0369914D01*
X0091682Y0369908D01*
X0091564Y0369906D01*
X0091446Y0369908D01*
X0091327Y0369914D01*
X0091209Y0369924D01*
X0091092Y0369938D01*
X0090975Y0369955D01*
X0090858Y0369977D01*
X0090743Y0370003D01*
X0090628Y0370032D01*
X0090514Y0370065D01*
X0090402Y0370102D01*
X0090291Y0370143D01*
X0090181Y0370187D01*
X0090073Y0370235D01*
X0089966Y0370287D01*
X0089861Y0370342D01*
X0089758Y0370401D01*
X0089658Y0370463D01*
X0089559Y0370528D01*
X0089462Y0370597D01*
X0089368Y0370668D01*
X0089277Y0370743D01*
X0089187Y0370821D01*
X0089101Y0370902D01*
X0089017Y0370986D01*
X0088936Y0371072D01*
X0088858Y0371162D01*
X0088783Y0371253D01*
X0088712Y0371347D01*
X0088643Y0371444D01*
X0088578Y0371543D01*
X0088516Y0371643D01*
X0088457Y0371746D01*
X0088402Y0371851D01*
X0088350Y0371958D01*
X0088302Y0372066D01*
X0088258Y0372176D01*
X0088217Y0372287D01*
X0088180Y0372399D01*
X0088147Y0372513D01*
X0088118Y0372628D01*
X0088092Y0372743D01*
X0088070Y0372860D01*
X0088053Y0372977D01*
X0088039Y0373094D01*
X0088029Y0373212D01*
X0088023Y0373331D01*
X0088021Y0373449D01*
D11*
X0163024Y0247130D02*
X0168228Y0247130D01*
X0168228Y0243660D02*
X0163024Y0247130D01*
X0163024Y0243660D02*
X0168228Y0243660D01*
X0168228Y0241957D02*
X0168228Y0240223D01*
X0168228Y0241090D02*
X0163024Y0241090D01*
X0163024Y0240223D02*
X0163024Y0241957D01*
X0163024Y0238536D02*
X0164758Y0236801D01*
X0164758Y0237668D02*
X0164758Y0235066D01*
X0163024Y0235066D02*
X0168228Y0235066D01*
X0168228Y0237668D01*
X0167361Y0238536D01*
X0165626Y0238536D01*
X0164758Y0237668D01*
X0163891Y0224795D02*
X0167361Y0224795D01*
X0168228Y0223927D01*
X0168228Y0222192D01*
X0167361Y0221325D01*
X0163891Y0221325D01*
X0163024Y0222192D01*
X0163024Y0223927D01*
X0163891Y0224795D01*
X0163024Y0219638D02*
X0164758Y0217903D01*
X0164758Y0218771D02*
X0164758Y0216169D01*
X0163024Y0216169D02*
X0168228Y0216169D01*
X0168228Y0218771D01*
X0167361Y0219638D01*
X0165626Y0219638D01*
X0164758Y0218771D01*
X0163891Y0209479D02*
X0167361Y0209479D01*
X0168228Y0208611D01*
X0168228Y0206009D01*
X0163024Y0206009D01*
X0163024Y0208611D01*
X0163891Y0209479D01*
X0163024Y0204322D02*
X0168228Y0204322D01*
X0168228Y0200853D02*
X0163024Y0204322D01*
X0163024Y0200853D02*
X0168228Y0200853D01*
X0167361Y0199166D02*
X0168228Y0198298D01*
X0168228Y0196564D01*
X0167361Y0195696D01*
X0163891Y0195696D01*
X0163024Y0196564D01*
X0163024Y0198298D01*
X0163891Y0199166D01*
X0165626Y0199166D01*
X0165626Y0197431D01*
X0167361Y0189794D02*
X0168228Y0188926D01*
X0168228Y0187191D01*
X0167361Y0186324D01*
X0163891Y0186324D01*
X0163024Y0187191D01*
X0163024Y0188926D01*
X0163891Y0189794D01*
X0163891Y0184637D02*
X0163024Y0183770D01*
X0163024Y0182035D01*
X0163891Y0181168D01*
X0167361Y0181168D01*
X0168228Y0182035D01*
X0168228Y0183770D01*
X0167361Y0184637D01*
X0168228Y0179481D02*
X0164758Y0179481D01*
X0163024Y0177746D01*
X0164758Y0176011D01*
X0168228Y0176011D01*
X0166860Y0169664D02*
X0163791Y0166595D01*
X0163024Y0167362D01*
X0163024Y0168897D01*
X0163791Y0169664D01*
X0166860Y0169664D01*
X0167628Y0168897D01*
X0167628Y0167362D01*
X0166860Y0166595D01*
X0163791Y0166595D01*
X0163791Y0165060D02*
X0163024Y0164293D01*
X0163024Y0162758D01*
X0163791Y0161991D01*
X0166860Y0161991D01*
X0167628Y0162758D01*
X0167628Y0164293D01*
X0166860Y0165060D01*
X0166860Y0160456D02*
X0167628Y0159689D01*
X0167628Y0157387D01*
X0163024Y0157387D01*
X0163024Y0159689D01*
X0163791Y0160456D01*
X0166860Y0160456D01*
X0166093Y0155852D02*
X0163024Y0155852D01*
X0165326Y0155852D02*
X0165326Y0152783D01*
X0166093Y0152783D02*
X0167628Y0154317D01*
X0166093Y0155852D01*
X0166093Y0152783D02*
X0163024Y0152783D01*
X0163024Y0148444D02*
X0167628Y0148444D01*
X0166093Y0146909D01*
X0167628Y0145375D01*
X0163024Y0145375D01*
X0163024Y0143840D02*
X0167628Y0143840D01*
X0166093Y0142306D01*
X0167628Y0140771D01*
X0163024Y0140771D01*
X0163024Y0139236D02*
X0163024Y0137702D01*
X0163024Y0138469D02*
X0167628Y0138469D01*
X0167628Y0137702D02*
X0167628Y0139236D01*
X0166860Y0136167D02*
X0167628Y0135400D01*
X0167628Y0133098D01*
X0163024Y0133098D01*
X0163024Y0135400D01*
X0163791Y0136167D01*
X0166860Y0136167D01*
X0166493Y0125188D02*
X0165626Y0124321D01*
X0165626Y0122586D01*
X0166493Y0121719D01*
X0167361Y0121719D01*
X0168228Y0122586D01*
X0168228Y0124321D01*
X0167361Y0125188D01*
X0166493Y0125188D01*
X0165626Y0124321D02*
X0164758Y0125188D01*
X0163891Y0125188D01*
X0163024Y0124321D01*
X0163024Y0122586D01*
X0163891Y0121719D01*
X0164758Y0121719D01*
X0165626Y0122586D01*
X0163891Y0120032D02*
X0167361Y0120032D01*
X0168228Y0119165D01*
X0168228Y0116562D01*
X0163024Y0116562D01*
X0163024Y0119165D01*
X0163891Y0120032D01*
X0163891Y0109872D02*
X0167361Y0109872D01*
X0168228Y0109005D01*
X0168228Y0106403D01*
X0163024Y0106403D01*
X0163024Y0109005D01*
X0163891Y0109872D01*
X0163024Y0104716D02*
X0168228Y0104716D01*
X0168228Y0101246D02*
X0163024Y0104716D01*
X0163024Y0101246D02*
X0168228Y0101246D01*
X0167361Y0099559D02*
X0168228Y0098692D01*
X0168228Y0096957D01*
X0167361Y0096090D01*
X0163891Y0096090D01*
X0163024Y0096957D01*
X0163024Y0098692D01*
X0163891Y0099559D01*
X0165626Y0099559D01*
X0165626Y0097825D01*
D12*
X0067642Y0045756D02*
X0067642Y0044689D01*
X0066574Y0043621D01*
X0064439Y0043621D01*
X0063371Y0042553D01*
X0063371Y0041486D01*
X0064439Y0040418D01*
X0066574Y0040418D01*
X0067642Y0041486D01*
X0067642Y0045756D02*
X0066574Y0046824D01*
X0064439Y0046824D01*
X0063371Y0045756D01*
X0061196Y0046824D02*
X0061196Y0040418D01*
X0060129Y0036324D02*
X0057994Y0036324D01*
X0056926Y0035256D01*
X0057994Y0033121D02*
X0056926Y0032053D01*
X0056926Y0030986D01*
X0057994Y0029918D01*
X0060129Y0029918D01*
X0061196Y0030986D01*
X0060129Y0033121D02*
X0057994Y0033121D01*
X0060129Y0033121D02*
X0061196Y0034189D01*
X0061196Y0035256D01*
X0060129Y0036324D01*
X0063371Y0036324D02*
X0067642Y0036324D01*
X0067642Y0029918D01*
X0063371Y0029918D01*
X0065507Y0033121D02*
X0067642Y0033121D01*
X0067642Y0023689D02*
X0065507Y0019418D01*
X0063371Y0023689D01*
X0061196Y0024756D02*
X0061196Y0020486D01*
X0056926Y0024756D01*
X0056926Y0020486D01*
X0057994Y0019418D01*
X0060129Y0019418D01*
X0061196Y0020486D01*
X0061196Y0024756D02*
X0060129Y0025824D01*
X0057994Y0025824D01*
X0056926Y0024756D01*
X0054751Y0023689D02*
X0052616Y0025824D01*
X0052616Y0019418D01*
X0054751Y0019418D02*
X0050480Y0019418D01*
X0054751Y0029918D02*
X0054751Y0036324D01*
X0051548Y0036324D01*
X0050480Y0035256D01*
X0050480Y0033121D01*
X0051548Y0032053D01*
X0054751Y0032053D01*
X0054751Y0040418D02*
X0054751Y0044689D01*
X0052616Y0046824D01*
X0050480Y0044689D01*
X0050480Y0040418D01*
X0048305Y0040418D02*
X0048305Y0046824D01*
X0045103Y0046824D01*
X0044035Y0045756D01*
X0044035Y0043621D01*
X0045103Y0042553D01*
X0048305Y0042553D01*
X0046170Y0042553D02*
X0044035Y0040418D01*
X0041860Y0036324D02*
X0039725Y0034189D01*
X0037589Y0036324D01*
X0037589Y0029918D01*
X0035414Y0030986D02*
X0034347Y0029918D01*
X0032212Y0029918D01*
X0031144Y0030986D01*
X0031144Y0035256D01*
X0032212Y0036324D01*
X0034347Y0036324D01*
X0035414Y0035256D01*
X0035414Y0030986D01*
X0033279Y0032053D02*
X0031144Y0029918D01*
X0032198Y0025824D02*
X0030063Y0025824D01*
X0028995Y0024756D01*
X0028995Y0023689D01*
X0033266Y0019418D01*
X0028995Y0019418D01*
X0033266Y0024756D02*
X0032198Y0025824D01*
X0026820Y0024756D02*
X0026820Y0020486D01*
X0022550Y0024756D01*
X0022550Y0020486D01*
X0023618Y0019418D01*
X0025753Y0019418D01*
X0026820Y0020486D01*
X0026820Y0024756D02*
X0025753Y0025824D01*
X0023618Y0025824D01*
X0022550Y0024756D01*
X0020375Y0023689D02*
X0018240Y0025824D01*
X0018240Y0019418D01*
X0020375Y0019418D02*
X0016104Y0019418D01*
X0013929Y0019418D02*
X0013929Y0020486D01*
X0009659Y0024756D01*
X0009659Y0025824D01*
X0013929Y0025824D01*
X0018253Y0036324D02*
X0022523Y0036324D01*
X0020388Y0036324D02*
X0020388Y0029918D01*
X0024698Y0036324D02*
X0028969Y0036324D01*
X0027901Y0040418D02*
X0025766Y0040418D01*
X0024698Y0041486D01*
X0024698Y0045756D01*
X0025766Y0046824D01*
X0027901Y0046824D01*
X0028969Y0045756D01*
X0028969Y0041486D01*
X0027901Y0040418D01*
X0026834Y0036324D02*
X0026834Y0029918D01*
X0031144Y0040418D02*
X0031144Y0046824D01*
X0031144Y0043621D02*
X0035414Y0043621D01*
X0035414Y0040418D02*
X0035414Y0046824D01*
X0037589Y0046824D02*
X0041860Y0046824D01*
X0039725Y0046824D02*
X0039725Y0040418D01*
X0041860Y0036324D02*
X0041860Y0029918D01*
X0041860Y0025824D02*
X0041860Y0019418D01*
X0050480Y0043621D02*
X0054751Y0043621D01*
X0056926Y0046824D02*
X0056926Y0040418D01*
X0059061Y0044689D02*
X0056926Y0046824D01*
X0059061Y0044689D02*
X0061196Y0046824D01*
X0022523Y0046824D02*
X0022523Y0040418D01*
X0020388Y0044689D02*
X0018253Y0046824D01*
X0018253Y0040418D01*
X0020388Y0044689D02*
X0022523Y0046824D01*
X0016078Y0046824D02*
X0016078Y0040418D01*
X0011807Y0040418D01*
X0013943Y0043621D02*
X0016078Y0043621D01*
X0016078Y0046824D02*
X0011807Y0046824D01*
D13*
X0046583Y0080634D03*
X0046780Y0080536D03*
X0055639Y0077386D03*
X0064497Y0080536D03*
X0063217Y0109866D03*
X0063316Y0109965D03*
X0064497Y0113803D03*
X0055639Y0116953D03*
D14*
X0055639Y0116854D03*
X0048946Y0094118D03*
X0050422Y0091953D03*
X0055639Y0077484D03*
X0060855Y0091658D03*
D15*
X0061692Y0100713D03*
X0060806Y0115083D03*
X0050471Y0115083D03*
X0049585Y0092150D03*
X0055688Y0077583D03*
D16*
X0055639Y0077681D03*
X0051603Y0097858D03*
X0055639Y0116658D03*
D17*
X0055688Y0116559D03*
X0063562Y0092937D03*
X0055688Y0077780D03*
D18*
X0055639Y0077878D03*
X0047666Y0093036D03*
X0055639Y0116461D03*
D19*
X0055639Y0116362D03*
X0055639Y0077976D03*
D20*
X0055639Y0078075D03*
X0055639Y0088902D03*
X0055639Y0116264D03*
D21*
X0055639Y0116165D03*
X0055639Y0089000D03*
X0055639Y0078173D03*
D22*
X0055639Y0078272D03*
X0055639Y0089099D03*
X0055639Y0116067D03*
D23*
X0055639Y0115969D03*
X0055639Y0078370D03*
D24*
X0055639Y0078469D03*
X0055639Y0089492D03*
X0055639Y0104256D03*
X0055639Y0115870D03*
D25*
X0055639Y0115772D03*
X0055639Y0104059D03*
X0064202Y0099335D03*
X0055639Y0078567D03*
D26*
X0055639Y0078665D03*
X0055639Y0089984D03*
X0055639Y0103764D03*
X0055639Y0115673D03*
D27*
X0055639Y0115575D03*
X0055639Y0103469D03*
X0055639Y0090280D03*
X0055639Y0090181D03*
X0055639Y0078764D03*
D28*
X0055639Y0078862D03*
X0055639Y0090772D03*
X0055639Y0090870D03*
X0055639Y0102878D03*
D29*
X0055639Y0091461D03*
X0055639Y0078961D03*
X0055639Y0115378D03*
D30*
X0055639Y0115280D03*
X0055639Y0079059D03*
D31*
X0055639Y0079158D03*
X0055639Y0115181D03*
D32*
X0049536Y0092347D03*
X0049536Y0092248D03*
X0060855Y0079256D03*
D33*
X0050570Y0079256D03*
X0051259Y0102681D03*
X0061593Y0100516D03*
D34*
X0061987Y0101599D03*
X0060511Y0099630D03*
X0061987Y0092347D03*
X0061396Y0079354D03*
X0049979Y0079354D03*
X0049290Y0095299D03*
X0050767Y0100122D03*
X0061396Y0114984D03*
D35*
X0058591Y0113213D03*
X0058690Y0113016D03*
X0058690Y0112917D03*
X0058591Y0112721D03*
X0057902Y0111933D03*
X0057902Y0111835D03*
X0057902Y0111736D03*
X0057902Y0111638D03*
X0057902Y0111539D03*
X0057902Y0111441D03*
X0057902Y0111343D03*
X0057902Y0111244D03*
X0057902Y0111146D03*
X0057902Y0111047D03*
X0057902Y0110949D03*
X0057902Y0110850D03*
X0057902Y0110752D03*
X0057902Y0110654D03*
X0057902Y0110555D03*
X0057902Y0110457D03*
X0057902Y0110358D03*
X0057902Y0110260D03*
X0057902Y0110162D03*
X0057902Y0110063D03*
X0057902Y0109965D03*
X0057902Y0109866D03*
X0057902Y0109768D03*
X0057902Y0109669D03*
X0057902Y0109571D03*
X0057902Y0109473D03*
X0057902Y0109374D03*
X0057902Y0109276D03*
X0057902Y0109177D03*
X0057902Y0109079D03*
X0057902Y0108980D03*
X0057902Y0108882D03*
X0057902Y0108784D03*
X0057902Y0108685D03*
X0057902Y0108587D03*
X0057902Y0108488D03*
X0057902Y0108390D03*
X0057902Y0108291D03*
X0057902Y0108193D03*
X0057902Y0108095D03*
X0057902Y0107996D03*
X0057902Y0107898D03*
X0057902Y0107799D03*
X0057902Y0107701D03*
X0057902Y0107602D03*
X0057902Y0107504D03*
X0057902Y0107406D03*
X0057902Y0107307D03*
X0057902Y0107209D03*
X0057902Y0107110D03*
X0057902Y0107012D03*
X0057902Y0106913D03*
X0057902Y0106815D03*
X0057902Y0106717D03*
X0060068Y0106717D03*
X0060068Y0106815D03*
X0060068Y0106913D03*
X0060068Y0107012D03*
X0060068Y0107110D03*
X0060068Y0107209D03*
X0060068Y0107307D03*
X0060068Y0107406D03*
X0060068Y0107504D03*
X0060068Y0107602D03*
X0060068Y0107701D03*
X0060068Y0107799D03*
X0060068Y0107898D03*
X0060068Y0107996D03*
X0057213Y0112819D03*
X0057213Y0112917D03*
X0057213Y0113016D03*
X0057213Y0113114D03*
X0055835Y0113114D03*
X0055835Y0113016D03*
X0055835Y0112917D03*
X0055835Y0112819D03*
X0055835Y0112721D03*
X0055835Y0112622D03*
X0055835Y0112524D03*
X0055835Y0112425D03*
X0055835Y0112327D03*
X0055835Y0112228D03*
X0055835Y0112130D03*
X0055835Y0112032D03*
X0055835Y0111933D03*
X0055835Y0111835D03*
X0055835Y0111736D03*
X0055835Y0111638D03*
X0055835Y0111539D03*
X0055835Y0111441D03*
X0055835Y0111343D03*
X0055835Y0111244D03*
X0055835Y0111146D03*
X0055835Y0111047D03*
X0055835Y0110949D03*
X0055835Y0110850D03*
X0055835Y0110752D03*
X0055835Y0110654D03*
X0055835Y0110555D03*
X0055835Y0110457D03*
X0055835Y0110358D03*
X0055835Y0110260D03*
X0055835Y0110162D03*
X0055835Y0110063D03*
X0055835Y0109965D03*
X0055835Y0109866D03*
X0055835Y0109768D03*
X0055835Y0109669D03*
X0055835Y0109571D03*
X0055835Y0109473D03*
X0055835Y0109374D03*
X0055835Y0109276D03*
X0055835Y0109177D03*
X0055835Y0109079D03*
X0055835Y0108980D03*
X0055835Y0108882D03*
X0055835Y0108784D03*
X0055835Y0108685D03*
X0055835Y0108587D03*
X0055835Y0108488D03*
X0055835Y0108390D03*
X0055835Y0108291D03*
X0055835Y0108193D03*
X0055835Y0108095D03*
X0055835Y0107996D03*
X0055835Y0107898D03*
X0055835Y0107799D03*
X0055835Y0107701D03*
X0055835Y0107602D03*
X0055835Y0107504D03*
X0055835Y0107406D03*
X0055835Y0107307D03*
X0055835Y0107209D03*
X0055835Y0107110D03*
X0055835Y0107012D03*
X0055835Y0106913D03*
X0055835Y0106815D03*
X0055835Y0106717D03*
X0053769Y0106717D03*
X0053769Y0106815D03*
X0053769Y0106913D03*
X0053769Y0107012D03*
X0053769Y0107110D03*
X0053769Y0107209D03*
X0053769Y0107307D03*
X0053769Y0107406D03*
X0053769Y0107504D03*
X0053769Y0107602D03*
X0053769Y0107701D03*
X0053769Y0107799D03*
X0053769Y0107898D03*
X0053769Y0107996D03*
X0053769Y0108095D03*
X0053769Y0108193D03*
X0053769Y0108291D03*
X0053769Y0108390D03*
X0053769Y0108488D03*
X0053769Y0108587D03*
X0053769Y0108685D03*
X0053769Y0108784D03*
X0053769Y0108882D03*
X0053769Y0108980D03*
X0053769Y0109079D03*
X0053769Y0109177D03*
X0053769Y0109276D03*
X0053769Y0109374D03*
X0053769Y0109473D03*
X0053769Y0109571D03*
X0053769Y0109669D03*
X0053769Y0109768D03*
X0053769Y0109866D03*
X0053769Y0109965D03*
X0053769Y0110063D03*
X0053769Y0110162D03*
X0053769Y0110260D03*
X0053769Y0110358D03*
X0053769Y0110457D03*
X0053769Y0110555D03*
X0053769Y0110654D03*
X0053769Y0110752D03*
X0053769Y0110850D03*
X0053769Y0110949D03*
X0053769Y0111047D03*
X0053769Y0111146D03*
X0053769Y0111244D03*
X0053769Y0111343D03*
X0053769Y0111441D03*
X0053769Y0111539D03*
X0053769Y0111638D03*
X0053769Y0111736D03*
X0053769Y0111835D03*
X0053769Y0111933D03*
X0055835Y0113213D03*
X0055835Y0113311D03*
X0055835Y0113410D03*
X0055835Y0113508D03*
X0055835Y0113606D03*
X0055835Y0113705D03*
X0055835Y0113803D03*
X0055835Y0113902D03*
X0055835Y0114000D03*
X0055835Y0114099D03*
X0055835Y0114197D03*
X0055835Y0114295D03*
X0055835Y0114394D03*
X0055835Y0114492D03*
X0055835Y0114591D03*
X0055835Y0114689D03*
X0055835Y0114787D03*
X0055835Y0114886D03*
X0055835Y0114984D03*
X0055835Y0115083D03*
X0051603Y0110654D03*
X0051603Y0110555D03*
X0051603Y0110457D03*
X0051603Y0110358D03*
X0051603Y0110260D03*
X0051603Y0110162D03*
X0051603Y0110063D03*
X0051603Y0109965D03*
X0051603Y0109866D03*
X0051603Y0109768D03*
X0051603Y0109669D03*
X0051603Y0109571D03*
X0051603Y0109473D03*
X0051603Y0109374D03*
X0051603Y0109276D03*
X0051603Y0109177D03*
X0051603Y0109079D03*
X0051603Y0108980D03*
X0051603Y0108882D03*
X0051603Y0108784D03*
X0051603Y0108685D03*
X0051603Y0108587D03*
X0051603Y0108488D03*
X0051603Y0108390D03*
X0051603Y0108291D03*
X0051603Y0108193D03*
X0051603Y0108095D03*
X0051603Y0107996D03*
X0051603Y0107898D03*
X0051603Y0107799D03*
X0051603Y0107701D03*
X0051603Y0107602D03*
X0051603Y0107504D03*
X0051603Y0107406D03*
X0051603Y0107307D03*
X0051603Y0107209D03*
X0051603Y0107110D03*
X0051603Y0107012D03*
X0051603Y0106913D03*
X0051603Y0106815D03*
X0051603Y0106717D03*
X0051603Y0087622D03*
X0051603Y0087524D03*
X0051603Y0087425D03*
X0051603Y0087327D03*
X0051603Y0087228D03*
X0051603Y0087130D03*
X0051603Y0087032D03*
X0051603Y0086933D03*
X0051603Y0086835D03*
X0051603Y0086736D03*
X0051603Y0086638D03*
X0051603Y0086539D03*
X0051603Y0086441D03*
X0051603Y0086343D03*
X0051603Y0086244D03*
X0051603Y0086146D03*
X0051603Y0086047D03*
X0051603Y0085949D03*
X0053769Y0085949D03*
X0053769Y0086047D03*
X0053769Y0086146D03*
X0053769Y0086244D03*
X0053769Y0086343D03*
X0053769Y0086441D03*
X0053769Y0086539D03*
X0053769Y0086638D03*
X0053769Y0086736D03*
X0053769Y0086835D03*
X0053769Y0086933D03*
X0053769Y0087032D03*
X0053769Y0087130D03*
X0053769Y0087228D03*
X0053769Y0087327D03*
X0053769Y0087425D03*
X0053769Y0087524D03*
X0053769Y0087622D03*
X0053769Y0085850D03*
X0053769Y0085752D03*
X0053769Y0085654D03*
X0053769Y0085555D03*
X0053769Y0085457D03*
X0053769Y0085358D03*
X0053769Y0085260D03*
X0053769Y0085162D03*
X0053769Y0085063D03*
X0053769Y0084965D03*
X0053769Y0084866D03*
X0053769Y0084768D03*
X0053769Y0084669D03*
X0053769Y0084571D03*
X0053769Y0084473D03*
X0053769Y0084374D03*
X0053769Y0084276D03*
X0053769Y0084177D03*
X0053769Y0084079D03*
X0053769Y0083980D03*
X0053769Y0083882D03*
X0053769Y0083784D03*
X0053769Y0083685D03*
X0053769Y0083587D03*
X0053769Y0083488D03*
X0053769Y0083390D03*
X0053769Y0083291D03*
X0053769Y0083193D03*
X0053769Y0083095D03*
X0053769Y0082996D03*
X0053769Y0082898D03*
X0053769Y0082799D03*
X0053769Y0082701D03*
X0053769Y0082602D03*
X0053769Y0082504D03*
X0053769Y0082406D03*
X0053769Y0082307D03*
X0053769Y0082209D03*
X0053769Y0082110D03*
X0053769Y0082012D03*
X0053769Y0081913D03*
X0053769Y0081815D03*
X0053769Y0081717D03*
X0053769Y0081618D03*
X0053769Y0081520D03*
X0053769Y0081421D03*
X0053769Y0081323D03*
X0053769Y0081225D03*
X0053769Y0081126D03*
X0053769Y0081028D03*
X0053769Y0080929D03*
X0053769Y0080831D03*
X0053769Y0080732D03*
X0053769Y0080634D03*
X0053769Y0080536D03*
X0053769Y0080437D03*
X0053769Y0080339D03*
X0053769Y0080240D03*
X0053769Y0080142D03*
X0053769Y0080043D03*
X0053769Y0079945D03*
X0053769Y0079847D03*
X0053769Y0079748D03*
X0053769Y0079650D03*
X0053769Y0079551D03*
X0053769Y0079453D03*
X0053769Y0079354D03*
X0055146Y0081520D03*
X0055146Y0081618D03*
X0055146Y0081717D03*
X0055146Y0081815D03*
X0055835Y0082799D03*
X0055835Y0082898D03*
X0055835Y0082996D03*
X0055835Y0083095D03*
X0055835Y0083193D03*
X0055835Y0083291D03*
X0055835Y0083390D03*
X0055835Y0083488D03*
X0055835Y0083587D03*
X0055835Y0083685D03*
X0055835Y0083784D03*
X0055835Y0083882D03*
X0055835Y0083980D03*
X0055835Y0084079D03*
X0055835Y0084177D03*
X0055835Y0084276D03*
X0055835Y0084374D03*
X0055835Y0084473D03*
X0055835Y0084571D03*
X0055835Y0084669D03*
X0055835Y0084768D03*
X0055835Y0084866D03*
X0055835Y0084965D03*
X0055835Y0085063D03*
X0055835Y0085162D03*
X0055835Y0085260D03*
X0055835Y0085358D03*
X0055835Y0085457D03*
X0055835Y0085555D03*
X0055835Y0085654D03*
X0055835Y0085752D03*
X0055835Y0085850D03*
X0055835Y0085949D03*
X0055835Y0086047D03*
X0055835Y0086146D03*
X0055835Y0086244D03*
X0055835Y0086343D03*
X0055835Y0086441D03*
X0055835Y0086539D03*
X0055835Y0086638D03*
X0055835Y0086736D03*
X0055835Y0086835D03*
X0055835Y0086933D03*
X0055835Y0087032D03*
X0055835Y0087130D03*
X0055835Y0087228D03*
X0055835Y0087327D03*
X0055835Y0087425D03*
X0055835Y0087524D03*
X0055835Y0087622D03*
X0056623Y0081717D03*
X0056623Y0081618D03*
X0057902Y0083784D03*
X0057902Y0083882D03*
X0057902Y0083980D03*
X0057902Y0084079D03*
X0057902Y0084177D03*
X0057902Y0084276D03*
X0057902Y0084374D03*
X0057902Y0084473D03*
X0057902Y0084571D03*
X0057902Y0084669D03*
X0057902Y0084768D03*
X0057902Y0084866D03*
X0057902Y0084965D03*
X0057902Y0085063D03*
X0057902Y0085162D03*
X0057902Y0085260D03*
X0057902Y0085358D03*
X0057902Y0085457D03*
X0057902Y0085555D03*
X0057902Y0085654D03*
X0057902Y0085752D03*
X0057902Y0085850D03*
X0057902Y0085949D03*
X0057902Y0086047D03*
X0057902Y0086146D03*
X0057902Y0086244D03*
X0057902Y0086343D03*
X0057902Y0086441D03*
X0057902Y0086539D03*
X0057902Y0086638D03*
X0057902Y0086736D03*
X0057902Y0086835D03*
X0057902Y0086933D03*
X0057902Y0087032D03*
X0057902Y0087130D03*
X0057902Y0087228D03*
X0057902Y0087327D03*
X0057902Y0087425D03*
X0057902Y0087524D03*
X0057902Y0087622D03*
X0060068Y0087622D03*
X0060068Y0087524D03*
X0060068Y0087425D03*
X0060068Y0087327D03*
X0060068Y0087228D03*
X0060068Y0087130D03*
X0060068Y0087032D03*
X0060068Y0086933D03*
X0060068Y0086835D03*
X0060068Y0086736D03*
X0060068Y0086638D03*
X0060068Y0086539D03*
X0060068Y0086441D03*
X0060068Y0086343D03*
X0060068Y0086244D03*
X0060068Y0086146D03*
X0060068Y0086047D03*
X0060068Y0085949D03*
X0060068Y0085850D03*
X0060068Y0085752D03*
X0060068Y0085654D03*
X0060068Y0085555D03*
X0060068Y0085457D03*
X0060068Y0085358D03*
X0060068Y0085260D03*
X0060068Y0085162D03*
X0060068Y0085063D03*
X0060068Y0084965D03*
X0060068Y0084866D03*
X0060068Y0084768D03*
X0070993Y0093626D03*
X0071780Y0094610D03*
X0071780Y0094709D03*
X0065580Y0108587D03*
X0066269Y0109473D03*
X0066269Y0109571D03*
X0066269Y0109669D03*
X0066269Y0109768D03*
X0046190Y0084473D03*
X0046190Y0084374D03*
X0046190Y0084276D03*
X0046190Y0084177D03*
X0040284Y0096776D03*
X0040284Y0096874D03*
X0040284Y0096973D03*
X0040284Y0097071D03*
D36*
X0050570Y0091756D03*
X0060707Y0100122D03*
X0060609Y0102484D03*
X0062184Y0095299D03*
X0062184Y0093232D03*
X0061790Y0079453D03*
X0061790Y0114886D03*
D37*
X0060757Y0100221D03*
X0050619Y0102287D03*
X0049536Y0114886D03*
X0049536Y0079453D03*
D38*
X0049192Y0079551D03*
X0048896Y0094217D03*
X0048896Y0094315D03*
X0050373Y0102091D03*
X0049192Y0114787D03*
X0060904Y0102287D03*
X0062085Y0114787D03*
X0062085Y0079551D03*
D39*
X0062430Y0079650D03*
X0062528Y0094118D03*
X0062528Y0094217D03*
X0050225Y0101894D03*
D40*
X0050274Y0101992D03*
X0050274Y0095890D03*
X0048896Y0079650D03*
X0061003Y0091854D03*
X0061003Y0102189D03*
X0062381Y0114689D03*
X0063463Y0080240D03*
D41*
X0063414Y0080142D03*
X0062725Y0079748D03*
X0061150Y0101992D03*
X0050127Y0101795D03*
X0050127Y0095693D03*
D42*
X0050176Y0095791D03*
X0050176Y0101697D03*
X0061101Y0102091D03*
X0061101Y0096185D03*
X0062578Y0094315D03*
X0061101Y0091953D03*
X0062676Y0114591D03*
X0048601Y0079748D03*
D43*
X0048306Y0079847D03*
X0050078Y0095496D03*
X0050078Y0095595D03*
X0046928Y0113606D03*
X0048306Y0114492D03*
X0061200Y0096087D03*
X0062971Y0114492D03*
X0062971Y0079847D03*
D44*
X0063267Y0079945D03*
X0063365Y0080043D03*
X0061298Y0095890D03*
X0061298Y0101697D03*
X0063267Y0114394D03*
X0049979Y0093921D03*
X0049979Y0093823D03*
X0049979Y0093725D03*
X0049979Y0093626D03*
X0048109Y0079945D03*
X0046928Y0113705D03*
X0048109Y0114394D03*
D45*
X0061347Y0101795D03*
X0061347Y0095791D03*
X0061347Y0095693D03*
X0063414Y0114295D03*
X0047863Y0080043D03*
D46*
X0047617Y0080142D03*
X0061396Y0095496D03*
X0061396Y0095595D03*
X0065235Y0081225D03*
X0063070Y0109374D03*
X0047814Y0114295D03*
X0047617Y0114197D03*
D47*
X0047420Y0114099D03*
X0049782Y0094020D03*
X0047420Y0080240D03*
X0061495Y0093528D03*
X0061495Y0093626D03*
X0061495Y0093725D03*
X0061495Y0093823D03*
X0065235Y0081126D03*
X0063070Y0109473D03*
X0063956Y0114099D03*
D48*
X0064103Y0114000D03*
X0063020Y0109571D03*
X0061544Y0093921D03*
X0064103Y0080339D03*
X0047174Y0080339D03*
X0046977Y0113902D03*
X0047174Y0114000D03*
D49*
X0051357Y0114492D03*
X0051456Y0114394D03*
X0051554Y0114295D03*
X0051652Y0114197D03*
X0051751Y0114099D03*
X0051849Y0114000D03*
X0051948Y0113902D03*
X0052046Y0113803D03*
X0052144Y0113705D03*
X0052243Y0113606D03*
X0052341Y0113508D03*
X0052440Y0113410D03*
X0052538Y0113311D03*
X0052637Y0113213D03*
X0052735Y0113114D03*
X0052833Y0113016D03*
X0052932Y0112917D03*
X0053030Y0112819D03*
X0053129Y0112721D03*
X0053227Y0112622D03*
X0053326Y0112524D03*
X0053424Y0112425D03*
X0053522Y0112327D03*
X0053621Y0112228D03*
X0051456Y0110949D03*
X0060215Y0108291D03*
X0060314Y0108390D03*
X0060412Y0108488D03*
X0060511Y0108587D03*
X0060609Y0108685D03*
X0060707Y0108784D03*
X0060806Y0108882D03*
X0060904Y0108980D03*
X0061003Y0109079D03*
X0061101Y0109177D03*
X0061200Y0109276D03*
X0066121Y0109276D03*
X0068089Y0092347D03*
X0068188Y0092248D03*
X0068286Y0092150D03*
X0068385Y0092051D03*
X0068483Y0091953D03*
X0068581Y0091854D03*
X0068680Y0091756D03*
X0068778Y0091658D03*
X0068877Y0091559D03*
X0068975Y0091461D03*
X0069074Y0091362D03*
X0069172Y0091264D03*
X0069270Y0091165D03*
X0069369Y0091067D03*
X0069467Y0090969D03*
X0069566Y0090870D03*
X0069664Y0090772D03*
X0069763Y0090673D03*
X0069861Y0090575D03*
X0069959Y0090476D03*
X0070058Y0090378D03*
X0070156Y0090280D03*
X0070255Y0090181D03*
X0070353Y0090083D03*
X0070452Y0089984D03*
X0070550Y0089886D03*
X0063365Y0081323D03*
X0063267Y0081421D03*
X0063168Y0081520D03*
X0063070Y0081618D03*
X0062971Y0081717D03*
X0062873Y0081815D03*
X0062774Y0081913D03*
X0062676Y0082012D03*
X0062578Y0082110D03*
X0062479Y0082209D03*
X0062381Y0082307D03*
X0062282Y0082406D03*
X0062184Y0082504D03*
X0062085Y0082602D03*
X0061987Y0082701D03*
X0061889Y0082799D03*
X0061790Y0082898D03*
X0061692Y0082996D03*
X0061593Y0083095D03*
X0061495Y0083193D03*
X0061396Y0083291D03*
X0061298Y0083390D03*
X0061200Y0083488D03*
X0061101Y0083587D03*
X0061003Y0083685D03*
X0060904Y0083784D03*
X0060806Y0083882D03*
X0060707Y0083980D03*
X0060609Y0084079D03*
X0060511Y0084177D03*
X0060412Y0084276D03*
X0060314Y0084374D03*
X0060215Y0084473D03*
X0058641Y0082898D03*
X0058739Y0082799D03*
X0058837Y0082701D03*
X0058936Y0082602D03*
X0059034Y0082504D03*
X0059133Y0082406D03*
X0059231Y0082307D03*
X0059330Y0082209D03*
X0059428Y0082110D03*
X0059526Y0082012D03*
X0059625Y0081913D03*
X0059723Y0081815D03*
X0059822Y0081717D03*
X0059920Y0081618D03*
X0060019Y0081520D03*
X0060117Y0081421D03*
X0060215Y0081323D03*
X0060314Y0081225D03*
X0060412Y0081126D03*
X0060511Y0081028D03*
X0060609Y0080929D03*
X0060707Y0080831D03*
X0060806Y0080732D03*
X0060904Y0080634D03*
X0061003Y0080536D03*
X0061101Y0080437D03*
X0061200Y0080339D03*
X0058542Y0082996D03*
X0058444Y0083095D03*
X0058345Y0083193D03*
X0058247Y0083291D03*
X0058148Y0083390D03*
X0058050Y0083488D03*
X0055294Y0081323D03*
X0051259Y0085457D03*
X0051357Y0085555D03*
X0051456Y0085654D03*
X0051160Y0085358D03*
X0051062Y0085260D03*
X0050963Y0085162D03*
X0050865Y0085063D03*
X0050767Y0084965D03*
X0050668Y0084866D03*
X0050570Y0084768D03*
X0042597Y0092347D03*
X0042499Y0092248D03*
X0042400Y0092150D03*
X0042302Y0092051D03*
X0042204Y0091953D03*
X0042105Y0091854D03*
X0042007Y0091756D03*
X0041908Y0091658D03*
X0041810Y0091559D03*
X0041711Y0091461D03*
X0041613Y0091362D03*
X0041515Y0091264D03*
X0041416Y0091165D03*
X0041318Y0091067D03*
X0041219Y0090969D03*
X0041121Y0090870D03*
X0041022Y0090772D03*
X0040924Y0090673D03*
X0040826Y0090575D03*
X0040727Y0090476D03*
X0040629Y0090378D03*
X0040530Y0090280D03*
X0040432Y0090181D03*
X0040333Y0090083D03*
X0040235Y0089984D03*
X0040137Y0089886D03*
X0040038Y0089787D03*
X0039940Y0089689D03*
X0039152Y0091854D03*
X0039940Y0092642D03*
X0040038Y0092740D03*
X0040137Y0092839D03*
X0040235Y0092937D03*
X0040333Y0093036D03*
X0040432Y0093134D03*
X0040530Y0093232D03*
X0040629Y0093331D03*
X0040727Y0093429D03*
X0040826Y0093528D03*
X0040924Y0093626D03*
X0041022Y0093725D03*
X0041121Y0093823D03*
X0041219Y0093921D03*
X0041318Y0094020D03*
X0041416Y0094118D03*
X0041515Y0094217D03*
X0041613Y0094315D03*
X0040432Y0097268D03*
X0040038Y0101500D03*
X0039940Y0101599D03*
X0039841Y0101697D03*
X0039743Y0101795D03*
X0039644Y0101894D03*
X0039546Y0101992D03*
X0039448Y0102091D03*
X0039349Y0102189D03*
X0039251Y0102287D03*
X0039152Y0102386D03*
X0039054Y0102484D03*
D50*
X0046928Y0080437D03*
X0063070Y0109669D03*
X0063168Y0109768D03*
X0064349Y0113902D03*
X0065235Y0081028D03*
X0064349Y0080437D03*
D51*
X0064743Y0080634D03*
X0061692Y0094020D03*
X0064743Y0113705D03*
D52*
X0055835Y0080634D03*
D53*
X0049044Y0084669D03*
X0046387Y0080732D03*
X0046190Y0080831D03*
X0046190Y0113508D03*
X0064891Y0113606D03*
X0065087Y0113508D03*
X0065186Y0080929D03*
X0065087Y0080831D03*
X0064891Y0080732D03*
D54*
X0071091Y0089295D03*
X0070993Y0089394D03*
X0070894Y0089492D03*
X0070796Y0089591D03*
X0070698Y0089689D03*
X0070599Y0089787D03*
X0070993Y0093725D03*
X0070796Y0099433D03*
X0070894Y0099532D03*
X0070993Y0099630D03*
X0071091Y0099728D03*
X0071190Y0099827D03*
X0071288Y0099925D03*
X0071387Y0100024D03*
X0071485Y0100122D03*
X0071583Y0100221D03*
X0071682Y0100319D03*
X0071780Y0100417D03*
X0071879Y0100516D03*
X0071977Y0100614D03*
X0072076Y0100713D03*
X0072174Y0100811D03*
X0072272Y0100910D03*
X0072371Y0101008D03*
X0072469Y0101106D03*
X0072568Y0101205D03*
X0071091Y0102780D03*
X0071190Y0102878D03*
X0071288Y0102976D03*
X0071387Y0103075D03*
X0071485Y0103173D03*
X0071583Y0103272D03*
X0071682Y0103370D03*
X0071780Y0103469D03*
X0070993Y0102681D03*
X0070894Y0102583D03*
X0070796Y0102484D03*
X0070698Y0102386D03*
X0070599Y0102287D03*
X0070501Y0102189D03*
X0070402Y0102091D03*
X0070304Y0101992D03*
X0070206Y0101894D03*
X0070107Y0101795D03*
X0070009Y0101697D03*
X0069910Y0101599D03*
X0069812Y0101500D03*
X0065580Y0108685D03*
X0057902Y0112032D03*
X0051406Y0111047D03*
X0051308Y0111146D03*
X0051209Y0111244D03*
X0051111Y0111343D03*
X0051013Y0111441D03*
X0050914Y0111539D03*
X0050816Y0111638D03*
X0050717Y0111736D03*
X0050619Y0111835D03*
X0050520Y0111933D03*
X0050422Y0112032D03*
X0050324Y0112130D03*
X0050225Y0112228D03*
X0050127Y0112327D03*
X0050028Y0112425D03*
X0049930Y0112524D03*
X0049831Y0112622D03*
X0049733Y0112721D03*
X0049635Y0112819D03*
X0049536Y0112917D03*
X0049438Y0113016D03*
X0049339Y0113114D03*
X0049241Y0113213D03*
X0049143Y0113311D03*
X0049044Y0113410D03*
X0048946Y0113508D03*
X0039792Y0092543D03*
X0039694Y0092445D03*
X0039595Y0092347D03*
X0039497Y0092248D03*
X0039398Y0092150D03*
X0039300Y0092051D03*
X0039202Y0091953D03*
X0055835Y0080732D03*
D55*
X0055885Y0080831D03*
X0046928Y0083488D03*
X0046928Y0085162D03*
X0041022Y0096087D03*
X0041022Y0097760D03*
X0065530Y0108784D03*
X0071042Y0093823D03*
D56*
X0065530Y0108882D03*
X0057952Y0112228D03*
X0046928Y0085063D03*
X0046928Y0083587D03*
X0041022Y0096185D03*
X0041022Y0097662D03*
X0055885Y0080929D03*
D57*
X0046042Y0080929D03*
X0046042Y0113410D03*
X0065235Y0113410D03*
X0065432Y0113311D03*
D58*
X0065530Y0110260D03*
X0065530Y0108980D03*
X0057952Y0112327D03*
X0057952Y0113606D03*
X0071042Y0094020D03*
X0055885Y0081028D03*
X0046928Y0083685D03*
X0046928Y0084965D03*
X0041022Y0096284D03*
X0041022Y0097563D03*
D59*
X0045698Y0113213D03*
X0045894Y0113311D03*
X0049044Y0084571D03*
X0045894Y0081028D03*
X0045698Y0081126D03*
X0065580Y0113213D03*
D60*
X0065580Y0109079D03*
X0057902Y0112425D03*
X0057902Y0113508D03*
X0070993Y0095299D03*
X0070993Y0094118D03*
X0074143Y0093134D03*
X0074241Y0093528D03*
X0074241Y0093626D03*
X0074339Y0094020D03*
X0074339Y0094118D03*
X0074339Y0094217D03*
X0074339Y0094315D03*
X0074438Y0094709D03*
X0074438Y0094807D03*
X0074438Y0094906D03*
X0074438Y0095004D03*
X0074438Y0095102D03*
X0074536Y0095496D03*
X0074536Y0095595D03*
X0074536Y0095693D03*
X0074536Y0095791D03*
X0074536Y0095890D03*
X0074536Y0095988D03*
X0074536Y0096087D03*
X0074536Y0096185D03*
X0074536Y0096284D03*
X0074536Y0096382D03*
X0074536Y0096480D03*
X0074536Y0097268D03*
X0074536Y0097366D03*
X0074536Y0097465D03*
X0074536Y0097563D03*
X0074536Y0097662D03*
X0074536Y0097760D03*
X0074536Y0097858D03*
X0074536Y0097957D03*
X0074536Y0098055D03*
X0074536Y0098154D03*
X0074536Y0098252D03*
X0074536Y0098350D03*
X0074536Y0098449D03*
X0074536Y0098547D03*
X0074536Y0098646D03*
X0074536Y0098744D03*
X0074536Y0098843D03*
X0074536Y0098941D03*
X0074438Y0099236D03*
X0074438Y0099335D03*
X0074438Y0099433D03*
X0074438Y0099532D03*
X0074438Y0099630D03*
X0074438Y0099728D03*
X0074339Y0100024D03*
X0074339Y0100122D03*
X0074339Y0100221D03*
X0074339Y0100319D03*
X0074241Y0100713D03*
X0074241Y0100811D03*
X0074143Y0101205D03*
X0055835Y0082307D03*
X0055835Y0081126D03*
X0037331Y0092347D03*
X0037233Y0092740D03*
X0037135Y0093134D03*
X0037135Y0093232D03*
X0037036Y0093528D03*
X0037036Y0093626D03*
X0037036Y0093725D03*
X0036938Y0094020D03*
X0036938Y0094118D03*
X0036938Y0094217D03*
X0036938Y0094315D03*
X0036839Y0094610D03*
X0036839Y0094709D03*
X0036839Y0094807D03*
X0036839Y0094906D03*
X0036839Y0095004D03*
X0036839Y0095102D03*
X0036839Y0095201D03*
X0036741Y0095398D03*
X0036741Y0095496D03*
X0036741Y0095595D03*
X0036741Y0095693D03*
X0036741Y0095791D03*
X0036741Y0095890D03*
X0036741Y0095988D03*
X0036741Y0096087D03*
X0036741Y0096185D03*
X0036741Y0096284D03*
X0036741Y0096382D03*
X0036741Y0096480D03*
X0036741Y0096579D03*
X0036741Y0096677D03*
X0036741Y0096776D03*
X0036741Y0096874D03*
X0036741Y0096973D03*
X0036741Y0097071D03*
X0036741Y0097169D03*
X0036741Y0097268D03*
X0036741Y0097366D03*
X0036741Y0097465D03*
X0036741Y0097563D03*
X0036741Y0097662D03*
X0036741Y0097760D03*
X0036741Y0097858D03*
X0036741Y0097957D03*
X0036741Y0098055D03*
X0036741Y0098154D03*
X0036741Y0098252D03*
X0036741Y0098350D03*
X0036741Y0098449D03*
X0036839Y0099236D03*
X0036839Y0099335D03*
X0036839Y0099433D03*
X0036839Y0099532D03*
X0036839Y0099630D03*
X0036839Y0099728D03*
X0036938Y0100024D03*
X0036938Y0100122D03*
X0036938Y0100221D03*
X0036938Y0100319D03*
X0037036Y0100614D03*
X0037036Y0100713D03*
X0037036Y0100811D03*
X0037135Y0101106D03*
X0037135Y0101205D03*
X0037233Y0101599D03*
X0037331Y0101992D03*
D61*
X0037282Y0101894D03*
X0037282Y0101795D03*
X0037282Y0101697D03*
X0037184Y0101500D03*
X0037184Y0101402D03*
X0037184Y0101303D03*
X0037085Y0101008D03*
X0037085Y0100910D03*
X0036987Y0100516D03*
X0036987Y0100417D03*
X0036889Y0099925D03*
X0036889Y0099827D03*
X0037381Y0102091D03*
X0037381Y0102189D03*
X0037381Y0102287D03*
X0037479Y0102386D03*
X0037479Y0102484D03*
X0037774Y0103370D03*
X0037774Y0103469D03*
X0037873Y0103665D03*
X0037873Y0103764D03*
X0037971Y0103961D03*
X0038070Y0104256D03*
X0038168Y0104453D03*
X0041022Y0097465D03*
X0041022Y0097366D03*
X0041022Y0096480D03*
X0041022Y0096382D03*
X0036790Y0095299D03*
X0036889Y0094512D03*
X0036889Y0094413D03*
X0036987Y0093921D03*
X0036987Y0093823D03*
X0037085Y0093429D03*
X0037085Y0093331D03*
X0037184Y0093036D03*
X0037184Y0092937D03*
X0037184Y0092839D03*
X0037282Y0092642D03*
X0037282Y0092543D03*
X0037282Y0092445D03*
X0037381Y0092248D03*
X0037381Y0092150D03*
X0037381Y0092051D03*
X0037479Y0091953D03*
X0037479Y0091854D03*
X0037774Y0090969D03*
X0037774Y0090870D03*
X0037873Y0090673D03*
X0037873Y0090575D03*
X0037971Y0090378D03*
X0038168Y0089886D03*
X0046928Y0084866D03*
X0046928Y0084768D03*
X0046928Y0083882D03*
X0046928Y0083784D03*
X0055885Y0082209D03*
X0055885Y0081225D03*
X0065530Y0109177D03*
X0065530Y0110162D03*
X0057952Y0112524D03*
X0071042Y0095201D03*
X0071042Y0095102D03*
X0071042Y0094217D03*
X0074093Y0093036D03*
X0074093Y0092937D03*
X0074093Y0092839D03*
X0074093Y0092740D03*
X0073995Y0092642D03*
X0073995Y0092543D03*
X0073995Y0092445D03*
X0073995Y0092347D03*
X0073896Y0092248D03*
X0073896Y0092150D03*
X0073896Y0092051D03*
X0073798Y0091854D03*
X0073798Y0091756D03*
X0073798Y0091658D03*
X0073700Y0091559D03*
X0073700Y0091461D03*
X0073601Y0091165D03*
X0073503Y0090870D03*
X0073404Y0090575D03*
X0074192Y0093232D03*
X0074192Y0093331D03*
X0074192Y0093429D03*
X0074290Y0093725D03*
X0074290Y0093823D03*
X0074290Y0093921D03*
X0074389Y0094413D03*
X0074389Y0094512D03*
X0074389Y0094610D03*
X0074487Y0095201D03*
X0074487Y0095299D03*
X0074487Y0095398D03*
X0074487Y0099039D03*
X0074487Y0099138D03*
X0074389Y0099827D03*
X0074389Y0099925D03*
X0074290Y0100417D03*
X0074290Y0100516D03*
X0074290Y0100614D03*
X0074192Y0100910D03*
X0074192Y0101008D03*
X0074192Y0101106D03*
X0073896Y0102091D03*
X0073896Y0102189D03*
X0073896Y0102287D03*
X0073798Y0102484D03*
X0073798Y0102583D03*
X0073700Y0102780D03*
X0073700Y0102878D03*
X0073601Y0103173D03*
X0073503Y0103469D03*
D62*
X0065924Y0113016D03*
X0065727Y0113114D03*
X0065924Y0081323D03*
X0045550Y0081225D03*
X0045550Y0113114D03*
D63*
X0051505Y0110850D03*
X0053670Y0112130D03*
X0057312Y0112622D03*
X0057312Y0113311D03*
X0058493Y0113311D03*
X0058493Y0112622D03*
X0060166Y0108193D03*
X0064989Y0109276D03*
X0066170Y0109965D03*
X0071583Y0095004D03*
X0071583Y0094315D03*
X0070402Y0094315D03*
X0060166Y0084571D03*
X0058001Y0083587D03*
X0056426Y0081323D03*
X0055245Y0082012D03*
X0055835Y0082701D03*
X0051505Y0085752D03*
X0046288Y0084669D03*
X0046288Y0083980D03*
X0040383Y0096579D03*
D64*
X0045107Y0081520D03*
X0045206Y0081421D03*
X0045402Y0081323D03*
X0049044Y0084473D03*
X0045107Y0112819D03*
X0045206Y0112917D03*
X0045402Y0113016D03*
X0066072Y0112917D03*
X0066367Y0112721D03*
X0066367Y0081618D03*
X0066072Y0081421D03*
D65*
X0060117Y0084669D03*
X0057952Y0083685D03*
X0056475Y0082012D03*
X0056574Y0081913D03*
X0056574Y0081815D03*
X0056574Y0081520D03*
X0056475Y0081421D03*
X0055196Y0081421D03*
X0055196Y0081913D03*
X0051554Y0085850D03*
X0047519Y0083980D03*
X0046928Y0083291D03*
X0046239Y0084079D03*
X0046239Y0084571D03*
X0046928Y0085358D03*
X0041022Y0095890D03*
X0040333Y0096677D03*
X0040333Y0097169D03*
X0041613Y0097268D03*
X0051554Y0110752D03*
X0053719Y0112032D03*
X0057263Y0112721D03*
X0057263Y0113213D03*
X0057952Y0114000D03*
X0058641Y0113114D03*
X0058641Y0112819D03*
X0060117Y0108095D03*
X0065530Y0110654D03*
X0066219Y0109866D03*
X0066219Y0109374D03*
X0071042Y0095693D03*
X0071731Y0094906D03*
X0071731Y0094807D03*
X0071731Y0094512D03*
X0071633Y0094413D03*
X0055294Y0096776D03*
D66*
X0048995Y0084374D03*
X0044959Y0081618D03*
X0044959Y0112721D03*
X0066219Y0112819D03*
X0066515Y0112622D03*
X0066515Y0081717D03*
X0066219Y0081520D03*
D67*
X0066662Y0081815D03*
X0066761Y0081913D03*
X0072272Y0089197D03*
X0066761Y0112425D03*
X0066662Y0112524D03*
X0048946Y0084276D03*
X0044812Y0081717D03*
X0044615Y0081815D03*
X0044517Y0081913D03*
X0044517Y0112425D03*
X0044615Y0112524D03*
X0044812Y0112622D03*
D68*
X0044369Y0112327D03*
X0044270Y0112228D03*
X0043975Y0112032D03*
X0048896Y0084177D03*
X0048798Y0084079D03*
X0044369Y0082012D03*
X0044270Y0082110D03*
X0043975Y0082307D03*
X0066908Y0082012D03*
X0067105Y0082110D03*
X0067204Y0082209D03*
X0072912Y0103567D03*
X0067204Y0112130D03*
X0067105Y0112228D03*
X0066908Y0112327D03*
D69*
X0065580Y0110063D03*
X0072469Y0105831D03*
X0072568Y0105634D03*
X0072666Y0105437D03*
X0072765Y0105240D03*
X0072863Y0105043D03*
X0072961Y0104847D03*
X0072961Y0104748D03*
X0073060Y0104650D03*
X0073060Y0104551D03*
X0073158Y0104453D03*
X0073158Y0104354D03*
X0073552Y0103370D03*
X0073552Y0103272D03*
X0073650Y0103075D03*
X0073650Y0102976D03*
X0073749Y0102681D03*
X0073847Y0102386D03*
X0073847Y0091953D03*
X0073650Y0091362D03*
X0073650Y0091264D03*
X0073552Y0091067D03*
X0073552Y0090969D03*
X0073454Y0090772D03*
X0073454Y0090673D03*
X0073355Y0090476D03*
X0073355Y0090378D03*
X0073257Y0090280D03*
X0073257Y0090181D03*
X0073158Y0090083D03*
X0073158Y0089984D03*
X0073158Y0089886D03*
X0073060Y0089787D03*
X0073060Y0089689D03*
X0072961Y0089591D03*
X0072961Y0089492D03*
X0072863Y0089295D03*
X0057902Y0113410D03*
X0055835Y0082110D03*
X0038808Y0088508D03*
X0038709Y0088705D03*
X0038611Y0088902D03*
X0038217Y0089689D03*
X0038217Y0089787D03*
X0038119Y0089984D03*
X0038119Y0090083D03*
X0038020Y0090181D03*
X0038020Y0090280D03*
X0037922Y0090476D03*
X0037824Y0090772D03*
X0037725Y0091067D03*
X0037725Y0103272D03*
X0037824Y0103567D03*
X0037922Y0103862D03*
X0038020Y0104059D03*
X0038020Y0104158D03*
X0038119Y0104354D03*
X0038217Y0104551D03*
X0038217Y0104650D03*
X0038316Y0104748D03*
X0038316Y0104847D03*
X0038414Y0104945D03*
X0038414Y0105043D03*
X0038513Y0105142D03*
X0038513Y0105240D03*
X0038611Y0105437D03*
X0038709Y0105634D03*
X0038808Y0105831D03*
X0038906Y0106028D03*
D70*
X0043729Y0111835D03*
X0043828Y0111933D03*
X0044123Y0112130D03*
X0038020Y0091756D03*
X0038808Y0089591D03*
X0043729Y0082504D03*
X0043828Y0082406D03*
X0044123Y0082209D03*
X0067351Y0082307D03*
X0067450Y0082406D03*
X0067548Y0082504D03*
X0072272Y0089099D03*
X0072961Y0103665D03*
X0067548Y0111835D03*
X0067450Y0111933D03*
X0067351Y0112032D03*
D71*
X0065580Y0110358D03*
X0057902Y0113705D03*
X0070993Y0095398D03*
X0070993Y0093921D03*
X0055835Y0082406D03*
D72*
X0055835Y0082504D03*
X0065580Y0110457D03*
X0057902Y0112130D03*
X0057902Y0113803D03*
X0070993Y0095496D03*
D73*
X0072322Y0089000D03*
X0067893Y0082799D03*
X0067794Y0082701D03*
X0067696Y0082602D03*
X0073601Y0101303D03*
X0067893Y0111539D03*
X0067794Y0111638D03*
X0067696Y0111736D03*
X0043581Y0111736D03*
X0043483Y0111638D03*
X0043385Y0111539D03*
X0037971Y0102583D03*
X0037971Y0091658D03*
X0038759Y0089492D03*
X0043385Y0082799D03*
X0043483Y0082701D03*
X0043581Y0082602D03*
D74*
X0051603Y0087721D03*
X0051603Y0087819D03*
X0051603Y0087917D03*
X0051603Y0088016D03*
X0051603Y0088114D03*
X0051603Y0088213D03*
X0051603Y0088311D03*
X0051603Y0088410D03*
X0051603Y0088508D03*
X0051603Y0088606D03*
X0051603Y0088705D03*
X0051603Y0088803D03*
X0053769Y0088803D03*
X0053769Y0088705D03*
X0053769Y0088606D03*
X0053769Y0088508D03*
X0053769Y0088410D03*
X0053769Y0088311D03*
X0053769Y0088213D03*
X0053769Y0088114D03*
X0053769Y0088016D03*
X0053769Y0087917D03*
X0053769Y0087819D03*
X0053769Y0087721D03*
X0055835Y0087721D03*
X0055835Y0087819D03*
X0055835Y0087917D03*
X0055835Y0088016D03*
X0055835Y0088114D03*
X0055835Y0088213D03*
X0055835Y0088311D03*
X0055835Y0088410D03*
X0055835Y0088508D03*
X0055835Y0088606D03*
X0055835Y0088705D03*
X0055835Y0088803D03*
X0057902Y0088803D03*
X0057902Y0088705D03*
X0057902Y0088606D03*
X0057902Y0088508D03*
X0057902Y0088410D03*
X0057902Y0088311D03*
X0057902Y0088213D03*
X0057902Y0088114D03*
X0057902Y0088016D03*
X0057902Y0087917D03*
X0057902Y0087819D03*
X0057902Y0087721D03*
X0060068Y0087721D03*
X0060068Y0087819D03*
X0060068Y0087917D03*
X0060068Y0088016D03*
X0060068Y0088114D03*
X0060068Y0088213D03*
X0060068Y0088311D03*
X0060068Y0088410D03*
X0060068Y0088508D03*
X0060068Y0088606D03*
X0060068Y0088705D03*
X0060068Y0088803D03*
X0055835Y0082602D03*
X0055835Y0104945D03*
X0055835Y0105043D03*
X0055835Y0105142D03*
X0055835Y0105240D03*
X0055835Y0105339D03*
X0055835Y0105437D03*
X0055835Y0105536D03*
X0055835Y0105634D03*
X0055835Y0105732D03*
X0055835Y0105831D03*
X0055835Y0105929D03*
X0055835Y0106028D03*
X0055835Y0106126D03*
X0055835Y0106225D03*
X0055835Y0106323D03*
X0055835Y0106421D03*
X0055835Y0106520D03*
X0055835Y0106618D03*
X0053769Y0106618D03*
X0053769Y0106520D03*
X0053769Y0106421D03*
X0053769Y0106323D03*
X0053769Y0106225D03*
X0053769Y0106126D03*
X0053769Y0106028D03*
X0053769Y0105929D03*
X0053769Y0105831D03*
X0053769Y0105732D03*
X0053769Y0105634D03*
X0053769Y0105536D03*
X0053769Y0105437D03*
X0053769Y0105339D03*
X0053769Y0105240D03*
X0053769Y0105142D03*
X0053769Y0105043D03*
X0053769Y0104945D03*
X0051603Y0104945D03*
X0051603Y0105043D03*
X0051603Y0105142D03*
X0051603Y0105240D03*
X0051603Y0105339D03*
X0051603Y0105437D03*
X0051603Y0105536D03*
X0051603Y0105634D03*
X0051603Y0105732D03*
X0051603Y0105831D03*
X0051603Y0105929D03*
X0051603Y0106028D03*
X0051603Y0106126D03*
X0051603Y0106225D03*
X0051603Y0106323D03*
X0051603Y0106421D03*
X0051603Y0106520D03*
X0051603Y0106618D03*
X0057902Y0106618D03*
X0057902Y0106520D03*
X0057902Y0106421D03*
X0057902Y0106323D03*
X0057902Y0106225D03*
X0057902Y0106126D03*
X0057902Y0106028D03*
X0057902Y0105929D03*
X0057902Y0105831D03*
X0057902Y0105732D03*
X0057902Y0105634D03*
X0057902Y0105536D03*
X0057902Y0105437D03*
X0057902Y0105339D03*
X0057902Y0105240D03*
X0057902Y0105142D03*
X0057902Y0105043D03*
X0057902Y0104945D03*
X0060068Y0104945D03*
X0060068Y0105043D03*
X0060068Y0105142D03*
X0060068Y0105240D03*
X0060068Y0105339D03*
X0060068Y0105437D03*
X0060068Y0105536D03*
X0060068Y0105634D03*
X0060068Y0105732D03*
X0060068Y0105831D03*
X0060068Y0105929D03*
X0060068Y0106028D03*
X0060068Y0106126D03*
X0060068Y0106225D03*
X0060068Y0106323D03*
X0060068Y0106421D03*
X0060068Y0106520D03*
X0060068Y0106618D03*
X0057902Y0113902D03*
D75*
X0068040Y0111441D03*
X0068139Y0111343D03*
X0068237Y0111244D03*
X0072961Y0103764D03*
X0073650Y0101402D03*
X0068237Y0083095D03*
X0068139Y0082996D03*
X0068040Y0082898D03*
X0043237Y0082898D03*
X0043139Y0082996D03*
X0043040Y0083095D03*
X0042942Y0083193D03*
X0037922Y0102681D03*
X0042942Y0111146D03*
X0043040Y0111244D03*
X0043139Y0111343D03*
X0043237Y0111441D03*
D76*
X0042794Y0111047D03*
X0042696Y0110949D03*
X0042597Y0110850D03*
X0042499Y0110752D03*
X0042400Y0110654D03*
X0042302Y0110555D03*
X0042204Y0110457D03*
X0037971Y0091559D03*
X0038759Y0089394D03*
X0042204Y0083882D03*
X0042302Y0083784D03*
X0042400Y0083685D03*
X0042499Y0083587D03*
X0042597Y0083488D03*
X0042696Y0083390D03*
X0042794Y0083291D03*
X0068385Y0083193D03*
X0068483Y0083291D03*
X0068581Y0083390D03*
X0068680Y0083488D03*
X0068778Y0083587D03*
X0069074Y0083882D03*
X0072322Y0088902D03*
X0073700Y0101500D03*
X0073011Y0103862D03*
X0069074Y0110457D03*
X0068778Y0110752D03*
X0068680Y0110850D03*
X0068581Y0110949D03*
X0068483Y0111047D03*
X0068385Y0111146D03*
D77*
X0065530Y0110555D03*
X0071042Y0095595D03*
X0046928Y0085260D03*
X0046928Y0083390D03*
X0041022Y0095988D03*
X0041022Y0097858D03*
D78*
X0037922Y0102780D03*
X0042056Y0110358D03*
X0037922Y0091461D03*
X0038709Y0089295D03*
X0042056Y0083980D03*
X0068926Y0083685D03*
X0069024Y0083784D03*
X0069221Y0083980D03*
X0069320Y0084079D03*
X0069418Y0084177D03*
X0072371Y0088803D03*
X0073749Y0101599D03*
X0073060Y0103961D03*
X0069418Y0110162D03*
X0069320Y0110260D03*
X0069221Y0110358D03*
X0069024Y0110555D03*
X0068926Y0110654D03*
D79*
X0069467Y0110063D03*
X0069566Y0109965D03*
X0069664Y0109866D03*
X0069763Y0109768D03*
X0069861Y0109669D03*
X0069959Y0109571D03*
X0069959Y0084768D03*
X0069861Y0084669D03*
X0069763Y0084571D03*
X0069664Y0084473D03*
X0069566Y0084374D03*
X0069467Y0084276D03*
X0042007Y0084079D03*
X0041908Y0084177D03*
X0041810Y0084276D03*
X0041711Y0084374D03*
X0041613Y0084473D03*
X0041515Y0084571D03*
X0041416Y0084669D03*
X0041121Y0085063D03*
X0037873Y0091362D03*
X0037873Y0102878D03*
X0041416Y0109669D03*
X0041515Y0109768D03*
X0041613Y0109866D03*
X0041711Y0109965D03*
X0041810Y0110063D03*
X0041908Y0110162D03*
X0042007Y0110260D03*
D80*
X0041367Y0109571D03*
X0041269Y0109473D03*
X0041170Y0109374D03*
X0041072Y0109276D03*
X0041072Y0109177D03*
X0040973Y0109079D03*
X0040875Y0108980D03*
X0040776Y0108882D03*
X0040481Y0108488D03*
X0037824Y0102976D03*
X0038709Y0089197D03*
X0040481Y0085850D03*
X0040776Y0085457D03*
X0040875Y0085358D03*
X0040973Y0085260D03*
X0041072Y0085162D03*
X0041170Y0084965D03*
X0041269Y0084866D03*
X0041367Y0084768D03*
X0070009Y0084866D03*
X0070107Y0084965D03*
X0070206Y0085063D03*
X0070304Y0085162D03*
X0070402Y0085358D03*
X0070501Y0085457D03*
X0070599Y0085555D03*
X0072371Y0088705D03*
X0073749Y0101697D03*
X0073060Y0104059D03*
X0070599Y0108784D03*
X0070501Y0108882D03*
X0070402Y0108980D03*
X0070304Y0109177D03*
X0070206Y0109276D03*
X0070107Y0109374D03*
X0070009Y0109473D03*
D81*
X0070353Y0109079D03*
X0070648Y0108685D03*
X0070747Y0108587D03*
X0070845Y0108488D03*
X0070845Y0108390D03*
X0070944Y0108291D03*
X0071042Y0108193D03*
X0071239Y0107898D03*
X0071436Y0107602D03*
X0073109Y0104158D03*
X0073798Y0101795D03*
X0072420Y0088606D03*
X0071436Y0086736D03*
X0071239Y0086441D03*
X0071042Y0086146D03*
X0070944Y0086047D03*
X0070845Y0085949D03*
X0070845Y0085850D03*
X0070747Y0085752D03*
X0070648Y0085654D03*
X0070353Y0085260D03*
X0040727Y0085555D03*
X0040629Y0085654D03*
X0040530Y0085752D03*
X0040432Y0085949D03*
X0040333Y0086047D03*
X0040235Y0086146D03*
X0040137Y0086343D03*
X0040038Y0086441D03*
X0038660Y0089099D03*
X0037873Y0091264D03*
X0040038Y0107898D03*
X0040137Y0107996D03*
X0040235Y0108193D03*
X0040333Y0108291D03*
X0040432Y0108390D03*
X0040530Y0108587D03*
X0040629Y0108685D03*
X0040727Y0108784D03*
D82*
X0040186Y0108095D03*
X0039989Y0107799D03*
X0039891Y0107701D03*
X0039891Y0107602D03*
X0039792Y0107504D03*
X0039694Y0107406D03*
X0039694Y0107307D03*
X0039595Y0107209D03*
X0039497Y0107012D03*
X0039300Y0106717D03*
X0037824Y0103075D03*
X0038611Y0089000D03*
X0039300Y0087622D03*
X0039497Y0087327D03*
X0039595Y0087130D03*
X0039694Y0087032D03*
X0039694Y0086933D03*
X0039792Y0086835D03*
X0039891Y0086736D03*
X0039891Y0086638D03*
X0039989Y0086539D03*
X0040186Y0086244D03*
X0071091Y0086244D03*
X0071190Y0086343D03*
X0071288Y0086539D03*
X0071387Y0086638D03*
X0071485Y0086835D03*
X0071583Y0086933D03*
X0071583Y0087032D03*
X0071682Y0087130D03*
X0071780Y0087228D03*
X0071780Y0087327D03*
X0071879Y0087425D03*
X0071977Y0087622D03*
X0072272Y0088114D03*
X0073847Y0101894D03*
X0072272Y0106225D03*
X0071977Y0106717D03*
X0071879Y0106913D03*
X0071780Y0107012D03*
X0071780Y0107110D03*
X0071682Y0107209D03*
X0071583Y0107307D03*
X0071583Y0107406D03*
X0071485Y0107504D03*
X0071387Y0107701D03*
X0071288Y0107799D03*
X0071190Y0107996D03*
X0071091Y0108095D03*
D83*
X0071928Y0106815D03*
X0072026Y0106618D03*
X0072125Y0106520D03*
X0072125Y0106421D03*
X0072223Y0106323D03*
X0072322Y0106126D03*
X0072420Y0106028D03*
X0072420Y0105929D03*
X0072519Y0105732D03*
X0072617Y0105536D03*
X0072715Y0105339D03*
X0072814Y0105142D03*
X0072912Y0104945D03*
X0073109Y0104256D03*
X0073896Y0101992D03*
X0072912Y0089394D03*
X0072420Y0088508D03*
X0072420Y0088410D03*
X0072420Y0088311D03*
X0072322Y0088213D03*
X0072223Y0088016D03*
X0072125Y0087917D03*
X0072125Y0087819D03*
X0072026Y0087721D03*
X0071928Y0087524D03*
X0039546Y0087228D03*
X0039448Y0087425D03*
X0039349Y0087524D03*
X0039251Y0087721D03*
X0039152Y0087819D03*
X0039152Y0087917D03*
X0039054Y0088016D03*
X0039054Y0088114D03*
X0038956Y0088213D03*
X0038956Y0088311D03*
X0038857Y0088410D03*
X0038759Y0088606D03*
X0038660Y0088803D03*
X0037774Y0091165D03*
X0037774Y0103173D03*
X0038562Y0105339D03*
X0038660Y0105536D03*
X0038759Y0105732D03*
X0038857Y0105929D03*
X0038956Y0106126D03*
X0039054Y0106225D03*
X0039054Y0106323D03*
X0039152Y0106421D03*
X0039152Y0106520D03*
X0039251Y0106618D03*
X0039349Y0106815D03*
X0039448Y0106913D03*
X0039546Y0107110D03*
D84*
X0055688Y0089197D03*
D85*
X0055639Y0089295D03*
X0048060Y0096776D03*
X0047961Y0096677D03*
X0046485Y0101205D03*
X0046387Y0101303D03*
X0046288Y0101402D03*
X0055639Y0104354D03*
D86*
X0055639Y0089394D03*
D87*
X0055688Y0089591D03*
X0063857Y0098941D03*
X0063956Y0099039D03*
X0064054Y0099138D03*
X0064152Y0099236D03*
D88*
X0055688Y0089689D03*
D89*
X0055688Y0089787D03*
D90*
X0055688Y0089886D03*
D91*
X0055639Y0090083D03*
X0055639Y0103567D03*
X0055639Y0103665D03*
D92*
X0055639Y0103370D03*
X0055639Y0103272D03*
X0055639Y0090378D03*
D93*
X0055688Y0090476D03*
D94*
X0055639Y0090575D03*
X0055639Y0090673D03*
X0055639Y0103075D03*
X0055639Y0103173D03*
D95*
X0055688Y0090969D03*
D96*
X0055639Y0091067D03*
X0055639Y0091165D03*
X0055639Y0091264D03*
X0055639Y0091362D03*
D97*
X0060658Y0091559D03*
X0062135Y0093134D03*
X0060658Y0099925D03*
X0060658Y0100024D03*
X0050619Y0095988D03*
D98*
X0050865Y0099827D03*
X0050865Y0091559D03*
X0061889Y0092051D03*
X0061889Y0092150D03*
D99*
X0060609Y0099827D03*
X0050668Y0100319D03*
X0050767Y0102386D03*
X0050668Y0096185D03*
X0050668Y0096087D03*
X0050668Y0091658D03*
D100*
X0060954Y0091756D03*
X0048946Y0114689D03*
D101*
X0048896Y0114591D03*
X0050471Y0102189D03*
X0050471Y0091854D03*
X0060806Y0100319D03*
X0060707Y0102386D03*
D102*
X0061643Y0100614D03*
X0055639Y0116756D03*
X0049635Y0092051D03*
D103*
X0049339Y0093134D03*
X0049339Y0093232D03*
X0050816Y0099925D03*
X0050816Y0100024D03*
X0050914Y0102484D03*
X0061938Y0101500D03*
X0061938Y0092248D03*
D104*
X0063660Y0092445D03*
D105*
X0065333Y0094512D03*
X0065333Y0094610D03*
X0047519Y0092445D03*
D106*
X0063660Y0092543D03*
D107*
X0055688Y0104847D03*
X0047519Y0092543D03*
X0046436Y0094413D03*
D108*
X0063611Y0092642D03*
D109*
X0047568Y0092642D03*
X0046485Y0094512D03*
D110*
X0063611Y0092740D03*
D111*
X0047568Y0092740D03*
X0046682Y0094807D03*
D112*
X0050668Y0098350D03*
X0050668Y0098449D03*
X0063562Y0092839D03*
D113*
X0047617Y0092839D03*
D114*
X0047666Y0092937D03*
D115*
X0063513Y0093036D03*
D116*
X0061446Y0093331D03*
X0061446Y0093429D03*
X0061446Y0095398D03*
X0063709Y0114197D03*
X0046977Y0113803D03*
D117*
X0050028Y0095398D03*
X0050028Y0093528D03*
X0050028Y0093429D03*
X0050028Y0093331D03*
X0061249Y0095988D03*
X0061249Y0101894D03*
D118*
X0065284Y0094807D03*
X0065284Y0094709D03*
X0065383Y0094413D03*
D119*
X0046633Y0094709D03*
X0046534Y0094610D03*
D120*
X0056229Y0094906D03*
X0056328Y0095004D03*
D121*
X0055639Y0095102D03*
X0055639Y0095201D03*
X0055639Y0097268D03*
X0055639Y0097366D03*
X0055639Y0097465D03*
X0045304Y0098941D03*
D122*
X0049930Y0100417D03*
X0051603Y0102780D03*
X0059871Y0097858D03*
X0061347Y0096382D03*
X0061347Y0096284D03*
D123*
X0061298Y0096480D03*
X0059822Y0097662D03*
X0059822Y0097760D03*
X0051456Y0098252D03*
X0049979Y0096284D03*
D124*
X0050028Y0096382D03*
X0051505Y0098154D03*
X0059772Y0097563D03*
X0061249Y0099532D03*
D125*
X0060904Y0098646D03*
X0050373Y0099236D03*
X0050373Y0096480D03*
D126*
X0066465Y0096579D03*
D127*
X0047912Y0096579D03*
D128*
X0045255Y0099039D03*
X0066022Y0096677D03*
D129*
X0055196Y0096677D03*
D130*
X0045452Y0098547D03*
X0065826Y0096776D03*
D131*
X0058444Y0096874D03*
X0058444Y0096973D03*
X0058444Y0097071D03*
D132*
X0058394Y0097169D03*
D133*
X0051702Y0097563D03*
X0051702Y0097662D03*
X0050225Y0099532D03*
D134*
X0051652Y0097760D03*
D135*
X0049881Y0100516D03*
X0059920Y0097957D03*
D136*
X0061200Y0099433D03*
X0051554Y0098055D03*
X0051554Y0097957D03*
D137*
X0041022Y0097957D03*
D138*
X0049831Y0100614D03*
X0059969Y0098154D03*
X0059969Y0098055D03*
D139*
X0060019Y0098252D03*
X0049782Y0100713D03*
D140*
X0060806Y0098350D03*
D141*
X0060855Y0098449D03*
X0060855Y0098547D03*
D142*
X0045402Y0098646D03*
D143*
X0055639Y0104158D03*
X0063709Y0098744D03*
X0063808Y0098843D03*
D144*
X0045353Y0098843D03*
X0045353Y0098744D03*
D145*
X0045255Y0099138D03*
D146*
X0050324Y0099335D03*
D147*
X0050274Y0099433D03*
D148*
X0050963Y0099630D03*
X0049487Y0101500D03*
X0049487Y0101599D03*
X0051062Y0102583D03*
D149*
X0050717Y0100221D03*
X0049930Y0114984D03*
X0060461Y0102583D03*
X0060560Y0099728D03*
D150*
X0060265Y0102681D03*
X0050914Y0099728D03*
D151*
X0059871Y0102780D03*
X0061544Y0100417D03*
D152*
X0063956Y0100811D03*
X0064054Y0100910D03*
X0064152Y0101008D03*
X0064251Y0101106D03*
D153*
X0046830Y0100811D03*
X0046731Y0100910D03*
X0046633Y0101008D03*
X0046534Y0101106D03*
D154*
X0064300Y0101205D03*
X0064398Y0101303D03*
X0064497Y0101402D03*
D155*
X0055688Y0102976D03*
X0055688Y0115476D03*
D156*
X0055639Y0103862D03*
D157*
X0055639Y0103961D03*
D158*
X0055688Y0104453D03*
D159*
X0055688Y0104551D03*
D160*
X0055639Y0104650D03*
D161*
X0055639Y0104748D03*
M02*
