%
M48
M72
T01C0.01200
T02C0.03150
T03C0.03937
T04C0.04000
T05C0.04700
T06C0.05118
T07C0.07087
T08C0.07100
T09C0.19685
%
T01
X45894Y107307
X43139Y121480
X49831Y146284
X32509Y153764
X53375Y198252
X63611Y206520
X68729Y189197
X79359Y191165
X93926Y222268
X99831Y170299
X103769Y110850
X91957Y106520
X98650Y78567
X77391Y67543
X125028Y44709
X132509Y212819
X68729Y247465
X43139Y247465
T02
X14398Y68016
X14398Y78016
X14398Y88016
X14398Y98016
X14398Y108016
X14398Y118016
X14398Y128016
X14398Y138016
X14398Y148016
X14398Y158016
X14398Y168016
X14398Y178016
X14398Y188016
X14398Y198016
X14398Y208016
X24123Y208016
X24123Y198016
X24123Y188016
X24123Y178016
X24123Y168016
X24123Y158016
X24123Y148016
X24123Y138016
X24123Y128016
X24123Y118016
X24123Y108016
X24123Y98016
X24123Y88016
X24123Y78016
X24123Y68016
X114123Y68016
X114123Y78016
X114123Y88016
X114123Y98016
X114123Y108016
X114123Y118016
X114123Y128016
X114123Y138016
X114123Y148016
X114123Y158016
X114123Y168016
X114123Y178016
X114123Y188016
X114123Y198016
X114123Y208016
X123847Y208016
X123847Y198016
X123847Y188016
X123847Y178016
X123847Y168016
X123847Y158016
X123847Y148016
X123847Y138016
X123847Y128016
X123847Y118016
X123847Y108016
X123847Y98016
X123847Y88016
X123847Y78016
X123847Y68016
X148257Y66008
X148257Y56008
X148257Y46008
X148257Y36008
T03
X152194Y103370
X152194Y123055
X152194Y142740
X152194Y162425
X152194Y182110
X152194Y201795
X152194Y221480
X152194Y241165
X132154Y260693
X122154Y260693
X112154Y260693
X51564Y307937
X51564Y317937
X51564Y327937
T04
X34635Y366756
X24635Y366756
X14635Y366756
X14635Y272662
X14635Y258882
X24635Y258882
X24635Y272662
X34635Y272662
X34635Y258882
T05
X61085Y178951
X47085Y164951
X81885Y130151
X95885Y144151
T06
X93178Y294236
X93178Y341480
X45934Y341480
X38060Y317858
X45934Y294236
T07
X91564Y262425
X91564Y373449
T08
X83985Y167051
X58985Y142051
T09
X54162Y264394
X54162Y371087
M30
