G75*
%MOIN*%
%OFA0B0*%
%FSLAX25Y25*%
%IPPOS*%
%LPD*%
%AMOC8*
5,1,8,0,0,1.08239X$1,22.5*
%
%ADD10OC8,0.10000*%
%ADD11C,0.05150*%
%ADD12C,0.07200*%
%ADD13C,0.06600*%
%ADD14C,0.06000*%
%ADD15OC8,0.06000*%
D10*
X0433657Y0358969D03*
X0453343Y0358969D03*
D11*
X0468000Y0326575D02*
X0468000Y0321425D01*
X0416000Y0321425D02*
X0416000Y0326575D01*
X0416000Y0253575D02*
X0416000Y0248425D01*
X0468000Y0248425D02*
X0468000Y0253575D01*
D12*
X0303600Y0246000D02*
X0296400Y0246000D01*
X0296400Y0256000D02*
X0303600Y0256000D01*
X0303600Y0266000D02*
X0296400Y0266000D01*
X0296400Y0276000D02*
X0303600Y0276000D01*
X0303600Y0286000D02*
X0296400Y0286000D01*
X0296400Y0296000D02*
X0303600Y0296000D01*
X0303600Y0306000D02*
X0296400Y0306000D01*
X0296400Y0316000D02*
X0303600Y0316000D01*
X0386400Y0316000D02*
X0393600Y0316000D01*
X0393600Y0306000D02*
X0386400Y0306000D01*
X0386400Y0296000D02*
X0393600Y0296000D01*
X0393600Y0286000D02*
X0386400Y0286000D01*
X0386400Y0276000D02*
X0393600Y0276000D01*
X0393600Y0266000D02*
X0386400Y0266000D01*
X0386400Y0256000D02*
X0393600Y0256000D01*
X0393600Y0246000D02*
X0386400Y0246000D01*
D13*
X0493200Y0260500D02*
X0499800Y0260500D01*
X0499800Y0270500D02*
X0493200Y0270500D01*
X0493200Y0280500D02*
X0499800Y0280500D01*
X0500800Y0330500D02*
X0494200Y0330500D01*
X0494200Y0340500D02*
X0500800Y0340500D01*
X0500800Y0350500D02*
X0494200Y0350500D01*
D14*
X0658500Y0323500D02*
X0664500Y0323500D01*
X0664500Y0313500D02*
X0658500Y0313500D01*
X0658500Y0303500D02*
X0664500Y0303500D01*
D15*
X0575000Y0342500D03*
X0575000Y0252500D03*
M02*
