G75*
%MOIN*%
%OFA0B0*%
%FSLAX25Y25*%
%IPPOS*%
%LPD*%
%AMOC8*
5,1,8,0,0,1.08239X$1,22.5*
%
%ADD10OC8,0.10000*%
%ADD11C,0.05150*%
%ADD12C,0.07200*%
%ADD13R,0.02362X0.08661*%
%ADD14C,0.06600*%
%ADD15C,0.06000*%
%ADD16R,0.05118X0.05906*%
%ADD17OC8,0.06000*%
%ADD18C,0.05600*%
%ADD19C,0.02400*%
%ADD20C,0.04000*%
%ADD21C,0.03200*%
D10*
X0433657Y0358969D03*
X0453343Y0358969D03*
D11*
X0468000Y0326575D02*
X0468000Y0321425D01*
X0416000Y0321425D02*
X0416000Y0326575D01*
X0416000Y0253575D02*
X0416000Y0248425D01*
X0468000Y0248425D02*
X0468000Y0253575D01*
D12*
X0393600Y0256000D02*
X0386400Y0256000D01*
X0386400Y0246000D02*
X0393600Y0246000D01*
X0393600Y0266000D02*
X0386400Y0266000D01*
X0386400Y0276000D02*
X0393600Y0276000D01*
X0393600Y0286000D02*
X0386400Y0286000D01*
X0386400Y0296000D02*
X0393600Y0296000D01*
X0393600Y0306000D02*
X0386400Y0306000D01*
X0386400Y0316000D02*
X0393600Y0316000D01*
X0303600Y0316000D02*
X0296400Y0316000D01*
X0296400Y0306000D02*
X0303600Y0306000D01*
X0303600Y0296000D02*
X0296400Y0296000D01*
X0296400Y0286000D02*
X0303600Y0286000D01*
X0303600Y0276000D02*
X0296400Y0276000D01*
X0296400Y0266000D02*
X0303600Y0266000D01*
X0303600Y0256000D02*
X0296400Y0256000D01*
X0296400Y0246000D02*
X0303600Y0246000D01*
D13*
X0596500Y0293264D03*
X0601500Y0293264D03*
X0606500Y0293264D03*
X0611500Y0293264D03*
X0611500Y0313736D03*
X0606500Y0313736D03*
X0601500Y0313736D03*
X0596500Y0313736D03*
D14*
X0500800Y0330500D02*
X0494200Y0330500D01*
X0494200Y0340500D02*
X0500800Y0340500D01*
X0500800Y0350500D02*
X0494200Y0350500D01*
X0493200Y0280500D02*
X0499800Y0280500D01*
X0499800Y0270500D02*
X0493200Y0270500D01*
X0493200Y0260500D02*
X0499800Y0260500D01*
D15*
X0658500Y0303500D02*
X0664500Y0303500D01*
X0664500Y0313500D02*
X0658500Y0313500D01*
X0658500Y0323500D02*
X0664500Y0323500D01*
D16*
X0608740Y0331000D03*
X0601260Y0331000D03*
X0619760Y0292000D03*
X0627240Y0292000D03*
D17*
X0575000Y0252500D03*
X0575000Y0342500D03*
D18*
X0263900Y0267918D02*
X0263900Y0208909D01*
X0701100Y0209391D01*
X0701100Y0372591D01*
X0263900Y0372109D01*
X0263900Y0331082D01*
X0265922Y0333104D01*
X0265922Y0333104D01*
X0274396Y0341578D01*
X0274396Y0341578D01*
X0276422Y0343604D01*
X0279068Y0344700D01*
X0330432Y0344700D01*
X0333078Y0343604D01*
X0356578Y0320104D01*
X0356578Y0320104D01*
X0358604Y0318078D01*
X0359700Y0315432D01*
X0359700Y0243482D01*
X0359982Y0243200D01*
X0377169Y0243200D01*
X0376800Y0244090D01*
X0376800Y0247910D01*
X0378262Y0251438D01*
X0379689Y0252865D01*
X0379378Y0253616D01*
X0379127Y0254553D01*
X0379000Y0255515D01*
X0379000Y0256000D01*
X0390000Y0256000D01*
X0404000Y0256000D01*
X0416500Y0268500D01*
X0407500Y0277500D01*
X0407500Y0364000D01*
X0415500Y0372000D01*
X0457500Y0372000D01*
X0453343Y0367843D01*
X0453343Y0358969D01*
X0453342Y0358969D01*
X0453342Y0367768D01*
X0449697Y0367768D01*
X0444657Y0362729D01*
X0444657Y0363525D01*
X0438214Y0369968D01*
X0429101Y0369968D01*
X0422657Y0363525D01*
X0422657Y0354412D01*
X0424857Y0352212D01*
X0424857Y0338803D01*
X0420180Y0334125D01*
X0417706Y0335150D01*
X0414294Y0335150D01*
X0411143Y0333844D01*
X0408731Y0331432D01*
X0407425Y0328280D01*
X0407425Y0326294D01*
X0407200Y0325750D01*
X0407200Y0322250D01*
X0407425Y0321706D01*
X0407425Y0319720D01*
X0408731Y0316568D01*
X0411143Y0314156D01*
X0414294Y0312850D01*
X0417706Y0312850D01*
X0420857Y0314156D01*
X0421901Y0315200D01*
X0424250Y0315200D01*
X0427485Y0316540D01*
X0438642Y0327697D01*
X0441118Y0330173D01*
X0441750Y0331700D01*
X0464208Y0331700D01*
X0463788Y0331378D01*
X0463197Y0330787D01*
X0462688Y0330124D01*
X0462270Y0329400D01*
X0461951Y0328628D01*
X0461734Y0327821D01*
X0461625Y0326993D01*
X0461625Y0324000D01*
X0468000Y0324000D01*
X0468000Y0281500D01*
X0453500Y0267000D01*
X0451500Y0269000D01*
X0417000Y0269000D01*
X0416500Y0268500D01*
X0417706Y0262150D02*
X0414294Y0262150D01*
X0411143Y0260844D01*
X0408731Y0258432D01*
X0407425Y0255280D01*
X0407425Y0253200D01*
X0400450Y0253200D01*
X0400622Y0253616D01*
X0400873Y0254553D01*
X0401000Y0255515D01*
X0401000Y0256000D01*
X0401000Y0256485D01*
X0400873Y0257447D01*
X0400622Y0258384D01*
X0400311Y0259135D01*
X0401738Y0260562D01*
X0403200Y0264090D01*
X0403200Y0267910D01*
X0401920Y0271000D01*
X0403200Y0274090D01*
X0403200Y0277910D01*
X0401920Y0281000D01*
X0403200Y0284090D01*
X0403200Y0287910D01*
X0401920Y0291000D01*
X0403200Y0294090D01*
X0403200Y0297910D01*
X0401920Y0301000D01*
X0403200Y0304090D01*
X0403200Y0307910D01*
X0401920Y0311000D01*
X0403200Y0314090D01*
X0403200Y0317910D01*
X0401738Y0321438D01*
X0399038Y0324138D01*
X0395510Y0325600D01*
X0384490Y0325600D01*
X0380962Y0324138D01*
X0378262Y0321438D01*
X0376800Y0317910D01*
X0376800Y0314090D01*
X0378080Y0311000D01*
X0376800Y0307910D01*
X0376800Y0304090D01*
X0378080Y0301000D01*
X0376800Y0297910D01*
X0376800Y0294090D01*
X0378080Y0291000D01*
X0376800Y0287910D01*
X0376800Y0284090D01*
X0378080Y0281000D01*
X0376800Y0277910D01*
X0376800Y0274090D01*
X0378080Y0271000D01*
X0376800Y0267910D01*
X0376800Y0264090D01*
X0378262Y0260562D01*
X0379689Y0259135D01*
X0379378Y0258384D01*
X0379127Y0257447D01*
X0379000Y0256485D01*
X0379000Y0256000D01*
X0390000Y0256000D01*
X0401000Y0256000D01*
X0390000Y0256000D01*
X0390000Y0256000D01*
X0390000Y0256000D01*
X0379661Y0252933D02*
X0359700Y0252933D01*
X0359700Y0247334D02*
X0376800Y0247334D01*
X0379439Y0258532D02*
X0359700Y0258532D01*
X0359700Y0264130D02*
X0376800Y0264130D01*
X0377553Y0269729D02*
X0359700Y0269729D01*
X0359700Y0275327D02*
X0376800Y0275327D01*
X0378049Y0280926D02*
X0359700Y0280926D01*
X0359700Y0286524D02*
X0376800Y0286524D01*
X0377615Y0292123D02*
X0359700Y0292123D01*
X0359700Y0297721D02*
X0376800Y0297721D01*
X0377119Y0303320D02*
X0359700Y0303320D01*
X0359700Y0308918D02*
X0377218Y0308918D01*
X0376800Y0314517D02*
X0359700Y0314517D01*
X0356567Y0320115D02*
X0377714Y0320115D01*
X0402286Y0320115D02*
X0407425Y0320115D01*
X0410782Y0314517D02*
X0403200Y0314517D01*
X0402782Y0308918D02*
X0472200Y0308918D01*
X0472200Y0314517D02*
X0421218Y0314517D01*
X0431060Y0320115D02*
X0461751Y0320115D01*
X0461734Y0320179D02*
X0461951Y0319372D01*
X0462270Y0318600D01*
X0462688Y0317876D01*
X0463197Y0317213D01*
X0463788Y0316622D01*
X0464451Y0316113D01*
X0465174Y0315696D01*
X0465946Y0315376D01*
X0466754Y0315159D01*
X0467582Y0315050D01*
X0468000Y0315050D01*
X0468418Y0315050D01*
X0469246Y0315159D01*
X0470054Y0315376D01*
X0470826Y0315696D01*
X0471549Y0316113D01*
X0472200Y0316613D01*
X0472200Y0282750D01*
X0473540Y0279515D01*
X0480015Y0273040D01*
X0483250Y0271700D01*
X0486197Y0271700D01*
X0486100Y0270965D01*
X0486100Y0270500D01*
X0496500Y0270500D01*
X0485500Y0270500D01*
X0468000Y0253000D01*
X0468000Y0251000D01*
X0468000Y0252500D01*
X0453500Y0267000D01*
X0463197Y0257787D02*
X0462688Y0257124D01*
X0462270Y0256400D01*
X0461951Y0255628D01*
X0461734Y0254821D01*
X0461625Y0253993D01*
X0461625Y0251000D01*
X0468000Y0251000D01*
X0468000Y0251000D01*
X0468000Y0259950D01*
X0467582Y0259950D01*
X0466754Y0259841D01*
X0465946Y0259624D01*
X0465174Y0259304D01*
X0464451Y0258887D01*
X0463788Y0258378D01*
X0463197Y0257787D01*
X0463988Y0258532D02*
X0423170Y0258532D01*
X0423269Y0258432D02*
X0420857Y0260844D01*
X0417706Y0262150D01*
X0423269Y0258432D02*
X0424575Y0255280D01*
X0424575Y0246720D01*
X0423269Y0243568D01*
X0422901Y0243200D01*
X0464338Y0243200D01*
X0463788Y0243622D01*
X0463197Y0244213D01*
X0462688Y0244876D01*
X0462270Y0245600D01*
X0461951Y0246372D01*
X0461734Y0247179D01*
X0461625Y0248007D01*
X0461625Y0251000D01*
X0468000Y0251000D01*
X0474375Y0251000D01*
X0474375Y0253993D01*
X0474266Y0254821D01*
X0474049Y0255628D01*
X0473730Y0256400D01*
X0473312Y0257124D01*
X0472803Y0257787D01*
X0472212Y0258378D01*
X0471549Y0258887D01*
X0470826Y0259304D01*
X0470054Y0259624D01*
X0469246Y0259841D01*
X0468418Y0259950D01*
X0468000Y0259950D01*
X0468000Y0251000D01*
X0468000Y0251000D01*
X0468000Y0251000D01*
X0474375Y0251000D01*
X0474375Y0248007D01*
X0474266Y0247179D01*
X0474049Y0246372D01*
X0473730Y0245600D01*
X0473312Y0244876D01*
X0472803Y0244213D01*
X0472212Y0243622D01*
X0471662Y0243200D01*
X0489855Y0243200D01*
X0486540Y0246515D01*
X0485200Y0249750D01*
X0485200Y0255512D01*
X0483900Y0258650D01*
X0483900Y0262350D01*
X0485316Y0265768D01*
X0486849Y0267301D01*
X0486819Y0267353D01*
X0486462Y0268213D01*
X0486221Y0269112D01*
X0486100Y0270035D01*
X0486100Y0270500D01*
X0496500Y0270500D01*
X0506900Y0270500D01*
X0506900Y0270965D01*
X0506779Y0271888D01*
X0506538Y0272787D01*
X0506181Y0273647D01*
X0506151Y0273699D01*
X0507684Y0275232D01*
X0509100Y0278650D01*
X0509100Y0282350D01*
X0507684Y0285768D01*
X0505068Y0288384D01*
X0501650Y0289800D01*
X0491350Y0289800D01*
X0490143Y0289300D01*
X0489800Y0289300D01*
X0489800Y0317594D01*
X0490040Y0317015D01*
X0497040Y0310015D01*
X0499515Y0307540D01*
X0502750Y0306200D01*
X0572250Y0306200D01*
X0575485Y0307540D01*
X0582985Y0315040D01*
X0585460Y0317515D01*
X0586800Y0320750D01*
X0586800Y0337355D01*
X0599145Y0349700D01*
X0662855Y0349700D01*
X0677200Y0335355D01*
X0677200Y0312645D01*
X0675855Y0311300D01*
X0670949Y0311300D01*
X0670953Y0311310D01*
X0671184Y0312171D01*
X0671300Y0313054D01*
X0671300Y0313500D01*
X0671300Y0313946D01*
X0671184Y0314829D01*
X0670953Y0315690D01*
X0670612Y0316514D01*
X0670476Y0316749D01*
X0672130Y0318402D01*
X0673500Y0321710D01*
X0673500Y0325290D01*
X0672130Y0328598D01*
X0669598Y0331130D01*
X0666290Y0332500D01*
X0663814Y0332500D01*
X0660782Y0335532D01*
X0658532Y0337782D01*
X0655591Y0339000D01*
X0614737Y0339000D01*
X0614698Y0339039D01*
X0612493Y0339953D01*
X0604988Y0339953D01*
X0602782Y0339039D01*
X0601496Y0337753D01*
X0601260Y0337753D01*
X0601260Y0337517D01*
X0601260Y0337517D01*
X0601260Y0337753D01*
X0598327Y0337753D01*
X0597592Y0337607D01*
X0596901Y0337320D01*
X0596278Y0336904D01*
X0595749Y0336375D01*
X0595333Y0335753D01*
X0595047Y0335061D01*
X0594901Y0334327D01*
X0594901Y0331000D01*
X0600181Y0331000D01*
X0600181Y0331000D01*
X0594901Y0331000D01*
X0594901Y0327673D01*
X0595047Y0326939D01*
X0595333Y0326247D01*
X0595749Y0325625D01*
X0596278Y0325096D01*
X0596901Y0324680D01*
X0597592Y0324393D01*
X0598327Y0324247D01*
X0599300Y0324247D01*
X0599300Y0321739D01*
X0599210Y0321721D01*
X0599000Y0321634D01*
X0598790Y0321721D01*
X0598055Y0321867D01*
X0596500Y0321867D01*
X0596500Y0313736D01*
X0591519Y0313736D01*
X0591519Y0309700D01*
X0584568Y0309700D01*
X0581922Y0308604D01*
X0579896Y0306578D01*
X0579661Y0306343D01*
X0578695Y0305943D01*
X0576557Y0303805D01*
X0575400Y0301012D01*
X0575400Y0261500D01*
X0571272Y0261500D01*
X0566000Y0256228D01*
X0566000Y0253300D01*
X0505752Y0253300D01*
X0507684Y0255232D01*
X0509100Y0258650D01*
X0509100Y0262350D01*
X0507684Y0265768D01*
X0506151Y0267301D01*
X0506181Y0267353D01*
X0506538Y0268213D01*
X0506779Y0269112D01*
X0506900Y0270035D01*
X0506900Y0270500D01*
X0496500Y0270500D01*
X0496500Y0270500D01*
X0496500Y0270500D01*
X0506860Y0269729D02*
X0542200Y0269729D01*
X0542200Y0268749D02*
X0542200Y0272251D01*
X0543106Y0275634D01*
X0544857Y0278666D01*
X0547334Y0281143D01*
X0550366Y0282894D01*
X0553749Y0283800D01*
X0557251Y0283800D01*
X0560634Y0282894D01*
X0563666Y0281143D01*
X0566143Y0278666D01*
X0567894Y0275634D01*
X0568800Y0272251D01*
X0568800Y0268749D01*
X0567894Y0265366D01*
X0566143Y0262334D01*
X0563666Y0259857D01*
X0560634Y0258106D01*
X0557251Y0257200D01*
X0553749Y0257200D01*
X0550366Y0258106D01*
X0547334Y0259857D01*
X0544857Y0262334D01*
X0543106Y0265366D01*
X0542200Y0268749D01*
X0543820Y0264130D02*
X0508363Y0264130D01*
X0509051Y0258532D02*
X0549630Y0258532D01*
X0561370Y0258532D02*
X0568304Y0258532D01*
X0567180Y0264130D02*
X0575400Y0264130D01*
X0575400Y0269729D02*
X0568800Y0269729D01*
X0567976Y0275327D02*
X0575400Y0275327D01*
X0575400Y0280926D02*
X0563883Y0280926D01*
X0575400Y0286524D02*
X0506928Y0286524D01*
X0509100Y0280926D02*
X0547117Y0280926D01*
X0543024Y0275327D02*
X0507724Y0275327D01*
X0496500Y0280500D02*
X0485000Y0280500D01*
X0481000Y0284500D01*
X0481000Y0330000D01*
X0470500Y0340500D01*
X0435657Y0340500D01*
X0433657Y0342500D01*
X0433657Y0358969D01*
X0422657Y0359305D02*
X0263900Y0359305D01*
X0263900Y0353706D02*
X0423363Y0353706D01*
X0424857Y0348108D02*
X0263900Y0348108D01*
X0263900Y0342509D02*
X0275327Y0342509D01*
X0269728Y0336911D02*
X0263900Y0336911D01*
X0263900Y0331312D02*
X0264130Y0331312D01*
X0284200Y0320518D02*
X0287982Y0324300D01*
X0291352Y0324300D01*
X0290962Y0324138D01*
X0288262Y0321438D01*
X0286800Y0317910D01*
X0286800Y0314090D01*
X0288080Y0311000D01*
X0286800Y0307910D01*
X0286800Y0304090D01*
X0288080Y0301000D01*
X0286800Y0297910D01*
X0286800Y0294090D01*
X0288080Y0291000D01*
X0286800Y0287910D01*
X0286800Y0284090D01*
X0287169Y0283200D01*
X0284200Y0283200D01*
X0284200Y0320518D01*
X0284200Y0320115D02*
X0287714Y0320115D01*
X0286800Y0314517D02*
X0284200Y0314517D01*
X0284200Y0308918D02*
X0287218Y0308918D01*
X0287119Y0303320D02*
X0284200Y0303320D01*
X0284200Y0297721D02*
X0286800Y0297721D01*
X0287615Y0292123D02*
X0284200Y0292123D01*
X0284200Y0286524D02*
X0286800Y0286524D01*
X0312831Y0293200D02*
X0313200Y0294090D01*
X0313200Y0297910D01*
X0311920Y0301000D01*
X0313200Y0304090D01*
X0313200Y0307910D01*
X0311920Y0311000D01*
X0313200Y0314090D01*
X0313200Y0317910D01*
X0311738Y0321438D01*
X0309038Y0324138D01*
X0308648Y0324300D01*
X0322518Y0324300D01*
X0338800Y0308018D01*
X0338800Y0285382D01*
X0334104Y0290078D01*
X0332078Y0292104D01*
X0329432Y0293200D01*
X0312831Y0293200D01*
X0313200Y0297721D02*
X0338800Y0297721D01*
X0338800Y0303320D02*
X0312881Y0303320D01*
X0312782Y0308918D02*
X0337900Y0308918D01*
X0332301Y0314517D02*
X0313200Y0314517D01*
X0312286Y0320115D02*
X0326703Y0320115D01*
X0345370Y0331312D02*
X0408681Y0331312D01*
X0407200Y0325714D02*
X0350969Y0325714D01*
X0339772Y0336911D02*
X0422966Y0336911D01*
X0424857Y0342509D02*
X0334173Y0342509D01*
X0263900Y0364903D02*
X0424036Y0364903D01*
X0443279Y0364903D02*
X0446832Y0364903D01*
X0453342Y0364903D02*
X0453343Y0364903D01*
X0453343Y0367768D02*
X0453343Y0358969D01*
X0462143Y0358969D01*
X0462143Y0362614D01*
X0456988Y0367768D01*
X0453343Y0367768D01*
X0459853Y0364903D02*
X0589458Y0364903D01*
X0590515Y0365960D02*
X0588040Y0363485D01*
X0576055Y0351500D01*
X0571272Y0351500D01*
X0567617Y0347845D01*
X0567143Y0348666D01*
X0564666Y0351143D01*
X0561634Y0352894D01*
X0558251Y0353800D01*
X0554749Y0353800D01*
X0551366Y0352894D01*
X0548334Y0351143D01*
X0545857Y0348666D01*
X0544106Y0345634D01*
X0543200Y0342251D01*
X0543200Y0338749D01*
X0544106Y0335366D01*
X0545857Y0332334D01*
X0548334Y0329857D01*
X0551366Y0328106D01*
X0554749Y0327200D01*
X0558251Y0327200D01*
X0561634Y0328106D01*
X0564666Y0329857D01*
X0567143Y0332334D01*
X0568894Y0335366D01*
X0569002Y0335770D01*
X0569200Y0335572D01*
X0569200Y0326145D01*
X0566855Y0323800D01*
X0508145Y0323800D01*
X0507699Y0324246D01*
X0508684Y0325232D01*
X0510100Y0328650D01*
X0510100Y0332350D01*
X0508684Y0335768D01*
X0507151Y0337301D01*
X0507181Y0337353D01*
X0507538Y0338213D01*
X0507779Y0339112D01*
X0507900Y0340035D01*
X0507900Y0340500D01*
X0507900Y0340965D01*
X0507779Y0341888D01*
X0507538Y0342787D01*
X0507181Y0343647D01*
X0507151Y0343699D01*
X0508684Y0345232D01*
X0510100Y0348650D01*
X0510100Y0352350D01*
X0508684Y0355768D01*
X0506068Y0358384D01*
X0502650Y0359800D01*
X0492350Y0359800D01*
X0491143Y0359300D01*
X0478750Y0359300D01*
X0475515Y0357960D01*
X0466855Y0349300D01*
X0442457Y0349300D01*
X0442457Y0352212D01*
X0444657Y0354412D01*
X0444657Y0355208D01*
X0449697Y0350169D01*
X0453342Y0350168D01*
X0453342Y0358968D01*
X0453343Y0358968D01*
X0453343Y0358969D01*
X0453343Y0358968D02*
X0462143Y0358968D01*
X0462143Y0355323D01*
X0456988Y0350169D01*
X0453343Y0350169D01*
X0453343Y0358968D01*
X0453342Y0359305D02*
X0453343Y0359305D01*
X0453342Y0353706D02*
X0453343Y0353706D01*
X0460525Y0353706D02*
X0471261Y0353706D01*
X0480500Y0350500D02*
X0470500Y0340500D01*
X0482945Y0340500D02*
X0484145Y0341700D01*
X0487197Y0341700D01*
X0487100Y0340965D01*
X0487100Y0340500D01*
X0497500Y0340500D01*
X0510500Y0340500D01*
X0520500Y0350500D01*
X0520500Y0355000D01*
X0520500Y0357000D01*
X0505500Y0372000D01*
X0457500Y0372000D01*
X0462143Y0359305D02*
X0491154Y0359305D01*
X0497500Y0350500D02*
X0480500Y0350500D01*
X0482945Y0340500D02*
X0486996Y0336449D01*
X0487849Y0337301D01*
X0487819Y0337353D01*
X0487462Y0338213D01*
X0487221Y0339112D01*
X0487100Y0340035D01*
X0487100Y0340500D01*
X0497500Y0340500D01*
X0507900Y0340500D01*
X0497500Y0340500D01*
X0497500Y0340500D01*
X0497500Y0340500D01*
X0507612Y0342509D02*
X0543269Y0342509D01*
X0543693Y0336911D02*
X0507541Y0336911D01*
X0510100Y0331312D02*
X0546879Y0331312D01*
X0566121Y0331312D02*
X0569200Y0331312D01*
X0568769Y0325714D02*
X0508884Y0325714D01*
X0504500Y0315000D02*
X0497500Y0322000D01*
X0497500Y0330500D01*
X0487458Y0336911D02*
X0486534Y0336911D01*
X0463722Y0331312D02*
X0441590Y0331312D01*
X0436659Y0325714D02*
X0461625Y0325714D01*
X0461625Y0324000D02*
X0461625Y0321007D01*
X0461734Y0320179D01*
X0461625Y0324000D02*
X0468000Y0324000D01*
X0468000Y0315050D01*
X0468000Y0324000D01*
X0468000Y0324000D01*
X0468000Y0324000D01*
X0468000Y0320115D02*
X0468000Y0320115D01*
X0489800Y0314517D02*
X0492538Y0314517D01*
X0489800Y0308918D02*
X0498137Y0308918D01*
X0504500Y0315000D02*
X0570500Y0315000D01*
X0578000Y0322500D01*
X0578000Y0341000D01*
X0595500Y0358500D01*
X0666500Y0358500D01*
X0686000Y0339000D01*
X0686000Y0309000D01*
X0679500Y0302500D01*
X0662500Y0302500D01*
X0661500Y0303500D01*
X0658818Y0294500D02*
X0656710Y0294500D01*
X0653571Y0295800D01*
X0636568Y0295800D01*
X0633922Y0296896D01*
X0631896Y0298922D01*
X0626715Y0304102D01*
X0627200Y0302932D01*
X0627200Y0298753D01*
X0627240Y0298753D01*
X0627240Y0298517D01*
X0627240Y0298517D01*
X0627240Y0298753D01*
X0630173Y0298753D01*
X0630908Y0298607D01*
X0631599Y0298320D01*
X0632222Y0297904D01*
X0632751Y0297375D01*
X0633167Y0296753D01*
X0633453Y0296061D01*
X0633599Y0295327D01*
X0633599Y0292000D01*
X0628319Y0292000D01*
X0628319Y0292000D01*
X0633599Y0292000D01*
X0633599Y0288673D01*
X0633453Y0287939D01*
X0633167Y0287247D01*
X0632751Y0286625D01*
X0632222Y0286096D01*
X0631599Y0285680D01*
X0630908Y0285393D01*
X0630173Y0285247D01*
X0627240Y0285247D01*
X0627240Y0285483D01*
X0627240Y0285483D01*
X0627240Y0285247D01*
X0627004Y0285247D01*
X0626700Y0284943D01*
X0626700Y0283068D01*
X0625604Y0280422D01*
X0623578Y0278396D01*
X0622078Y0276896D01*
X0619432Y0275800D01*
X0613700Y0275800D01*
X0613700Y0234068D01*
X0612604Y0231422D01*
X0600604Y0219422D01*
X0598578Y0217396D01*
X0595932Y0216300D01*
X0347068Y0216300D01*
X0344422Y0217396D01*
X0335422Y0226396D01*
X0333396Y0228422D01*
X0332300Y0231068D01*
X0332300Y0271518D01*
X0325018Y0278800D01*
X0312831Y0278800D01*
X0313200Y0277910D01*
X0313200Y0274090D01*
X0311920Y0271000D01*
X0313200Y0267910D01*
X0313200Y0264090D01*
X0311920Y0261000D01*
X0313200Y0257910D01*
X0313200Y0254090D01*
X0311920Y0251000D01*
X0313200Y0247910D01*
X0313200Y0244090D01*
X0311738Y0240562D01*
X0309038Y0237862D01*
X0305510Y0236400D01*
X0294490Y0236400D01*
X0290962Y0237862D01*
X0288262Y0240562D01*
X0286800Y0244090D01*
X0286800Y0247910D01*
X0287169Y0248800D01*
X0284568Y0248800D01*
X0281922Y0249896D01*
X0265922Y0265896D01*
X0263900Y0267918D01*
X0263900Y0264130D02*
X0267688Y0264130D01*
X0263900Y0258532D02*
X0273286Y0258532D01*
X0278885Y0252933D02*
X0263900Y0252933D01*
X0263900Y0247334D02*
X0286800Y0247334D01*
X0287775Y0241736D02*
X0263900Y0241736D01*
X0263900Y0236137D02*
X0332300Y0236137D01*
X0332519Y0230539D02*
X0263900Y0230539D01*
X0263900Y0224940D02*
X0336877Y0224940D01*
X0342476Y0219342D02*
X0263900Y0219342D01*
X0263900Y0213743D02*
X0701100Y0213743D01*
X0701100Y0219342D02*
X0600524Y0219342D01*
X0606123Y0224940D02*
X0701100Y0224940D01*
X0701100Y0230539D02*
X0611721Y0230539D01*
X0613700Y0236137D02*
X0701100Y0236137D01*
X0701100Y0241736D02*
X0613700Y0241736D01*
X0613700Y0247334D02*
X0701100Y0247334D01*
X0701100Y0252933D02*
X0613700Y0252933D01*
X0613700Y0258532D02*
X0701100Y0258532D01*
X0701100Y0264130D02*
X0613700Y0264130D01*
X0613700Y0269729D02*
X0701100Y0269729D01*
X0701100Y0275327D02*
X0613700Y0275327D01*
X0625813Y0280926D02*
X0701100Y0280926D01*
X0701100Y0286524D02*
X0632650Y0286524D01*
X0633599Y0292123D02*
X0701100Y0292123D01*
X0701100Y0297721D02*
X0687166Y0297721D01*
X0684485Y0295040D02*
X0681250Y0293700D01*
X0660750Y0293700D01*
X0658818Y0294500D01*
X0684485Y0295040D02*
X0693460Y0304015D01*
X0694800Y0307250D01*
X0694800Y0340750D01*
X0693460Y0343985D01*
X0673960Y0363485D01*
X0671485Y0365960D01*
X0668250Y0367300D01*
X0593750Y0367300D01*
X0590515Y0365960D01*
X0583860Y0359305D02*
X0503846Y0359305D01*
X0509538Y0353706D02*
X0554399Y0353706D01*
X0558601Y0353706D02*
X0578261Y0353706D01*
X0567880Y0348108D02*
X0567465Y0348108D01*
X0575000Y0342500D02*
X0576500Y0341000D01*
X0578000Y0341000D01*
X0586800Y0336911D02*
X0596288Y0336911D01*
X0591954Y0342509D02*
X0670046Y0342509D01*
X0675644Y0336911D02*
X0659403Y0336911D01*
X0669158Y0331312D02*
X0677200Y0331312D01*
X0677200Y0325714D02*
X0673325Y0325714D01*
X0672839Y0320115D02*
X0677200Y0320115D01*
X0677200Y0314517D02*
X0671225Y0314517D01*
X0671300Y0313500D02*
X0661500Y0313500D01*
X0661500Y0313500D01*
X0661500Y0313500D01*
X0651700Y0313500D01*
X0651700Y0313946D01*
X0651816Y0314829D01*
X0652047Y0315690D01*
X0652388Y0316514D01*
X0652524Y0316749D01*
X0650870Y0318402D01*
X0649500Y0321710D01*
X0649500Y0323000D01*
X0616233Y0323000D01*
X0617768Y0321466D01*
X0617987Y0320936D01*
X0628696Y0320936D01*
X0631342Y0319840D01*
X0640982Y0310200D01*
X0652472Y0310200D01*
X0652524Y0310251D01*
X0652388Y0310486D01*
X0652047Y0311310D01*
X0651816Y0312171D01*
X0651700Y0313054D01*
X0651700Y0313500D01*
X0661500Y0313500D01*
X0671300Y0313500D01*
X0651775Y0314517D02*
X0636666Y0314517D01*
X0630678Y0320115D02*
X0650161Y0320115D01*
X0627498Y0303320D02*
X0627040Y0303320D01*
X0632405Y0297721D02*
X0633097Y0297721D01*
X0596500Y0313736D02*
X0596500Y0313736D01*
X0596500Y0313736D01*
X0591519Y0313736D01*
X0591519Y0318441D01*
X0591665Y0319175D01*
X0591951Y0319867D01*
X0592367Y0320489D01*
X0592897Y0321019D01*
X0593519Y0321434D01*
X0594210Y0321721D01*
X0594945Y0321867D01*
X0596500Y0321867D01*
X0596500Y0313736D01*
X0596500Y0314517D02*
X0596500Y0314517D01*
X0591519Y0314517D02*
X0582462Y0314517D01*
X0582680Y0308918D02*
X0576863Y0308918D01*
X0576356Y0303320D02*
X0489800Y0303320D01*
X0489800Y0297721D02*
X0575400Y0297721D01*
X0575400Y0292123D02*
X0489800Y0292123D01*
X0472200Y0292123D02*
X0402385Y0292123D01*
X0403200Y0286524D02*
X0472200Y0286524D01*
X0472956Y0280926D02*
X0401951Y0280926D01*
X0403200Y0275327D02*
X0477728Y0275327D01*
X0486140Y0269729D02*
X0402447Y0269729D01*
X0403200Y0264130D02*
X0484637Y0264130D01*
X0483949Y0258532D02*
X0472012Y0258532D01*
X0468000Y0258532D02*
X0468000Y0258532D01*
X0468000Y0252933D02*
X0468000Y0252933D01*
X0474375Y0252933D02*
X0485200Y0252933D01*
X0486200Y0247334D02*
X0474286Y0247334D01*
X0461714Y0247334D02*
X0424575Y0247334D01*
X0424575Y0252933D02*
X0461625Y0252933D01*
X0494000Y0251500D02*
X0501000Y0244500D01*
X0577500Y0244500D01*
X0579750Y0246750D01*
X0579750Y0247250D01*
X0576500Y0250500D01*
X0576500Y0251000D01*
X0575000Y0252500D01*
X0579750Y0246750D02*
X0581500Y0248500D01*
X0496500Y0260500D02*
X0494000Y0258000D01*
X0494000Y0251500D01*
X0408830Y0258532D02*
X0400561Y0258532D01*
X0338800Y0286524D02*
X0337658Y0286524D01*
X0338800Y0292123D02*
X0332033Y0292123D01*
X0328491Y0275327D02*
X0313200Y0275327D01*
X0312447Y0269729D02*
X0332300Y0269729D01*
X0332300Y0264130D02*
X0313200Y0264130D01*
X0312942Y0258532D02*
X0332300Y0258532D01*
X0332300Y0252933D02*
X0312721Y0252933D01*
X0313200Y0247334D02*
X0332300Y0247334D01*
X0332300Y0241736D02*
X0312225Y0241736D01*
X0286800Y0265382D02*
X0283382Y0268800D01*
X0287169Y0268800D01*
X0286800Y0267910D01*
X0286800Y0265382D01*
X0403200Y0297721D02*
X0472200Y0297721D01*
X0472200Y0303320D02*
X0402881Y0303320D01*
X0416000Y0324000D02*
X0422500Y0324000D01*
X0433657Y0335157D01*
X0433657Y0342500D01*
X0443952Y0353706D02*
X0446160Y0353706D01*
X0509875Y0348108D02*
X0545535Y0348108D01*
X0586800Y0331312D02*
X0594901Y0331312D01*
X0595690Y0325714D02*
X0586800Y0325714D01*
X0586537Y0320115D02*
X0592117Y0320115D01*
X0596500Y0320115D02*
X0596500Y0320115D01*
X0597553Y0348108D02*
X0664447Y0348108D01*
X0678140Y0359305D02*
X0701100Y0359305D01*
X0701100Y0353706D02*
X0683739Y0353706D01*
X0689337Y0348108D02*
X0701100Y0348108D01*
X0701100Y0342509D02*
X0694071Y0342509D01*
X0694800Y0336911D02*
X0701100Y0336911D01*
X0701100Y0331312D02*
X0694800Y0331312D01*
X0694800Y0325714D02*
X0701100Y0325714D01*
X0701100Y0320115D02*
X0694800Y0320115D01*
X0694800Y0314517D02*
X0701100Y0314517D01*
X0701100Y0308918D02*
X0694800Y0308918D01*
X0692765Y0303320D02*
X0701100Y0303320D01*
X0701100Y0364903D02*
X0672542Y0364903D01*
X0701100Y0370502D02*
X0263900Y0370502D01*
D19*
X0280500Y0337500D02*
X0329000Y0337500D01*
X0352500Y0314000D01*
X0352500Y0240500D01*
X0357000Y0236000D01*
X0588500Y0236000D01*
X0596500Y0244000D01*
X0596500Y0293264D01*
X0601500Y0293264D02*
X0601500Y0238500D01*
X0592000Y0229000D01*
X0352500Y0229000D01*
X0346000Y0235500D01*
X0346000Y0311000D01*
X0325500Y0331500D01*
X0285000Y0331500D01*
X0277000Y0323500D01*
X0277000Y0280000D01*
X0281000Y0276000D01*
X0300000Y0276000D01*
X0300000Y0286000D02*
X0328000Y0286000D01*
X0339500Y0274500D01*
X0339500Y0232500D01*
X0348500Y0223500D01*
X0594500Y0223500D01*
X0606500Y0235500D01*
X0606500Y0293264D01*
X0611500Y0293264D02*
X0611500Y0285500D01*
X0614000Y0283000D01*
X0618000Y0283000D01*
X0619500Y0284500D01*
X0619500Y0291740D01*
X0619760Y0292000D01*
X0620000Y0292240D01*
X0620000Y0301500D01*
X0619000Y0302500D01*
X0586000Y0302500D01*
X0583000Y0299500D01*
X0571500Y0305500D02*
X0525000Y0305500D01*
X0515000Y0295500D01*
X0515000Y0274500D01*
X0511000Y0270500D01*
X0496500Y0270500D01*
X0571500Y0305500D02*
X0579736Y0313736D01*
X0596500Y0313736D01*
X0596500Y0322500D01*
X0597000Y0323000D01*
X0601500Y0323000D01*
X0601500Y0313736D01*
X0606500Y0313736D02*
X0606500Y0323500D01*
X0608500Y0325500D01*
X0608500Y0330760D01*
X0608740Y0331000D01*
X0601500Y0330760D02*
X0601500Y0323000D01*
X0601500Y0330760D02*
X0601260Y0331000D01*
X0601000Y0331260D01*
X0601000Y0335000D01*
X0605000Y0339000D01*
X0669000Y0339000D01*
X0676000Y0332000D01*
X0676000Y0321000D01*
X0668500Y0313500D01*
X0661500Y0313500D01*
X0661500Y0303500D02*
X0661000Y0303000D01*
X0638000Y0303000D01*
X0627264Y0313736D01*
X0611500Y0313736D01*
X0627240Y0292000D02*
X0690000Y0292000D01*
X0698500Y0300500D01*
X0698500Y0346500D01*
X0688000Y0357000D01*
X0522500Y0357000D02*
X0520500Y0355000D01*
X0416000Y0251000D02*
X0411000Y0246000D01*
X0390000Y0246000D01*
X0300000Y0256000D02*
X0286000Y0256000D01*
X0270000Y0272000D01*
X0270000Y0327000D01*
X0280500Y0337500D01*
D20*
X0608740Y0331000D02*
X0654000Y0331000D01*
X0661500Y0323500D01*
D21*
X0583000Y0299500D02*
X0583000Y0250000D01*
X0581500Y0248500D01*
M02*
