%
M48
M72
T01C0.02362
T02C0.04000
%
T01
X33100Y30100
X33100Y39100
X35100Y19600
X57600Y29600
X60600Y45100
X58100Y61100
X82600Y49600
X86100Y67600
X78100Y24600
T02
X68600Y18600
X58600Y18600
X48600Y18600
X14600Y48100
X14600Y58100
X14600Y68100
X14600Y78100
X14600Y88100
X14600Y98100
X14600Y108100
X14600Y118100
X104600Y118100
X104600Y108100
X104600Y98100
X104600Y88100
X104600Y78100
X104600Y68100
X104600Y58100
X104600Y48100
M30
