G75*
%MOIN*%
%OFA0B0*%
%FSLAX25Y25*%
%IPPOS*%
%LPD*%
%AMOC8*
5,1,8,0,0,1.08239X$1,22.5*
%
%ADD10C,0.03200*%
%ADD11C,0.00200*%
%ADD12C,0.00600*%
%ADD13C,0.00500*%
%ADD14C,0.00400*%
%ADD15C,0.00800*%
D10*
X0002600Y0002600D02*
X0116773Y0002600D01*
X0116773Y0128584D01*
X0002600Y0128584D01*
X0002600Y0002600D01*
D11*
X0020167Y0046700D02*
X0019700Y0047167D01*
X0020167Y0046700D02*
X0021101Y0046700D01*
X0021568Y0047167D01*
X0021568Y0047634D01*
X0021101Y0048101D01*
X0020634Y0048101D01*
X0021101Y0048101D02*
X0021568Y0048568D01*
X0021568Y0049035D01*
X0021101Y0049502D01*
X0020167Y0049502D01*
X0019700Y0049035D01*
X0022462Y0049502D02*
X0022462Y0047634D01*
X0023396Y0046700D01*
X0024331Y0047634D01*
X0024331Y0049502D01*
X0025225Y0049035D02*
X0025692Y0049502D01*
X0026626Y0049502D01*
X0027093Y0049035D01*
X0027093Y0048568D01*
X0026626Y0048101D01*
X0027093Y0047634D01*
X0027093Y0047167D01*
X0026626Y0046700D01*
X0025692Y0046700D01*
X0025225Y0047167D01*
X0026159Y0048101D02*
X0026626Y0048101D01*
X0023864Y0056700D02*
X0022929Y0056700D01*
X0022462Y0057167D01*
X0022462Y0057634D01*
X0022929Y0058101D01*
X0023864Y0058101D01*
X0024331Y0057634D01*
X0024331Y0057167D01*
X0023864Y0056700D01*
X0023864Y0058101D02*
X0024331Y0058568D01*
X0024331Y0059035D01*
X0023864Y0059502D01*
X0022929Y0059502D01*
X0022462Y0059035D01*
X0022462Y0058568D01*
X0022929Y0058101D01*
X0021568Y0057167D02*
X0021568Y0059035D01*
X0021101Y0059502D01*
X0019700Y0059502D01*
X0019700Y0056700D01*
X0021101Y0056700D01*
X0021568Y0057167D01*
X0021101Y0066700D02*
X0019700Y0066700D01*
X0019700Y0069502D01*
X0021101Y0069502D01*
X0021568Y0069035D01*
X0021568Y0067167D01*
X0021101Y0066700D01*
X0022462Y0066700D02*
X0022462Y0067167D01*
X0024331Y0069035D01*
X0024331Y0069502D01*
X0022462Y0069502D01*
X0022929Y0076700D02*
X0022462Y0077167D01*
X0022462Y0078101D01*
X0023864Y0078101D01*
X0024331Y0077634D01*
X0024331Y0077167D01*
X0023864Y0076700D01*
X0022929Y0076700D01*
X0021568Y0077167D02*
X0021568Y0079035D01*
X0021101Y0079502D01*
X0019700Y0079502D01*
X0019700Y0076700D01*
X0021101Y0076700D01*
X0021568Y0077167D01*
X0022462Y0078101D02*
X0023396Y0079035D01*
X0024331Y0079502D01*
X0023864Y0086700D02*
X0022929Y0086700D01*
X0022462Y0087167D01*
X0021568Y0087167D02*
X0021568Y0089035D01*
X0021101Y0089502D01*
X0019700Y0089502D01*
X0019700Y0086700D01*
X0021101Y0086700D01*
X0021568Y0087167D01*
X0022462Y0088101D02*
X0023396Y0088568D01*
X0023864Y0088568D01*
X0024331Y0088101D01*
X0024331Y0087167D01*
X0023864Y0086700D01*
X0022462Y0088101D02*
X0022462Y0089502D01*
X0024331Y0089502D01*
X0023864Y0096700D02*
X0022929Y0096700D01*
X0022462Y0097167D01*
X0024331Y0099035D01*
X0024331Y0097167D01*
X0023864Y0096700D01*
X0022462Y0097167D02*
X0022462Y0099035D01*
X0022929Y0099502D01*
X0023864Y0099502D01*
X0024331Y0099035D01*
X0021568Y0099035D02*
X0021568Y0097167D01*
X0021101Y0096700D01*
X0019700Y0096700D01*
X0019700Y0099502D01*
X0021101Y0099502D01*
X0021568Y0099035D01*
X0021568Y0106700D02*
X0021568Y0108568D01*
X0020634Y0109502D01*
X0019700Y0108568D01*
X0019700Y0106700D01*
X0019700Y0108101D02*
X0021568Y0108101D01*
X0022462Y0107167D02*
X0024331Y0109035D01*
X0024331Y0107167D01*
X0023864Y0106700D01*
X0022929Y0106700D01*
X0022462Y0107167D01*
X0022462Y0109035D01*
X0022929Y0109502D01*
X0023864Y0109502D01*
X0024331Y0109035D01*
X0023864Y0116700D02*
X0022929Y0116700D01*
X0022462Y0117167D01*
X0021568Y0116700D02*
X0020634Y0117634D01*
X0021101Y0117634D02*
X0019700Y0117634D01*
X0019700Y0116700D02*
X0019700Y0119502D01*
X0021101Y0119502D01*
X0021568Y0119035D01*
X0021568Y0118101D01*
X0021101Y0117634D01*
X0022462Y0118568D02*
X0022929Y0118101D01*
X0023864Y0118101D01*
X0024331Y0117634D01*
X0024331Y0117167D01*
X0023864Y0116700D01*
X0026159Y0116700D02*
X0026159Y0119502D01*
X0025225Y0119502D02*
X0027093Y0119502D01*
X0024331Y0119035D02*
X0023864Y0119502D01*
X0022929Y0119502D01*
X0022462Y0119035D01*
X0022462Y0118568D01*
X0091413Y0059035D02*
X0091413Y0057167D01*
X0091880Y0056700D01*
X0092814Y0056700D01*
X0093281Y0057167D01*
X0093281Y0058101D01*
X0092347Y0058101D01*
X0091413Y0059035D02*
X0091880Y0059502D01*
X0092814Y0059502D01*
X0093281Y0059035D01*
X0094175Y0059502D02*
X0096044Y0056700D01*
X0096044Y0059502D01*
X0096938Y0059502D02*
X0098339Y0059502D01*
X0098806Y0059035D01*
X0098806Y0057167D01*
X0098339Y0056700D01*
X0096938Y0056700D01*
X0096938Y0059502D01*
X0094175Y0059502D02*
X0094175Y0056700D01*
X0094175Y0049502D02*
X0094175Y0048101D01*
X0095109Y0048568D01*
X0095576Y0048568D01*
X0096044Y0048101D01*
X0096044Y0047167D01*
X0095576Y0046700D01*
X0094642Y0046700D01*
X0094175Y0047167D01*
X0094175Y0049502D02*
X0096044Y0049502D01*
X0096938Y0049502D02*
X0096938Y0047634D01*
X0097872Y0046700D01*
X0098806Y0047634D01*
X0098806Y0049502D01*
X0098339Y0066700D02*
X0098339Y0069502D01*
X0096938Y0068101D01*
X0098806Y0068101D01*
X0096044Y0067167D02*
X0095576Y0066700D01*
X0094175Y0066700D01*
X0094175Y0069502D01*
X0095576Y0069502D01*
X0096044Y0069035D01*
X0096044Y0067167D01*
X0095576Y0076700D02*
X0094175Y0076700D01*
X0094175Y0079502D01*
X0095576Y0079502D01*
X0096044Y0079035D01*
X0096044Y0077167D01*
X0095576Y0076700D01*
X0096938Y0077167D02*
X0097405Y0076700D01*
X0098339Y0076700D01*
X0098806Y0077167D01*
X0098806Y0077634D01*
X0098339Y0078101D01*
X0097872Y0078101D01*
X0098339Y0078101D02*
X0098806Y0078568D01*
X0098806Y0079035D01*
X0098339Y0079502D01*
X0097405Y0079502D01*
X0096938Y0079035D01*
X0096938Y0086700D02*
X0098806Y0088568D01*
X0098806Y0089035D01*
X0098339Y0089502D01*
X0097405Y0089502D01*
X0096938Y0089035D01*
X0096044Y0089035D02*
X0096044Y0087167D01*
X0095576Y0086700D01*
X0094175Y0086700D01*
X0094175Y0089502D01*
X0095576Y0089502D01*
X0096044Y0089035D01*
X0096938Y0086700D02*
X0098806Y0086700D01*
X0098806Y0096700D02*
X0096938Y0096700D01*
X0097872Y0096700D02*
X0097872Y0099502D01*
X0096938Y0098568D01*
X0096044Y0099035D02*
X0096044Y0097167D01*
X0095576Y0096700D01*
X0094175Y0096700D01*
X0094175Y0099502D01*
X0095576Y0099502D01*
X0096044Y0099035D01*
X0096044Y0106700D02*
X0095109Y0107634D01*
X0095576Y0107634D02*
X0094175Y0107634D01*
X0094175Y0106700D02*
X0094175Y0109502D01*
X0095576Y0109502D01*
X0096044Y0109035D01*
X0096044Y0108101D01*
X0095576Y0107634D01*
X0096938Y0106700D02*
X0098806Y0109502D01*
X0096938Y0109502D02*
X0098806Y0106700D01*
X0098806Y0116700D02*
X0096938Y0119502D01*
X0096044Y0119502D02*
X0094175Y0119502D01*
X0095109Y0119502D02*
X0095109Y0116700D01*
X0096938Y0116700D02*
X0098806Y0119502D01*
D12*
X0071100Y0023600D02*
X0066100Y0023600D01*
X0063600Y0021100D01*
X0061100Y0023600D01*
X0056100Y0023600D01*
X0053600Y0021100D01*
X0051100Y0023600D01*
X0046100Y0023600D01*
X0043600Y0021100D01*
X0043600Y0016100D01*
X0046100Y0013600D01*
X0051100Y0013600D01*
X0053600Y0016100D01*
X0056100Y0013600D01*
X0061100Y0013600D01*
X0063600Y0016100D01*
X0066100Y0013600D01*
X0071100Y0013600D01*
X0073600Y0016100D01*
X0073600Y0021100D01*
X0071100Y0023600D01*
D13*
X0074246Y0019353D02*
X0075747Y0020854D01*
X0075747Y0016350D01*
X0074246Y0016350D02*
X0077249Y0016350D01*
D14*
X0098937Y0028685D02*
X0100472Y0027150D01*
X0102006Y0028685D01*
X0102006Y0031754D01*
X0103541Y0030987D02*
X0103541Y0027918D01*
X0104308Y0027150D01*
X0105843Y0027150D01*
X0106610Y0027918D01*
X0108145Y0027918D02*
X0108912Y0027150D01*
X0110447Y0027150D01*
X0111214Y0027918D01*
X0111214Y0030987D02*
X0110447Y0031754D01*
X0108912Y0031754D01*
X0108145Y0030987D01*
X0108145Y0027918D01*
X0106610Y0030987D02*
X0105843Y0031754D01*
X0104308Y0031754D01*
X0103541Y0030987D01*
X0098937Y0031754D02*
X0098937Y0028685D01*
X0100204Y0020254D02*
X0099437Y0019487D01*
X0099437Y0016418D01*
X0100204Y0015650D01*
X0101739Y0015650D01*
X0102506Y0016418D01*
X0102506Y0017952D01*
X0100972Y0017952D01*
X0102506Y0019487D02*
X0101739Y0020254D01*
X0100204Y0020254D01*
X0104041Y0020254D02*
X0104041Y0015650D01*
X0107110Y0015650D02*
X0107110Y0020254D01*
X0108645Y0020254D02*
X0110947Y0020254D01*
X0111714Y0019487D01*
X0111714Y0016418D01*
X0110947Y0015650D01*
X0108645Y0015650D01*
X0108645Y0020254D01*
X0104041Y0020254D02*
X0107110Y0015650D01*
X0077973Y0045067D02*
X0077206Y0044300D01*
X0075671Y0044300D01*
X0074904Y0045067D01*
X0073369Y0045067D02*
X0072602Y0044300D01*
X0071067Y0044300D01*
X0070300Y0045067D01*
X0070300Y0048137D01*
X0071067Y0048904D01*
X0072602Y0048904D01*
X0073369Y0048137D01*
X0074904Y0048137D02*
X0075671Y0048904D01*
X0077206Y0048904D01*
X0077973Y0048137D01*
X0077973Y0047369D01*
X0077206Y0046602D01*
X0077973Y0045835D01*
X0077973Y0045067D01*
X0077206Y0046602D02*
X0076439Y0046602D01*
X0054973Y0047869D02*
X0054973Y0048637D01*
X0054206Y0049404D01*
X0052671Y0049404D01*
X0051904Y0048637D01*
X0050369Y0048637D02*
X0049602Y0049404D01*
X0048067Y0049404D01*
X0047300Y0048637D01*
X0047300Y0045567D01*
X0048067Y0044800D01*
X0049602Y0044800D01*
X0050369Y0045567D01*
X0051904Y0044800D02*
X0054973Y0047869D01*
X0054973Y0044800D02*
X0051904Y0044800D01*
X0036973Y0045869D02*
X0036973Y0046637D01*
X0036206Y0047404D01*
X0034671Y0047404D01*
X0033904Y0046637D01*
X0032369Y0046637D02*
X0032369Y0045102D01*
X0031602Y0044335D01*
X0029300Y0044335D01*
X0030835Y0044335D02*
X0032369Y0042800D01*
X0033904Y0042800D02*
X0036973Y0045869D01*
X0036973Y0042800D02*
X0033904Y0042800D01*
X0032369Y0046637D02*
X0031602Y0047404D01*
X0029300Y0047404D01*
X0029300Y0042800D01*
X0054800Y0080800D02*
X0054800Y0085404D01*
X0057102Y0085404D01*
X0057869Y0084637D01*
X0057869Y0083102D01*
X0057102Y0082335D01*
X0054800Y0082335D01*
X0056335Y0082335D02*
X0057869Y0080800D01*
X0059404Y0080800D02*
X0062473Y0080800D01*
X0060939Y0080800D02*
X0060939Y0085404D01*
X0059404Y0083869D01*
X0065853Y0083001D02*
X0067722Y0083001D01*
X0067255Y0081600D02*
X0067255Y0084402D01*
X0065853Y0083001D01*
X0074023Y0089600D02*
X0075557Y0089600D01*
X0074790Y0089600D02*
X0074790Y0094204D01*
X0074023Y0094204D02*
X0075557Y0094204D01*
X0077092Y0093437D02*
X0077092Y0090367D01*
X0077859Y0089600D01*
X0079394Y0089600D01*
X0080161Y0090367D01*
X0081696Y0091902D02*
X0084765Y0091902D01*
X0083998Y0094204D02*
X0081696Y0091902D01*
X0080161Y0093437D02*
X0079394Y0094204D01*
X0077859Y0094204D01*
X0077092Y0093437D01*
X0083998Y0094204D02*
X0083998Y0089600D01*
X0086946Y0108600D02*
X0088815Y0108600D01*
X0087881Y0108600D02*
X0087881Y0111402D01*
X0086946Y0110468D01*
X0080303Y0110505D02*
X0080303Y0110972D01*
X0079836Y0111439D01*
X0078902Y0111439D01*
X0078435Y0110972D01*
X0080303Y0110505D02*
X0078435Y0108637D01*
X0080303Y0108637D01*
X0071203Y0109067D02*
X0070736Y0108600D01*
X0069802Y0108600D01*
X0069335Y0109067D01*
X0070269Y0110001D02*
X0070736Y0110001D01*
X0071203Y0109534D01*
X0071203Y0109067D01*
X0070736Y0110001D02*
X0071203Y0110468D01*
X0071203Y0110935D01*
X0070736Y0111402D01*
X0069802Y0111402D01*
X0069335Y0110935D01*
X0056315Y0109600D02*
X0054446Y0109600D01*
X0055381Y0109600D02*
X0055381Y0112402D01*
X0054446Y0111468D01*
X0047803Y0111505D02*
X0047803Y0111972D01*
X0047336Y0112439D01*
X0046402Y0112439D01*
X0045935Y0111972D01*
X0047803Y0111505D02*
X0045935Y0109637D01*
X0047803Y0109637D01*
X0038703Y0110067D02*
X0038236Y0109600D01*
X0037302Y0109600D01*
X0036835Y0110067D01*
X0037769Y0111001D02*
X0038236Y0111001D01*
X0038703Y0110534D01*
X0038703Y0110067D01*
X0038236Y0111001D02*
X0038703Y0111468D01*
X0038703Y0111935D01*
X0038236Y0112402D01*
X0037302Y0112402D01*
X0036835Y0111935D01*
X0041523Y0095204D02*
X0043057Y0095204D01*
X0042290Y0095204D02*
X0042290Y0090600D01*
X0041523Y0090600D02*
X0043057Y0090600D01*
X0044592Y0091367D02*
X0045359Y0090600D01*
X0046894Y0090600D01*
X0047661Y0091367D01*
X0049196Y0090600D02*
X0052265Y0093669D01*
X0052265Y0094437D01*
X0051498Y0095204D01*
X0049963Y0095204D01*
X0049196Y0094437D01*
X0047661Y0094437D02*
X0046894Y0095204D01*
X0045359Y0095204D01*
X0044592Y0094437D01*
X0044592Y0091367D01*
X0049196Y0090600D02*
X0052265Y0090600D01*
X0034755Y0085402D02*
X0034755Y0082600D01*
X0035222Y0084001D02*
X0033353Y0084001D01*
X0034755Y0085402D01*
D15*
X0030700Y0088600D02*
X0056500Y0088600D01*
X0056500Y0102600D01*
X0030700Y0102600D01*
X0030700Y0088600D01*
X0063200Y0087600D02*
X0089000Y0087600D01*
X0089000Y0101600D01*
X0063200Y0101600D01*
X0063200Y0087600D01*
M02*
