G75*
%MOIN*%
%OFA0B0*%
%FSLAX25Y25*%
%IPPOS*%
%LPD*%
%AMOC8*
5,1,8,0,0,1.08239X$1,22.5*
%
%ADD10C,0.03200*%
%ADD11C,0.08000*%
%ADD12C,0.06800*%
%ADD13R,0.06706X0.05918*%
%ADD14R,0.05600X0.09600*%
%ADD15R,0.14973X0.09461*%
%ADD16R,0.05918X0.07099*%
%ADD17R,0.05918X0.06706*%
%ADD18R,0.12611X0.06154*%
%ADD19C,0.04762*%
D10*
X0002600Y0002600D02*
X0116773Y0002600D01*
X0116773Y0128584D01*
X0002600Y0128584D01*
X0002600Y0002600D01*
D11*
X0011000Y0048100D02*
X0018200Y0048100D01*
X0018200Y0058100D02*
X0011000Y0058100D01*
X0011000Y0068100D02*
X0018200Y0068100D01*
X0018200Y0078100D02*
X0011000Y0078100D01*
X0011000Y0088100D02*
X0018200Y0088100D01*
X0018200Y0098100D02*
X0011000Y0098100D01*
X0011000Y0108100D02*
X0018200Y0108100D01*
X0018200Y0118100D02*
X0011000Y0118100D01*
X0101000Y0118100D02*
X0108200Y0118100D01*
X0108200Y0108100D02*
X0101000Y0108100D01*
X0101000Y0098100D02*
X0108200Y0098100D01*
X0108200Y0088100D02*
X0101000Y0088100D01*
X0101000Y0078100D02*
X0108200Y0078100D01*
X0108200Y0068100D02*
X0101000Y0068100D01*
X0101000Y0058100D02*
X0108200Y0058100D01*
X0108200Y0048100D02*
X0101000Y0048100D01*
D12*
X0068600Y0021600D02*
X0068600Y0015600D01*
X0058600Y0015600D02*
X0058600Y0021600D01*
X0048600Y0021600D02*
X0048600Y0015600D01*
D13*
X0051600Y0053860D03*
X0051600Y0061340D03*
D14*
X0067000Y0106800D03*
X0076100Y0106800D03*
X0085200Y0106800D03*
X0052700Y0107800D03*
X0043600Y0107800D03*
X0034500Y0107800D03*
D15*
X0043600Y0083399D03*
X0076100Y0082399D03*
D16*
X0063340Y0075600D03*
X0055860Y0075600D03*
X0024840Y0037100D03*
X0017360Y0037100D03*
D17*
X0071360Y0039100D03*
X0078840Y0039100D03*
D18*
X0103100Y0035100D03*
X0103600Y0023600D03*
D19*
X0082600Y0049600D03*
X0086100Y0067600D03*
X0060600Y0045100D03*
X0057600Y0029600D03*
X0078100Y0024600D03*
X0058100Y0061100D03*
X0033100Y0039100D03*
X0033100Y0030100D03*
X0035100Y0019600D03*
M02*
