G75*
%MOIN*%
%OFA0B0*%
%FSLAX25Y25*%
%IPPOS*%
%LPD*%
%AMOC8*
5,1,8,0,0,1.08239X$1,22.5*
%
%ADD10C,0.03200*%
%ADD11C,0.07200*%
%ADD12R,0.02362X0.08661*%
%ADD13C,0.06000*%
%ADD14R,0.05118X0.05906*%
%ADD15C,0.01000*%
%ADD16C,0.02400*%
%ADD17C,0.04000*%
%ADD18C,0.03962*%
%ADD19C,0.01600*%
D10*
X0002600Y0002600D02*
X0116773Y0002600D01*
X0116773Y0128584D01*
X0002600Y0128584D01*
X0002600Y0002600D01*
D11*
X0011000Y0048100D02*
X0018200Y0048100D01*
X0018200Y0058100D02*
X0011000Y0058100D01*
X0011000Y0068100D02*
X0018200Y0068100D01*
X0018200Y0078100D02*
X0011000Y0078100D01*
X0011000Y0088100D02*
X0018200Y0088100D01*
X0018200Y0098100D02*
X0011000Y0098100D01*
X0011000Y0108100D02*
X0018200Y0108100D01*
X0018200Y0118100D02*
X0011000Y0118100D01*
X0101000Y0118100D02*
X0108200Y0118100D01*
X0108200Y0108100D02*
X0101000Y0108100D01*
X0101000Y0098100D02*
X0108200Y0098100D01*
X0108200Y0088100D02*
X0101000Y0088100D01*
X0101000Y0078100D02*
X0108200Y0078100D01*
X0108200Y0068100D02*
X0101000Y0068100D01*
X0101000Y0058100D02*
X0108200Y0058100D01*
X0108200Y0048100D02*
X0101000Y0048100D01*
D12*
X0054100Y0040364D03*
X0049100Y0040364D03*
X0044100Y0040364D03*
X0039100Y0040364D03*
X0039100Y0060836D03*
X0044100Y0060836D03*
X0049100Y0060836D03*
X0054100Y0060836D03*
D13*
X0058600Y0021600D02*
X0058600Y0015600D01*
X0068600Y0015600D02*
X0068600Y0021600D01*
X0048600Y0021600D02*
X0048600Y0015600D01*
D14*
X0048840Y0029600D03*
X0041360Y0029600D03*
D15*
X0040860Y0029560D02*
X0008700Y0029560D01*
X0008700Y0030558D02*
X0037301Y0030558D01*
X0037301Y0030100D02*
X0040860Y0030100D01*
X0040860Y0034053D01*
X0038603Y0034053D01*
X0038222Y0033951D01*
X0037880Y0033753D01*
X0037600Y0033474D01*
X0037403Y0033132D01*
X0037301Y0032750D01*
X0037301Y0030100D01*
X0037301Y0029100D02*
X0037301Y0026450D01*
X0037403Y0026068D01*
X0037600Y0025726D01*
X0037880Y0025447D01*
X0038222Y0025249D01*
X0038603Y0025147D01*
X0040860Y0025147D01*
X0040860Y0029100D01*
X0041860Y0029100D01*
X0041860Y0025147D01*
X0044116Y0025147D01*
X0044498Y0025249D01*
X0044840Y0025447D01*
X0045100Y0025707D01*
X0045100Y0024464D01*
X0044785Y0024149D01*
X0044100Y0022495D01*
X0044100Y0014705D01*
X0044785Y0013051D01*
X0046051Y0011785D01*
X0047705Y0011100D01*
X0049495Y0011100D01*
X0051149Y0011785D01*
X0052415Y0013051D01*
X0053100Y0014705D01*
X0053100Y0022495D01*
X0052415Y0024149D01*
X0052100Y0024464D01*
X0052100Y0025227D01*
X0052899Y0026026D01*
X0052899Y0033174D01*
X0052021Y0034053D01*
X0051800Y0034053D01*
X0051800Y0035031D01*
X0052298Y0034533D01*
X0055902Y0034533D01*
X0056781Y0035412D01*
X0056781Y0037400D01*
X0057482Y0037400D01*
X0065900Y0028982D01*
X0065900Y0025264D01*
X0064785Y0024149D01*
X0064100Y0022495D01*
X0064100Y0014705D01*
X0064785Y0013051D01*
X0066051Y0011785D01*
X0067705Y0011100D01*
X0069495Y0011100D01*
X0071149Y0011785D01*
X0072415Y0013051D01*
X0073100Y0014705D01*
X0073100Y0022495D01*
X0072415Y0024149D01*
X0071300Y0025264D01*
X0071300Y0030637D01*
X0070889Y0031629D01*
X0060889Y0041629D01*
X0060129Y0042389D01*
X0059137Y0042800D01*
X0056781Y0042800D01*
X0056781Y0045316D01*
X0055902Y0046194D01*
X0052298Y0046194D01*
X0051600Y0045497D01*
X0050902Y0046194D01*
X0047298Y0046194D01*
X0046568Y0045465D01*
X0046481Y0045616D01*
X0046202Y0045895D01*
X0045860Y0046092D01*
X0045479Y0046194D01*
X0044191Y0046194D01*
X0044191Y0040454D01*
X0044009Y0040454D01*
X0044009Y0040273D01*
X0039191Y0040273D01*
X0039191Y0040454D01*
X0041781Y0040454D01*
X0044009Y0040454D01*
X0044009Y0046194D01*
X0042721Y0046194D01*
X0042340Y0046092D01*
X0041998Y0045895D01*
X0041719Y0045616D01*
X0041600Y0045410D01*
X0041481Y0045616D01*
X0041202Y0045895D01*
X0040860Y0046092D01*
X0040479Y0046194D01*
X0039191Y0046194D01*
X0039191Y0040454D01*
X0039009Y0040454D01*
X0039009Y0040273D01*
X0036419Y0040273D01*
X0036419Y0035836D01*
X0036521Y0035454D01*
X0036719Y0035112D01*
X0036998Y0034833D01*
X0037340Y0034635D01*
X0037721Y0034533D01*
X0039009Y0034533D01*
X0039009Y0040273D01*
X0039191Y0040273D01*
X0039191Y0034533D01*
X0040479Y0034533D01*
X0040860Y0034635D01*
X0041202Y0034833D01*
X0041481Y0035112D01*
X0041600Y0035317D01*
X0041719Y0035112D01*
X0041998Y0034833D01*
X0042340Y0034635D01*
X0042721Y0034533D01*
X0044009Y0034533D01*
X0044009Y0040273D01*
X0044191Y0040273D01*
X0044191Y0034533D01*
X0045479Y0034533D01*
X0045860Y0034635D01*
X0046202Y0034833D01*
X0046400Y0035031D01*
X0046400Y0034053D01*
X0045660Y0034053D01*
X0045100Y0033493D01*
X0044840Y0033753D01*
X0044498Y0033951D01*
X0044116Y0034053D01*
X0041860Y0034053D01*
X0041860Y0030100D01*
X0040860Y0030100D01*
X0040860Y0029100D01*
X0037301Y0029100D01*
X0037301Y0028561D02*
X0008700Y0028561D01*
X0008700Y0027563D02*
X0037301Y0027563D01*
X0037301Y0026564D02*
X0008700Y0026564D01*
X0008700Y0025566D02*
X0037761Y0025566D01*
X0040860Y0025566D02*
X0041860Y0025566D01*
X0041860Y0026564D02*
X0040860Y0026564D01*
X0040860Y0027563D02*
X0041860Y0027563D01*
X0041860Y0028561D02*
X0040860Y0028561D01*
X0040860Y0030558D02*
X0041860Y0030558D01*
X0041860Y0031557D02*
X0040860Y0031557D01*
X0040860Y0032555D02*
X0041860Y0032555D01*
X0041860Y0033554D02*
X0040860Y0033554D01*
X0040551Y0034552D02*
X0042649Y0034552D01*
X0044009Y0034552D02*
X0044191Y0034552D01*
X0044191Y0035551D02*
X0044009Y0035551D01*
X0044009Y0036549D02*
X0044191Y0036549D01*
X0044191Y0037548D02*
X0044009Y0037548D01*
X0044009Y0038546D02*
X0044191Y0038546D01*
X0044191Y0039545D02*
X0044009Y0039545D01*
X0044009Y0040543D02*
X0044191Y0040543D01*
X0044191Y0041542D02*
X0044009Y0041542D01*
X0044009Y0042540D02*
X0044191Y0042540D01*
X0044191Y0043539D02*
X0044009Y0043539D01*
X0044009Y0044537D02*
X0044191Y0044537D01*
X0044191Y0045536D02*
X0044009Y0045536D01*
X0041673Y0045536D02*
X0041527Y0045536D01*
X0039191Y0045536D02*
X0039009Y0045536D01*
X0039009Y0046194D02*
X0037721Y0046194D01*
X0037340Y0046092D01*
X0036998Y0045895D01*
X0036719Y0045616D01*
X0036521Y0045273D01*
X0036419Y0044892D01*
X0036419Y0040454D01*
X0039009Y0040454D01*
X0039009Y0046194D01*
X0039009Y0044537D02*
X0039191Y0044537D01*
X0039191Y0043539D02*
X0039009Y0043539D01*
X0039009Y0042540D02*
X0039191Y0042540D01*
X0039191Y0041542D02*
X0039009Y0041542D01*
X0039009Y0040543D02*
X0039191Y0040543D01*
X0039191Y0039545D02*
X0039009Y0039545D01*
X0039009Y0038546D02*
X0039191Y0038546D01*
X0039191Y0037548D02*
X0039009Y0037548D01*
X0039009Y0036549D02*
X0039191Y0036549D01*
X0039191Y0035551D02*
X0039009Y0035551D01*
X0039009Y0034552D02*
X0039191Y0034552D01*
X0037649Y0034552D02*
X0008700Y0034552D01*
X0008700Y0033554D02*
X0037681Y0033554D01*
X0037301Y0032555D02*
X0008700Y0032555D01*
X0008700Y0031557D02*
X0037301Y0031557D01*
X0036495Y0035551D02*
X0008700Y0035551D01*
X0008700Y0036549D02*
X0036419Y0036549D01*
X0036419Y0037548D02*
X0008700Y0037548D01*
X0008700Y0038546D02*
X0036419Y0038546D01*
X0036419Y0039545D02*
X0008700Y0039545D01*
X0008700Y0040543D02*
X0036419Y0040543D01*
X0036419Y0041542D02*
X0008700Y0041542D01*
X0008700Y0042540D02*
X0036419Y0042540D01*
X0036419Y0043539D02*
X0020516Y0043539D01*
X0021089Y0043776D02*
X0022524Y0045211D01*
X0023300Y0047086D01*
X0023300Y0049114D01*
X0022524Y0050989D01*
X0021089Y0052424D01*
X0019456Y0053100D01*
X0021089Y0053776D01*
X0022524Y0055211D01*
X0022892Y0056100D01*
X0027928Y0056100D01*
X0029100Y0057272D01*
X0030100Y0058272D01*
X0030100Y0063272D01*
X0032428Y0065600D01*
X0036419Y0065600D01*
X0036419Y0055884D01*
X0037298Y0055006D01*
X0040902Y0055006D01*
X0041600Y0055703D01*
X0042298Y0055006D01*
X0045902Y0055006D01*
X0046600Y0055703D01*
X0047298Y0055006D01*
X0050902Y0055006D01*
X0051600Y0055703D01*
X0052298Y0055006D01*
X0055902Y0055006D01*
X0056781Y0055884D01*
X0056781Y0057878D01*
X0057408Y0057619D01*
X0058792Y0057619D01*
X0060072Y0058149D01*
X0061051Y0059128D01*
X0061581Y0060408D01*
X0061581Y0061792D01*
X0061051Y0063072D01*
X0060072Y0064051D01*
X0058792Y0064581D01*
X0057408Y0064581D01*
X0056781Y0064322D01*
X0056781Y0065788D01*
X0055902Y0066667D01*
X0052298Y0066667D01*
X0051600Y0065969D01*
X0051100Y0066469D01*
X0051100Y0071428D01*
X0049928Y0072600D01*
X0044928Y0077600D01*
X0035428Y0077600D01*
X0022928Y0090100D01*
X0022892Y0090100D01*
X0022524Y0090989D01*
X0021089Y0092424D01*
X0019456Y0093100D01*
X0021089Y0093776D01*
X0022524Y0095211D01*
X0023300Y0097086D01*
X0023300Y0099114D01*
X0022524Y0100989D01*
X0021089Y0102424D01*
X0019456Y0103100D01*
X0021089Y0103776D01*
X0022524Y0105211D01*
X0023300Y0107086D01*
X0023300Y0109114D01*
X0022524Y0110989D01*
X0021089Y0112424D01*
X0019456Y0113100D01*
X0021089Y0113776D01*
X0022524Y0115211D01*
X0023300Y0117086D01*
X0023300Y0119114D01*
X0022524Y0120989D01*
X0021089Y0122424D01*
X0020942Y0122484D01*
X0098258Y0122484D01*
X0098111Y0122424D01*
X0096676Y0120989D01*
X0095900Y0119114D01*
X0095900Y0117086D01*
X0096676Y0115211D01*
X0098111Y0113776D01*
X0099744Y0113100D01*
X0098111Y0112424D01*
X0096676Y0110989D01*
X0095900Y0109114D01*
X0095900Y0107086D01*
X0096676Y0105211D01*
X0098111Y0103776D01*
X0099744Y0103100D01*
X0098111Y0102424D01*
X0096676Y0100989D01*
X0095900Y0099114D01*
X0095900Y0097086D01*
X0096676Y0095211D01*
X0098111Y0093776D01*
X0099744Y0093100D01*
X0098111Y0092424D01*
X0096676Y0090989D01*
X0095900Y0089114D01*
X0095900Y0087086D01*
X0096676Y0085211D01*
X0098111Y0083776D01*
X0099744Y0083100D01*
X0098111Y0082424D01*
X0096676Y0080989D01*
X0095900Y0079114D01*
X0095900Y0077086D01*
X0096676Y0075211D01*
X0098111Y0073776D01*
X0099744Y0073100D01*
X0098111Y0072424D01*
X0096676Y0070989D01*
X0095900Y0069114D01*
X0095900Y0067086D01*
X0096676Y0065211D01*
X0098111Y0063776D01*
X0099806Y0063074D01*
X0099806Y0063074D01*
X0099042Y0062826D01*
X0098327Y0062462D01*
X0097678Y0061990D01*
X0097110Y0061422D01*
X0096638Y0060773D01*
X0096274Y0060058D01*
X0096026Y0059294D01*
X0095916Y0058600D01*
X0104100Y0058600D01*
X0104100Y0057600D01*
X0095916Y0057600D01*
X0096026Y0056906D01*
X0096274Y0056142D01*
X0096638Y0055427D01*
X0097110Y0054778D01*
X0097678Y0054210D01*
X0098327Y0053738D01*
X0099042Y0053374D01*
X0099806Y0053126D01*
X0098111Y0052424D01*
X0096676Y0050989D01*
X0095900Y0049114D01*
X0095900Y0047086D01*
X0096676Y0045211D01*
X0098111Y0043776D01*
X0099986Y0043000D01*
X0109214Y0043000D01*
X0110673Y0043604D01*
X0110673Y0008700D01*
X0008700Y0008700D01*
X0008700Y0043533D01*
X0009986Y0043000D01*
X0019214Y0043000D01*
X0021089Y0043776D01*
X0021850Y0044537D02*
X0036419Y0044537D01*
X0036673Y0045536D02*
X0022658Y0045536D01*
X0023072Y0046534D02*
X0096128Y0046534D01*
X0095900Y0047533D02*
X0023300Y0047533D01*
X0023300Y0048532D02*
X0095900Y0048532D01*
X0096072Y0049530D02*
X0023128Y0049530D01*
X0022714Y0050529D02*
X0096486Y0050529D01*
X0097215Y0051527D02*
X0021985Y0051527D01*
X0020843Y0052526D02*
X0098357Y0052526D01*
X0098747Y0053524D02*
X0020480Y0053524D01*
X0021835Y0054523D02*
X0097365Y0054523D01*
X0096590Y0055521D02*
X0056418Y0055521D01*
X0056781Y0056520D02*
X0096151Y0056520D01*
X0095929Y0057518D02*
X0056781Y0057518D01*
X0060440Y0058517D02*
X0104100Y0058517D01*
X0099806Y0053126D02*
X0099806Y0053126D01*
X0096097Y0059515D02*
X0061211Y0059515D01*
X0061581Y0060514D02*
X0096506Y0060514D01*
X0097200Y0061512D02*
X0061581Y0061512D01*
X0061284Y0062511D02*
X0098423Y0062511D01*
X0098756Y0063509D02*
X0060614Y0063509D01*
X0058970Y0064508D02*
X0097380Y0064508D01*
X0096554Y0065506D02*
X0056781Y0065506D01*
X0056781Y0064508D02*
X0057230Y0064508D01*
X0056065Y0066505D02*
X0096141Y0066505D01*
X0095900Y0067503D02*
X0051100Y0067503D01*
X0051100Y0066505D02*
X0052135Y0066505D01*
X0051100Y0068502D02*
X0095900Y0068502D01*
X0096060Y0069500D02*
X0051100Y0069500D01*
X0051100Y0070499D02*
X0096473Y0070499D01*
X0097185Y0071497D02*
X0051031Y0071497D01*
X0050033Y0072496D02*
X0098285Y0072496D01*
X0098792Y0073494D02*
X0049034Y0073494D01*
X0048036Y0074493D02*
X0097395Y0074493D01*
X0096560Y0075491D02*
X0047037Y0075491D01*
X0046039Y0076490D02*
X0096147Y0076490D01*
X0095900Y0077488D02*
X0045040Y0077488D01*
X0044100Y0075600D02*
X0049100Y0070600D01*
X0049100Y0060836D01*
X0046600Y0065969D02*
X0046100Y0066469D01*
X0046100Y0069928D01*
X0043600Y0072428D01*
X0042428Y0073600D01*
X0034428Y0073600D01*
X0043272Y0073600D01*
X0047100Y0069772D01*
X0047100Y0066469D01*
X0046600Y0065969D01*
X0046100Y0066505D02*
X0047100Y0066505D01*
X0047100Y0067503D02*
X0046100Y0067503D01*
X0046100Y0068502D02*
X0047100Y0068502D01*
X0047100Y0069500D02*
X0046100Y0069500D01*
X0046373Y0070499D02*
X0045530Y0070499D01*
X0045374Y0071497D02*
X0044531Y0071497D01*
X0044376Y0072496D02*
X0043533Y0072496D01*
X0043377Y0073494D02*
X0042534Y0073494D01*
X0044100Y0075600D02*
X0034600Y0075600D01*
X0022100Y0088100D01*
X0014600Y0088100D01*
X0009744Y0093100D02*
X0008700Y0092667D01*
X0008700Y0093532D01*
X0009744Y0093100D01*
X0008864Y0093465D02*
X0008700Y0093465D01*
X0008700Y0102667D02*
X0009744Y0103100D01*
X0008700Y0103532D01*
X0008700Y0102667D01*
X0008700Y0103450D02*
X0008900Y0103450D01*
X0008700Y0112667D02*
X0009744Y0113100D01*
X0008700Y0113532D01*
X0008700Y0112667D01*
X0008700Y0113435D02*
X0008936Y0113435D01*
X0020264Y0113435D02*
X0098936Y0113435D01*
X0098142Y0112436D02*
X0021058Y0112436D01*
X0022075Y0111438D02*
X0097125Y0111438D01*
X0096449Y0110439D02*
X0022751Y0110439D01*
X0023165Y0109441D02*
X0096035Y0109441D01*
X0095900Y0108442D02*
X0023300Y0108442D01*
X0023300Y0107444D02*
X0095900Y0107444D01*
X0096165Y0106445D02*
X0023035Y0106445D01*
X0022621Y0105447D02*
X0096579Y0105447D01*
X0097439Y0104448D02*
X0021761Y0104448D01*
X0020300Y0103450D02*
X0098900Y0103450D01*
X0098178Y0102451D02*
X0021022Y0102451D01*
X0022060Y0101453D02*
X0097140Y0101453D01*
X0096455Y0100454D02*
X0022745Y0100454D01*
X0023159Y0099456D02*
X0096041Y0099456D01*
X0095900Y0098457D02*
X0023300Y0098457D01*
X0023300Y0097459D02*
X0095900Y0097459D01*
X0096159Y0096460D02*
X0023041Y0096460D01*
X0022627Y0095462D02*
X0096573Y0095462D01*
X0097424Y0094463D02*
X0021776Y0094463D01*
X0020336Y0093465D02*
X0098864Y0093465D01*
X0098214Y0092466D02*
X0020986Y0092466D01*
X0022045Y0091468D02*
X0097155Y0091468D01*
X0096461Y0090469D02*
X0022739Y0090469D01*
X0023558Y0089470D02*
X0096047Y0089470D01*
X0095900Y0088472D02*
X0024556Y0088472D01*
X0025555Y0087473D02*
X0095900Y0087473D01*
X0096153Y0086475D02*
X0026553Y0086475D01*
X0027552Y0085476D02*
X0096566Y0085476D01*
X0097410Y0084478D02*
X0028550Y0084478D01*
X0029549Y0083479D02*
X0098828Y0083479D01*
X0098250Y0082481D02*
X0030548Y0082481D01*
X0031546Y0081482D02*
X0097170Y0081482D01*
X0096467Y0080484D02*
X0032545Y0080484D01*
X0033543Y0079485D02*
X0096054Y0079485D01*
X0095900Y0078487D02*
X0034542Y0078487D01*
X0034428Y0073600D02*
X0034428Y0073600D01*
X0033600Y0071600D02*
X0027100Y0078100D01*
X0014600Y0078100D01*
X0009744Y0083100D02*
X0008700Y0082667D01*
X0008700Y0083532D01*
X0009744Y0083100D01*
X0008828Y0083479D02*
X0008700Y0083479D01*
X0008700Y0073533D02*
X0009744Y0073100D01*
X0008700Y0072667D01*
X0008700Y0073533D01*
X0008700Y0073494D02*
X0008792Y0073494D01*
X0008700Y0063533D02*
X0009744Y0063100D01*
X0008700Y0062667D01*
X0008700Y0063533D01*
X0008700Y0063509D02*
X0008756Y0063509D01*
X0014600Y0058100D02*
X0027100Y0058100D01*
X0028100Y0059100D01*
X0028100Y0064100D01*
X0031600Y0067600D01*
X0037600Y0067600D01*
X0039100Y0066100D01*
X0039100Y0060836D01*
X0036419Y0060514D02*
X0030100Y0060514D01*
X0030100Y0061512D02*
X0036419Y0061512D01*
X0036419Y0062511D02*
X0030100Y0062511D01*
X0030338Y0063509D02*
X0036419Y0063509D01*
X0036419Y0064508D02*
X0031336Y0064508D01*
X0032335Y0065506D02*
X0036419Y0065506D01*
X0039527Y0068502D02*
X0041870Y0068502D01*
X0042100Y0068272D02*
X0042100Y0066469D01*
X0041600Y0065969D01*
X0041100Y0066469D01*
X0041100Y0066928D01*
X0039600Y0068428D01*
X0038428Y0069600D01*
X0030772Y0069600D01*
X0027272Y0066100D01*
X0026100Y0064928D01*
X0026100Y0060100D01*
X0022892Y0060100D01*
X0022524Y0060989D01*
X0021089Y0062424D01*
X0019456Y0063100D01*
X0021089Y0063776D01*
X0022524Y0065211D01*
X0023300Y0067086D01*
X0023300Y0069114D01*
X0022524Y0070989D01*
X0021089Y0072424D01*
X0019456Y0073100D01*
X0021089Y0073776D01*
X0022524Y0075211D01*
X0022892Y0076100D01*
X0026272Y0076100D01*
X0032772Y0069600D01*
X0040772Y0069600D01*
X0042100Y0068272D01*
X0042100Y0067503D02*
X0040525Y0067503D01*
X0041100Y0066505D02*
X0042100Y0066505D01*
X0040871Y0069500D02*
X0038528Y0069500D01*
X0041600Y0071600D02*
X0033600Y0071600D01*
X0031873Y0070499D02*
X0022727Y0070499D01*
X0023140Y0069500D02*
X0030672Y0069500D01*
X0029673Y0068502D02*
X0023300Y0068502D01*
X0023300Y0067503D02*
X0028675Y0067503D01*
X0027676Y0066505D02*
X0023059Y0066505D01*
X0022646Y0065506D02*
X0026678Y0065506D01*
X0026100Y0064508D02*
X0021820Y0064508D01*
X0020444Y0063509D02*
X0026100Y0063509D01*
X0026100Y0062511D02*
X0020879Y0062511D01*
X0022000Y0061512D02*
X0026100Y0061512D01*
X0026100Y0060514D02*
X0022720Y0060514D01*
X0022652Y0055521D02*
X0036782Y0055521D01*
X0036419Y0056520D02*
X0028348Y0056520D01*
X0029347Y0057518D02*
X0036419Y0057518D01*
X0036419Y0058517D02*
X0030100Y0058517D01*
X0030100Y0059515D02*
X0036419Y0059515D01*
X0041418Y0055521D02*
X0041782Y0055521D01*
X0046418Y0055521D02*
X0046782Y0055521D01*
X0051418Y0055521D02*
X0051782Y0055521D01*
X0044100Y0060836D02*
X0044100Y0069100D01*
X0041600Y0071600D01*
X0030874Y0071497D02*
X0022015Y0071497D01*
X0020915Y0072496D02*
X0029876Y0072496D01*
X0028877Y0073494D02*
X0020408Y0073494D01*
X0021805Y0074493D02*
X0027879Y0074493D01*
X0026880Y0075491D02*
X0022640Y0075491D01*
X0022892Y0080100D02*
X0022524Y0080989D01*
X0021089Y0082424D01*
X0019456Y0083100D01*
X0021089Y0083776D01*
X0022342Y0085030D01*
X0027272Y0080100D01*
X0022892Y0080100D01*
X0022733Y0080484D02*
X0026888Y0080484D01*
X0025889Y0081482D02*
X0022030Y0081482D01*
X0020950Y0082481D02*
X0024891Y0082481D01*
X0023892Y0083479D02*
X0020372Y0083479D01*
X0021790Y0084478D02*
X0022894Y0084478D01*
X0021746Y0114433D02*
X0097454Y0114433D01*
X0096585Y0115432D02*
X0022615Y0115432D01*
X0023029Y0116430D02*
X0096171Y0116430D01*
X0095900Y0117429D02*
X0023300Y0117429D01*
X0023300Y0118427D02*
X0095900Y0118427D01*
X0096029Y0119426D02*
X0023171Y0119426D01*
X0022757Y0120424D02*
X0096443Y0120424D01*
X0097110Y0121423D02*
X0022090Y0121423D01*
X0021091Y0122421D02*
X0098109Y0122421D01*
X0109456Y0113100D02*
X0110673Y0113604D01*
X0110673Y0112596D01*
X0109456Y0113100D01*
X0110264Y0113435D02*
X0110673Y0113435D01*
X0110673Y0103604D02*
X0109456Y0103100D01*
X0110673Y0102596D01*
X0110673Y0103604D01*
X0110673Y0103450D02*
X0110300Y0103450D01*
X0110673Y0093604D02*
X0110673Y0092596D01*
X0109456Y0093100D01*
X0110673Y0093604D01*
X0110673Y0093465D02*
X0110336Y0093465D01*
X0110673Y0083604D02*
X0109456Y0083100D01*
X0110673Y0082596D01*
X0110673Y0083604D01*
X0110673Y0083479D02*
X0110372Y0083479D01*
X0110673Y0073604D02*
X0110673Y0072596D01*
X0109456Y0073100D01*
X0110673Y0073604D01*
X0110673Y0073494D02*
X0110408Y0073494D01*
X0110673Y0063604D02*
X0109394Y0063074D01*
X0109394Y0063074D01*
X0110158Y0062826D01*
X0110673Y0062564D01*
X0110673Y0063604D01*
X0110673Y0063509D02*
X0110444Y0063509D01*
X0110673Y0053636D02*
X0110673Y0052596D01*
X0109394Y0053126D01*
X0109394Y0053126D01*
X0110158Y0053374D01*
X0110673Y0053636D01*
X0110673Y0053524D02*
X0110453Y0053524D01*
X0110516Y0043539D02*
X0110673Y0043539D01*
X0110673Y0042540D02*
X0059764Y0042540D01*
X0060976Y0041542D02*
X0110673Y0041542D01*
X0110673Y0040543D02*
X0061975Y0040543D01*
X0062973Y0039545D02*
X0110673Y0039545D01*
X0110673Y0038546D02*
X0063972Y0038546D01*
X0064970Y0037548D02*
X0110673Y0037548D01*
X0110673Y0036549D02*
X0065969Y0036549D01*
X0066967Y0035551D02*
X0110673Y0035551D01*
X0110673Y0034552D02*
X0067966Y0034552D01*
X0068965Y0033554D02*
X0110673Y0033554D01*
X0110673Y0032555D02*
X0069963Y0032555D01*
X0070919Y0031557D02*
X0110673Y0031557D01*
X0110673Y0030558D02*
X0071300Y0030558D01*
X0071300Y0029560D02*
X0110673Y0029560D01*
X0110673Y0028561D02*
X0071300Y0028561D01*
X0071300Y0027563D02*
X0110673Y0027563D01*
X0110673Y0026564D02*
X0071300Y0026564D01*
X0071300Y0025566D02*
X0110673Y0025566D01*
X0110673Y0024567D02*
X0071997Y0024567D01*
X0072655Y0023569D02*
X0110673Y0023569D01*
X0110673Y0022570D02*
X0073069Y0022570D01*
X0073100Y0021572D02*
X0110673Y0021572D01*
X0110673Y0020573D02*
X0073100Y0020573D01*
X0073100Y0019575D02*
X0110673Y0019575D01*
X0110673Y0018576D02*
X0073100Y0018576D01*
X0073100Y0017578D02*
X0110673Y0017578D01*
X0110673Y0016579D02*
X0073100Y0016579D01*
X0073100Y0015581D02*
X0110673Y0015581D01*
X0110673Y0014582D02*
X0073049Y0014582D01*
X0072636Y0013584D02*
X0110673Y0013584D01*
X0110673Y0012585D02*
X0071949Y0012585D01*
X0070670Y0011587D02*
X0110673Y0011587D01*
X0110673Y0010588D02*
X0008700Y0010588D01*
X0008700Y0009590D02*
X0110673Y0009590D01*
X0098684Y0043539D02*
X0056781Y0043539D01*
X0056781Y0044537D02*
X0097350Y0044537D01*
X0096542Y0045536D02*
X0056561Y0045536D01*
X0051639Y0045536D02*
X0051561Y0045536D01*
X0046639Y0045536D02*
X0046527Y0045536D01*
X0046400Y0034552D02*
X0045551Y0034552D01*
X0045161Y0033554D02*
X0045039Y0033554D01*
X0051800Y0034552D02*
X0052278Y0034552D01*
X0052519Y0033554D02*
X0061328Y0033554D01*
X0062326Y0032555D02*
X0052899Y0032555D01*
X0052899Y0031557D02*
X0063325Y0031557D01*
X0064323Y0030558D02*
X0052899Y0030558D01*
X0052899Y0029560D02*
X0065322Y0029560D01*
X0065900Y0028561D02*
X0052899Y0028561D01*
X0052899Y0027563D02*
X0065900Y0027563D01*
X0065900Y0026564D02*
X0052899Y0026564D01*
X0052439Y0025566D02*
X0056471Y0025566D01*
X0056241Y0025449D02*
X0055668Y0025032D01*
X0055168Y0024532D01*
X0054751Y0023959D01*
X0054430Y0023327D01*
X0054211Y0022654D01*
X0054100Y0021954D01*
X0054100Y0019100D01*
X0058100Y0019100D01*
X0058100Y0026077D01*
X0057546Y0025989D01*
X0056873Y0025770D01*
X0056241Y0025449D01*
X0055203Y0024567D02*
X0052100Y0024567D01*
X0052655Y0023569D02*
X0054553Y0023569D01*
X0054198Y0022570D02*
X0053069Y0022570D01*
X0053100Y0021572D02*
X0054100Y0021572D01*
X0054100Y0020573D02*
X0053100Y0020573D01*
X0053100Y0019575D02*
X0054100Y0019575D01*
X0053100Y0018576D02*
X0058100Y0018576D01*
X0058100Y0018100D02*
X0058100Y0019100D01*
X0059100Y0019100D01*
X0059100Y0026077D01*
X0059654Y0025989D01*
X0060327Y0025770D01*
X0060959Y0025449D01*
X0061532Y0025032D01*
X0062032Y0024532D01*
X0062449Y0023959D01*
X0062770Y0023327D01*
X0062989Y0022654D01*
X0063100Y0021954D01*
X0063100Y0019100D01*
X0059100Y0019100D01*
X0059100Y0018100D01*
X0063100Y0018100D01*
X0063100Y0015246D01*
X0062989Y0014546D01*
X0062770Y0013873D01*
X0062449Y0013241D01*
X0062032Y0012668D01*
X0061532Y0012168D01*
X0060959Y0011751D01*
X0060327Y0011430D01*
X0059654Y0011211D01*
X0059100Y0011123D01*
X0059100Y0018100D01*
X0058100Y0018100D01*
X0054100Y0018100D01*
X0054100Y0015246D01*
X0054211Y0014546D01*
X0054430Y0013873D01*
X0054751Y0013241D01*
X0055168Y0012668D01*
X0055668Y0012168D01*
X0056241Y0011751D01*
X0056873Y0011430D01*
X0057546Y0011211D01*
X0058100Y0011123D01*
X0058100Y0018100D01*
X0058100Y0017578D02*
X0059100Y0017578D01*
X0059100Y0018576D02*
X0064100Y0018576D01*
X0064100Y0017578D02*
X0063100Y0017578D01*
X0063100Y0016579D02*
X0064100Y0016579D01*
X0064100Y0015581D02*
X0063100Y0015581D01*
X0062995Y0014582D02*
X0064151Y0014582D01*
X0064564Y0013584D02*
X0062623Y0013584D01*
X0061949Y0012585D02*
X0065251Y0012585D01*
X0066530Y0011587D02*
X0060635Y0011587D01*
X0059100Y0011587D02*
X0058100Y0011587D01*
X0058100Y0012585D02*
X0059100Y0012585D01*
X0059100Y0013584D02*
X0058100Y0013584D01*
X0058100Y0014582D02*
X0059100Y0014582D01*
X0059100Y0015581D02*
X0058100Y0015581D01*
X0058100Y0016579D02*
X0059100Y0016579D01*
X0059100Y0019575D02*
X0058100Y0019575D01*
X0058100Y0020573D02*
X0059100Y0020573D01*
X0059100Y0021572D02*
X0058100Y0021572D01*
X0058100Y0022570D02*
X0059100Y0022570D01*
X0059100Y0023569D02*
X0058100Y0023569D01*
X0058100Y0024567D02*
X0059100Y0024567D01*
X0059100Y0025566D02*
X0058100Y0025566D01*
X0060729Y0025566D02*
X0065900Y0025566D01*
X0065203Y0024567D02*
X0061997Y0024567D01*
X0062647Y0023569D02*
X0064545Y0023569D01*
X0064131Y0022570D02*
X0063002Y0022570D01*
X0063100Y0021572D02*
X0064100Y0021572D01*
X0064100Y0020573D02*
X0063100Y0020573D01*
X0063100Y0019575D02*
X0064100Y0019575D01*
X0056565Y0011587D02*
X0050670Y0011587D01*
X0051949Y0012585D02*
X0055251Y0012585D01*
X0054577Y0013584D02*
X0052636Y0013584D01*
X0053049Y0014582D02*
X0054205Y0014582D01*
X0054100Y0015581D02*
X0053100Y0015581D01*
X0053100Y0016579D02*
X0054100Y0016579D01*
X0054100Y0017578D02*
X0053100Y0017578D01*
X0046530Y0011587D02*
X0008700Y0011587D01*
X0008700Y0012585D02*
X0045251Y0012585D01*
X0044564Y0013584D02*
X0008700Y0013584D01*
X0008700Y0014582D02*
X0044151Y0014582D01*
X0044100Y0015581D02*
X0008700Y0015581D01*
X0008700Y0016579D02*
X0044100Y0016579D01*
X0044100Y0017578D02*
X0008700Y0017578D01*
X0008700Y0018576D02*
X0044100Y0018576D01*
X0044100Y0019575D02*
X0008700Y0019575D01*
X0008700Y0020573D02*
X0044100Y0020573D01*
X0044100Y0021572D02*
X0008700Y0021572D01*
X0008700Y0022570D02*
X0044131Y0022570D01*
X0044545Y0023569D02*
X0008700Y0023569D01*
X0008700Y0024567D02*
X0045100Y0024567D01*
X0045100Y0025566D02*
X0044959Y0025566D01*
X0045100Y0025707D02*
X0045100Y0025707D01*
X0055922Y0034552D02*
X0060329Y0034552D01*
X0059331Y0035551D02*
X0056781Y0035551D01*
X0056781Y0036549D02*
X0058332Y0036549D01*
X0009744Y0053100D02*
X0008700Y0052667D01*
X0008700Y0053533D01*
X0009744Y0053100D01*
X0008720Y0053524D02*
X0008700Y0053524D01*
D16*
X0048840Y0029600D02*
X0049100Y0029860D01*
X0049100Y0040364D01*
X0054100Y0040364D02*
X0054364Y0040100D01*
X0058600Y0040100D01*
X0068600Y0030100D01*
X0068600Y0018600D01*
D17*
X0048600Y0018600D02*
X0048600Y0029360D01*
X0048840Y0029600D01*
D18*
X0057600Y0029600D03*
X0060600Y0045100D03*
X0058100Y0061100D03*
X0082600Y0049600D03*
X0086100Y0067600D03*
X0078100Y0024600D03*
X0035100Y0019600D03*
X0033100Y0030100D03*
X0033100Y0039100D03*
D19*
X0054100Y0060836D02*
X0057836Y0060836D01*
X0058100Y0061100D01*
M02*
