G75*
%MOIN*%
%OFA0B0*%
%FSLAX25Y25*%
%IPPOS*%
%LPD*%
%AMOC8*
5,1,8,0,0,1.08239X$1,22.5*
%
%ADD10R,0.05118X0.05906*%
%ADD11OC8,0.10000*%
%ADD12C,0.05150*%
%ADD13C,0.05150*%
%ADD14C,0.14000*%
%ADD15C,0.07200*%
%ADD16C,0.03200*%
%ADD17C,0.07600*%
D10*
X0406760Y0224000D03*
X0414240Y0224000D03*
X0414740Y0235000D03*
X0407260Y0235000D03*
D11*
X0533031Y0236157D03*
X0533031Y0255843D03*
X0533031Y0306157D03*
X0533031Y0325843D03*
D12*
X0507575Y0270000D02*
X0502425Y0270000D01*
X0434575Y0270000D02*
X0429425Y0270000D01*
X0429425Y0218000D02*
X0434575Y0218000D01*
X0502425Y0218000D02*
X0507575Y0218000D01*
D13*
X0435000Y0291354D03*
X0435000Y0301354D03*
X0435000Y0311354D03*
X0435000Y0321354D03*
X0435000Y0331000D03*
X0435000Y0341000D03*
X0435000Y0351000D03*
X0486000Y0326000D03*
X0486000Y0316000D03*
D14*
X0490000Y0296000D03*
X0490000Y0346000D03*
D15*
X0393600Y0316000D02*
X0386400Y0316000D01*
X0386400Y0306000D02*
X0393600Y0306000D01*
X0393600Y0296000D02*
X0386400Y0296000D01*
X0386400Y0286000D02*
X0393600Y0286000D01*
X0393600Y0276000D02*
X0386400Y0276000D01*
X0386400Y0266000D02*
X0393600Y0266000D01*
X0393600Y0256000D02*
X0386400Y0256000D01*
X0386400Y0246000D02*
X0393600Y0246000D01*
X0303600Y0246000D02*
X0296400Y0246000D01*
X0296400Y0256000D02*
X0303600Y0256000D01*
X0303600Y0266000D02*
X0296400Y0266000D01*
X0296400Y0276000D02*
X0303600Y0276000D01*
X0303600Y0286000D02*
X0296400Y0286000D01*
X0296400Y0296000D02*
X0303600Y0296000D01*
X0303600Y0306000D02*
X0296400Y0306000D01*
X0296400Y0316000D02*
X0303600Y0316000D01*
D16*
X0419500Y0223500D02*
X0419500Y0209500D01*
X0421000Y0208000D01*
X0486000Y0208000D01*
X0496000Y0218000D01*
X0505000Y0218000D01*
X0533031Y0236157D02*
X0450157Y0236157D01*
X0432000Y0218000D01*
X0419500Y0223500D02*
X0419000Y0224000D01*
X0414240Y0224000D01*
X0419500Y0223500D02*
X0419500Y0235500D01*
X0419000Y0235000D01*
X0414740Y0235000D01*
X0419500Y0235500D02*
X0419500Y0250000D01*
X0415500Y0246000D01*
X0390000Y0246000D01*
X0390000Y0256000D02*
X0404500Y0256000D01*
X0411000Y0262500D01*
X0411000Y0284500D01*
X0427854Y0301354D01*
X0435000Y0301354D01*
X0435146Y0301500D01*
X0450000Y0301500D01*
X0455500Y0296000D01*
X0455500Y0278000D01*
X0463500Y0270000D01*
X0505000Y0270000D01*
X0533031Y0255843D02*
X0446157Y0255843D01*
X0432000Y0270000D01*
X0419500Y0279000D02*
X0419500Y0250000D01*
X0407260Y0235000D02*
X0406760Y0234500D01*
X0406760Y0224000D01*
X0406760Y0216260D01*
X0402000Y0211500D01*
X0343500Y0256000D02*
X0300000Y0256000D01*
X0343500Y0256000D02*
X0358000Y0270500D01*
X0358000Y0340500D01*
X0377500Y0360000D01*
X0442500Y0360000D01*
X0446000Y0356500D01*
X0446000Y0345000D01*
X0442000Y0341000D01*
X0435000Y0341000D01*
X0435000Y0351000D02*
X0384000Y0351000D01*
X0370000Y0337000D01*
X0370000Y0271000D01*
X0375000Y0266000D01*
X0390000Y0266000D01*
X0419500Y0279000D02*
X0431854Y0291354D01*
X0435000Y0291354D01*
X0409000Y0309500D02*
X0405500Y0306000D01*
X0390000Y0306000D01*
X0409000Y0309500D02*
X0409000Y0327500D01*
X0412500Y0331000D01*
X0435000Y0331000D01*
X0454500Y0320500D02*
X0445500Y0311500D01*
X0435146Y0311500D01*
X0435000Y0311354D01*
X0454500Y0320500D02*
X0454500Y0361000D01*
X0445000Y0370500D01*
X0367500Y0370500D01*
X0345500Y0348500D01*
X0345500Y0296500D01*
X0335000Y0286000D01*
X0300000Y0286000D01*
X0486000Y0316000D02*
X0523189Y0316000D01*
X0533031Y0306157D01*
X0533031Y0325843D02*
X0486157Y0325843D01*
X0486000Y0326000D01*
D17*
X0402000Y0211500D03*
M02*
