G75*
%MOIN*%
%OFA0B0*%
%FSLAX25Y25*%
%IPPOS*%
%LPD*%
%AMOC8*
5,1,8,0,0,1.08239X$1,22.5*
%
%ADD10OC8,0.10000*%
%ADD11C,0.05150*%
%ADD12C,0.05150*%
%ADD13C,0.14000*%
%ADD14C,0.07200*%
%ADD15C,0.07600*%
D10*
X0533031Y0236157D03*
X0533031Y0255843D03*
X0533031Y0306157D03*
X0533031Y0325843D03*
D11*
X0507575Y0270000D02*
X0502425Y0270000D01*
X0434575Y0270000D02*
X0429425Y0270000D01*
X0429425Y0218000D02*
X0434575Y0218000D01*
X0502425Y0218000D02*
X0507575Y0218000D01*
D12*
X0435000Y0291354D03*
X0435000Y0301354D03*
X0435000Y0311354D03*
X0435000Y0321354D03*
X0435000Y0331000D03*
X0435000Y0341000D03*
X0435000Y0351000D03*
X0486000Y0326000D03*
X0486000Y0316000D03*
D13*
X0490000Y0296000D03*
X0490000Y0346000D03*
D14*
X0393600Y0316000D02*
X0386400Y0316000D01*
X0386400Y0306000D02*
X0393600Y0306000D01*
X0393600Y0296000D02*
X0386400Y0296000D01*
X0386400Y0286000D02*
X0393600Y0286000D01*
X0393600Y0276000D02*
X0386400Y0276000D01*
X0386400Y0266000D02*
X0393600Y0266000D01*
X0393600Y0256000D02*
X0386400Y0256000D01*
X0386400Y0246000D02*
X0393600Y0246000D01*
X0303600Y0246000D02*
X0296400Y0246000D01*
X0296400Y0256000D02*
X0303600Y0256000D01*
X0303600Y0266000D02*
X0296400Y0266000D01*
X0296400Y0276000D02*
X0303600Y0276000D01*
X0303600Y0286000D02*
X0296400Y0286000D01*
X0296400Y0296000D02*
X0303600Y0296000D01*
X0303600Y0306000D02*
X0296400Y0306000D01*
X0296400Y0316000D02*
X0303600Y0316000D01*
D15*
X0402000Y0211500D03*
M02*
